<?xml version="1.0" encoding="utf-8"?>
<!-- Generator: Adobe Illustrator 21.0.0, SVG Export Plug-In . SVG Version: 6.00 Build 0)  -->
<!DOCTYPE svg PUBLIC "-//W3C//DTD SVG 1.1//EN" "http://www.w3.org/Graphics/SVG/1.1/DTD/svg11.dtd">
<svg version="1.1" id="Ebene_1" xmlns="http://www.w3.org/2000/svg" xmlns:xlink="http://www.w3.org/1999/xlink" x="0px" y="0px"
	 width="30px" height="30px" viewBox="0 0 30 30" style="enable-background:new 0 0 30 30;" xml:space="preserve">
<style type="text/css">
	.st0{fill:#817E65;}
</style>
<title>services-blau</title>
<g>
	<path class="st0" d="M12.1,21.2c-5,0-9.1-4.1-9.1-9.1C3,7,7,3,12.1,3c5,0,9.1,4.1,9.1,9.1C21.2,17.1,17.1,21.2,12.1,21.2z
		 M12.1,4.1c-4.4,0-8,3.6-8,8c0,4.4,3.6,8,8,8c4.4,0,8-3.6,8-8C20.1,7.6,16.5,4.1,12.1,4.1z"/>
</g>
<g>
	<path class="st0" d="M23.3,27c-0.2,0-0.4,0-0.5-0.1c-0.1,0-0.2-0.1-0.2-0.1l-5.3-5.3c-0.1-0.1-0.2-0.3-0.2-0.5
		c0-0.2,0.1-0.3,0.3-0.4l2.1-1.2l1.2-2.1c0.1-0.1,0.2-0.2,0.4-0.3c0.2,0,0.3,0,0.5,0.2l5.3,5.3c0.1,0.1,0.1,0.2,0.1,0.3
		c0.4,0.7-0.3,1.9-1.3,2.8C25,26.3,24,27,23.3,27z M23.2,25.9C23.3,25.9,23.3,25.9,23.2,25.9c0.3,0,1-0.3,1.7-1c0.7-0.7,1-1.4,1-1.6
		c0,0,0-0.1,0-0.1l-4.6-4.6l-0.9,1.6c0,0.1-0.1,0.2-0.2,0.2l-1.6,0.9L23.2,25.9z"/>
</g>
</svg>
