<?xml version="1.0" encoding="utf-8"?>
<!-- Generator: Adobe Illustrator 21.0.0, SVG Export Plug-In . SVG Version: 6.00 Build 0)  -->
<!DOCTYPE svg PUBLIC "-//W3C//DTD SVG 1.1//EN" "http://www.w3.org/Graphics/SVG/1.1/DTD/svg11.dtd">
<svg version="1.1" id="Ebene_1" xmlns="http://www.w3.org/2000/svg" xmlns:xlink="http://www.w3.org/1999/xlink" x="0px" y="0px"
	 width="30px" height="30px" viewBox="0 0 30 30" style="enable-background:new 0 0 30 30;" xml:space="preserve">
<style type="text/css">
	.st0{fill:#0069B4;}
</style>
<title>services-blau</title>
<g>
	<path class="st0" d="M23.7,15.8c-0.3,0-0.5,0.2-0.5,0.5v8h-6v-4.7c0-0.3-0.2-0.5-0.5-0.5h-3.3c-0.3,0-0.5,0.2-0.5,0.5v4.7h-6v-8
		c0-0.3-0.2-0.5-0.5-0.5c-0.3,0-0.5,0.2-0.5,0.5v8.6c0,0.3,0.2,0.5,0.5,0.5h7.1c0.3,0,0.5-0.2,0.5-0.5v-4.7h2.2v4.7
		c0,0.3,0.2,0.5,0.5,0.5h7.1c0.3,0,0.5-0.2,0.5-0.5v-8.6C24.3,16.1,24,15.8,23.7,15.8z"/>
	<path class="st0" d="M15.4,4.7c-0.1-0.1-0.2-0.1-0.4-0.1c-0.1,0-0.2,0-0.3,0.1L3.2,14.5C3.1,14.6,3,14.7,3,14.9
		c0,0.1,0,0.3,0.1,0.4c0.2,0.2,0.5,0.2,0.8,0.1L15,5.8l0.1,0.1l10.9,9.4c0.2,0.2,0.6,0.2,0.8-0.1c0.2-0.2,0.2-0.6-0.1-0.8L15.4,4.7z
		"/>
</g>
</svg>
