<?xml version="1.0" encoding="utf-8"?>
<!-- Generator: Adobe Illustrator 21.0.0, SVG Export Plug-In . SVG Version: 6.00 Build 0)  -->
<!DOCTYPE svg PUBLIC "-//W3C//DTD SVG 1.1//EN" "http://www.w3.org/Graphics/SVG/1.1/DTD/svg11.dtd">
<svg version="1.1" id="Ebene_1" xmlns="http://www.w3.org/2000/svg" xmlns:xlink="http://www.w3.org/1999/xlink" x="0px" y="0px"
	 width="30px" height="30px" viewBox="0 0 30 30" style="enable-background:new 0 0 30 30;" xml:space="preserve">
<style type="text/css">
	.st0{fill:#FFFFFF;}
</style>
<title>services-blau</title>
<g>
	<path class="st0" d="M10,8.3C9.9,8.6,9.9,8.8,9.8,9C9.3,9.2,9,9.6,9,10.1v1.5c0,0.5,0.3,0.9,0.7,1.1c0,0,0,0.1,0,0.1l0,0
		c0,1.1,0.4,2.2,1.1,3c0.2,0.3,0.4,0.5,0.7,0.7c1,0.9,2.2,1.3,3.5,1.3c1.3,0,2.5-0.5,3.5-1.3c0.3-0.2,0.5-0.5,0.7-0.7
		c0.7-0.9,1-1.9,1.1-3c0,0,0-0.1,0-0.1c0,0,0,0,0,0c0.4-0.2,0.7-0.6,0.7-1.1v-1.5c0,0,0-0.1,0-0.1c0,0,0,0,0,0c0,0,0,0,0,0
		c0.5-0.8,0.7-1.6,0.5-2.2c-0.2-0.6-0.7-1-1-1.2c0.1-0.4,0.1-0.8-0.1-1.1c-0.4-0.6-1.1-0.6-1.2-0.6h-5.9c-1.2,0-1.6-0.7-1.6-0.7
		C11.5,4.1,11.4,4,11.3,4c-0.2,0-0.3,0.1-0.4,0.2c-0.3,0.5-0.3,0.9-0.3,1.2c-0.1-0.1-0.2-0.1-0.2-0.2c-0.3-0.5,0-1.2,0.1-1.5
		c0.1-0.2,0.1-0.3-0.1-0.5C10.4,3.1,10.2,3,10,3.1C8.2,3.5,7.5,5,7.6,6.1C7.7,7,8.4,8.1,10,8.3z M9.7,5.6c0.4,0.6,1.1,0.9,2.1,0.9
		c0.2,0,0.4-0.1,0.4-0.3c0-0.2-0.1-0.4-0.2-0.5c-0.1,0-0.3-0.2-0.4-0.4c0.4,0.2,0.9,0.5,1.7,0.5h5.9c0.1,0,0.4,0.1,0.5,0.2
		c0.1,0.1,0,0.4-0.1,0.7c-0.1,0.1-0.1,0.2,0,0.4c0,0.1,0.1,0.2,0.3,0.3c0,0,0.7,0.3,0.9,0.8c0.1,0.3,0,0.7-0.2,1.1
		c-0.1-0.1-0.2-0.1-0.3-0.1c0-0.3-0.1-0.7-0.3-1c-0.1-0.3-0.4-0.5-0.8-0.5h-8.3c-0.1,0-0.1,0-0.1,0l0,0C9.2,7.5,8.6,6.7,8.5,6
		C8.4,5.5,8.6,4.7,9.4,4.3C9.3,4.8,9.4,5.3,9.7,5.6z M10.7,9.8L10.7,9.8c0-0.5,0.1-1,0.2-1.5c0,0,0,0,0,0h8.2
		c0.2,0.5,0.2,0.9,0.2,1.4v0.1h0.4c0.2,0,0.3,0.1,0.3,0.3v1.5c0,0.2-0.1,0.3-0.3,0.3c-0.2,0-0.4,0.6-0.4,0.8c0,1.1-0.4,2.2-1.3,3
		c-0.3,0.3-0.6,0.5-0.9,0.7c-0.7,0.4-1.4,0.6-2.1,0.6c-0.8,0-1.5-0.2-2.1-0.6c-0.3-0.2-0.7-0.4-0.9-0.7c-0.8-0.8-1.3-1.9-1.3-3.1
		c-0.1-0.2-0.2-0.8-0.4-0.8c-0.2,0-0.3-0.1-0.3-0.3v-1.5c0-0.2,0.1-0.3,0.3-0.3H10.7z"/>
	<path class="st0" d="M20.4,17.8h-2.7l0,0c-0.3,0.3-0.6,0.5-0.9,0.7l-0.2,0.1h3.9c2.2,0,4,1.8,4,4v3.6c0,0.2,0.2,0.4,0.4,0.4
		c0.2,0,0.4-0.2,0.4-0.4v-3.6C25.4,20,23.1,17.8,20.4,17.8z"/>
	<path class="st0" d="M13.2,18.5c-0.3-0.2-0.7-0.4-0.9-0.7l0,0H9.5c-2.7,0-4.9,2.2-4.9,4.9v3.6c0,0.2,0.2,0.4,0.4,0.4
		c0.2,0,0.4-0.2,0.4-0.4v-3.6c0-2.2,1.8-4,4-4h3.9L13.2,18.5z"/>
	<path class="st0" d="M16.5,19.3c0-0.4-0.4-0.8-0.8-0.8h-1.5c-0.3,0-0.6,0.2-0.7,0.5c-0.1,0.3-0.1,0.7,0.2,0.9l0.4,0.4l-0.7,4
		c0,0.2,0,0.3,0.1,0.5l0.7,1.5c0.1,0.3,0.4,0.4,0.7,0.4c0.3,0,0.6-0.2,0.7-0.4l0.7-1.5c0.1-0.2,0.1-0.3,0.1-0.5l-0.7-4l0.4-0.4
		C16.4,19.8,16.5,19.6,16.5,19.3z M15,20.5l0.7,4L15,25.8l-0.7-1.3L15,20.5z M15,20l-0.6-0.6h1.1L15,20z"/>
	<path class="st0" d="M12.4,15c0,0,0.1,0,0.1,0c0.2,0,0.3-0.1,0.4-0.3c0,0,0.4-1.1,1.8-1.1c0,0,0,0,0,0c1.5,0,1.9,1,1.9,1
		c0.1,0.2,0.3,0.3,0.5,0.2c0.2-0.1,0.3-0.3,0.2-0.5c0-0.1-0.6-1.5-2.6-1.5c0,0,0,0-0.1,0c-2,0-2.5,1.5-2.6,1.6c0,0.1,0,0.2,0,0.3
		C12.2,14.9,12.3,15,12.4,15z"/>
</g>
</svg>
