<?xml version="1.0" encoding="utf-8"?>
<!-- Generator: Adobe Illustrator 21.0.0, SVG Export Plug-In . SVG Version: 6.00 Build 0)  -->
<!DOCTYPE svg PUBLIC "-//W3C//DTD SVG 1.1//EN" "http://www.w3.org/Graphics/SVG/1.1/DTD/svg11.dtd">
<svg version="1.1" id="Ebene_1" xmlns="http://www.w3.org/2000/svg" xmlns:xlink="http://www.w3.org/1999/xlink" x="0px" y="0px"
	 width="30px" height="30px" viewBox="0 0 30 30" style="enable-background:new 0 0 30 30;" xml:space="preserve">
<style type="text/css">
	.st0{fill-rule:evenodd;clip-rule:evenodd;fill:#FFFFFF;}
</style>
<title>services-blau</title>
<path class="st0" d="M6.3,17.7c-1.2-0.7-2.2-1.6-2.9-2.6c-0.7-1-1.1-2.2-1.1-3.5c0-2.1,1.1-4,2.9-5.4C7,4.9,9.4,4.1,12.1,4.1
	c2.7,0,5.1,0.8,6.9,2.2c1.8,1.4,2.9,3.3,2.9,5.4c0,0.1,0,0.2,0,0.3c1.2,0.4,2.2,1.1,2.9,1.9c0.8,0.9,1.2,1.9,1.2,3.1
	c0,0.9-0.3,1.8-0.8,2.6c-0.5,0.7-1.1,1.3-1.9,1.8c-0.1,0.1-0.2,0.2-0.2,0.3l-0.3,2.5c0,0.3-0.4,0.4-0.6,0.3l-2.6-1.8
	c-0.1-0.1-0.2-0.1-0.2-0.1c-0.2,0-0.4,0-0.6,0c-1.5,0-2.8-0.3-4-0.9c-1-0.5-1.9-1.3-2.4-2.1c-0.1-0.1-0.2-0.2-0.3-0.2
	c-0.3,0-0.7,0-1,0c-0.1,0-0.2,0-0.2,0.1l-3.7,2.6c-0.2,0.2-0.6,0-0.6-0.3L6.3,17.7L6.3,17.7z M7.3,9.7L7.3,9.7
	c0,0.4,0.3,0.8,0.8,0.8h8.5c0.2,0,0.4-0.2,0.4-0.4v0c0-0.2-0.2-0.4-0.4-0.4H7.3L7.3,9.7z M7.3,12.8v0.4c0,0.2,0.2,0.4,0.4,0.4h8.9
	c0.2,0,0.4-0.2,0.4-0.4v0c0-0.2-0.2-0.4-0.4-0.4H7.3L7.3,12.8z M21.8,12.7c-0.3,1.7-1.3,3.2-2.8,4.4c-1.3,1-3.1,1.8-5,2
	c-0.3,0-0.4,0.4-0.2,0.6c0.4,0.4,0.9,0.8,1.5,1.1c1,0.5,2.3,0.8,3.6,0.8c0.3,0,0.5,0,0.8,0c0.1,0,0.2,0,0.3,0.1l1.7,1.2
	c0.2,0.2,0.6,0,0.6-0.3l0.2-1.6c0-0.1,0.1-0.2,0.2-0.3c0.8-0.4,1.4-0.9,1.9-1.7c0.4-0.6,0.7-1.4,0.7-2.1c0-1-0.4-1.9-1-2.6
	C23.6,13.6,22.8,13.1,21.8,12.7L21.8,12.7z M7.9,20.5l2.8-2c0.1-0.1,0.2-0.1,0.3-0.1c0.4,0,0.7,0.1,1.1,0.1c2.5,0,4.8-0.8,6.4-2
	c1.6-1.2,2.6-2.9,2.6-4.8c0-1.9-1-3.6-2.6-4.8c-1.6-1.3-3.9-2-6.4-2c-2.5,0-4.8,0.8-6.4,2c-1.6,1.2-2.6,2.9-2.6,4.8
	c0,1.1,0.3,2.1,1,3.1c0.7,1,1.6,1.8,2.8,2.4L7,17.3l0.3,3C7.3,20.5,7.7,20.7,7.9,20.5z"/>
</svg>
