<?xml version="1.0" encoding="utf-8"?>
<!-- Generator: Adobe Illustrator 21.0.0, SVG Export Plug-In . SVG Version: 6.00 Build 0)  -->
<!DOCTYPE svg PUBLIC "-//W3C//DTD SVG 1.1//EN" "http://www.w3.org/Graphics/SVG/1.1/DTD/svg11.dtd">
<svg version="1.1" id="Ebene_1" xmlns="http://www.w3.org/2000/svg" xmlns:xlink="http://www.w3.org/1999/xlink" x="0px" y="0px"
	 width="30px" height="30px" viewBox="0 0 30 30" style="enable-background:new 0 0 30 30;" xml:space="preserve">
<style type="text/css">
	.st0{fill:#FFFFFF;}
</style>
<title>services-blau</title>
<g>
	<g>
		<g>
			<path class="st0" d="M21.5,21.9H5.6c-1.3,0-2.4-1.1-2.4-2.4v-8.9c0-1.3,1.1-2.4,2.4-2.4h15.9c1.3,0,2.4,1.1,2.4,2.4v8.9
				C23.9,20.8,22.8,21.9,21.5,21.9z M5.6,9C4.7,9,4,9.7,4,10.5v8.9C4,20.3,4.7,21,5.6,21h15.9c0.9,0,1.6-0.7,1.6-1.6v-8.9
				C23,9.7,22.3,9,21.5,9H5.6z"/>
		</g>
		<g>
			<path class="st0" d="M24.4,18.4h-1v-0.9h1c0.9,0,1.6-0.7,1.6-1.6v-2c0-0.9-0.7-1.6-1.6-1.6h-1v-0.9h1c1.3,0,2.4,1.1,2.4,2.4v2
				C26.9,17.3,25.8,18.4,24.4,18.4z"/>
		</g>
	</g>
	<g>
		<path class="st0" d="M6.6,18.5L6.6,18.5c-0.2-0.1-0.2-0.4-0.1-0.6l3.7-4.6c0.1-0.2,0.3-0.2,0.5-0.1l5.3,2.7c0.2,0.1,0.4,0,0.5-0.1
			l3.3-4.1c0.1-0.2,0.4-0.2,0.6-0.1l0,0c0.2,0.1,0.2,0.4,0.1,0.6l-3.7,4.6c-0.1,0.2-0.3,0.2-0.5,0.1L11,14.2c-0.2-0.1-0.4,0-0.5,0.1
			l-3.3,4.1C7,18.6,6.7,18.6,6.6,18.5z"/>
	</g>
</g>
</svg>
