<?xml version="1.0" encoding="utf-8"?>
<!-- Generator: Adobe Illustrator 21.0.0, SVG Export Plug-In . SVG Version: 6.00 Build 0)  -->
<!DOCTYPE svg PUBLIC "-//W3C//DTD SVG 1.1//EN" "http://www.w3.org/Graphics/SVG/1.1/DTD/svg11.dtd">
<svg version="1.1" id="Ebene_1" xmlns="http://www.w3.org/2000/svg" xmlns:xlink="http://www.w3.org/1999/xlink" x="0px" y="0px"
	 width="100px" height="100px" viewBox="0 0 100 100" style="enable-background:new 0 0 100 100;" xml:space="preserve">
<style type="text/css">
	.st0{fill:#FFFFFF;}
</style>
<title>grosser-rat-blau</title>
<path class="st0" d="M80.9,52.5V33.9l2-4.4c0.2-0.4,0.2-0.9-0.1-1.3c-0.2-0.4-0.7-0.6-1.1-0.6H18.4c-0.5,0-0.9,0.2-1.1,0.6
	c-0.3,0.4-0.3,0.9-0.1,1.3l2,4.4v18.7H10v6.7h9.1v11.9c0,0.8,0.6,1.4,1.3,1.4c0,0,0,0,0.1,0h59c0.8,0,1.4-0.6,1.4-1.3c0,0,0,0,0-0.1
	v-12H90v-6.7H80.9z M87.3,56.5H48.5l0.3,1.6c0.2,1,0.3,2,0.3,3c0,5.1-2.2,8.7-4.2,8.7s-4.2-3.6-4.2-8.7c0-1,0.1-2,0.3-3l0.3-1.6
	H12.7v-1.2h74.5v1.2H87.3z M21.7,33l-1.2-2.7h59L78.3,33c-0.1,0.2-0.1,0.4-0.1,0.6v19H21.8v-19C21.8,33.4,21.8,33.2,21.7,33z
	 M21.8,69.7V59.2H38c-0.1,0.6-0.1,1.3-0.1,1.9c-0.1,3.1,0.7,6.1,2.4,8.7H21.8L21.8,69.7z M78.1,69.7H49.4c1.7-2.6,2.5-5.6,2.4-8.7
	c0-0.6,0-1.3-0.1-1.9h26.4V69.7z"/>
<path class="st0" d="M36.3,41.1c0-2.2-1.7-3.9-3.9-3.9c0,0,0,0,0,0c-2.2,0-4,1.8-4,4v7.3h7.8v-7.4H36.3z M33.5,45.7h-2.4v-4.6
	c0-0.6,0.5-1.2,1.1-1.2c0,0,0.1,0,0.1,0c0.6,0,1.1,0.5,1.1,1.1L33.5,45.7L33.5,45.7z"/>
<path class="st0" d="M54,41.1c0-2.2-1.7-3.9-3.9-3.9c0,0,0,0,0,0c-2.2,0-4,1.8-4,4v7.3H54V41.1z M51.2,45.7h-2.4v-4.6
	c0-0.6,0.5-1.2,1.1-1.2c0,0,0.1,0,0.1,0c0.6,0,1.1,0.5,1.1,1.1v4.7L51.2,45.7z"/>
<path class="st0" d="M71.7,41.1c0-2.2-1.7-3.9-3.9-3.9l0,0c-2.2,0-4,1.8-4,4v7.3h7.8L71.7,41.1L71.7,41.1z M68.9,45.7h-2.4v-4.6
	c0-0.6,0.5-1.2,1.1-1.2c0,0,0.1,0,0.1,0c0.6,0,1.1,0.5,1.1,1.1L68.9,45.7L68.9,45.7z"/>
</svg>
