<?xml version="1.0" encoding="utf-8"?>
<!-- Generator: Adobe Illustrator 21.0.0, SVG Export Plug-In . SVG Version: 6.00 Build 0)  -->
<!DOCTYPE svg PUBLIC "-//W3C//DTD SVG 1.1//EN" "http://www.w3.org/Graphics/SVG/1.1/DTD/svg11.dtd">
<svg version="1.1" id="Ebene_1" xmlns="http://www.w3.org/2000/svg" xmlns:xlink="http://www.w3.org/1999/xlink" x="0px" y="0px"
	 width="30px" height="30px" viewBox="0 0 30 30" style="enable-background:new 0 0 30 30;" xml:space="preserve">
<style type="text/css">
	.st0{fill:#FFFFFF;}
</style>
<title>services-blau</title>
<g>
	<g>
		<path class="st0" d="M12.2,27.1c-0.5,0-0.9-0.4-0.9-0.9v-5.2l-0.2,0.1c-0.1,0-0.2,0-0.3,0c-0.4,0-0.8-0.4-0.8-0.8v-3.9
			c0-0.9,0.6-1.7,1.5-1.9l0.3-0.1l-0.2-0.2c-0.4-0.4-0.6-0.9-0.6-1.5c0-1.2,1-2.2,2.2-2.2c1.2,0,2.2,1,2.2,2.2
			c0,0.6-0.2,1.1-0.6,1.5l-0.2,0.2l0.3,0.1c0.9,0.2,1.5,1,1.5,1.9v3.9c0,0.4-0.4,0.8-0.8,0.8c-0.1,0-0.2,0-0.4-0.1L15.1,21v5.3
			c0,0.5-0.4,0.9-0.9,0.9H12.2z M13.3,21.1c0.1,0,0.2,0.1,0.2,0.3v5.3h0.7c0.2,0,0.3-0.2,0.3-0.3V15.9c0-0.1,0.1-0.2,0.2-0.3
			c0.2,0,0.3,0.1,0.3,0.3v4.3l0,0.1c0,0.1,0,0.1,0.1,0.1l0,0c0.1,0.1,0.3,0.2,0.5,0.2c0.2,0,0.3-0.1,0.3-0.3v-3.9
			c0-0.8-0.7-1.5-1.5-1.5h-0.6c0,0,0,0,0,0l0,0c0,0,0,0,0,0l0,0h-1l0,0c0,0,0,0,0,0l0,0c0,0,0,0,0,0H12c-0.8,0-1.5,0.7-1.5,1.5v3.9
			c0,0.2,0.1,0.3,0.3,0.3c0.2,0,0.4-0.1,0.5-0.2l0,0l0-0.1c0,0,0,0,0,0l0,0v-4.4c0-0.1,0.1-0.2,0.2-0.3c0.2,0,0.3,0.1,0.3,0.3v10.4
			c0,0.2,0.2,0.3,0.3,0.3H13v-5.3C13,21.2,13.1,21.1,13.3,21.1z M13.2,11.1c-0.9,0-1.7,0.7-1.7,1.7c0,0.9,0.7,1.7,1.7,1.7
			c0.9,0,1.7-0.7,1.7-1.7C14.9,11.8,14.2,11.1,13.2,11.1z"/>
		<path class="st0" d="M14.2,27.2h-2c-0.5,0-0.9-0.4-0.9-0.9v-5.1l-0.1,0c-0.1,0-0.2,0.1-0.3,0.1c-0.5,0-0.9-0.4-0.9-0.9v-3.9
			c0-1,0.7-1.8,1.6-2l0.2,0l-0.1-0.1c-0.4-0.4-0.6-1-0.6-1.5c0-1.2,1-2.3,2.3-2.3c1.2,0,2.3,1,2.3,2.3c0,0.6-0.2,1.1-0.6,1.5
			l-0.1,0.1l0.2,0c0.9,0.2,1.6,1,1.6,2v3.9c0,0.5-0.4,0.9-0.9,0.9c-0.1,0-0.3,0-0.4-0.1l-0.1,0v5.1C15.1,26.8,14.7,27.2,14.2,27.2z
			 M11.4,21v5.3c0,0.4,0.4,0.8,0.8,0.8h2c0.4,0,0.8-0.4,0.8-0.8v-5.4l0.3,0.1c0.1,0,0.2,0.1,0.3,0.1c0.4,0,0.7-0.3,0.7-0.7v-3.9
			c0-0.9-0.6-1.7-1.5-1.9l-0.4-0.1l0.3-0.3c0.4-0.4,0.6-0.9,0.6-1.4c0-1.2-0.9-2.1-2.1-2.1s-2.1,0.9-2.1,2.1c0,0.5,0.2,1,0.6,1.4
			l0.3,0.3l-0.4,0.1c-0.9,0.2-1.5,1-1.5,1.9v3.9c0,0.4,0.3,0.7,0.7,0.7c0.1,0,0.2,0,0.3,0L11.4,21z M14.2,26.7h-0.8v-5.4
			c0-0.1-0.1-0.2-0.2-0.2c-0.1,0-0.1,0-0.1,0c0,0-0.1,0.1-0.1,0.1v5.4h-0.8c-0.2,0-0.4-0.2-0.4-0.4V15.9c0-0.1,0-0.1-0.1-0.1
			c0,0-0.1-0.1-0.1,0c-0.1,0-0.2,0.1-0.2,0.2l0,4.5l-0.1,0.1c-0.1,0.1-0.4,0.2-0.5,0.2c-0.2,0-0.3-0.2-0.3-0.3v-3.9
			c0-0.9,0.7-1.5,1.5-1.5h0.6c0,0,0,0,0,0l0,0c0,0,0,0,0,0l1,0c0,0,0,0,0.1,0l0,0c0,0,0,0,0,0h0.6c0.9,0,1.5,0.7,1.5,1.5v3.9
			c0,0.2-0.2,0.3-0.3,0.3c-0.2,0-0.4-0.1-0.5-0.2l0,0c-0.1,0-0.1-0.1-0.1-0.2l0-0.1l0-4.3c0-0.1,0-0.1-0.1-0.1c0,0-0.1-0.1-0.1,0
			c-0.1,0-0.2,0.1-0.2,0.2v10.4C14.6,26.5,14.4,26.7,14.2,26.7z M13.6,26.5h0.6c0.1,0,0.3-0.1,0.3-0.3V15.9c0-0.2,0.1-0.3,0.3-0.3
			c0.1,0,0.2,0,0.3,0.1c0.1,0.1,0.1,0.2,0.1,0.3l0,4.4c0,0,0,0.1,0,0.1l0,0c0.1,0.1,0.3,0.2,0.4,0.2c0.1,0,0.2-0.1,0.2-0.2v-3.9
			c0-0.8-0.6-1.4-1.4-1.4h-0.6c0,0,0,0,0,0l0,0c0,0,0,0,0,0h-1c0,0,0,0,0,0l0,0c0,0,0,0,0,0H12c-0.8,0-1.4,0.6-1.4,1.4v3.9
			c0,0.1,0.1,0.2,0.2,0.2c0.1,0,0.4-0.1,0.4-0.2l0,0l0,0c0,0,0,0,0,0l0,0l0-4.3c0-0.2,0.1-0.3,0.3-0.3c0.1,0,0.2,0,0.3,0.1
			c0.1,0.1,0.1,0.2,0.1,0.3v10.4c0,0.1,0.1,0.3,0.3,0.3h0.7v-5.2c0-0.1,0-0.2,0.1-0.3c0.1-0.1,0.2-0.1,0.3-0.1h0
			c0.2,0,0.3,0.2,0.3,0.3V26.5z M13.2,14.5c-1,0-1.7-0.8-1.7-1.7c0-1,0.8-1.7,1.7-1.7c1,0,1.7,0.8,1.7,1.7
			C15,13.7,14.2,14.5,13.2,14.5z M13.2,11.2c-0.9,0-1.6,0.7-1.6,1.6c0,0.9,0.7,1.6,1.6,1.6c0.9,0,1.6-0.7,1.6-1.6
			C14.8,11.9,14.1,11.2,13.2,11.2z"/>
	</g>
</g>
<g>
	<path class="st0" d="M16.2,11.5c-0.1,0-0.2,0-0.2,0c-0.2-0.1-0.4-0.3-0.4-0.6V9.4h-1.2c-0.1,0-0.5,0-1-0.3c-0.5-0.3-0.5-1-0.5-1.2
		l0-3.2c0-0.7,0.5-1.2,1.2-1.2h6.5c0.7,0,1.2,0.5,1.2,1.2v3.5c0,0.7-0.5,1.2-1.2,1.2h-2l-1.9,1.9C16.5,11.4,16.4,11.5,16.2,11.5z
		 M14.3,8.7C14.3,8.7,14.3,8.7,14.3,8.7h1.6c0.2,0,0.4,0.2,0.4,0.4v1.5l1.8-1.8c0.1-0.1,0.2-0.1,0.3-0.1h2.2c0.2,0,0.4-0.2,0.4-0.4
		V4.7c0-0.2-0.2-0.4-0.4-0.4h-6.5c-0.2,0-0.4,0.2-0.4,0.4V8c0,0.2,0,0.5,0.1,0.5C14.1,8.7,14.3,8.7,14.3,8.7
		C14.3,8.7,14.3,8.7,14.3,8.7z"/>
</g>
<g>
	<path class="st0" d="M9.1,13.2c-0.2,0-0.3-0.1-0.4-0.2l-1.3-1.3c-2.7,0-4.9-1.5-4.9-3.3c0-1.8,2.2-3.3,5-3.3s5,1.5,5,3.3
		c0,1.3-1.1,2.4-2.8,3v1.2c0,0.2-0.1,0.5-0.4,0.6C9.2,13.2,9.1,13.2,9.1,13.2z M7.4,5.8c-2.3,0-4.2,1.2-4.2,2.6
		c0,1.4,1.9,2.6,4.2,2.6h0.2l0.1,0.1l1.2,1.2v-1.5l0.3-0.1c1.5-0.4,2.5-1.4,2.5-2.4C11.7,6.9,9.8,5.8,7.4,5.8z"/>
</g>
<g>
	<path class="st0" d="M20.3,18.9c-0.1,0-0.2,0-0.2,0c-0.2-0.1-0.4-0.3-0.4-0.6v-1.2c-1.7-0.6-2.8-1.7-2.8-3c0-1.8,2.2-3.3,5-3.3
		s5,1.5,5,3.3c0,1.8-2.2,3.3-4.9,3.3l-1.3,1.3C20.6,18.9,20.4,18.9,20.3,18.9z M21.9,11.5c-2.3,0-4.2,1.2-4.2,2.6c0,1,1,1.9,2.5,2.4
		l0.3,0.1V18l1.3-1.3l0.2,0c0,0,0,0,0,0c2.4,0,4.3-1.2,4.3-2.6C26.2,12.6,24.3,11.5,21.9,11.5z"/>
</g>
</svg>
