<?xml version="1.0" encoding="utf-8"?>
<!-- Generator: Adobe Illustrator 21.0.0, SVG Export Plug-In . SVG Version: 6.00 Build 0)  -->
<!DOCTYPE svg PUBLIC "-//W3C//DTD SVG 1.1//EN" "http://www.w3.org/Graphics/SVG/1.1/DTD/svg11.dtd">
<svg version="1.1" id="Ebene_1" xmlns="http://www.w3.org/2000/svg" xmlns:xlink="http://www.w3.org/1999/xlink" x="0px" y="0px"
	 width="100px" height="100px" viewBox="0 0 100 100" style="enable-background:new 0 0 100 100;" xml:space="preserve">
<style type="text/css">
	.st0{fill:#FFFFFF;}
</style>
<title>news-blau</title>
<path class="st0" d="M81.8,13.3H31.6c-4.5,0-8.2,3.7-8.2,8.2v5.1h-5.1c-4.5,0-8.2,3.7-8.2,8.2v43.5c0,4.5,3.7,8.2,8.2,8.2h61.9
	c0.2,0,0.3,0,0.5-0.1l0,0c0.4,0.1,0.7,0.1,1.1,0.1c4.5,0,8.2-3.7,8.2-8.2V21.6C90,17,86.4,13.3,81.8,13.3z M18.2,83.6
	c-2.8,0-5.1-2.3-5.1-5.1V35c0-2.8,2.3-5.1,5.1-5.1h50.2c2.8,0,5.1,2.3,5.1,5.1v43.5c0,1.8,0.6,3.5,1.7,4.9l0.2,0.2H18.2z M86.9,78.4
	c0,2.8-2.3,5.1-5.1,5.1c-2.8,0-5.1-2.3-5.1-5.1V35c0-4.5-3.7-8.2-8.2-8.2h-42v-5.1c0-2.8,2.3-5.1,5.1-5.1h50.2
	c2.8,0,5.1,2.3,5.1,5.1L86.9,78.4z"/>
<path class="st0" d="M65,38.2H21.6c-0.8,0-1.5,0.7-1.5,1.5s0.7,1.5,1.5,1.5H65c0.8,0,1.5-0.6,1.5-1.4c0,0,0,0,0-0.1
	c0-0.8-0.6-1.5-1.3-1.5C65.1,38.2,65.1,38.2,65,38.2z"/>
<path class="st0" d="M65,71.6H21.6c-0.8,0-1.5,0.6-1.5,1.4c0,0,0,0,0,0.1c0,0.8,0.7,1.5,1.5,1.5H65c0.8,0,1.5-0.7,1.5-1.5
	S65.8,71.6,65,71.6z"/>
<path class="st0" d="M21.6,64.7H45c0.8,0,1.5-0.6,1.5-1.4c0,0,0,0,0-0.1V49.8c0-0.8-0.6-1.5-1.4-1.5c0,0,0,0-0.1,0H21.6
	c-0.8,0-1.5,0.6-1.5,1.4c0,0,0,0,0,0.1v13.4c0,0.8,0.6,1.5,1.3,1.5C21.5,64.7,21.5,64.7,21.6,64.7z M23.1,51.3h20.3v10.3H23.1V51.3z
	"/>
<path class="st0" d="M65,48.2H51.7c-0.8,0-1.5,0.6-1.5,1.4c0,0,0,0,0,0.1c0,0.8,0.7,1.5,1.5,1.5H65c0.8,0,1.5-0.7,1.5-1.5
	S65.8,48.2,65,48.2z"/>
<path class="st0" d="M65,61.6H51.7c-0.8,0-1.5,0.6-1.5,1.4c0,0,0,0,0,0.1c0,0.8,0.7,1.5,1.5,1.5H65c0.8,0,1.5-0.7,1.5-1.5
	S65.8,61.6,65,61.6z"/>
</svg>
