<?xml version="1.0" encoding="utf-8"?>
<!-- Generator: Adobe Illustrator 21.0.0, SVG Export Plug-In . SVG Version: 6.00 Build 0)  -->
<!DOCTYPE svg PUBLIC "-//W3C//DTD SVG 1.1//EN" "http://www.w3.org/Graphics/SVG/1.1/DTD/svg11.dtd">
<svg version="1.1" id="Ebene_1" xmlns="http://www.w3.org/2000/svg" xmlns:xlink="http://www.w3.org/1999/xlink" x="0px" y="0px"
	 width="30px" height="30px" viewBox="0 0 30 30" style="enable-background:new 0 0 30 30;" xml:space="preserve">
<style type="text/css">
	.st0{fill:#FFFFFF;}
</style>
<title>services-blau</title>
<g>
	<g>
		<g>
			<g>
				<path class="st0" d="M26.6,9.6v11.9c0,1.5-1.2,2.6-2.6,2.6H5.5c-1.5,0-2.6-1.2-2.6-2.6v-7.8L3,13.6L9.7,7h14.3
					C25.4,7,26.6,8.2,26.6,9.6z M3.8,21.6c0,0.9,0.8,1.7,1.7,1.7h18.4c0.9,0,1.7-0.8,1.7-1.7V9.6c0-0.9-0.8-1.7-1.7-1.7H10l-6.2,6.2
					V21.6z"/>
			</g>
		</g>
		<g>
			<g>
				<path class="st0" d="M10.3,7.5v4.3c0,1.5-1.2,2.6-2.6,2.6H3.3v-0.9h4.3c0.9,0,1.7-0.8,1.7-1.7V7.5H10.3z"/>
			</g>
		</g>
	</g>
</g>
<g>
	<path class="st0" d="M23.3,14H20c-0.2,0-0.4-0.2-0.4-0.4V9.8c0-0.2,0.2-0.4,0.4-0.4h3.3c0.2,0,0.4,0.2,0.4,0.4v3.8
		C23.8,13.8,23.6,14,23.3,14z M20.4,13.1h2.4v-2.9h-2.4V13.1z"/>
</g>
<g>
	<path class="st0" d="M3.3,19.9c-0.2,0-0.4-0.2-0.4-0.4L2.7,9.5c0-1.6,1-2.7,2.7-2.7L14.3,7c0.2,0,0.4,0.2,0.4,0.5
		c0,0.2-0.2,0.4-0.5,0.4L5.4,7.8c-1.1,0-1.8,0.6-1.8,1.8l0.2,9.9C3.8,19.7,3.6,19.9,3.3,19.9C3.3,19.9,3.3,19.9,3.3,19.9z"/>
</g>
<g>
	<path class="st0" d="M14.7,18.1H6.8c-0.2,0-0.4-0.2-0.4-0.4s0.2-0.4,0.4-0.4h7.9c0.2,0,0.4,0.2,0.4,0.4S15,18.1,14.7,18.1z"/>
</g>
<g>
	<path class="st0" d="M14.7,19.8H6.8c-0.2,0-0.4-0.2-0.4-0.4c0-0.2,0.2-0.4,0.4-0.4h7.9c0.2,0,0.4,0.2,0.4,0.4
		C15.2,19.6,15,19.8,14.7,19.8z"/>
</g>
<g>
	<path class="st0" d="M14.7,21.5H6.8c-0.2,0-0.4-0.2-0.4-0.4c0-0.2,0.2-0.4,0.4-0.4h7.9c0.2,0,0.4,0.2,0.4,0.4
		C15.2,21.3,15,21.5,14.7,21.5z"/>
</g>
</svg>
