<?xml version="1.0" encoding="utf-8"?>
<!-- Generator: Adobe Illustrator 21.0.0, SVG Export Plug-In . SVG Version: 6.00 Build 0)  -->
<!DOCTYPE svg PUBLIC "-//W3C//DTD SVG 1.1//EN" "http://www.w3.org/Graphics/SVG/1.1/DTD/svg11.dtd">
<svg version="1.1" id="Ebene_1" xmlns="http://www.w3.org/2000/svg" xmlns:xlink="http://www.w3.org/1999/xlink" x="0px" y="0px"
	 width="100px" height="100px" viewBox="0 0 100 100" style="enable-background:new 0 0 100 100;" xml:space="preserve">
<style type="text/css">
	.st0{fill:#FFFFFF;}
</style>
<title>polizeimeldungen-blau</title>
<path class="st0" d="M80.3,70.1c-2.6-2.8-9.3-5.6-20.1-8.3v-5.5c1.2-1.7,2.2-3.6,3-5.5c0.5,0.1,1.1-0.1,1.5-0.4
	c1.4-0.9,2.3-3.2,2.7-5c0.6-3,0.3-6.2-1.8-6.7h-0.1c-0.1-2.2-0.4-4.4-0.9-6.5v-2.4c5.1-2.1,8.1-5.2,8.1-8.6C72.6,14.9,62.7,10,50,10
	s-22.6,4.9-22.6,11.1c0,3.4,2.9,6.5,8.1,8.6v2.1c-0.7,2.2-1.1,4.6-1.1,6.9h-0.1c-2.1,0.5-2.5,3.7-1.8,6.7c0.2,1.3,0.7,2.6,1.5,3.7
	c0.5,1,1.5,1.7,2.7,1.7c0.8,2,1.9,3.9,3.1,5.7v5.3c-10.7,2.7-17.5,5.5-20.1,8.3c-3.3,3.6-4.7,17-4.9,18.5c0,0.3,0.1,0.6,0.3,0.9
	c0.2,0.3,0.6,0.4,0.9,0.5h68c0.3,0,0.7-0.1,0.9-0.4c0.2-0.3,0.3-0.6,0.3-0.9C85,87.1,83.6,73.7,80.3,70.1z M67.6,66.7
	C67.6,66.6,67.6,66.6,67.6,66.7l0.2-0.1c2.6,0.7,5.1,1.6,7.6,2.7c0.3,0.1,0.7,0.3,0.7,0.7l0.1,0.1c-0.2,0.4-0.3,0.8-0.5,1.2
	c-0.2,0.6-0.3,1.1-1.1,1c-0.3-0.1-0.6-0.2-0.9-0.3c-1.1-0.6-2.3-1.1-3.5-1.6l-1.8-0.6c-0.2-0.1-1.7-0.7-1.6-0.8
	C66.9,68.2,67.2,67.4,67.6,66.7z M61.8,64.7l-5.5,8.5L52,69.3c1.8-1.3,6.1-4.3,7.5-5.2C60.2,64.3,61,64.5,61.8,64.7z M29.8,21.1
	c0-4.7,9.2-8.7,20.2-8.7s20.2,4,20.2,8.7c0,2.1-2,4.3-5.6,5.9v-2c0-0.3-0.2-0.7-0.4-0.9C64,24,60.4,21,49.9,21s-13.8,2.8-14.1,3.1
	c-0.2,0.2-0.4,0.6-0.4,0.9v2C31.9,25.4,29.8,23.3,29.8,21.1z M37.8,30c-0.1-0.5-0.1-1,0-1.5c0-0.6,0.1-1.1,0.1-1.7s0-0.9,0.4-1.2
	c0.3-0.3,0.7-0.5,1.1-0.6c1-0.4,2.1-0.6,3.2-0.8c4.8-0.9,9.6-0.9,14.4-0.1c1,0.2,2,0.4,3,0.7c0.7,0.2,1.9,0.4,2.2,1.2
	c0.1,0.6,0.2,1.3,0.3,1.9c0.1,0.7,0.1,1.3,0,2c0,0.2,0,0.3-0.1,0.5c-0.2,0.5-1,0.3-1.4,0.3H39.4c-0.4,0.1-0.7,0.1-1.1,0
	C38,30.6,37.7,30.3,37.8,30z M38.4,48.6L38.4,48.6c-0.2-0.4-0.6-0.7-1-0.8h-0.1c-0.4,0-0.8,0.2-1,0.5c-0.8-0.9-1.3-2.1-1.5-3.3
	c-0.3-1.2-0.3-2.4-0.1-3.6c0.4,0.3,0.9,0.4,1.3,0.2c0.4-0.2,0.7-0.6,0.7-1.1v-0.4c0-1.7,0.1-3.5,0.4-5.2C39.4,38,44.3,40,49.9,40
	c5.4,0,10.3-1.9,12.6-4.9c0.3,1.6,0.4,3.3,0.4,5v0.4c0,0.5,0.3,0.9,0.7,1.1c0.4,0.2,0.9,0.1,1.3-0.1c0.3,1.2,0.3,2.4,0,3.6
	c-0.2,1.2-0.7,2.4-1.4,3.4c-0.3-0.3-0.7-0.5-1.1-0.5c-0.5,0-0.9,0.3-1,0.8c-0.8,2.2-1.9,4.4-3.2,6.3c-2.5,3.5-5.4,5.5-8.3,5.5
	c-3.4,0-6.1-2.7-7.8-4.9l-0.2-0.2c0-0.1-0.1-0.1-0.1-0.2C40.4,53.2,39.3,51,38.4,48.6z M40.6,64.1c0.9,0.8,3,2.3,7.4,5.3l-4.3,3.9
	l-6.1-8.4C38.6,64.6,39.6,64.4,40.6,64.1z M24.6,69.6c1-0.6,2-1.1,3-1.5c1.4-0.6,2.9-1,4.4-1.5l0.9,2.3c0.1,0.2-5.2,2.2-5.7,2.3
	c-0.1,0.1-2.8,1.1-2.8,1.1c-0.1-0.2-0.9-2-0.9-2.1C23.9,70,24.2,69.8,24.6,69.6z M47.5,87.6H17.4c0.6-5,2.1-13.6,4.1-15.7l1.1,2.6
	c0.3,0.6,1,0.9,1.6,0.7l10.7-4.3c0.6-0.3,0.9-1,0.7-1.6L34.3,66c0.3-0.1,0.5-0.2,0.8-0.2l7.4,10.3c0.2,0.3,0.5,0.5,0.9,0.5h0.1
	c0.3,0,0.6-0.1,0.8-0.3l3.2-2.9l1,2L47.5,87.6z M42.2,62.3v-3c2,2.2,4.8,3.4,7.8,3.5c2.7,0,5.3-1.3,7.8-3.7v3.1
	c-1,0.7-3.1,2.1-7.8,5.5C46.9,65.7,43.4,63.2,42.2,62.3z M52.5,87.6l-1-12.4l1-2l3.2,2.9c0.3,0.2,0.6,0.4,1,0.3
	c0.4,0,0.7-0.2,0.9-0.6l6.7-10.4c0.4,0.1,0.8,0.2,1.1,0.3L64,69.1c-0.2,0.6,0.1,1.3,0.7,1.6L75.4,75c0.6,0.2,1.3-0.1,1.6-0.7
	l1.2-2.8l0.2,0.2c2,2.2,3.5,10.7,4.1,15.8L52.5,87.6L52.5,87.6z"/>
</svg>
