<?xml version="1.0" encoding="utf-8"?>
<!-- Generator: Adobe Illustrator 21.0.0, SVG Export Plug-In . SVG Version: 6.00 Build 0)  -->
<!DOCTYPE svg PUBLIC "-//W3C//DTD SVG 1.1//EN" "http://www.w3.org/Graphics/SVG/1.1/DTD/svg11.dtd">
<svg version="1.1" id="Ebene_1" xmlns="http://www.w3.org/2000/svg" xmlns:xlink="http://www.w3.org/1999/xlink" x="0px" y="0px"
	 width="30px" height="30px" viewBox="0 0 30 30" style="enable-background:new 0 0 30 30;" xml:space="preserve">
<style type="text/css">
	.st0{fill:#FFFFFF;}
</style>
<title>services-blau</title>
<path class="st0" d="M26.9,9l-5.8-3.4c-0.1-0.1-0.3-0.1-0.5,0L15,8.8L9.4,5.6c-0.1-0.1-0.3-0.1-0.5,0L3.1,9C2.9,9.1,2.8,9.2,2.8,9.4
	v3.6v5.3V24c0,0.2,0.1,0.3,0.2,0.4c0.1,0,0.2,0.1,0.2,0.1c0.1,0,0.2,0,0.2-0.1l5.6-3.2l5.6,3.2c0.1,0,0.2,0.1,0.2,0.1s0.2,0,0.2-0.1
	l5.6-3.2l5.6,3.2c0.1,0,0.2,0.1,0.2,0.1c0.1,0,0.2,0,0.2-0.1c0.1-0.1,0.2-0.2,0.2-0.4v-7V9.4C27.1,9.2,27.1,9.1,26.9,9z M3.8,18.9
	C4,18.9,4.3,19,4.5,19c0.8,0,1.6-0.3,2.4-0.8c0.5-0.4,1.1-0.8,1.7-1.3v3.5l-4.9,2.8V18.9z M8.7,8.4C7.8,8.7,6.9,9,6.4,9.4
	C5.9,9.8,5.5,10.3,5,10.7c-0.3,0.3-0.6,0.6-0.9,0.9c-0.1,0.1-0.2,0.2-0.3,0.3V9.7l4.9-2.8V8.4z M4.3,12.7c0.1-0.1,0.3-0.2,0.4-0.4
	c0.3-0.3,0.6-0.6,0.9-0.9C6.1,11,6.6,10.5,7,10.2c0.4-0.3,1-0.6,1.7-0.8v6.2c-0.8,0.7-1.5,1.3-2.2,1.8c-1,0.6-1.9,0.8-2.7,0.5v-4.7
	C4,13,4.1,12.8,4.3,12.7L4.3,12.7z M11.8,13.8C11.7,13.8,11.7,13.8,11.8,13.8c-0.2,0.2-0.4,0.4-0.5,0.6c-0.3,0.5-0.7,1-1.2,1
	c-0.2,0-0.3,0-0.5-0.1V9.9c1.4,1.5,2.3,2.9,2.3,3.6C11.9,13.6,11.9,13.7,11.8,13.8z M10.4,19c0.1,0,0.2,0,0.2,0.1l0.6,0.1
	c0.3,0,0.5,0.1,0.8,0.1c0.2,0,0.5,0,0.7,0c0.2,0,0.4-0.1,0.5,0c0.1,0.1,0.2,0.1,0.3,0.2c-0.1,0-0.2,0.1-0.5,0.2
	c-0.1,0-0.1,0.1-0.2,0.1c-0.3,0.1-0.6,0.2-0.8,0.2c-0.2,0-0.6-0.1-1.2-0.6C10.6,19.3,10.5,19.1,10.4,19z M9.6,19.6
	c0.1,0.2,0.3,0.4,0.4,0.5c0.6,0.6,1.2,0.8,1.8,0.8c0.4,0,0.8-0.1,1.2-0.3l0.2-0.1c0.5-0.2,1.1-0.5,1.1-1c0.1-0.6-0.6-1-0.8-1.1
	c-0.2-0.1-0.4-0.2-0.6-0.2c-0.2,0-0.4,0-0.5,0.1l0,0c-0.1,0-0.2,0-0.3,0c-0.3,0-0.5-0.1-0.8-0.1l-0.6-0.1c0,0-0.1,0-0.2,0
	c-0.3-0.1-0.6-0.2-0.9,0c-0.1,0-0.1,0.1-0.1,0.1v-1.8c0.1,0,0.3,0,0.4,0c0,0,0.1,0,0.1,0c0.9,0,1.5-0.8,1.9-1.4
	c0.1-0.2,0.2-0.3,0.3-0.4c0.3-0.2,0.5-0.6,0.5-0.9c0.1-1.6-2.3-4.1-3.2-5V6.8l4.9,2.8v13.5l-4.9-2.8V19.6z M26.2,15.5
	c-0.5-0.6-1.2-0.9-1.9-1c-0.1,0-0.2,0-0.3,0c-0.7,0-1.2,0.3-1.7,0.5c-0.2,0.1-0.4,0.2-0.5,0.3c-0.1,0.1-0.3,0.1-0.5,0.1v-3.6
	c0.9-0.1,1.8-0.3,2.2-1.1c0.3-0.5,0.5-1.8,0-2.7l2.7,1.6V15.5z M20.4,7.8l-0.2,0.3c-0.1,0.2-0.3,0.4-0.4,0.6c-0.7,1-1.5,1.9-2.4,2.8
	l-0.1,0.1c-1,1.1-1.5,2.1-1.6,3c-0.1,0.6,0,1,0.3,1.3c0.2,0.2,0.4,0.3,0.6,0.3c0.9,0,2.5-1.8,3.8-3.4v3l0,0
	c-0.3,0.4-0.6,0.7-0.9,1.1c-0.9,1.2-1.1,2.3-1.2,3.3c-0.1,0.4-0.1,0.9-0.1,1.4l-2.6,1.5V9.7l4.9-2.8V7.8z M20.4,11.2
	c-0.2,0.2-0.3,0.4-0.5,0.6c-1.5,1.9-2.8,3.2-3.2,3.3c0-0.1,0-0.2,0-0.5c0.1-0.7,0.5-1.6,1.4-2.5l0.1-0.1c0.8-0.9,1.5-1.7,2.2-2.6
	V11.2z M19.1,21.1c0-0.2,0.1-0.5,0.1-0.7c0.1-0.9,0.3-1.9,1.1-2.9c0.1-0.1,0.1-0.1,0.2-0.2v3.1L19.1,21.1z M22.5,8.4
	c0.6,0.4,0.3,1.6,0.2,1.9c-0.2,0.3-0.8,0.5-1.4,0.5V8.3C21.8,8.2,22.2,8.2,22.5,8.4z M21.9,7.3c-0.2,0-0.4,0-0.5,0.1V6.8l0.8,0.5
	C22.1,7.3,22,7.3,21.9,7.3z M21.3,16.4c0.3,0,0.6-0.1,0.8-0.2c0.2-0.1,0.4-0.2,0.6-0.3c0.5-0.3,0.9-0.5,1.4-0.4
	c0.8,0.1,1.5,0.7,2,1.7v6.1l-4.9-2.8V16.4z"/>
</svg>
