<?xml version="1.0" encoding="utf-8"?>
<!-- Generator: Adobe Illustrator 20.0.0, SVG Export Plug-In . SVG Version: 6.00 Build 0)  -->
<svg version="1.2" baseProfile="tiny" id="Ebene_1" xmlns="http://www.w3.org/2000/svg" xmlns:xlink="http://www.w3.org/1999/xlink"
	 x="0px" y="0px" width="30px" height="30px" viewBox="0 0 30 30"  xml:space="preserve">
<g>
	<polygon fill="#817E65" points="13.2,12.8 11.7,12.8 14.1,16.3 11.5,20.1 13,20.1 14.8,17.4 16.6,20.1 18.2,20.1 15.6,16.3
		18,12.8 16.6,12.8 14.9,15.3 	"/>
	<path fill="#817E65" d="M16.9,4.7l-0.2-0.2H9.8C8.4,4.5,7.3,5.6,7.3,7v16c0,1.4,1.1,2.5,2.5,2.5h10.4c1.4,0,2.5-1.1,2.5-2.5V10.5
		L16.9,4.7z M18.3,10.2c-0.7,0-1.3-0.6-1.3-1.3V6.5l3.6,3.6H18.3z M18.3,11.4h3.1V23c0,0.7-0.6,1.3-1.3,1.3H9.8
		c-0.7,0-1.3-0.6-1.3-1.3V7c0-0.7,0.6-1.3,1.3-1.3h6v3.2C15.9,10.2,17,11.4,18.3,11.4z"/>
</g>
</svg>
