<?xml version="1.0" encoding="utf-8"?>
<!-- Generator: Adobe Illustrator 21.0.0, SVG Export Plug-In . SVG Version: 6.00 Build 0)  -->
<!DOCTYPE svg PUBLIC "-//W3C//DTD SVG 1.1//EN" "http://www.w3.org/Graphics/SVG/1.1/DTD/svg11.dtd">
<svg version="1.1" id="Ebene_1" xmlns="http://www.w3.org/2000/svg" xmlns:xlink="http://www.w3.org/1999/xlink" x="0px" y="0px"
	 width="30px" height="30px" viewBox="0 0 30 30" style="enable-background:new 0 0 30 30;" xml:space="preserve">
<style type="text/css">
	.st0{fill:#817E65;}
</style>
<title>image</title>
<path class="st0" d="M20.6,4.5H9.4c-1.2,0-2.3,1-2.3,2.2c0,0,0,0.1,0,0.1v16.4c0,1.2,1,2.3,2.2,2.3c0,0,0.1,0,0.1,0h11.2
	c1.2,0,2.3-1,2.3-2.2c0,0,0-0.1,0-0.1V6.8C22.9,5.6,21.9,4.5,20.6,4.5C20.7,4.5,20.6,4.5,20.6,4.5z M8.2,18.3l3.3-2.2l2.2,1.4
	l4.8-3.2l3.3,2.2v6.6c0,0.7-0.5,1.2-1.2,1.2H9.4c-0.7,0-1.2-0.5-1.2-1.2V18.3z M21.8,15.2L18.5,13l-4.8,3.2l-2.2-1.4L8.2,17V6.8
	c0-0.7,0.5-1.2,1.2-1.2h11.2c0.7,0,1.2,0.5,1.2,1.2L21.8,15.2z"/>
<path class="st0" d="M11.5,9.7c-1,0-1.9,0.9-1.9,1.9c0,1,0.8,1.9,1.8,1.9c0,0,0.1,0,0.1,0c1,0,1.9-0.8,1.9-1.8c0,0,0-0.1,0-0.1
	c0-1-0.8-1.9-1.8-1.9C11.6,9.7,11.5,9.7,11.5,9.7z M12.3,11.5c0,0.4-0.3,0.7-0.7,0.7s-0.7-0.3-0.7-0.7c0-0.4,0.3-0.7,0.7-0.7l0,0
	C12,10.8,12.3,11.1,12.3,11.5z"/>
</svg>
