<?xml version="1.0" encoding="utf-8"?>
<!-- Generator: Adobe Illustrator 21.0.0, SVG Export Plug-In . SVG Version: 6.00 Build 0)  -->
<!DOCTYPE svg PUBLIC "-//W3C//DTD SVG 1.1//EN" "http://www.w3.org/Graphics/SVG/1.1/DTD/svg11.dtd">
<svg version="1.1" id="Ebene_1" xmlns="http://www.w3.org/2000/svg" xmlns:xlink="http://www.w3.org/1999/xlink" x="0px" y="0px"
	 width="30px" height="30px" viewBox="0 0 30 30" style="enable-background:new 0 0 30 30;" xml:space="preserve">
<style type="text/css">
	.st0{fill:#817E65;}
</style>
<title>power-point-blau</title>
<path class="st0" d="M17.8,4.7l-0.2-0.2h-8c-1.3,0-2.3,1-2.3,2.3v16.4c0,1.3,1,2.3,2.3,2.3h11.2c1.3,0,2.3-1,2.3-2.3V10L17.8,4.7z
	 M19.1,9.7c-0.6,0-1.2-0.5-1.2-1.2V6.4l3.2,3.3H19.1z M20.8,24.4H9.6c-0.6,0-1.2-0.5-1.2-1.2V6.8c0-0.6,0.5-1.2,1.2-1.2h7.2v2.9
	c0,1.3,1,2.3,2.3,2.3H22v12.4C22,23.8,21.5,24.4,20.8,24.4z"/>
<path class="st0" d="M12.5,18.3c0.3-0.4,0.6-0.9,0.8-1.3c0.4-0.8,0.8-1.5,1.1-2.4c0-0.1,0-0.1,0-0.2c-0.3-0.8-0.4-1.6-0.4-2.4
	c0-0.1,0-0.3,0-0.4c0.1-0.4,0.3-0.6,0.7-0.6c0.5,0,0.9,0.3,0.8,0.9c0,0,0,0,0,0.1c0,0.3,0,0.7-0.1,1.1c-0.1,0.4-0.1,0.8-0.2,1.2
	c0,0,0,0.1,0,0.1c0.4,0.9,1,1.8,1.8,2.3c0.1,0.1,0.2,0.1,0.3,0.1c0.3,0,0.7-0.1,1-0.1c0.5,0,0.9,0,1.4,0.1c0.3,0.1,0.5,0.2,0.5,0.5
	c0,0.2,0,0.4-0.1,0.6c-0.1,0.2-0.2,0.3-0.4,0.3c-0.4,0.1-0.7,0-1.1,0c-0.6-0.1-1.2-0.4-1.8-0.7c0,0-0.1,0-0.1,0
	c-1.1,0.2-2.2,0.4-3.3,0.7c-0.1,0-0.2,0.1-0.2,0.2c-0.3,0.7-0.7,1.3-1.3,1.8c-0.2,0.2-0.3,0.3-0.5,0.4c-0.4,0.2-0.9,0.1-1.2-0.3
	c-0.1-0.1-0.1-0.2-0.1-0.3c0.1-0.1,0.1-0.3,0.2-0.4c0.4-0.6,1-1.1,1.7-1.4c0.1,0,0.1-0.1,0.2-0.1C12.3,18.3,12.4,18.3,12.5,18.3z
	 M14.8,15.5c-0.3,0.7-0.7,1.5-1,2.2c0.8-0.3,1.5-0.5,2.3-0.7c-0.2-0.2-0.5-0.5-0.7-0.7C15.1,16.1,14.9,15.8,14.8,15.5z M14.8,11.5
	c-0.1,0.6-0.1,1.4,0,1.7c0.2-0.4,0.3-0.7,0.2-1.1C15,11.9,14.9,11.7,14.8,11.5z M19.9,17.7C19.9,17.7,19.9,17.7,19.9,17.7
	c-0.1-0.1-0.2-0.2-0.3-0.2c-0.3-0.1-0.6-0.1-0.9-0.1c-0.2,0-0.4,0-0.5,0c0,0,0,0,0,0c0,0,0,0,0,0c0.4,0.2,0.9,0.3,1.3,0.3
	C19.7,17.8,19.8,17.8,19.9,17.7z M12.1,19c-0.4,0.4-0.8,0.8-1.1,1.3C11.5,19.9,11.8,19.4,12.1,19z"/>
</svg>
