<?xml version="1.0" encoding="utf-8"?>
<!-- Generator: Adobe Illustrator 21.0.0, SVG Export Plug-In . SVG Version: 6.00 Build 0)  -->
<!DOCTYPE svg PUBLIC "-//W3C//DTD SVG 1.1//EN" "http://www.w3.org/Graphics/SVG/1.1/DTD/svg11.dtd">
<svg version="1.1" id="Ebene_1" xmlns="http://www.w3.org/2000/svg" xmlns:xlink="http://www.w3.org/1999/xlink" x="0px" y="0px"
	 width="30px" height="30px" viewBox="0 0 30 30" style="enable-background:new 0 0 30 30;" xml:space="preserve">
<style type="text/css">
	.st0{fill:#817E65;}
</style>
<title>pdf-blau</title>
<path class="st0" d="M17.6,4.7l-0.2-0.2h-8c-1.2,0-2.3,1-2.3,2.2c0,0,0,0.1,0,0.1v16.4c0,1.2,1,2.3,2.2,2.3c0,0,0.1,0,0.1,0h11.2
	c1.2,0,2.3-1,2.3-2.2c0,0,0-0.1,0-0.1V10L17.6,4.7z M18.9,9.7c-0.7,0-1.2-0.5-1.2-1.2V6.4L21,9.7H18.9z M20.6,24.4H9.4
	c-0.7,0-1.2-0.5-1.2-1.2V6.8c0-0.7,0.5-1.2,1.2-1.2h7.2v2.9c0,1.2,1,2.3,2.2,2.3c0,0,0.1,0,0.1,0h2.9v12.4
	C21.8,23.9,21.3,24.4,20.6,24.4z"/>
</svg>
