<?xml version="1.0" encoding="utf-8"?>
<!-- Generator: Adobe Illustrator 21.0.0, SVG Export Plug-In . SVG Version: 6.00 Build 0)  -->
<!DOCTYPE svg PUBLIC "-//W3C//DTD SVG 1.1//EN" "http://www.w3.org/Graphics/SVG/1.1/DTD/svg11.dtd">
<svg version="1.1" id="Ebene_1" xmlns="http://www.w3.org/2000/svg" xmlns:xlink="http://www.w3.org/1999/xlink" x="0px" y="0px"
	 width="30px" height="30px" viewBox="0 0 30 30" style="enable-background:new 0 0 30 30;" xml:space="preserve">
<style type="text/css">
	.st0{fill:#817E65;}
</style>
<title>power-point-blau</title>
<path class="st0" d="M12.3,12.8v7.3h1.3v-2.8h1.9c0.6,0,1.2-0.2,1.7-0.6c0.4-0.4,0.6-1,0.6-1.6c0.1-1.1-0.7-2.1-1.8-2.2
	c-0.2,0-0.4,0-0.5,0L12.3,12.8L12.3,12.8z M16.5,15c0,0.3-0.1,0.6-0.3,0.8c-0.3,0.2-0.7,0.3-1.1,0.3h-1.6V14h1.6
	C16.4,13.9,16.5,14.5,16.5,15z"/>
<path class="st0" d="M16.9,4.7l-0.2-0.2H9.8C8.4,4.5,7.3,5.6,7.3,7c0,0,0,0,0,0v16c0,1.4,1.1,2.5,2.5,2.5c0,0,0,0,0,0h10.4
	c1.4,0,2.5-1.1,2.5-2.5c0,0,0,0,0,0V10.5L16.9,4.7z M18.3,10.2c-0.7,0-1.3-0.6-1.3-1.3V6.5l3.6,3.6L18.3,10.2L18.3,10.2z M18.3,11.4
	h3.1V23c0,0.7-0.6,1.3-1.3,1.3H9.8c-0.7,0-1.3-0.6-1.3-1.3V7c0-0.7,0.6-1.3,1.3-1.3h6v3.2C15.9,10.2,17,11.3,18.3,11.4z"/>
</svg>
