<?xml version="1.0" encoding="utf-8"?>
<!-- Generator: Adobe Illustrator 21.0.0, SVG Export Plug-In . SVG Version: 6.00 Build 0)  -->
<!DOCTYPE svg PUBLIC "-//W3C//DTD SVG 1.1//EN" "http://www.w3.org/Graphics/SVG/1.1/DTD/svg11.dtd">
<svg version="1.1" id="Ebene_1" xmlns="http://www.w3.org/2000/svg" xmlns:xlink="http://www.w3.org/1999/xlink" x="0px" y="0px"
	 width="30px" height="30px" viewBox="0 0 30 30" style="enable-background:new 0 0 30 30;" xml:space="preserve">
<style type="text/css">
	.st0{fill:#817E65;}
</style>
<title>top-links-blau</title>
<path class="st0" d="M25.4,12.5c-0.2-0.5-0.7-0.8-1.2-0.8H18l-1.9-5.9C16,5.3,15.5,5,15,5l0,0c-0.5,0-1,0.3-1.2,0.8l-1.9,5.9H5.7
	c-0.5,0-1,0.3-1.2,0.8c-0.2,0.5,0,1.1,0.4,1.4l5,3.7L8,23.5c-0.2,0.5,0,1.1,0.4,1.4C8.7,25,8.9,25,9.2,25c0.2,0,0.5-0.1,0.7-0.2
	l5-3.6l5,3.6c0.2,0.2,0.4,0.2,0.7,0.2c0.2,0,0.5-0.1,0.7-0.2c0.4-0.3,0.6-0.9,0.4-1.4L20,17.6l5-3.7C25.4,13.6,25.6,13,25.4,12.5z
	 M18.5,17.1l2.2,6.7L15,19.7l-5.7,4.1l2.2-6.7l-5.7-4.2h7.1L15,6.2l2.2,6.7h7.1L18.5,17.1z"/>
</svg>
