<?xml version="1.0" encoding="utf-8"?>
<!-- Generator: Adobe Illustrator 21.0.0, SVG Export Plug-In . SVG Version: 6.00 Build 0)  -->
<!DOCTYPE svg PUBLIC "-//W3C//DTD SVG 1.1//EN" "http://www.w3.org/Graphics/SVG/1.1/DTD/svg11.dtd">
<svg version="1.1" id="Ebene_1" xmlns="http://www.w3.org/2000/svg" xmlns:xlink="http://www.w3.org/1999/xlink" x="0px" y="0px"
	 width="30px" height="30px" viewBox="0 0 30 30" style="enable-background:new 0 0 30 30;" xml:space="preserve">
<style type="text/css">
	.st0{fill:#817E65;}
</style>
<title>word-blau</title>
<polygon class="st0" points="14.2,12.8 12.8,18 11.6,12.8 10.3,12.8 12.1,20.1 13.4,20.1 14.8,14.8 16.3,20.1 17.5,20.1 19.5,12.8 
	18.1,12.8 16.9,18 15.5,12.8 "/>
<path class="st0" d="M16.9,4.7l-0.2-0.2H9.8C8.4,4.5,7.3,5.6,7.3,7c0,0,0,0,0,0v16c0,1.4,1.1,2.5,2.5,2.5c0,0,0,0,0,0h10.4
	c1.4,0,2.5-1.1,2.5-2.5c0,0,0,0,0,0V10.5L16.9,4.7z M18.3,10.2c-0.7,0-1.3-0.6-1.3-1.3V6.5l3.6,3.6L18.3,10.2L18.3,10.2z M18.3,11.4
	h3.1V23c0,0.7-0.6,1.3-1.3,1.3H9.8c-0.7,0-1.3-0.6-1.3-1.3V7c0-0.7,0.6-1.3,1.3-1.3h6v3.2C15.9,10.2,17,11.3,18.3,11.4z"/>
</svg>
