<svg id="Ebene_1" data-name="Ebene 1" xmlns="http://www.w3.org/2000/svg" viewBox="0 0 30 30"><defs><style>.cls-1{fill:#fff;}</style></defs><title>twitter-weiss</title><path class="cls-1" d="M25.3,8.1a.71.71,0,0,0-.6-.3,1.42,1.42,0,0,0,.2-.6.81.81,0,0,0-.3-.9.75.75,0,0,0-.9,0,7.1,7.1,0,0,1-1.8.8,4.72,4.72,0,0,0-3.2-1.2,4.91,4.91,0,0,0-4.8,5h0a10,10,0,0,1-6.6-4,1.14,1.14,0,0,0-.7-.3H6.5a.68.68,0,0,0-.6.4,5.83,5.83,0,0,0-.6,2.6,5.45,5.45,0,0,0,.5,2.2.1.1,0,0,0-.1.1.67.67,0,0,0-.4.7v.1a5.23,5.23,0,0,0,1.6,3.7.62.62,0,0,0-.1.7,5,5,0,0,0,2.5,3,7.27,7.27,0,0,1-2.9.7,2.77,2.77,0,0,1-.9-.1H5.4a1,1,0,0,0-.8.5,1,1,0,0,0,.3,1,11.83,11.83,0,0,0,6.5,2,11.35,11.35,0,0,0,9-4.2,13.54,13.54,0,0,0,3.1-8.6v-.2a9.09,9.09,0,0,0,1.8-2.1A.76.76,0,0,0,25.3,8.1Zm-2.6,2.7h0v.6A11.38,11.38,0,0,1,11.5,23.2a10.56,10.56,0,0,1-5.7-1.7h.6a7.68,7.68,0,0,0,5-1.8l.2-.2h-.2a3.94,3.94,0,0,1-3.6-2.7,3.28,3.28,0,0,0,1.7-.1l.3-.1-.4-.1a4,4,0,0,1-3.1-3.9,4.8,4.8,0,0,0,1.7.5h.3L7.9,13A4.08,4.08,0,0,1,6.2,9.6a4.14,4.14,0,0,1,.5-1.9A11.15,11.15,0,0,0,14.9,12H15v-.1a2.77,2.77,0,0,1-.1-.9,4,4,0,0,1,3.9-4.1,3.72,3.72,0,0,1,2.8,1.3h.1A9.17,9.17,0,0,0,24,7.3a4,4,0,0,1-1.6,2l-.4.2.4-.1a11.7,11.7,0,0,0,2-.5A7.51,7.51,0,0,1,22.7,10.8Z"/><path class="cls-1" d="M11.4,24.3a11.91,11.91,0,0,1-6.6-2,1,1,0,0,1-.4-1.1.87.87,0,0,1,.9-.6h.1c.3,0,.5.1.8.1a7.51,7.51,0,0,0,2.6-.5,5.13,5.13,0,0,1-2.3-2.9,1.13,1.13,0,0,1,.1-.8,5.14,5.14,0,0,1-1.5-3.7v-.1a1,1,0,0,1,.5-.8,7,7,0,0,1-.4-2.3A4.84,4.84,0,0,1,5.9,7a.75.75,0,0,1,.7-.5h0a.91.91,0,0,1,.8.4,10.11,10.11,0,0,0,6.4,3.9,5.06,5.06,0,0,1,4.9-5A4.72,4.72,0,0,1,21.9,7a5.31,5.31,0,0,0,1.7-.8,1.08,1.08,0,0,1,1.1,0,1,1,0,0,1,.3,1,.76.76,0,0,1-.2.4.85.85,0,0,1,.5.3h0a1,1,0,0,1,.1,1.2,9.09,9.09,0,0,1-1.8,2.1v.1A13.82,13.82,0,0,1,20.5,20,11.32,11.32,0,0,1,11.4,24.3ZM5.3,20.8A.64.64,0,0,0,5,22a11.59,11.59,0,0,0,6.5,2,11.25,11.25,0,0,0,8.9-4.1,13.08,13.08,0,0,0,3.1-8.5v-.2h.1a9.09,9.09,0,0,0,1.8-2.1.62.62,0,0,0-.1-.8h0a.86.86,0,0,0-.6-.3h-.2l.1-.2a1.42,1.42,0,0,0,.2-.6.57.57,0,0,0-.2-.7.48.48,0,0,0-.7,0,6.39,6.39,0,0,1-1.9.8h-.1l-.1-.1A5,5,0,0,0,18.7,6a4.72,4.72,0,0,0-4.6,4.9v.2h-.2a10.49,10.49,0,0,1-6.7-4,.6.6,0,0,0-.6-.3h0a.55.55,0,0,0-.5.3,5.42,5.42,0,0,0-.6,2.5A5,5,0,0,0,6,11.7v.2l-.1.1H5.8a.6.6,0,0,0-.3.6v.1A4.75,4.75,0,0,0,7,16.3H7v.1a.66.66,0,0,0-.1.6,5,5,0,0,0,2.4,2.9l.2.1-.3.1a7.35,7.35,0,0,1-3,.7Zm6.1,2.6a10.9,10.9,0,0,1-5.8-1.7l-.5-.3H6.3a7.81,7.81,0,0,0,4.8-1.7,4.19,4.19,0,0,1-3.6-2.8l-.1-.2h.2a3.3,3.3,0,0,0,1.4,0,4.2,4.2,0,0,1-3-4v-.3l.2.1a3.71,3.71,0,0,0,1.5.4A4.42,4.42,0,0,1,6.1,9.5a4.55,4.55,0,0,1,.5-2l.1-.2.1.2a10.82,10.82,0,0,0,8,4.2,2.77,2.77,0,0,1-.1-.9,4.21,4.21,0,0,1,4-4.3,3.93,3.93,0,0,1,2.9,1.3,9.17,9.17,0,0,0,2.3-.9l.4-.2-.1.4a4.26,4.26,0,0,1-1.5,2,8.45,8.45,0,0,0,1.7-.5l.5-.2-.3.6a8.13,8.13,0,0,1-1.8,1.9v.5A11.59,11.59,0,0,1,11.4,23.4ZM6.3,21.7A10.56,10.56,0,0,0,11.5,23,11.34,11.34,0,0,0,22.6,11.3v-.6l.1-.1a7.11,7.11,0,0,0,1.5-1.5,7.49,7.49,0,0,1-1.6.4l-1.1.1.9-.6a3.64,3.64,0,0,0,1.4-1.6,6.79,6.79,0,0,1-2,.7h-.1L21.6,8a3.57,3.57,0,0,0-2.7-1.2,3.83,3.83,0,0,0-3.7,4,2.77,2.77,0,0,0,.1.9l.1.3h-.3A11.37,11.37,0,0,1,7,7.8a2.61,2.61,0,0,0-.6,1.8,3.9,3.9,0,0,0,1.7,3.3l.7.5H8A2.82,2.82,0,0,1,6.5,13a3.84,3.84,0,0,0,3,3.5l.9.2-.9.3a3.81,3.81,0,0,1-1.5.1,4,4,0,0,0,3.4,2.4H12l-.5.4a8.63,8.63,0,0,1-5.2,1.8Z"/></svg>