<?xml version="1.0" encoding="utf-8"?>
<!-- Generator: Adobe Illustrator 21.0.0, SVG Export Plug-In . SVG Version: 6.00 Build 0)  -->
<!DOCTYPE svg PUBLIC "-//W3C//DTD SVG 1.1//EN" "http://www.w3.org/Graphics/SVG/1.1/DTD/svg11.dtd">
<svg version="1.1" id="Ebene_1" xmlns="http://www.w3.org/2000/svg" xmlns:xlink="http://www.w3.org/1999/xlink" x="0px" y="0px"
	 width="30px" height="30px" viewBox="0 0 30 30" style="enable-background:new 0 0 30 30;" xml:space="preserve">
<style type="text/css">
	.st0{fill:#0069B4;}
</style>
<title>services-blau</title>
<g>
	<g>
		<path class="st0" d="M20.9,27.3c-1.3,0-2.7-0.4-3.8-1.3c-1.6-1.2-2.3-2.9-2.3-5.1c0-0.1,0-0.2,0.1-0.3c0.1-0.1,0.2-0.1,0.3-0.1
			h1.1v-3.6c0-0.2,0.2-0.4,0.4-0.4h3.7v-2.6h-3.7c-0.2,0-0.4-0.2-0.4-0.4V9.7c-0.3,0-0.6,0-0.9,0c-0.2,0-0.4,0-0.6-0.2
			c-0.2-0.2-0.2-0.5-0.2-0.6c0.1-2.5,1.3-4.4,3.5-5.5c0.7-0.4,1.4-0.5,2.1-0.7c0,0,0.1,0,0.1,0h1.2c0,0,0.1,0,0.1,0c0,0,0,0,0.1,0
			l0,0c3,0.3,5.3,2.9,5.3,6c0,1,0,2.1,0,3.1c0,0.4,0,0.9,0,1.3c0,0.1,0,0.2,0,0.2l0,0c0,0.2-0.2,0.4-0.4,0.4h-1.8
			c0.9,0.8,1.6,1.8,2,2.9c0.1,0.4,0.2,0.8,0.2,1.2c0,0.2,0,0.3,0.1,0.5c0,0,0,0.1,0,0.1v3.1c0,0,0,0.1,0,0.1L27,22.2
			c-0.4,2.1-1.9,3.9-3.9,4.6C22.3,27.1,21.6,27.3,20.9,27.3z M15.7,21.3c0.1,1.7,0.7,3,2,4c1.5,1.1,3.4,1.4,5.1,0.7
			c1.7-0.7,3-2.1,3.3-4l0.1-0.5v-3c0-0.2,0-0.3-0.1-0.5c-0.1-0.4-0.1-0.7-0.2-1c-0.4-1.3-1.3-2.4-2.6-3.1c0,0-0.1-0.1-0.2-0.1
			l-0.1-0.1c-0.2-0.1-0.2-0.3-0.2-0.5c0.1-0.2,0.2-0.3,0.4-0.3h2.8c0-0.3,0-0.7,0-1c0-1,0-2.1,0-3.1c-0.1-2.6-2-4.8-4.6-5.1
			c-0.1,0-0.1,0-0.2,0h-1.1c-0.6,0.1-1.2,0.3-1.8,0.6c-1.8,1-2.8,2.5-3,4.6c0.3,0,0.5,0,0.8,0l0.4,0c0.2,0,0.4,0.2,0.4,0.4v3.7h3.7
			c0.2,0,0.4,0.2,0.4,0.4v3.5c0,0.2-0.2,0.4-0.4,0.4h-3.7v3.6c0,0.2-0.2,0.4-0.4,0.4H15.7z"/>
	</g>
	<g>
		<path class="st0" d="M9.7,27.3H8.6c0,0-0.1,0-0.1,0l-0.1,0c0,0,0,0-0.1,0c-2.5-0.4-4.2-1.8-5.1-4.3C3.1,22.7,3,22.5,3,22.3
			c0-0.1,0-0.2-0.1-0.3c0,0,0-0.1,0-0.1v-5.1c0-0.2,0.2-0.4,0.4-0.4h9.9c0.2,0,0.4,0.2,0.4,0.4v3.6h1.1c0.2,0,0.4,0.2,0.4,0.4
			c0.1,0.6,0,1.3-0.2,1.9c-0.8,2.6-2.5,4.1-5.1,4.5c0,0,0,0,0,0l-0.1,0C9.8,27.3,9.8,27.3,9.7,27.3z M8.6,26.4h1.1
			c0.1,0,0.1,0,0.2,0c2.3-0.4,3.7-1.7,4.4-3.9c0.1-0.4,0.2-0.8,0.2-1.1h-1.2c-0.2,0-0.4-0.2-0.4-0.4v-3.6h-9v4.6
			c0,0.1,0,0.2,0.1,0.2c0,0.2,0.1,0.4,0.1,0.5c0.8,2.2,2.2,3.4,4.4,3.8C8.5,26.4,8.6,26.4,8.6,26.4z"/>
	</g>
	<g>
		<path class="st0" d="M13.2,13.7H9c-0.2,0-0.4-0.2-0.4-0.4V3.4C8.6,3.2,8.8,3,9,3h5.8c0.2,0,0.4,0.2,0.4,0.4v5.8
			c0,0.2-0.2,0.4-0.4,0.4h-1.2v3.6C13.7,13.5,13.5,13.7,13.2,13.7z M9.5,12.8h3.3V9.2c0-0.2,0.2-0.4,0.4-0.4h1.2V3.9H9.5V12.8z"/>
	</g>
</g>
</svg>
