<svg id="Ebene_1" data-name="Ebene 1" xmlns="http://www.w3.org/2000/svg" viewBox="0 0 100 100"><defs><style>.cls-1{fill:#0069b4;}</style></defs><title>kulturfoerderung-blau</title><path class="cls-1" d="M16.2,41V80.1a1.45,1.45,0,0,0,.2.7,1.42,1.42,0,0,0,1.3.9H82.2a1.37,1.37,0,0,0,1.4-1.4V41h.2a3.1,3.1,0,0,0,3-3.1V27a3,3,0,0,0-3-3.1H64.5V19.5a3.12,3.12,0,0,0-3.2-3h-2a2.8,2.8,0,0,0-2.6,1.9l-.1.4L56,15a2.59,2.59,0,0,0-2.6-2.2H47.5A2.59,2.59,0,0,0,44.9,15l-.6,3.3a2.72,2.72,0,0,0-2.5-1.7H38.9a3.06,3.06,0,0,0-3.2,3V24H16.4a3.1,3.1,0,0,0-3,3.1V38A3,3,0,0,0,16.2,41ZM84,34.8V38c0,.2-.1.3-.2.3H16.4c-.1,0-.2-.1-.2-.3V27c0-.2.1-.3.2-.3H83.8c.1,0,.2.1.2.3ZM25.5,41V79H18.9V41Zm2.8,0H43.9V79H28.3Zm18.3,0h6.6V79H46.6ZM56,41H71.4V79H56ZM74.2,79V41h6.6V79ZM61.7,23.9H57.8l1.4-4.6h2a.43.43,0,0,1,.4.2v4.4ZM46,23.9l1.4-8.4,5.8-.1,1.5,8.5Zm-7.6,0V19.5c0-.1.2-.2.4-.2l2.8-.1,1.3,4.7Z"/><path class="cls-1" d="M88.6,84.5H11.4a1.4,1.4,0,0,0,0,2.8H88.7a1.37,1.37,0,0,0,1.4-1.4A1.45,1.45,0,0,0,88.6,84.5Z"/></svg>