<?xml version="1.0" encoding="utf-8"?>
<!-- Generator: Adobe Illustrator 21.0.0, SVG Export Plug-In . SVG Version: 6.00 Build 0)  -->
<!DOCTYPE svg PUBLIC "-//W3C//DTD SVG 1.1//EN" "http://www.w3.org/Graphics/SVG/1.1/DTD/svg11.dtd">
<svg version="1.1" id="Ebene_1" xmlns="http://www.w3.org/2000/svg" xmlns:xlink="http://www.w3.org/1999/xlink" x="0px" y="0px"
	 width="30px" height="30px" viewBox="0 0 30 30" style="enable-background:new 0 0 30 30;" xml:space="preserve">
<style type="text/css">
	.st0{fill:#0069B4;}
</style>
<title>services-blau</title>
<g>
	<path class="st0" d="M15.1,16.7c-1.8,0-3.2-1.4-3.2-3.2c0-1.8,1.4-3.2,3.2-3.2c1.8,0,3.2,1.4,3.2,3.2
		C18.3,15.2,16.9,16.7,15.1,16.7z M15.1,11c-1.3,0-2.4,1.1-2.4,2.4c0,1.3,1.1,2.4,2.4,2.4s2.4-1.1,2.4-2.4
		C17.5,12.1,16.5,11,15.1,11z"/>
</g>
<g>
	<path class="st0" d="M8.6,11.7c-1.8,0-3.2-1.4-3.2-3.2s1.4-3.2,3.2-3.2s3.2,1.4,3.2,3.2S10.4,11.7,8.6,11.7z M8.6,6.1
		c-1.3,0-2.4,1.1-2.4,2.4S7.3,11,8.6,11s2.4-1.1,2.4-2.4S10,6.1,8.6,6.1z"/>
</g>
<g>
	<path class="st0" d="M21.4,11.8c-1.8,0-3.2-1.4-3.2-3.2s1.4-3.2,3.2-3.2c1.8,0,3.2,1.4,3.2,3.2S23.2,11.8,21.4,11.8z M21.4,6.2
		c-1.3,0-2.4,1.1-2.4,2.4s1.1,2.4,2.4,2.4s2.4-1.1,2.4-2.4S22.8,6.2,21.4,6.2z"/>
</g>
<g>
	<path class="st0" d="M20.8,24.6h-1.9c-0.2,0-0.4-0.2-0.4-0.4l0-1.9c-0.1,0-0.2,0.1-0.2,0.1v1.8c0,0.2-0.2,0.4-0.4,0.4h-5.6
		c-0.2,0-0.4-0.2-0.4-0.4v-1.9c-0.1,0-0.2-0.1-0.3-0.1v1.9c0,0.2-0.2,0.4-0.4,0.4H9.3c-0.2,0-0.4-0.2-0.4-0.4v-5.5c0,0,0-0.1,0-0.1
		c0-0.1,0.2-0.7,0.5-1.1c0.5-0.6,1.2-0.7,1.2-0.8c0,0,0.1,0,0.1,0h8.6c0,0,0,0,0.1,0c0.1,0,0.6,0.1,1.1,0.6c0.6,0.6,0.5,1.3,0.5,1.4
		l0,5.5C21.1,24.5,21,24.6,20.8,24.6z M19.3,23.9h1.1v-5.1c0,0,0-0.5-0.3-0.8c-0.3-0.3-0.6-0.4-0.7-0.4h-8.5c-0.1,0-0.5,0.2-0.8,0.5
		c-0.2,0.2-0.3,0.6-0.4,0.8v5.1h1.2v-2c0-0.2,0.2-0.4,0.4-0.4c0.4,0,1.4,0.1,1.4,0.8v1.6h4.9v-1.5c0-0.7,1-0.8,1.3-0.8
		c0.1,0,0.2,0,0.3,0.1c0.1,0.1,0.1,0.2,0.1,0.3L19.3,23.9z"/>
</g>
<g>
	<path class="st0" d="M26.9,19.9H25c-0.2,0-0.4-0.2-0.4-0.4l0-1.9c-0.1,0-0.2,0.1-0.3,0.1v1.8c0,0.2-0.2,0.4-0.4,0.4h-1.4
		c-0.2,0-0.4-0.2-0.4-0.4l0-1.3c0,0,0,0,0,0c0,0,0-0.6-0.5-1.1c-0.4-0.4-1-0.6-1.1-0.6h-2.8c-0.2,0-0.3-0.1-0.4-0.3
		c0-0.2,0-0.3,0.2-0.4c0,0,1-0.7,1.4-1.3c0.3-0.4,0.3-1.5,0.3-2.1c0-0.1,0-0.2,0.1-0.3c0.1-0.1,0.2-0.1,0.3-0.1h5.9c0,0,0,0,0.1,0
		c0.1,0,0.6,0.1,1.1,0.6c0.6,0.6,0.5,1.3,0.5,1.4l0,5.5C27.2,19.8,27.1,19.9,26.9,19.9z M25.4,19.2h1.1v-5.1c0,0,0-0.5-0.3-0.8
		c-0.3-0.3-0.6-0.4-0.7-0.4H20c0,0.6-0.1,1.6-0.4,2.1c-0.2,0.3-0.5,0.6-0.8,0.8h1.7c0,0,0,0,0.1,0c0,0,0.9,0.2,1.6,0.8
		c0.7,0.7,0.7,1.5,0.7,1.6l0,0.9h0.7v-1.5c0-0.7,1-0.8,1.3-0.8c0.1,0,0.2,0,0.3,0.1c0.1,0.1,0.1,0.2,0.1,0.3L25.4,19.2z"/>
</g>
<g>
	<path class="st0" d="M7.4,19.9H6c-0.2,0-0.4-0.2-0.4-0.4v-1.8c0,0-0.1-0.1-0.2-0.1l0,1.9c0,0.2-0.2,0.4-0.4,0.4H3.1
		c-0.2,0-0.4-0.2-0.4-0.4V14c0,0-0.1-0.8,0.5-1.3c0.5-0.5,1.1-0.6,1.1-0.6c0,0,0,0,0.1,0h5.9c0.1,0,0.2,0,0.3,0.1
		c0.1,0.1,0.1,0.2,0.1,0.3c0,0.6,0,1.7,0.3,2.1c0.3,0.5,1.2,1.1,1.4,1.3c0.1,0.1,0.2,0.3,0.2,0.4c0,0.2-0.2,0.3-0.4,0.3H9.5
		c-0.1,0-0.7,0.2-1.1,0.6c-0.5,0.6-0.5,1.1-0.5,1.1c0,0,0,0,0,0l0,1.3C7.8,19.7,7.6,19.9,7.4,19.9z M6.4,19.1h0.7l0-0.9
		c0-0.2,0-0.9,0.7-1.6c0.6-0.7,1.5-0.8,1.6-0.8c0,0,0,0,0.1,0h1.7c-0.3-0.2-0.6-0.5-0.8-0.8c-0.3-0.5-0.4-1.6-0.4-2.1H4.5
		c-0.1,0-0.4,0.1-0.7,0.4C3.5,13.5,3.5,14,3.5,14l0,5.1h1.1l0-2c0-0.1,0-0.2,0.1-0.3c0.1-0.1,0.2-0.1,0.3-0.1c0.3,0,1.3,0.2,1.3,0.8
		V19.1z"/>
</g>
</svg>
