<?xml version="1.0" encoding="utf-8"?>
<!-- Generator: Adobe Illustrator 21.0.0, SVG Export Plug-In . SVG Version: 6.00 Build 0)  -->
<!DOCTYPE svg PUBLIC "-//W3C//DTD SVG 1.1//EN" "http://www.w3.org/Graphics/SVG/1.1/DTD/svg11.dtd">
<svg version="1.1" id="Ebene_1" xmlns="http://www.w3.org/2000/svg" xmlns:xlink="http://www.w3.org/1999/xlink" x="0px" y="0px"
	 width="30px" height="30px" viewBox="0 0 30 30" style="enable-background:new 0 0 30 30;" xml:space="preserve">
<style type="text/css">
	.st0{fill:#0069B4;}
</style>
<title>services-blau</title>
<g>
	<g>
		<g>
			<path class="st0" d="M4.3,23H3.6c-0.2,0-0.4-0.2-0.4-0.4v-15c0-0.2,0.2-0.4,0.4-0.4h4.7c0.2,0,0.4,0.2,0.4,0.4
				C8.8,7.8,8.7,8,8.5,8c-2.1,0.8-3.4,2.7-3.4,5.1h2.6c0.2-2.6,1.7-3.1,3-3.1c1.5,0,2.4,0.9,2.4,2.4c0,1.3-1.1,2.2-2.2,2.9
				c-0.3,0.2-0.6,0.4-0.9,0.6C9.1,16.5,8,17.2,7,18c0,0,0,0,0,0c-1.4,1.2-2.2,2.8-2.2,4.6C4.7,22.8,4.5,23,4.3,23z M4,8.1v13.2
				c0.3-1.5,1.2-2.9,2.4-3.9c1-0.9,2.2-1.6,3.2-2.2c0.3-0.2,0.6-0.4,0.9-0.5c1.1-0.7,1.8-1.4,1.8-2.2c0-0.9-0.6-1.5-1.5-1.5
				c-1,0-2.1,0.3-2.1,2.7c0,0.2-0.2,0.4-0.4,0.4H4.7c-0.2,0-0.4-0.2-0.4-0.4c-0.1-2.4,0.7-4.4,2.3-5.6H4z"/>
		</g>
		<g>
			<path class="st0" d="M22.6,23h-6c-0.2,0-0.4-0.2-0.4-0.4V20H9.3c-0.2,0-0.3-0.1-0.4-0.3c-0.1-0.2,0-0.4,0.1-0.5
				c1-1,1.6-1.4,2.8-2.1l0.5-0.3c2.1-1.3,3.7-2.3,3.7-4.8c0-2.6-1.9-3.7-3-4.1c-0.2-0.1-0.3-0.3-0.3-0.5c0-0.2,0.2-0.4,0.4-0.4h10.3
				c0.1,0,0.2,0.1,0.3,0.1c0.1,0.1,0.1,0.2,0.1,0.3c-0.2,2.1-1.9,3.3-4.5,3.4v1.9h3.2c0.2,0,0.4,0.2,0.4,0.4v9.2
				C23,22.8,22.8,23,22.6,23z M17,22.1h5.1v-8.3h-3.2c-0.2,0-0.4-0.2-0.4-0.4v-2.8c0-0.1,0-0.2,0.1-0.3c0.1-0.1,0.2-0.1,0.3-0.1
				c1,0,3.4-0.2,4-2.1h-7.9c1.2,0.9,1.9,2.3,1.9,4c0,3-2,4.3-4.2,5.6L12.2,18c-0.7,0.5-1.2,0.8-1.8,1.2h6.1c0.2,0,0.4,0.2,0.4,0.4
				V22.1z"/>
		</g>
	</g>
	<g>
		<path class="st0" d="M26.9,23c-0.2,0-0.4-0.2-0.4-0.4v-15c0-0.2,0.2-0.4,0.4-0.4c0.2,0,0.4,0.2,0.4,0.4v15
			C27.4,22.8,27.2,23,26.9,23z"/>
	</g>
</g>
</svg>
