<?xml version="1.0" encoding="utf-8"?>
<!-- Generator: Adobe Illustrator 21.0.0, SVG Export Plug-In . SVG Version: 6.00 Build 0)  -->
<!DOCTYPE svg PUBLIC "-//W3C//DTD SVG 1.1//EN" "http://www.w3.org/Graphics/SVG/1.1/DTD/svg11.dtd">
<svg version="1.1" id="Ebene_1" xmlns="http://www.w3.org/2000/svg" xmlns:xlink="http://www.w3.org/1999/xlink" x="0px" y="0px"
	 width="30px" height="30px" viewBox="0 0 30 30" style="enable-background:new 0 0 30 30;" xml:space="preserve">
<style type="text/css">
	.st0{fill:#0069B4;}
</style>
<title>services-blau</title>
<g>
	<g>
		<path class="st0" d="M25.3,22.6H4.7c-0.2,0-0.4-0.2-0.4-0.4V9.8c0-0.8,0.7-1.5,1.5-1.5h5.7c0.2,0,0.4,0.2,0.4,0.4
			s-0.2,0.4-0.4,0.4H5.7c-0.3,0-0.6,0.3-0.6,0.6v11.9h19.7v-8.3c0-0.2,0.2-0.4,0.4-0.4s0.4,0.2,0.4,0.4v8.8
			C25.7,22.4,25.5,22.6,25.3,22.6z"/>
	</g>
	<g>
		<path class="st0" d="M24.8,25.7H5.2c-1.4,0-2.5-1.1-2.5-2.5v-1c0-0.2,0.2-0.4,0.4-0.4h23.7c0.2,0,0.4,0.2,0.4,0.4v1
			C27.3,24.6,26.1,25.7,24.8,25.7z M3.6,22.6v0.6c0,0.9,0.7,1.6,1.6,1.6h19.6c0.9,0,1.6-0.7,1.6-1.6v-0.6H3.6z"/>
	</g>
	<g>
		<path class="st0" d="M16.5,24.2h-2.6c-0.2,0-0.4-0.2-0.4-0.4c0-0.2,0.2-0.4,0.4-0.4h2.6c0.2,0,0.4,0.2,0.4,0.4
			C17,24,16.8,24.2,16.5,24.2z"/>
	</g>
	<g>
		<path class="st0" d="M17,17.8c-0.1,0-0.2,0-0.4-0.1c-0.4-0.1-0.6-0.5-0.6-0.9v-3h-2.6c-0.2,0-0.4-0.2-0.4-0.4s0.2-0.4,0.4-0.4h3.1
			c0.2,0,0.4,0.2,0.4,0.4v3.4c0,0,0,0,0,0.1c0,0,0.1,0,0.1,0l3.8-3.8C20.9,13,21,13,21.2,13h4.1c0.6,0,1.1-0.5,1.1-1.1V5.2
			c0-0.6-0.5-1.1-1.1-1.1H12.9c-0.6,0-1.1,0.5-1.1,1.1v6.2c0,0.2-0.2,0.4-0.4,0.4s-0.4-0.2-0.4-0.4V5.2c0-1.1,0.9-2,2-2h12.4
			c1.1,0,2,0.9,2,2v6.7c0,1.1-0.9,2-2,2h-3.9l-3.6,3.6C17.5,17.7,17.3,17.8,17,17.8z"/>
	</g>
	<g>
		<path class="st0" d="M15.5,22.6c-0.2,0-0.4-0.2-0.4-0.4v-2.4c0-1-2.5-1.8-3.7-1.8s-3.7,0.8-3.7,1.8v2.4c0,0.2-0.2,0.4-0.4,0.4
			s-0.4-0.2-0.4-0.4v-2.4c0-1.9,3.5-2.7,4.6-2.7s4.6,0.8,4.6,2.7v2.4C15.9,22.4,15.7,22.6,15.5,22.6z"/>
	</g>
	<g>
		<path class="st0" d="M11.4,16.4c-1.4,0-2.5-1.1-2.5-2.5v-0.5c0-1.4,1.1-2.5,2.5-2.5s2.5,1.1,2.5,2.5v0.5
			C13.9,15.3,12.7,16.4,11.4,16.4z M11.4,11.8c-0.9,0-1.6,0.7-1.6,1.6v0.5c0,0.9,0.7,1.6,1.6,1.6s1.6-0.7,1.6-1.6v-0.5
			C13,12.5,12.3,11.8,11.4,11.8z"/>
	</g>
</g>
</svg>
