<?xml version="1.0" encoding="utf-8"?>
<!-- Generator: Adobe Illustrator 21.0.0, SVG Export Plug-In . SVG Version: 6.00 Build 0)  -->
<!DOCTYPE svg PUBLIC "-//W3C//DTD SVG 1.1//EN" "http://www.w3.org/Graphics/SVG/1.1/DTD/svg11.dtd">
<svg version="1.1" id="Ebene_1" xmlns="http://www.w3.org/2000/svg" xmlns:xlink="http://www.w3.org/1999/xlink" x="0px" y="0px"
	 width="30px" height="30px" viewBox="0 0 30 30" style="enable-background:new 0 0 30 30;" xml:space="preserve">
<style type="text/css">
	.st0{fill:#FFFFFF;}
</style>
<title>services-blau</title>
<g>
	<g>
		<g>
			<path class="st0" d="M4.6,19.6c-0.2,0-0.3-0.2-0.3-0.3c0-0.7,0.4-1.3,1-1.6c0.2-0.1,0.4,0,0.5,0.2c0.1,0.2,0,0.4-0.2,0.5
				c-0.4,0.2-0.6,0.5-0.6,0.9C4.9,19.5,4.8,19.6,4.6,19.6z"/>
			<path class="st0" d="M4.6,19.7c-0.2,0-0.4-0.2-0.4-0.4c0-0.7,0.4-1.3,1-1.6c0.2-0.1,0.5,0,0.6,0.2c0.1,0.2,0,0.5-0.2,0.6
				C5.2,18.6,5,18.9,5,19.3C5,19.5,4.8,19.7,4.6,19.7z M5.4,17.8c0,0-0.1,0-0.1,0c-0.6,0.3-0.9,0.9-0.9,1.5c0,0.1,0.1,0.3,0.3,0.3
				c0.1,0,0.3-0.1,0.3-0.3c0-0.4,0.2-0.8,0.6-1c0.1-0.1,0.2-0.2,0.1-0.4C5.6,17.8,5.5,17.8,5.4,17.8z"/>
		</g>
	</g>
	<g>
		<g>
			<path class="st0" d="M22.7,23.5H4.6c-0.2,0-0.3-0.2-0.3-0.3v-3.8c0-0.2,0.2-0.3,0.3-0.3c0.2,0,0.3,0.2,0.3,0.3v3.5h17.4v-3.5
				c0-0.2,0.2-0.3,0.3-0.3s0.3,0.2,0.3,0.3v3.8C23,23.3,22.9,23.5,22.7,23.5z"/>
			<path class="st0" d="M22.7,23.5H4.6c-0.2,0-0.4-0.2-0.4-0.4v-3.8c0-0.2,0.2-0.4,0.4-0.4S5,19,5,19.3v3.4h17.3v-3.4
				c0-0.2,0.2-0.4,0.4-0.4c0.2,0,0.4,0.2,0.4,0.4v3.8C23.1,23.4,22.9,23.5,22.7,23.5z M4.6,19c-0.1,0-0.3,0.1-0.3,0.3v3.8
				c0,0.1,0.1,0.3,0.3,0.3h18.1c0.1,0,0.3-0.1,0.3-0.3v-3.8c0-0.1-0.1-0.3-0.3-0.3c-0.1,0-0.3,0.1-0.3,0.3v3.6H4.9v-3.6
				C4.9,19.1,4.7,19,4.6,19z"/>
		</g>
	</g>
	<g>
		<g>
			<path class="st0" d="M5.6,18.2C5.6,18.2,5.6,18.2,5.6,18.2c-0.3-0.1-0.4-0.2-0.3-0.4l1.4-6c0-0.2,0.2-0.3,0.3-0.3h5.2
				c0.2,0,0.3,0.2,0.3,0.3c0,0.2-0.2,0.3-0.3,0.3H7.3L6,18C5.9,18.1,5.8,18.2,5.6,18.2z"/>
			<path class="st0" d="M5.6,18.3C5.6,18.3,5.6,18.3,5.6,18.3c-0.2,0-0.3-0.1-0.4-0.2c-0.1-0.1-0.1-0.2-0.1-0.3l1.4-6
				c0-0.2,0.2-0.3,0.4-0.3h5.2c0.2,0,0.4,0.2,0.4,0.4c0,0.2-0.2,0.4-0.4,0.4H7.4L6,18C6,18.2,5.8,18.3,5.6,18.3z M7,11.6
				c-0.1,0-0.2,0.1-0.3,0.2l-1.4,6c0,0.1,0,0.1,0,0.2c0,0.1,0.1,0.1,0.2,0.1c0.1,0,0.3-0.1,0.3-0.2l1.4-5.8h5c0.1,0,0.3-0.1,0.3-0.3
				c0-0.1-0.1-0.3-0.3-0.3H7z"/>
		</g>
	</g>
	<g>
		<g>
			<path class="st0" d="M21.6,18.2c-0.2,0-0.3-0.1-0.3-0.3l-0.6-2.8c0-0.2,0.1-0.4,0.3-0.4c0.2,0,0.4,0.1,0.4,0.3l0.6,2.8
				C22,18,21.9,18.2,21.6,18.2C21.6,18.2,21.6,18.2,21.6,18.2z"/>
			<path class="st0" d="M21.6,18.3c-0.2,0-0.4-0.1-0.4-0.3l-0.6-2.8c0-0.2,0.1-0.4,0.3-0.5c0.2,0,0.4,0.1,0.5,0.3l0.6,2.8
				C22,18,21.9,18.2,21.6,18.3C21.7,18.3,21.6,18.3,21.6,18.3z M21,14.8C21,14.8,21,14.8,21,14.8c-0.2,0-0.3,0.2-0.3,0.3l0.6,2.8
				c0,0.1,0.2,0.2,0.3,0.2c0.1,0,0.2-0.2,0.2-0.3L21.3,15C21.2,14.9,21.1,14.8,21,14.8z"/>
		</g>
	</g>
	<g>
		<g>
			<path class="st0" d="M5.9,15.8H4.3c-0.2,0-0.3-0.2-0.3-0.3c0-0.2,0.2-0.3,0.3-0.3h1.6c0.2,0,0.3,0.2,0.3,0.3
				C6.3,15.6,6.1,15.8,5.9,15.8z"/>
			<path class="st0" d="M5.9,15.9H4.3c-0.2,0-0.4-0.2-0.4-0.4c0-0.2,0.2-0.4,0.4-0.4h1.6c0.2,0,0.4,0.2,0.4,0.4
				C6.3,15.7,6.1,15.9,5.9,15.9z M4.3,15.2c-0.1,0-0.3,0.1-0.3,0.3c0,0.1,0.1,0.3,0.3,0.3h1.6c0.1,0,0.3-0.1,0.3-0.3
				c0-0.1-0.1-0.3-0.3-0.3H4.3z"/>
		</g>
	</g>
	<g>
		<g>
			<path class="st0" d="M22.7,19.6c-0.2,0-0.3-0.2-0.3-0.3c0-0.5-0.3-0.9-0.7-1c-0.2-0.1-0.3-0.3-0.2-0.4c0.1-0.2,0.3-0.3,0.4-0.2
				c0.7,0.2,1.2,0.9,1.2,1.7C23,19.5,22.9,19.6,22.7,19.6z"/>
			<path class="st0" d="M22.7,19.7c-0.2,0-0.4-0.2-0.4-0.4c0-0.4-0.3-0.8-0.7-0.9c-0.2-0.1-0.3-0.3-0.3-0.5c0-0.1,0.1-0.2,0.2-0.2
				c0.1,0,0.2-0.1,0.3,0c0.7,0.3,1.2,0.9,1.2,1.7C23.1,19.5,22.9,19.7,22.7,19.7z M21.8,17.7c0,0-0.1,0-0.1,0
				c-0.1,0-0.1,0.1-0.1,0.2c0,0.1,0,0.3,0.2,0.3c0.5,0.2,0.8,0.6,0.8,1.1c0,0.1,0.1,0.3,0.3,0.3c0.1,0,0.3-0.1,0.3-0.3
				C23,18.6,22.5,17.9,21.8,17.7C21.8,17.7,21.8,17.7,21.8,17.7z"/>
		</g>
	</g>
	<g>
		<g>
			<path class="st0" d="M8.2,22.1c-0.9,0-1.6-0.7-1.6-1.6c0-0.9,0.7-1.6,1.6-1.6c0.9,0,1.6,0.7,1.6,1.6C9.8,21.4,9.1,22.1,8.2,22.1z
				 M8.2,19.7c-0.5,0-0.9,0.4-0.9,0.9c0,0.5,0.4,0.9,0.9,0.9c0.5,0,0.9-0.4,0.9-0.9C9.1,20.1,8.7,19.7,8.2,19.7z"/>
			<path class="st0" d="M8.2,22.2c-0.9,0-1.6-0.7-1.6-1.6c0-0.9,0.7-1.6,1.6-1.6c0.9,0,1.6,0.7,1.6,1.6C9.9,21.4,9.1,22.2,8.2,22.2z
				 M8.2,19c-0.8,0-1.5,0.7-1.5,1.5c0,0.8,0.7,1.5,1.5,1.5c0.8,0,1.5-0.7,1.5-1.5C9.7,19.7,9.1,19,8.2,19z M8.2,21.5
				c-0.5,0-0.9-0.4-0.9-0.9c0-0.5,0.4-0.9,0.9-0.9c0.5,0,0.9,0.4,0.9,0.9C9.2,21.1,8.8,21.5,8.2,21.5z M8.2,19.7
				c-0.4,0-0.8,0.4-0.8,0.8c0,0.4,0.4,0.8,0.8,0.8C8.7,21.3,9,21,9,20.5C9,20.1,8.7,19.7,8.2,19.7z"/>
		</g>
	</g>
	<g>
		<g>
			<path class="st0" d="M18.8,22.1c-0.9,0-1.6-0.7-1.6-1.6c0-0.9,0.7-1.6,1.6-1.6c0.9,0,1.6,0.7,1.6,1.6
				C20.4,21.4,19.7,22.1,18.8,22.1z M18.8,19.7c-0.5,0-0.9,0.4-0.9,0.9c0,0.5,0.4,0.9,0.9,0.9c0.5,0,0.9-0.4,0.9-0.9
				C19.7,20.1,19.3,19.7,18.8,19.7z"/>
			<path class="st0" d="M18.8,22.2c-0.9,0-1.6-0.7-1.6-1.6c0-0.9,0.7-1.6,1.6-1.6c0.9,0,1.6,0.7,1.6,1.6
				C20.5,21.4,19.7,22.2,18.8,22.2z M18.8,19c-0.8,0-1.5,0.7-1.5,1.5c0,0.8,0.7,1.5,1.5,1.5c0.8,0,1.5-0.7,1.5-1.5
				C20.3,19.7,19.7,19,18.8,19z M18.8,21.5c-0.5,0-0.9-0.4-0.9-0.9c0-0.5,0.4-0.9,0.9-0.9c0.5,0,0.9,0.4,0.9,0.9
				C19.8,21.1,19.4,21.5,18.8,21.5z M18.8,19.7c-0.4,0-0.8,0.4-0.8,0.8c0,0.4,0.4,0.8,0.8,0.8c0.4,0,0.8-0.4,0.8-0.8
				C19.6,20.1,19.3,19.7,18.8,19.7z"/>
		</g>
	</g>
	<g>
		<g>
			<path class="st0" d="M21.6,18.4h-16c-0.2,0-0.3-0.2-0.3-0.3c0-0.2,0.2-0.3,0.3-0.3h16c0.2,0,0.3,0.2,0.3,0.3
				C21.9,18.2,21.8,18.4,21.6,18.4z"/>
			<path class="st0" d="M21.6,18.4h-16c-0.2,0-0.4-0.2-0.4-0.4s0.2-0.4,0.4-0.4h16c0.2,0,0.4,0.2,0.4,0.4S21.8,18.4,21.6,18.4z
				 M5.6,17.8c-0.1,0-0.3,0.1-0.3,0.3s0.1,0.3,0.3,0.3h16c0.1,0,0.3-0.1,0.3-0.3s-0.1-0.3-0.3-0.3H5.6z"/>
		</g>
	</g>
	<g>
		<g>
			<path class="st0" d="M9.3,25.9H7.1c-0.2,0-0.3-0.2-0.3-0.3c0-0.2,0.2-0.3,0.3-0.3h2.2c0.2,0,0.3,0.2,0.3,0.3
				C9.7,25.8,9.5,25.9,9.3,25.9z"/>
			<path class="st0" d="M9.3,26H7.1c-0.2,0-0.4-0.2-0.4-0.4c0-0.2,0.2-0.4,0.4-0.4h2.2c0.2,0,0.4,0.2,0.4,0.4
				C9.7,25.8,9.6,26,9.3,26z M7.1,25.3c-0.1,0-0.3,0.1-0.3,0.3c0,0.1,0.1,0.3,0.3,0.3h2.2c0.1,0,0.3-0.1,0.3-0.3
				c0-0.1-0.1-0.3-0.3-0.3H7.1z"/>
		</g>
	</g>
	<g>
		<g>
			<path class="st0" d="M10,25.2c-0.2,0-0.3-0.2-0.3-0.3v-1.7c0-0.2,0.2-0.3,0.3-0.3s0.3,0.2,0.3,0.3v1.7C10.3,25,10.2,25.2,10,25.2
				z"/>
			<path class="st0" d="M10,25.2c-0.2,0-0.4-0.2-0.4-0.4v-1.7c0-0.2,0.2-0.4,0.4-0.4c0.2,0,0.4,0.2,0.4,0.4v1.7
				C10.4,25.1,10.2,25.2,10,25.2z M10,22.9c-0.1,0-0.3,0.1-0.3,0.3v1.7c0,0.1,0.1,0.3,0.3,0.3c0.1,0,0.3-0.1,0.3-0.3v-1.7
				C10.2,23,10.1,22.9,10,22.9z"/>
		</g>
	</g>
	<g>
		<g>
			<path class="st0" d="M6.3,25.2C6.1,25.2,6,25,6,24.8v-1.7c0-0.2,0.2-0.3,0.3-0.3c0.2,0,0.3,0.2,0.3,0.3v1.7
				C6.7,25,6.5,25.2,6.3,25.2z"/>
			<path class="st0" d="M6.3,25.2c-0.2,0-0.4-0.2-0.4-0.4v-1.7c0-0.2,0.2-0.4,0.4-0.4c0.2,0,0.4,0.2,0.4,0.4v1.7
				C6.8,25.1,6.6,25.2,6.3,25.2z M6.3,22.9c-0.1,0-0.3,0.1-0.3,0.3v1.7c0,0.1,0.1,0.3,0.3,0.3c0.1,0,0.3-0.1,0.3-0.3v-1.7
				C6.6,23,6.5,22.9,6.3,22.9z"/>
		</g>
	</g>
	<g>
		<g>
			<path class="st0" d="M7.1,25.9c-0.6,0-1.1-0.5-1.1-1.1c0-0.2,0.2-0.3,0.3-0.3c0.2,0,0.3,0.2,0.3,0.3c0,0.2,0.2,0.4,0.4,0.4
				c0.2,0,0.3,0.2,0.3,0.3C7.4,25.8,7.3,25.9,7.1,25.9z"/>
			<path class="st0" d="M7.1,26c-0.6,0-1.2-0.5-1.2-1.2c0-0.2,0.2-0.4,0.4-0.4c0.2,0,0.4,0.2,0.4,0.4c0,0.2,0.1,0.3,0.3,0.3
				c0.2,0,0.4,0.2,0.4,0.4C7.5,25.8,7.3,26,7.1,26z M6.3,24.5c-0.1,0-0.3,0.1-0.3,0.3c0,0.6,0.5,1,1,1c0.1,0,0.3-0.1,0.3-0.3
				c0-0.1-0.1-0.3-0.3-0.3c-0.3,0-0.5-0.2-0.5-0.5C6.6,24.7,6.5,24.5,6.3,24.5z"/>
		</g>
	</g>
	<g>
		<g>
			<path class="st0" d="M9.2,25.9c-0.2,0-0.3-0.2-0.3-0.3c0-0.2,0.2-0.3,0.3-0.3c0.2,0,0.4-0.2,0.4-0.4c0-0.2,0.2-0.3,0.3-0.3
				s0.3,0.2,0.3,0.3C10.3,25.4,9.8,25.9,9.2,25.9z"/>
			<path class="st0" d="M9.2,26c-0.2,0-0.4-0.2-0.4-0.4c0-0.2,0.2-0.4,0.4-0.4c0.2,0,0.3-0.1,0.3-0.3c0-0.2,0.2-0.4,0.4-0.4
				c0.2,0,0.4,0.2,0.4,0.4C10.4,25.5,9.9,26,9.2,26z M10,24.5c-0.1,0-0.3,0.1-0.3,0.3c0,0.3-0.2,0.5-0.5,0.5c-0.1,0-0.3,0.1-0.3,0.3
				c0,0.1,0.1,0.3,0.3,0.3c0.6,0,1-0.5,1-1C10.2,24.7,10.1,24.5,10,24.5z"/>
		</g>
	</g>
	<g>
		<g>
			<path class="st0" d="M20,25.9h-2.2c-0.2,0-0.3-0.2-0.3-0.3c0-0.2,0.2-0.3,0.3-0.3H20c0.2,0,0.3,0.2,0.3,0.3
				C20.4,25.8,20.2,25.9,20,25.9z"/>
			<path class="st0" d="M20,26h-2.2c-0.2,0-0.4-0.2-0.4-0.4c0-0.2,0.2-0.4,0.4-0.4H20c0.2,0,0.4,0.2,0.4,0.4
				C20.4,25.8,20.3,26,20,26z M17.8,25.3c-0.1,0-0.3,0.1-0.3,0.3c0,0.1,0.1,0.3,0.3,0.3H20c0.1,0,0.3-0.1,0.3-0.3
				c0-0.1-0.1-0.3-0.3-0.3H17.8z"/>
		</g>
	</g>
	<g>
		<g>
			<path class="st0" d="M20.7,25.2c-0.2,0-0.3-0.2-0.3-0.3v-1.7c0-0.2,0.2-0.3,0.3-0.3s0.3,0.2,0.3,0.3v1.7
				C21,25,20.9,25.2,20.7,25.2z"/>
			<path class="st0" d="M20.7,25.2c-0.2,0-0.4-0.2-0.4-0.4v-1.7c0-0.2,0.2-0.4,0.4-0.4s0.4,0.2,0.4,0.4v1.7
				C21.1,25.1,20.9,25.2,20.7,25.2z M20.7,22.9c-0.1,0-0.3,0.1-0.3,0.3v1.7c0,0.1,0.1,0.3,0.3,0.3s0.3-0.1,0.3-0.3v-1.7
				C20.9,23,20.8,22.9,20.7,22.9z"/>
		</g>
	</g>
	<g>
		<g>
			<path class="st0" d="M17,25.2c-0.2,0-0.3-0.2-0.3-0.3v-1.7c0-0.2,0.2-0.3,0.3-0.3c0.2,0,0.3,0.2,0.3,0.3v1.7
				C17.4,25,17.2,25.2,17,25.2z"/>
			<path class="st0" d="M17,25.2c-0.2,0-0.4-0.2-0.4-0.4v-1.7c0-0.2,0.2-0.4,0.4-0.4c0.2,0,0.4,0.2,0.4,0.4v1.7
				C17.4,25.1,17.3,25.2,17,25.2z M17,22.9c-0.1,0-0.3,0.1-0.3,0.3v1.7c0,0.1,0.1,0.3,0.3,0.3c0.1,0,0.3-0.1,0.3-0.3v-1.7
				C17.3,23,17.2,22.9,17,22.9z"/>
		</g>
	</g>
	<g>
		<g>
			<path class="st0" d="M17.8,25.9c-0.6,0-1.1-0.5-1.1-1.1c0-0.2,0.2-0.3,0.3-0.3c0.2,0,0.3,0.2,0.3,0.3c0,0.2,0.2,0.4,0.4,0.4
				c0.2,0,0.3,0.2,0.3,0.3C18.1,25.8,18,25.9,17.8,25.9z"/>
			<path class="st0" d="M17.8,26c-0.6,0-1.2-0.5-1.2-1.2c0-0.2,0.2-0.4,0.4-0.4c0.2,0,0.4,0.2,0.4,0.4c0,0.2,0.1,0.3,0.3,0.3
				c0.2,0,0.4,0.2,0.4,0.4C18.2,25.8,18,26,17.8,26z M17,24.5c-0.1,0-0.3,0.1-0.3,0.3c0,0.6,0.5,1,1,1c0.1,0,0.3-0.1,0.3-0.3
				c0-0.1-0.1-0.3-0.3-0.3c-0.3,0-0.5-0.2-0.5-0.5C17.3,24.7,17.2,24.5,17,24.5z"/>
		</g>
	</g>
	<g>
		<g>
			<path class="st0" d="M19.9,25.9c-0.2,0-0.3-0.2-0.3-0.3c0-0.2,0.2-0.3,0.3-0.3c0.2,0,0.4-0.2,0.4-0.4c0-0.2,0.2-0.3,0.3-0.3
				s0.3,0.2,0.3,0.3C21,25.4,20.5,25.9,19.9,25.9z"/>
			<path class="st0" d="M19.9,26c-0.2,0-0.4-0.2-0.4-0.4c0-0.2,0.2-0.4,0.4-0.4c0.2,0,0.3-0.1,0.3-0.3c0-0.2,0.2-0.4,0.4-0.4
				s0.4,0.2,0.4,0.4C21.1,25.5,20.6,26,19.9,26z M20.7,24.5c-0.1,0-0.3,0.1-0.3,0.3c0,0.3-0.2,0.5-0.5,0.5c-0.1,0-0.3,0.1-0.3,0.3
				c0,0.1,0.1,0.3,0.3,0.3c0.6,0,1-0.5,1-1C20.9,24.7,20.8,24.5,20.7,24.5z"/>
		</g>
	</g>
	<g>
		<g>
			<path class="st0" d="M18.2,14.1c-3.2,0-5.7-2.6-5.7-5.7c0-3.2,2.6-5.7,5.7-5.7c3.2,0,5.7,2.6,5.7,5.7
				C24,11.5,21.4,14.1,18.2,14.1z M18.2,3.3c-2.8,0-5,2.3-5,5c0,2.8,2.3,5,5,5c2.8,0,5-2.3,5-5C23.3,5.6,21,3.3,18.2,3.3z"/>
			<path class="st0" d="M18.2,14.2c-3.2,0-5.8-2.6-5.8-5.8c0-3.2,2.6-5.8,5.8-5.8c3.2,0,5.8,2.6,5.8,5.8
				C24,11.6,21.4,14.2,18.2,14.2z M18.2,2.7c-3.1,0-5.7,2.5-5.7,5.7c0,3.1,2.5,5.7,5.7,5.7c3.1,0,5.7-2.5,5.7-5.7
				C23.9,5.3,21.3,2.7,18.2,2.7z M18.2,13.5c-2.8,0-5.1-2.3-5.1-5.1c0-2.8,2.3-5.1,5.1-5.1c2.8,0,5.1,2.3,5.1,5.1
				C23.3,11.2,21,13.5,18.2,13.5z M18.2,3.4c-2.7,0-5,2.2-5,5c0,2.7,2.2,5,5,5c2.7,0,5-2.2,5-5C23.2,5.6,21,3.4,18.2,3.4z"/>
		</g>
	</g>
	<g>
		<g>
			<path class="st0" d="M25.3,17.8c-0.1,0-0.2,0-0.3-0.1c-0.1,0-0.1,0-0.1-0.1l-3.3-3.3c-0.1-0.1-0.1-0.2-0.1-0.3
				c0-0.1,0.1-0.2,0.2-0.3l1.3-0.7l0.7-1.3c0.1-0.1,0.1-0.2,0.3-0.2c0.1,0,0.2,0,0.3,0.1l3.3,3.3c0,0,0.1,0.1,0.1,0.2
				c0.2,0.5-0.2,1.2-0.8,1.8C26.4,17.4,25.8,17.8,25.3,17.8z M25.3,17.1C25.3,17.1,25.3,17.1,25.3,17.1c0.2,0,0.6-0.2,1-0.6
				c0.5-0.5,0.6-0.9,0.7-1c0,0,0,0,0-0.1L24,12.5l-0.6,1c0,0.1-0.1,0.1-0.1,0.1l-1,0.6L25.3,17.1z"/>
			<path class="st0" d="M25.3,17.9c-0.1,0-0.2,0-0.3-0.1c-0.1,0-0.1,0-0.2-0.1l-3.3-3.3c-0.1-0.1-0.1-0.2-0.1-0.4
				c0-0.1,0.1-0.2,0.2-0.3l1.3-0.7l0.7-1.3c0.1-0.1,0.2-0.2,0.3-0.2c0.1,0,0.3,0,0.4,0.1l3.3,3.3c0.1,0.1,0.1,0.1,0.1,0.2
				c0.3,0.5-0.3,1.3-0.8,1.9C26.4,17.4,25.8,17.9,25.3,17.9z M23.9,11.7C23.9,11.7,23.9,11.7,23.9,11.7c-0.1,0-0.2,0.1-0.2,0.1
				l-0.8,1.3l0,0l-1.3,0.7c-0.1,0-0.1,0.1-0.1,0.2c0,0.1,0,0.2,0.1,0.2l3.3,3.3c0,0,0.1,0.1,0.1,0.1c0.1,0,0.2,0.1,0.3,0.1
				c0.5,0,1-0.4,1.4-0.8c0.5-0.5,1-1.3,0.8-1.7c0-0.1,0-0.1-0.1-0.1l-3.3-3.3C24.1,11.7,24,11.7,23.9,11.7z M25.3,17.2L25.3,17.2
				C25.3,17.2,25.2,17.2,25.3,17.2L25.3,17.2l-3.1-3.1l1.1-0.6c0,0,0.1-0.1,0.1-0.1l0.6-1.1l3,3c0,0,0,0,0,0l0,0l0,0
				c0,0.2-0.2,0.6-0.7,1C25.9,17,25.5,17.2,25.3,17.2L25.3,17.2z M25.3,17C25.3,17,25.3,17.1,25.3,17c0.2,0,0.6-0.2,0.9-0.6
				c0.4-0.4,0.6-0.8,0.6-0.9c0,0,0,0,0,0L24,12.6l-0.5,0.9c0,0.1-0.1,0.1-0.2,0.2l-0.9,0.5L25.3,17z"/>
		</g>
	</g>
	<g>
		<g>
			<path class="st0" d="M19.8,12.3c-0.1,0-0.2-0.1-0.3-0.2c-0.1-0.2,0-0.4,0.1-0.5c0,0,3.1-1.6,1.8-5.2c-0.1-0.2,0-0.4,0.2-0.4
				c0.2-0.1,0.4,0,0.4,0.2c1.2,3.3-0.8,5.4-2.1,6.1C19.9,12.3,19.9,12.3,19.8,12.3z"/>
			<path class="st0" d="M19.8,12.3c-0.2,0-0.3-0.1-0.4-0.2c-0.1-0.1-0.1-0.2,0-0.3c0-0.1,0.1-0.2,0.2-0.2c0,0,3-1.6,1.7-5.1
				c0-0.1,0-0.2,0-0.3c0-0.1,0.1-0.2,0.2-0.2c0.1,0,0.2,0,0.3,0c0.1,0,0.2,0.1,0.2,0.2c1.2,3.4-0.9,5.5-2.1,6.1
				C20,12.3,19.9,12.3,19.8,12.3z M21.8,6C21.7,6,21.7,6,21.8,6c-0.2,0-0.2,0.1-0.2,0.2c0,0.1,0,0.1,0,0.2c1.3,3.6-1.8,5.3-1.8,5.3
				c-0.1,0-0.1,0.1-0.1,0.2c0,0.1,0,0.1,0,0.2c0.1,0.1,0.2,0.2,0.4,0.1c1.2-0.6,3.3-2.7,2.1-6c0-0.1-0.1-0.1-0.1-0.2
				C21.8,6,21.8,6,21.8,6z"/>
		</g>
	</g>
</g>
</svg>
