<?xml version="1.0" encoding="utf-8"?>
<!-- Generator: Adobe Illustrator 21.0.0, SVG Export Plug-In . SVG Version: 6.00 Build 0)  -->
<!DOCTYPE svg PUBLIC "-//W3C//DTD SVG 1.1//EN" "http://www.w3.org/Graphics/SVG/1.1/DTD/svg11.dtd">
<svg version="1.1" id="Ebene_1" xmlns="http://www.w3.org/2000/svg" xmlns:xlink="http://www.w3.org/1999/xlink" x="0px" y="0px"
	 width="30px" height="30px" viewBox="0 0 30 30" style="enable-background:new 0 0 30 30;" xml:space="preserve">
<style type="text/css">
	.st0{fill:#FFFFFF;}
</style>
<title>services-blau</title>
<g>
	<path class="st0" d="M12.9,12.4c0.1,0,0.1,0.1,0.2,0.1c0.1,0.1,0.3,0.1,0.4,0.1c0.1,0,0.1-0.1,0.2-0.1c-0.3,0-0.5-0.1-0.6-0.1
		C13.1,12.4,13,12.4,12.9,12.4z"/>
	<path class="st0" d="M27.2,16.4c-0.3-0.2-0.7-0.4-1.1-0.5c0-0.2,0-0.5,0.1-0.7l0.1-0.3c0,0,0-0.1,0-0.1c0,0,0,0,0.1-0.1
		c0.1-0.1,0.2-0.2,0.3-0.4c0.1-0.2,0.1-0.4,0-0.7c0.2-0.3,0.3-0.7,0.4-1.1l0.2-1.3c0-0.1,0.1-0.3,0-0.5c-0.1-0.4-0.4-0.5-0.6-0.5
		c0,0-0.1,0-0.1,0c0,0,0,0,0,0c0-0.1,0-0.1-0.1-0.2c-0.1-0.3-0.4-0.5-0.7-0.5c-0.4-0.1-0.8,0-1,0.3c-0.3,0.3-0.4,0.6-0.5,0.9
		c-0.1,0-0.3,0-0.4-0.1c-0.2-0.1-0.5,0.1-0.5,0.3c-0.1,0.3-0.2,0.6-0.2,0.9c-0.7,0.3-1.2,0.3-1.5,0.1c-0.1-0.1-0.1-0.1-0.2-0.2
		c-0.1-0.1-0.1-0.1-0.2-0.2c-0.2-0.2-0.4-0.3-0.7-0.4c-0.1,0.3-0.2,0.6-0.2,0.9c0.1,0,0.2,0.1,0.2,0.1c0,0,0.1,0.1,0.1,0.2
		c0.1,0.1,0.2,0.2,0.3,0.3c0.9,0.8,2.2,0.2,2.7-0.1c0.2-0.1,0.3-0.2,0.3-0.4c0-0.2,0-0.4,0.1-0.5c0.2,0,0.4,0,0.6,0
		c0.2,0,0.4-0.2,0.4-0.4c0.1-0.3,0.1-0.6,0.3-0.8c0.1-0.1,0.2-0.1,0.3-0.1c0,0,0.1,0,0.1,0c0,0,0,0,0,0.1c0,0.1,0.1,0.2,0.2,0.3
		c0.2,0.2,0.4,0.3,0.5,0.3c0,0,0,0,0,0l-0.2,1.2c-0.1,0.3-0.1,0.7-0.4,0.8c-0.1,0.1-0.2,0.2-0.2,0.3s0,0.3,0.1,0.4
		c0,0,0.1,0.1,0.1,0.1c0,0,0,0,0,0c-0.1,0.1-0.1,0.1-0.2,0.2c-0.1,0.1-0.1,0.2-0.2,0.3L25.4,15c-0.1,0.4-0.4,1.1,0.1,1.7
		c0.1,0.1,0.2,0.2,0.3,0.2c0.2,0,0.5,0.1,0.7,0.2c0,0.2-0.1,0.4-0.2,0.6c-0.3-0.1-0.6-0.2-0.9-0.2c-0.2,0-0.4,0-0.5,0.1
		c-0.1,0-0.2-0.1-0.2-0.2c0-0.1-0.1-0.2-0.3-0.3c0.1-0.1,0.1-0.3,0-0.4l-0.3-0.4C23.9,16,23.7,16,23.6,16c-0.1,0-0.3,0.1-0.4,0.2
		c-0.1-0.1-0.3-0.1-0.5,0c-0.3,0.2-0.6,0.2-0.8,0.2c0,0,0,0,0,0c-0.2,0-0.4,0.2-0.4,0.4c0,0.3-0.2,0.5-0.4,0.7l0,0
		c-0.1,0.1-0.1,0.1-0.2,0.2c-0.1,0.2-0.1,0.3-0.1,0.4c-0.1,0.4-0.1,1,0,1.5c0.3,0.8,0.8,0.8,1.3,0.8c0,0,0.1,0,0.2,0
		c0,0,0,0-0.1,0.1c-0.2,0.1-0.4,0.3-0.5,0.6c-0.3,0.7,0.3,1.2,0.5,1.4c0.3,0.3,0.3,0.4,0.3,0.4c0,0,0,0-0.2,0.1
		c-0.1,0.1-0.3,0.1-0.4,0.1c0-0.2-0.1-0.4-0.2-0.6c-0.1-0.1-0.3-0.2-0.4-0.3c-0.1-0.1-0.2-0.1-0.2-0.2c-0.1-0.1-0.1-0.4-0.1-0.7
		c0-0.1,0-0.3-0.1-0.4c-0.1-0.1-0.2-0.1-0.3-0.2c0,0,0-0.1-0.1-0.1c0,0-0.1-0.1-0.1-0.1c-0.2-0.2-0.5-0.3-0.8-0.2c0,0,0,0,0,0
		c-0.3-0.1-0.7,0-1.3,0.3c-0.2,0.1-0.5,0.3-0.7,0.2c-0.1,0-0.2-0.1-0.3-0.1c-0.4,0-0.7,0.3-0.8,0.7c0,0,0,0.1,0,0.1c0,0,0,0.1,0,0.1
		c0,0,0,0-0.1,0c-0.5,0.1-1,0.1-1.4-0.1c-0.2-0.1-0.3-0.3-0.5-0.5c-0.1-0.2-0.2-0.3-0.4-0.5l-0.1-0.1c0,0-0.1-0.1-0.1-0.1
		c0,0,0-0.1,0-0.2l0-1.4c0,0,0-0.1,0-0.1c0,0,0-0.1,0.1-0.1c0.1-0.1,0.1-0.2,0-0.4c0-0.1-0.1-0.2-0.2-0.3c-0.4-0.2-0.8,0-1,0.4
		c0,0,0,0.1-0.1,0.1c0,0,0,0,0,0c0-0.2-0.1-0.3-0.2-0.4c-0.1-0.1-0.3-0.1-0.5,0c0,0-0.1,0-0.2,0c-0.2,0-0.5-0.1-0.8,0.1
		c-0.3,0.2-0.3,0.5-0.4,0.7c0,0.1-0.1,0.2-0.1,0.3c-0.1,0.1-0.2,0.2-0.2,0.4c-0.1,0.4,0.2,0.6,0.4,0.7c0,0,0,0,0,0c0,0,0,0,0,0.1
		c0,0.1,0,0.1,0,0.2c0,0.3,0.1,0.5,0.1,0.7c0,0.1,0.1,0.2,0.1,0.3c0,0.2-0.1,0.4-0.2,0.7l-1,1.8c-0.5-0.4-0.9-1-1-1.6
		C9,21.9,9.2,21,9.2,20.2c0-0.2,0.1-0.8-0.4-1.2c-0.1-0.1-0.2-0.2-0.3-0.2c0,0-0.1,0-0.1-0.1c-0.3-0.2-0.3-0.7-0.1-1.1
		c0.2-0.3,0.2-0.5,0-0.7c-0.1-0.2-0.3-0.2-0.4-0.3c-0.2-0.1-0.3-0.1-0.5-0.1c-0.1,0-0.1,0-0.2,0c-0.1-0.1-0.3-0.4-0.7-0.4
		c-0.4,0-0.7,0.4-0.8,0.8c0,0,0,0.1,0,0.1c-0.7,0.2-1.4,0.2-2.1,0c0-0.2-0.2-0.4-0.2-0.5l0-0.1c0,0,0-0.1,0-0.1
		c0.1-0.1,0.2-0.2,0.2-0.4c0-0.1,0-0.2,0-0.3C4,15.5,4.3,15.3,4.5,15c0.4,0,0.8-0.3,0.9-0.5c0.1-0.2,0.1-0.3,0.2-0.5
		c0.1-0.3,0.1-0.3,0.2-0.3c0.1,0,0.2,0,0.4,0.1c0.1,0,0.2,0.1,0.3,0.1c0.6,0.1,1.3-0.2,1.7-0.7c0-0.1,0.1-0.1,0.1-0.2
		c0.1-0.1,0.1-0.2,0.2-0.3c0,0,0.1,0,0.1,0c0.1,0,0.1,0,0.2,0.1c0.2,0.1,0.4,0,0.6,0c0,0,0,0,0-0.1c-0.2-0.1-0.3-0.2-0.5-0.3
		c-0.2-0.2-0.3-0.4-0.5-0.6c-0.5,0.1-0.7,0.5-0.9,0.7c0,0.1-0.1,0.1-0.1,0.2C7.3,13,7,13.1,6.7,13c-0.1,0-0.2,0-0.2-0.1
		c-0.2-0.1-0.5-0.2-0.8-0.1C5,13,4.9,13.5,4.8,13.8c0,0.1-0.1,0.2-0.1,0.2c0,0,0,0-0.1,0c0,0,0,0-0.1,0c-0.2-0.1-0.5,0-0.6,0.2
		c0,0,0,0,0,0c-0.1,0.3-0.3,0.5-0.6,0.6c-0.1,0-0.4,0.2-0.5,0.5c-0.1,0.2,0,0.3,0,0.4c0,0-0.1,0.1-0.1,0.2c-0.1,0.2-0.2,0.5,0.1,1
		l0,0.1c0,0.1,0.1,0.1,0.1,0.2c0,0.1,0,0.3,0.1,0.5c0.1,0.1,0.3,0.2,0.3,0.2c0.9,0.3,1.9,0.3,2.8,0.1c0.1,0,0.4-0.1,0.5-0.3
		c0.1-0.1,0.1-0.2,0.1-0.3c0,0,0.1,0.1,0.2,0.1c0.2,0.1,0.4,0.1,0.5,0.1c-0.3,0.7-0.2,1.6,0.5,2.1c0.1,0,0.1,0.1,0.2,0.1
		c0.1,0,0.1,0.1,0.1,0.1c0,0,0.1,0.1,0.1,0.5c-0.1,0.8-0.2,1.6-0.5,2.4c0,0.1,0,0.1,0,0.2c0.1,1.1,0.8,2.2,1.8,2.7
		c0.1,0,0.1,0,0.2,0c0.2,0,0.3-0.1,0.4-0.2l1.2-2.2c0.2-0.3,0.4-0.7,0.3-1.2c0-0.2-0.1-0.3-0.1-0.5c0-0.1-0.1-0.2-0.1-0.3
		c0,0,0-0.1,0-0.1c0-0.2,0.1-0.4-0.1-0.6c-0.1-0.1-0.2-0.2-0.3-0.3c0.1-0.2,0.1-0.3,0.2-0.5c0-0.1,0-0.2,0.1-0.2c0,0,0.1,0,0.2,0
		c0.1,0,0.1,0,0.2,0c0,0.1,0.1,0.2,0.1,0.2c0.2,0.2,0.4,0.3,0.6,0.3c0.1,0,0.3,0,0.4,0l0,0.8c0,0.1,0,0.3,0.1,0.5
		c0.1,0.2,0.2,0.3,0.3,0.4l0.1,0c0.1,0.1,0.2,0.2,0.3,0.4c0.2,0.3,0.4,0.5,0.7,0.7c0.6,0.4,1.5,0.3,2,0.3c0.1,0,0.4,0,0.6-0.2
		c0.2-0.2,0.2-0.4,0.3-0.6c0.5,0.2,1.1-0.2,1.4-0.4c0.3-0.2,0.5-0.2,0.6-0.2c0.1,0.1,0.3,0.1,0.5,0.1c0,0,0,0,0,0
		c0,0.1,0.1,0.1,0.2,0.2c0,0.5,0.1,0.9,0.3,1.1c0.1,0.1,0.3,0.2,0.4,0.3c0.1,0,0.1,0.1,0.2,0.1c-0.1,0.1-0.1,0.2-0.2,0.3
		c0,0.2,0.1,0.4,0.3,0.4c0.5,0.2,1,0.2,1.5,0c0.3-0.1,0.5-0.3,0.7-0.5c0.2-0.3,0.2-0.8-0.5-1.5c-0.3-0.3-0.3-0.5-0.3-0.5
		c0-0.1,0.2-0.2,0.3-0.2c0.2-0.2,0.7-0.5,0.5-1.1c-0.1-0.4-0.5-0.6-1-0.6c-0.1,0-0.2,0-0.2,0c-0.1,0-0.3,0-0.3,0c0,0,0,0-0.1-0.2
		c-0.1-0.3,0-0.8,0-1.1c0,0,0-0.1,0-0.1c0,0,0,0,0.1-0.1l0,0c0.3-0.2,0.5-0.6,0.6-0.9c0.2,0,0.4-0.1,0.6-0.1c0.1,0,0.3,0,0.3,0
		c0,0,0,0,0,0l0,0c0,0,0,0,0.1,0.1c0,0.2,0.1,0.3,0.2,0.5c0.1,0.1,0.3,0.2,0.5,0.2c0,0,0,0,0,0c0.3,0.4,0.7,0.6,1.1,0.5
		c0.1,0,0.2-0.1,0.3-0.1c0,0,0,0,0,0c0.3,0,0.7,0.1,0.9,0.3c0.2,0.1,0.5,0.1,0.6-0.1c0.4-0.5,0.5-1,0.6-1.7
		C27.5,16.7,27.4,16.5,27.2,16.4z M20.4,21L20.4,21L20.4,21z"/>
	<path class="st0" d="M19.7,10.9c-0.1,0.3-0.2,0.6-0.2,0.9c0.1,0,0.1,0.1,0.2,0.1c0-0.3,0.1-0.6,0.2-0.9
		C19.8,11,19.7,10.9,19.7,10.9z"/>
	<polygon class="st0" points="7.4,6.6 7.4,6.6 7.4,6.6 	"/>
	<path class="st0" d="M7.3,6.6c0,0,0.1,0,0.1,0C7.3,6.5,7.2,6.5,7.1,6.5C7.1,6.5,7.2,6.5,7.3,6.6C7.2,6.5,7.2,6.6,7.3,6.6z"/>
	<path class="st0" d="M6.9,6.9C6.9,7,7,7.1,7.1,7.1c0.1,0,0.2-0.1,0.2-0.2c0,0,0-0.1,0-0.1c0,0,0,0,0,0c0,0,0,0,0,0c0,0-0.1,0-0.1,0
		c0,0,0,0,0,0c0,0,0,0,0,0C7,6.7,6.9,6.8,6.9,6.9z"/>
	<path class="st0" d="M7.1,6.7C7.1,6.7,7.1,6.7,7.1,6.7C7.1,6.7,7.1,6.7,7.1,6.7z"/>
	<polygon class="st0" points="7.3,6.8 7.2,6.8 7.3,6.8 	"/>
	<path class="st0" d="M7.4,6.6C7.4,6.6,7.4,6.6,7.4,6.6C7.4,6.6,7.4,6.6,7.4,6.6C7.4,6.6,7.4,6.6,7.4,6.6C7.4,6.6,7.4,6.6,7.4,6.6z"
		/>
	<path class="st0" d="M7.5,6.9c0-0.1,0-0.2-0.1-0.3c0,0,0,0.1,0,0.1c0,0,0,0,0,0c0,0,0,0.1,0,0.1c0,0.2-0.1,0.3-0.3,0.3
		S6.8,7.1,6.8,6.9c0-0.1,0.1-0.3,0.2-0.3c0,0,0,0,0-0.1c0,0,0.1-0.1,0.1-0.1l0,0l0,0c0,0,0,0,0,0c-0.2,0-0.4,0.2-0.4,0.4
		c0,0.2,0.2,0.4,0.4,0.4C7.3,7.4,7.5,7.2,7.5,6.9z"/>
	<path class="st0" d="M7,6.6C7,6.6,7,6.6,7,6.6C7,6.6,7.1,6.6,7,6.6c0.1,0,0.1,0,0.1,0c0.1,0,0.2,0,0.2,0.1c0,0,0,0.1,0.1,0.1
		c0,0,0,0,0,0c0,0,0-0.1,0-0.1c0,0,0,0,0,0c0,0,0,0,0,0c0,0-0.1,0-0.1,0c0,0-0.1,0-0.1,0c0,0,0,0-0.1,0l0,0C7.1,6.5,7,6.5,7,6.6z"/>
	<path class="st0" d="M7.3,6.7C7.3,6.7,7.2,6.6,7.1,6.6C7.1,6.6,7.2,6.7,7.3,6.7C7.3,6.7,7.3,6.7,7.3,6.7z"/>
	<path class="st0" d="M7.3,6.8C7.3,6.8,7.3,6.8,7.3,6.8c0,0,0,0.1,0,0.1c0,0.1-0.1,0.2-0.2,0.2C7,7.1,6.9,7,6.9,6.9
		c0-0.1,0.1-0.2,0.2-0.2c0,0,0,0,0,0c0,0-0.1,0-0.1-0.1c0,0,0,0,0-0.1c-0.1,0-0.2,0.2-0.2,0.3c0,0.2,0.1,0.3,0.3,0.3
		s0.3-0.1,0.3-0.3c0,0,0-0.1,0-0.1C7.4,6.8,7.3,6.8,7.3,6.8C7.3,6.8,7.3,6.8,7.3,6.8z"/>
	<path class="st0" d="M7.2,6.8C7.2,6.8,7.2,6.8,7.2,6.8C7.2,6.8,7.2,6.8,7.2,6.8z"/>
	<path class="st0" d="M7.1,6.8C7.2,6.8,7.2,6.8,7.1,6.8C7.2,6.8,7.2,6.8,7.1,6.8z"/>
	<path class="st0" d="M7.2,6.7c-0.1,0-0.1,0-0.1-0.1c0,0,0,0,0,0c0,0-0.1,0-0.1,0c0,0,0,0,0,0.1c0,0,0,0,0.1,0.1c0,0,0,0,0,0
		c0,0,0.1,0,0.1,0c0,0,0,0,0,0c0,0,0,0,0,0c0,0,0,0,0,0c0,0,0,0,0,0c0,0,0,0,0.1,0c0,0,0,0,0.1,0C7.4,6.8,7.4,6.7,7.2,6.7
		C7.3,6.7,7.3,6.7,7.2,6.7z"/>
	<polygon class="st0" points="8.2,6.6 8.2,6.6 8.2,6.6 	"/>
	<path class="st0" d="M8.3,6.6C8.3,6.6,8.3,6.5,8.3,6.6c0.1-0.1,0.1-0.1,0.1-0.1l0,0c-0.1,0-0.2,0.1-0.3,0.1c0,0,0,0,0,0
		C8.2,6.6,8.3,6.6,8.3,6.6z"/>
	<path class="st0" d="M8.5,7.1c0.1,0,0.2-0.1,0.2-0.2c0-0.1-0.1-0.2-0.2-0.2c0,0,0,0,0,0c0,0,0,0,0,0c0,0-0.1,0-0.1,0c0,0,0,0,0,0
		c0,0,0,0.1,0,0.1C8.3,7,8.4,7.1,8.5,7.1z"/>
	<path class="st0" d="M8.4,6.8C8.4,6.7,8.5,6.7,8.4,6.8C8.5,6.7,8.4,6.7,8.4,6.8z"/>
	<path class="st0" d="M8.3,6.8C8.3,6.8,8.3,6.8,8.3,6.8C8.3,6.8,8.3,6.8,8.3,6.8C8.3,6.8,8.3,6.8,8.3,6.8z"/>
	<polygon class="st0" points="8.2,6.6 8.2,6.6 8.2,6.6 	"/>
	<path class="st0" d="M8.5,7.4c0.2,0,0.4-0.2,0.4-0.4c0-0.2-0.2-0.4-0.4-0.4l0,0c0,0,0,0,0,0c0,0,0.1,0,0.1,0.1c0,0,0,0,0,0.1
		c0.1,0,0.2,0.2,0.2,0.3c0,0.2-0.1,0.3-0.3,0.3c-0.2,0-0.3-0.1-0.3-0.3c0,0,0-0.1,0-0.1c0,0,0,0,0,0c0,0,0-0.1,0-0.1
		C8.1,6.7,8,6.8,8,6.9C8,7.2,8.2,7.4,8.5,7.4z"/>
	<path class="st0" d="M8.2,6.8C8.2,6.8,8.2,6.8,8.2,6.8C8.2,6.8,8.2,6.7,8.2,6.8c0.1-0.1,0.2-0.2,0.3-0.2c0,0,0,0,0,0
		c0,0,0.1,0,0.1,0c0,0,0,0,0-0.1c0,0-0.1-0.1-0.1-0.1c0,0-0.1,0-0.1,0c0,0,0,0-0.1,0c0,0-0.1,0-0.1,0c0,0,0,0,0,0c0,0,0,0,0,0
		c0,0,0,0,0,0C8.1,6.7,8.1,6.7,8.2,6.8z"/>
	<path class="st0" d="M8.4,6.6c-0.1,0-0.2,0-0.2,0.1c0,0,0.1,0,0.1,0C8.4,6.7,8.4,6.6,8.4,6.6z"/>
	<path class="st0" d="M8.5,6.7C8.5,6.7,8.5,6.7,8.5,6.7C8.5,6.7,8.5,6.7,8.5,6.7c0.1,0,0.2,0.1,0.2,0.2c0,0.1-0.1,0.2-0.2,0.2
		C8.4,7.1,8.3,7,8.3,6.9c0,0,0-0.1,0-0.1c0,0,0,0,0,0c0,0,0,0,0,0c0,0,0,0-0.1,0c0,0,0,0.1,0,0.1c0,0.2,0.1,0.3,0.3,0.3
		c0.2,0,0.3-0.1,0.3-0.3C8.8,6.8,8.7,6.7,8.5,6.7C8.6,6.6,8.5,6.7,8.5,6.7z"/>
	<path class="st0" d="M8.3,6.8C8.4,6.8,8.4,6.8,8.3,6.8C8.4,6.8,8.4,6.8,8.3,6.8z"/>
	<path class="st0" d="M8.4,6.6c0,0-0.1,0.1-0.1,0.1c0,0,0,0-0.1,0c0,0,0,0.1-0.1,0.1c0,0,0,0,0.1,0c0,0,0,0,0,0c0,0,0,0,0,0
		c0,0,0,0,0,0c0,0,0,0,0,0c0,0,0.1,0,0.1,0c0,0,0,0,0,0C8.5,6.7,8.5,6.7,8.4,6.6c0.1,0.1,0.1,0,0.1,0C8.5,6.6,8.5,6.6,8.4,6.6
		C8.5,6.6,8.5,6.6,8.4,6.6z"/>
	<path class="st0" d="M10.2,14.9L10.2,14.9C10.2,14.9,10.2,14.9,10.2,14.9C10.2,14.9,10.2,14.9,10.2,14.9z"/>
	<path class="st0" d="M19.9,12.6C19.9,12.6,19.9,12.6,19.9,12.6c-0.2,0.5-0.2,1.3-0.1,1.6c0.1,0.1,0.2,0.1,0.2,0.1
		c0.1,0,0.2-0.1,0.3-0.3c0.3-0.7,0-1.2-0.1-1.4c0,0,0,0,0-0.1c0-0.2,0-0.4,0-0.6c-0.1,0-0.2-0.1-0.3-0.1
		C19.9,12.2,19.9,12.4,19.9,12.6z"/>
	<path class="st0" d="M19,12.5c0.2,0.9,0,1.5-0.3,2.1c-0.1,0.3-0.2,0.5-0.3,0.8c0,0,0,0.1-0.1,0.1c-0.1,0-0.3,0.1-0.6,0.1
		c-0.1,0-0.1-0.1-0.1-0.1c0-0.1,0.1-0.2,0.1-0.3c0.1-0.5,0.3-1.3,0.3-1.6c0-0.1-0.1-0.3-0.1-0.4c0,0,0,0,0,0c0-0.1-0.1-0.2-0.1-0.3
		c-0.3-0.7-0.6-1.5-0.4-2.8c0,0,0-0.1,0-0.1c0,0-0.1,0-0.1-0.1c-0.1,0-0.1,0-0.2,0.1c0,0.3-0.1,0.6-0.1,0.9c0,0,0,0.1-0.1,0.1
		c0,0-0.8,0.8-1.8,1.1c0,0,0,0,0,0c-0.4,0.1-0.8,0.2-1.1,0.1c-0.1,0-0.1,0-0.2,0c0,0.1-0.1,0.2-0.1,0.3c0.1,0,0.2,0,0.2,0
		c0.3,0,0.7,0,1-0.1c0.1,0,0.1,0,0.1,0.1c0.1,0.1,0.2,0.4,0.4,0.6c0,0,0,0.1,0,0.1l-0.3,0.3c0,0,0,0.1,0,0.1c0,0,0,0.1,0,0.1
		c0.1,0,0.1,0,0.2,0l0.2-0.3c0,0,0.1-0.1,0.2,0c0.1,0.1,0.2,0.2,0.4,0.2c0.1,0,0.1,0.1,0.1,0.1l-0.2,0.5c0,0.1,0,0.1,0.1,0.2
		c0.1,0,0.1,0,0.2-0.1l0.2-0.5c0,0,0.1-0.1,0.1-0.1c0.1,0,0.2,0,0.3,0c0,0,0.1,0,0.1,0c0,0,0,0.1,0,0.1c-0.1,0.3-0.2,0.6-0.3,0.9
		c-0.4,1-0.4,1.1-0.4,1.2c0,0,0,0.1,0.1,0.1c0,0,0,0,0,0l0.6,0c0,0,0.1,0,0.1,0c0,0,0,0.1,0,0.1l0,0.1c-0.1,0.2,0,0.3,0.1,0.3
		c0,0,0,0,0.1,0c0,0,0,0,0,0c0.1,0,0.3,0,0.4,0c0.3,0,0.6-0.1,0.6-0.1c0.1,0,0.1-0.1,0.1-0.1c-0.1-0.6,0.1-1.1,0.3-1.6
		c0.3-0.6,0.5-1.3,0.3-2.2c-0.1-0.2-0.1-0.5,0-0.8c-0.1,0-0.2-0.1-0.2-0.1C18.9,11.9,18.9,12.2,19,12.5z M16.8,13.4
		c-0.1,0-0.2,0-0.3,0c-0.2-0.1-0.4-0.2-0.6-0.4c-0.2-0.2-0.3-0.4-0.4-0.6c0,0,0-0.1,0-0.1c0,0,0-0.1,0.1-0.1
		c0.6-0.2,1.1-0.6,1.4-0.8c0,0,0.1,0,0.1,0c0,0,0.1,0,0.1,0.1c0.1,0.6,0.3,1.1,0.4,1.4l0.1,0.1c0,0.1,0,0.1,0,0.1
		c-0.1,0.1-0.2,0.1-0.3,0.2C17.1,13.3,17,13.4,16.8,13.4z M17.5,15.3l-0.1,0.2c0,0,0,0,0,0c0,0,0,0,0,0c0,0,0,0.1,0,0.1
		c0,0-0.1,0-0.1,0c0,0,0,0,0,0l0,0l0,0l-0.4,0c0,0-0.1,0-0.1,0s0-0.1,0-0.1c0-0.1,0.1-0.3,0.2-0.5c0,0,0-0.1,0.1-0.1
		c0,0,0.1,0,0.1,0c0.1,0.1,0.2,0.1,0.3,0.2C17.5,15.2,17.5,15.3,17.5,15.3z M17.5,14.9c-0.1,0-0.2-0.1-0.3-0.2c0,0,0-0.1,0-0.1
		c0.1-0.3,0.2-0.7,0.3-1c0,0,0-0.1,0.1-0.1c0,0,0.1,0,0.1-0.1c0,0,0.1,0,0.1,0c0,0,0.1,0,0.1,0.1c0,0,0,0.1,0,0.1
		c0,0.1,0,0.3-0.2,1.3C17.6,14.9,17.6,14.9,17.5,14.9C17.6,14.9,17.5,14.9,17.5,14.9C17.5,14.9,17.5,14.9,17.5,14.9z M18.4,16.1
		c0,0.1,0,0.1-0.1,0.1c-0.1,0-0.2,0-0.4,0c-0.1,0-0.1,0-0.2,0c0,0-0.1,0-0.1,0c0,0,0-0.1,0-0.1l0.1-0.3c0-0.1,0.1-0.1,0.1-0.1
		c0.1,0,0.3,0,0.4,0c0,0,0.1,0,0.1,0c0,0,0,0.1,0,0.1C18.4,16,18.4,16.1,18.4,16.1z"/>
	<path class="st0" d="M9,11.9C9.1,11.9,9.1,11.9,9,11.9c-0.4-0.6-0.6-1.5-0.6-2.1c0-0.1,0-0.1,0.1-0.1c0.2-0.1,0.4-0.3,0.4-0.6
		c0-0.1,0-0.2,0-0.3c0,0,0,0,0,0c0-0.1,0-0.4,0.4-0.7c0.4-0.3,0.4-1,0.3-1.4c0,0,0-0.1,0-0.1c0,0,0.1,0,0.1,0c0.1,0,0.2,0,0.3,0
		c0.1,0,0.2-0.1,0.3-0.1c0,0,0.1,0,0.1,0l0.1,0c0.4,0,2.1-0.1,2.9-0.1c0.2,0,0.5-0.1,0.9-0.2c1.2-0.4,2.9-0.9,4.8,0.5
		c0.4,0.3,0.7,0.8,0.7,1.3c0,0,0,0,0,0l0,0.1c0,0.6-0.2,1.2-0.4,1.9c0,0.3,0,0.5-0.1,0.7c0,0.1,0,0.1,0.1,0.2
		c0.1-0.2,0.1-0.4,0.2-0.6c0.1-0.4,0.2-0.7,0.3-1.1C20,9.1,20.1,9,20.1,9c0.1,0,0.1,0,0.1,0.1c0.1,0.7,0.1,1.3-0.1,1.9
		c0,0,0,0,0,0.1c0,0,0,0,0,0c0.1,0,0.1,0,0.2,0.1c0,0,0,0,0,0c0.5-1.4-0.1-2.9-0.2-3.2c0,0,0,0,0,0c0-0.6-0.3-1.1-0.8-1.5
		c-1.9-1.5-3.8-0.9-5-0.5C14,5.9,13.7,6,13.5,6c-0.6,0-1.8,0.1-2.5,0.1c0,0-0.1,0-0.1-0.1c0,0,0-0.1,0-0.1c0.1-0.2,0.2-0.4,0.2-0.4
		c0-0.1,0-0.1-0.1-0.2c-0.5-0.3-1.2,0-1.5,0.2c-0.1,0-0.1,0-0.1,0C9.2,5.3,8.9,4.9,8.6,4.8c-0.2,0-0.4,0-0.5,0c-0.3,0-0.5,0-0.7,0
		C6.8,4.7,6.4,5.2,6.2,5.5c0,0-0.1,0.1-0.1,0c-0.3-0.2-1-0.4-1.5-0.2c-0.1,0-0.1,0.1-0.1,0.2c0,0.1,0.4,0.8,1,1c0.1,0,0.2,0,0.4,0
		c0,0,0.1,0,0.1,0c0,0,0,0.1,0,0.1c0,0.4,0,1,0.3,1.4c0.4,0.3,0.4,0.6,0.4,0.7c0,0,0,0,0,0c0,0.1,0,0.2,0,0.3c0,0.3,0.2,0.4,0.4,0.5
		c0.3,0.1,0.6,0,0.7-0.1c0,0,0.1,0,0.1,0C7.9,9.6,8,9.7,8,9.7c0,0,0.1,0.1,0.1,0.1c0,0.4,0.2,1.3,0.6,2C8.8,11.8,8.9,11.8,9,11.9
		C9,11.9,9,11.9,9,11.9z M6.5,7.9C6.1,7.5,6.3,6.3,6.3,6.3c0-0.1,0-0.1-0.1-0.2c0,0-0.1,0-0.1,0c0,0,0,0,0,0
		C5.9,6.3,5.7,6.3,5.6,6.3C5.3,6.2,5,5.9,4.9,5.7c0,0,0-0.1,0-0.1c0,0,0.1-0.1,0.1-0.1c0.4-0.1,1,0.2,1.2,0.4c0,0,0.1,0,0.1,0
		c0,0,0.1,0,0.1-0.1c0,0,0.5-0.9,0.9-0.8c0.3,0.1,0.6,0,0.8,0c0.2,0,0.3,0,0.5,0c0.3,0,0.6,0.6,0.7,0.7c0,0,0,0.1,0.1,0.1
		c0,0,0.1,0,0.1,0c0.2-0.1,0.7-0.4,1.2-0.4c0,0,0.1,0,0.1,0.1c0,0,0,0.1,0,0.1c-0.2,0.2-0.4,0.5-0.7,0.6c-0.2,0-0.4,0-0.5-0.1
		c-0.1,0-0.1,0-0.2,0c0,0,0,0.1,0,0.1c0,0,0,0,0,0c0,0.1,0.1,0.4,0.1,0.7c0,0.4-0.1,0.7-0.3,0.8C8.9,8,8.8,8.3,8.7,8.5
		c0,0.1-0.1,0.1-0.1,0.1c-0.2-0.1-0.5,0-0.6,0c0,0,0,0,0,0H7.7c0,0,0,0,0,0c-0.1,0-0.4-0.1-0.6,0c-0.1,0-0.1,0-0.1-0.1
		C6.9,8.3,6.7,8,6.5,7.9z M7.9,9.3c-0.1,0-0.1,0-0.2,0C7.6,9.4,7.4,9.5,7.3,9.5c0,0-0.1,0-0.1,0C7,9.4,7,9.3,6.9,9.1
		c0-0.1,0-0.2,0-0.2l0,0c0,0,0,0,0,0c0.1-0.1,0.5-0.1,0.6,0c0,0,0,0,0,0H8c0,0,0,0,0,0c0.1,0,0.2-0.1,0.4-0.1c0.1,0,0.2,0,0.3,0.1
		c0,0,0,0,0,0c0,0.1,0,0.1,0,0.2c0,0.3-0.2,0.4-0.4,0.3C8.1,9.4,7.9,9.4,7.9,9.3z"/>
	<path class="st0" d="M11.9,13.4c-0.2,0.5-0.3,1-0.2,1.3c0.1,0.2,0.1,0.6,0.1,1.1c0,0,0,0.1-0.1,0.1c-0.1,0-0.2,0.1-0.3,0.1
		c-0.2,0-0.3,0-0.4-0.1c0,0-0.1-0.1-0.1-0.1c0.1-0.4,0.1-0.7,0-0.9c-0.1-0.6-0.4-1.7-0.6-2.4c0,0-0.1,0.1-0.1,0.1
		c-0.2,0.1-0.4,0.2-0.6,0.3c0.1,0.5,0.4,2.1,0,3.1c0,0,0,0.1,0,0.1c0,0,0,0.1,0.1,0.1c0.1,0,0.4,0.1,0.7,0.1c0,0,0.1,0,0.1,0
		c0,0,0,0.1,0,0.1c0,0.1-0.1,0.2-0.1,0.3c-0.1,0.3-0.1,0.4,0,0.4c0,0,0,0,0.1,0c0,0,0,0,0,0c0,0,0,0,0,0c0.1,0,0.4,0.1,0.6,0.1
		c0.2,0,0.5,0,0.6-0.1c0,0,0.1-0.1,0.1-0.1c0.1-0.5,0.2-1.7,0-2.2c-0.1-0.2,0.1-0.7,0.2-1.1c0.1-0.4,0.3-0.8,0.3-1.2
		c0,0,0-0.1,0.1-0.1c-0.1,0-0.2-0.1-0.3-0.1C12.2,12.5,12,13,11.9,13.4z M9.9,12.7C10,12.6,10,12.6,9.9,12.7L9.9,12.7l0.1,0
		c0.1,0,0.1,0,0.1,0.1c0.2,0.6,0.3,1.4,0.5,1.9c0,0,0,0.1,0,0.1c-0.1,0-0.2,0.1-0.3,0.1c0,0,0,0-0.1,0l-0.1,0c0,0,0,0,0,0
		c0,0-0.1,0-0.1,0c0,0,0-0.1,0-0.1C10.1,14,10,13.2,9.9,12.7C9.9,12.7,9.9,12.7,9.9,12.7z M10.5,15.8c-0.1,0-0.1,0-0.2,0
		c-0.1,0-0.3,0-0.3,0c0,0-0.1,0-0.1-0.1c0,0,0-0.1,0-0.1c0-0.1,0.1-0.2,0.1-0.4c0,0,0-0.1,0.1-0.1c0,0,0.1,0,0.1,0
		c0.1,0,0.2,0,0.4-0.1c0,0,0.1,0,0.1,0c0,0,0.1,0.1,0.1,0.1C10.7,15.4,10.7,15.5,10.5,15.8C10.6,15.7,10.6,15.8,10.5,15.8z
		 M11.6,16.6C11.6,16.7,11.6,16.7,11.6,16.6c-0.2,0.1-0.3,0.1-0.5,0.1c-0.2,0-0.3,0-0.4-0.1c0,0-0.1,0-0.1-0.1c0,0,0-0.1,0-0.1l0,0
		c0-0.1,0.1-0.2,0.1-0.4c0,0,0-0.1,0.1-0.1c0,0,0.1,0,0.1,0c0.2,0.1,0.4,0.1,0.6,0.1c0,0,0.1,0,0.1,0c0,0,0,0.1,0,0.1
		C11.6,16.4,11.6,16.5,11.6,16.6z"/>
	<path class="st0" d="M10,11.4c-0.1,0-0.1,0.1-0.1,0.1C9.9,11.5,9.9,11.5,10,11.4c0,0.1,0.1,0,0.1,0C10,11.4,10,11.4,10,11.4z"/>
	<path class="st0" d="M13.2,12.2c0.1,0,0.3,0.1,0.7,0.1c0-0.1,0.1-0.2,0.1-0.3c-0.4,0-0.6-0.1-0.7-0.1c-0.3,0-0.3-0.1-0.6,0
		c0,0-0.1,0-0.1,0c0,0,0,0,0-0.1c0-0.2,0-0.3-0.1-0.5c0,0,0-0.1-0.1-0.1c0,0-0.1,0-0.1,0c-0.1,0-0.1,0.1-0.1,0.2
		c0.1,0.2,0.1,0.4,0.1,0.7c0.1,0,0.2,0.1,0.3,0.1c0,0,0,0,0,0C12.9,12.2,12.9,12.2,13.2,12.2z"/>
	<path class="st0" d="M19.4,10.6c0-0.2,0.1-0.5,0.1-0.7c0,0.1-0.1,0.2-0.1,0.3c-0.2,0.5-0.3,1-0.4,1.4c0.1,0,0.2,0.1,0.2,0.1
		c0-0.3,0.1-0.6,0.2-0.9C19.4,10.7,19.4,10.7,19.4,10.6z"/>
	<path class="st0" d="M10.3,12.3c-0.1-0.4-0.2-0.7-0.2-0.8c0,0,0-0.1-0.1-0.1c0,0-0.1,0-0.1,0.1c0,0-0.1,0-0.1,0c0,0,0,0,0,0
		c0,0,0.1,0.3,0.2,0.6c0,0,0,0.1,0,0.1s-0.1,0-0.1,0c-0.3,0-0.5-0.1-0.7-0.3c0,0-0.1-0.1-0.1-0.1c0,0-0.1,0-0.1,0c0,0-0.1,0-0.1,0
		c-0.1,0-0.2-0.1-0.2-0.1C8.8,12,8.9,12.1,9,12.2c0.1,0.1,0.3,0.2,0.5,0.3c0,0,0.1,0.1,0.1,0.1c0,0,0,0,0,0.1
		c0.2-0.1,0.4-0.2,0.6-0.3C10.2,12.4,10.3,12.4,10.3,12.3z"/>
	<path class="st0" d="M20.1,11.1c-0.1,0.3-0.2,0.6-0.2,0.9c0.1,0,0.2,0.1,0.3,0.1c0-0.3,0.1-0.6,0.2-0.9
		C20.3,11.1,20.2,11.1,20.1,11.1C20.1,11.1,20.1,11.1,20.1,11.1z"/>
	<polygon class="st0" points="17.3,15.7 17.3,15.7 17.3,15.7 	"/>
	<path class="st0" d="M17.5,15.6C17.5,15.6,17.5,15.5,17.5,15.6C17.5,15.6,17.5,15.6,17.5,15.6z"/>
	<path class="st0" d="M12.4,11.1c-0.1,0-0.2,0-0.3,0c-0.1,0-0.1,0-0.1,0.1c0.1,0,0.1,0,0.2,0c0,0,0,0,0,0c0.1,0,0.2,0,0.2,0.1
		c0.1,0,0.1,0,0.2,0.1C12.6,11.2,12.5,11.1,12.4,11.1z"/>
	<path class="st0" d="M18.8,12.6c0.2,0.8,0,1.3-0.3,1.9c-0.1,0.2-0.2,0.5-0.3,0.7c-0.1,0-0.1,0.1-0.2,0c0-0.1,0-0.1,0-0.2
		c0.2-0.9,0.3-1.4,0.3-1.7c0-0.1-0.1-0.3-0.1-0.5c0,0,0,0,0,0s0,0,0,0c0,0,0,0,0,0c0-0.1-0.1-0.2-0.1-0.3c-0.2-0.6-0.5-1.5-0.3-2.7
		c0-0.1,0-0.1,0-0.2c-0.1,0-0.1,0-0.2-0.1c0,0.1,0.1,0.1,0.1,0.2c-0.2,1.2,0.1,2.1,0.4,2.7c0,0.1,0.1,0.2,0.1,0.3c0,0,0,0,0,0
		c0,0,0,0,0,0c0,0,0,0,0,0c0.1,0.2,0.1,0.3,0.1,0.5c0,0.3-0.1,0.9-0.3,1.6c0,0,0,0,0,0c0,0.1-0.1,0.2-0.1,0.3c0.2,0.1,0.4,0,0.5-0.1
		c0.1-0.3,0.2-0.5,0.3-0.8c0.3-0.6,0.5-1.2,0.3-2c-0.1-0.3-0.1-0.7,0-1.1c0,0-0.1-0.1-0.1-0.1C18.7,11.8,18.7,12.2,18.8,12.6z"/>
	<path class="st0" d="M11.6,13.3c-0.2,0.6-0.4,1-0.3,1.4c0.1,0.2,0.1,0.5,0.1,1c-0.1,0-0.3,0-0.3,0c0.1-0.4,0.1-0.7,0-0.9
		c0,0,0,0,0,0c-0.1-0.6-0.4-1.7-0.6-2.5c0,0-0.1,0-0.1,0c0.2,0.7,0.5,1.8,0.6,2.4c0,0,0,0,0,0c0.1,0.3,0,0.7,0,1
		c0.1,0.1,0.3,0.1,0.6,0c0-0.4,0-0.8-0.1-1.1c-0.1-0.4,0.1-0.8,0.3-1.4c0.1-0.4,0.3-0.8,0.3-1.2c0,0-0.1,0-0.1,0
		C11.9,12.5,11.8,12.9,11.6,13.3z"/>
	<path class="st0" d="M7.7,8.5h0.2c0.1,0,0.4-0.1,0.7,0C8.6,8.2,8.8,8,9,7.8C9.2,7.6,9.3,7.3,9.3,7c0-0.3,0-0.5-0.1-0.7c0,0,0,0,0,0
		c0,0,0,0,0,0c0,0,0,0,0,0c0,0,0,0,0,0c0-0.1,0-0.1,0-0.2C9.3,6,9.4,6,9.6,6.1C9.7,6.2,9.8,6.2,10,6.2c0.2-0.1,0.5-0.3,0.6-0.5
		c-0.4,0-0.9,0.2-1.1,0.3C9.5,6,9.4,6,9.3,6C9.2,6,9.2,5.9,9.2,5.9C9,5.6,8.7,5.2,8.5,5.2c-0.1,0-0.3,0-0.5,0c-0.3,0-0.5,0.1-0.9,0
		C6.9,5.1,6.6,5.6,6.4,5.9C6.4,6,6.3,6,6.3,6c-0.1,0-0.1,0-0.2,0C5.9,5.9,5.4,5.6,5,5.7c0.1,0.2,0.4,0.5,0.6,0.5
		c0.1,0,0.3,0,0.4-0.1C6.1,6.1,6.2,6,6.2,6.1c0.1,0,0.2,0.2,0.2,0.3C6.4,6.6,6.2,7.5,6.6,7.8C6.8,8,7,8.2,7,8.4
		C7.3,8.4,7.6,8.5,7.7,8.5z M10.4,5.7C10.3,5.9,10.1,6,10,6.1c-0.1,0-0.2,0-0.3,0C9.8,5.9,10.1,5.8,10.4,5.7z M5.6,6.1
		C5.5,6,5.3,5.9,5.2,5.8c0.3,0,0.6,0.2,0.7,0.3C5.8,6.1,5.7,6.1,5.6,6.1z M6.6,7.7c-0.3-0.2-0.2-1-0.1-1.3c0-0.1,0-0.2-0.1-0.3
		C6.5,6,6.5,6,6.5,6C6.7,5.7,7,5.3,7.2,5.3c0.3,0.1,0.6,0.1,0.9,0c0.2,0,0.3,0,0.4,0c0.1,0,0.4,0.3,0.5,0.6C9.1,6,9.1,6,9.2,6
		c0,0,0,0,0,0c0,0.1-0.1,0.2-0.1,0.2c0,0,0,0,0,0c0,0,0,0,0,0c0,0,0,0,0,0c0,0,0,0,0,0c0,0.1,0.1,0.4,0.1,0.7c0,0.3-0.1,0.6-0.2,0.7
		C8.8,7.9,8.6,8.1,8.5,8.3c-0.2,0-0.5,0-0.6,0.1H7.7c-0.1,0-0.4-0.1-0.6-0.1C7,8.1,6.9,7.9,6.6,7.7z"/>
	<path class="st0" d="M8.6,9.9c0.3-0.1,0.5-0.4,0.5-0.7c0-0.2,0-0.3,0-0.4c0-0.1,0-0.3,0.3-0.5c0.4-0.3,0.5-1,0.4-1.4
		c0.1,0,0.2,0,0.3,0c0.1,0,0.2-0.1,0.3-0.1c0,0,0,0,0,0l0.1,0c0.4,0,2.1-0.1,2.9-0.1c0.3,0,0.6-0.1,1-0.2c1.1-0.4,2.8-0.9,4.5,0.5
		c0.4,0.3,0.6,0.7,0.6,1.2c0,0,0,0,0,0l0,0.1c0,0.5-0.1,1-0.3,1.5c0,0,0.1,0.1,0.1,0.1c0.2-0.6,0.3-1.1,0.3-1.6h0
		c-0.1,0-0.1,0-0.1-0.1c0,0,0-0.1,0-0.1c0-0.1,0-0.1,0.1-0.1c-0.1-0.4-0.3-0.8-0.7-1.1c-1.8-1.4-3.5-0.8-4.6-0.5
		c-0.4,0.1-0.7,0.2-0.9,0.2c-0.9,0-3,0.1-3,0.1c0,0,0,0,0,0c-0.1,0.1-0.2,0.1-0.3,0.1c-0.1,0-0.3,0-0.4,0c0,0.4,0,1.1-0.4,1.5
		C9,8.4,9,8.7,9,8.8C9,8.9,9.1,9,9,9.2C9,9.5,8.8,9.7,8.5,9.8c0,0.5,0.2,1.5,0.7,2.1c0,0,0.1,0,0.1,0C8.9,11.3,8.7,10.4,8.6,9.9z"/>
	<path class="st0" d="M17.2,9.6C17.1,9.7,17,9.8,17,9.9c0,0.3-0.1,0.6-0.1,0.9c-0.1,0.1-0.8,0.7-1.7,1l0,0c-0.4,0.1-0.7,0.1-1,0.1
		c0,0-0.1,0-0.1,0c0,0,0,0.1,0,0.1c0.1,0,0.1,0,0.2,0c0.4,0,0.7,0,1.1-0.1c0,0,0,0,0,0c0,0,0,0,0,0c1-0.3,1.8-1,1.8-1.1c0,0,0,0,0,0
		c0-0.3,0-0.6,0.1-0.9c0-0.1,0.1-0.2,0.2-0.2c0,0,0,0,0,0C17.2,9.7,17.2,9.7,17.2,9.6z"/>
	<path class="st0" d="M8.6,11.8C8.6,11.8,8.6,11.8,8.6,11.8C8.2,11.1,8,10.2,8,9.8c-0.1,0-0.2-0.1-0.2-0.1C7.6,9.8,7.3,9.9,7,9.8
		C6.8,9.7,6.6,9.5,6.6,9.2c0-0.2,0-0.3,0-0.4c0,0,0,0,0,0c0-0.1,0-0.4-0.4-0.6c-0.4-0.3-0.4-1-0.4-1.5c-0.1,0-0.1,0-0.2,0
		c-0.1,0-0.2,0-0.3,0c-0.6-0.2-1-0.9-1.1-1c-0.1-0.1,0-0.3,0.1-0.3c0.6-0.3,1.3,0,1.6,0.2c0.2-0.3,0.7-0.9,1.2-0.7
		c0.2,0.1,0.5,0,0.7,0c0.2,0,0.4,0,0.6,0c0.4,0,0.7,0.4,0.9,0.7c0.4-0.2,1.1-0.5,1.6-0.2c0.1,0.1,0.2,0.2,0.1,0.3
		c0,0-0.1,0.2-0.2,0.4c0.7,0,1.9-0.1,2.5-0.1c0.2,0,0.5-0.1,0.8-0.2c1.2-0.4,3.1-1,5.1,0.6c0.6,0.5,0.8,1,0.9,1.6
		c0.1,0.3,0.7,1.9,0.2,3.3c0,0,0,0,0,0c0,0,0.1,0,0.1,0c0,0,0,0,0,0c0.5-1.4-0.1-3-0.2-3.3c-0.1-0.7-0.3-1.2-0.9-1.7
		c-2-1.6-4-1-5.2-0.6c-0.3,0.1-0.6,0.2-0.8,0.2c-0.6,0-1.6,0.1-2.3,0.1c0.1-0.1,0.1-0.2,0.1-0.2c0.1-0.2,0-0.4-0.2-0.5
		c-0.6-0.3-1.2-0.1-1.6,0.1C9.3,5,9,4.6,8.6,4.6c-0.2,0-0.4,0-0.6,0c-0.2,0-0.4,0-0.7,0C6.8,4.5,6.3,5,6.1,5.3
		C5.7,5.1,5,4.9,4.4,5.2C4.3,5.3,4.2,5.5,4.3,5.7c0,0,0,0,0,0c0.1,0.2,0.5,0.9,1.2,1.1c0.1,0,0.2,0,0.3,0c0,0.5,0,1.1,0.4,1.4
		c0.3,0.2,0.3,0.5,0.3,0.5c0,0.1-0.1,0.3,0,0.4C6.5,9.6,6.8,9.8,7,9.9c0.3,0.1,0.7,0,0.8-0.1c0,0,0.1,0,0.1,0c0,0.4,0.2,1.3,0.5,1.9
		C8.5,11.8,8.5,11.8,8.6,11.8C8.5,11.8,8.6,11.8,8.6,11.8z"/>
	<path class="st0" d="M9.9,11.2c-0.2,0-0.3,0.2-0.3,0.4c0,0,0,0,0,0c0,0,0,0,0.1,0c0,0,0,0,0,0c0,0,0,0,0,0c0-0.1,0-0.3,0.2-0.3
		c0.1,0,0.2,0,0.2,0.1c0,0,0.1,0,0.1,0C10.2,11.2,10.1,11.2,9.9,11.2z"/>
	<path class="st0" d="M20.1,9.2c-0.1,0.4-0.2,0.8-0.3,1.1c-0.1,0.2-0.1,0.4-0.2,0.6c0,0,0.1,0,0.1,0c0.1-0.2,0.1-0.4,0.2-0.6
		c0.1-0.2,0.1-0.4,0.2-0.6c0,0.4,0,0.8-0.1,1.2c0,0,0,0,0,0.1c0,0,0.1,0,0.1,0c0,0,0,0,0-0.1C20.2,10.4,20.2,9.7,20.1,9.2z"/>
	<path class="st0" d="M9.4,15.7c0,0.1,0,0.2,0,0.3c0,0.1,0.1,0.2,0.2,0.2c0.1,0,0.4,0.1,0.6,0.1c0,0.1,0,0.1-0.1,0.1
		c-0.1,0.3-0.2,0.5,0.1,0.7c0,0,0.1,0.1,0.2,0.1c0.2,0,0.4,0.1,0.7,0.1c0.3,0,0.5-0.1,0.7-0.2c0.1-0.1,0.2-0.2,0.2-0.3
		c0-0.1,0.2-1.6,0-2.3c-0.1-0.2,0.1-0.6,0.2-1c0.1-0.4,0.3-0.7,0.3-1.1c0.1,0,0.2,0,0.3,0c-0.1,0-0.1-0.1-0.2-0.1
		c-0.1,0-0.1,0-0.2,0c-0.1,0.4-0.2,0.8-0.3,1.2c-0.2,0.4-0.3,0.8-0.2,1.1c0.2,0.7,0,2.2,0,2.3c0,0.1-0.1,0.2-0.1,0.2
		c-0.2,0.1-0.5,0.1-0.7,0.1c-0.3,0-0.5-0.1-0.7-0.1c-0.1,0-0.2,0-0.2,0c-0.2-0.1-0.1-0.3,0-0.5c0-0.1,0.1-0.2,0.1-0.3
		c-0.3,0-0.7-0.1-0.8-0.1c-0.1,0-0.1-0.1-0.1-0.1c0-0.1,0-0.1,0-0.2c0.4-1,0.2-2.4,0-3c0,0-0.1,0-0.1,0C9.5,13.3,9.8,14.8,9.4,15.7z
		"/>
	<path class="st0" d="M17.5,12.9c-0.1-0.4-0.3-0.9-0.4-1.5c-0.3,0.2-0.8,0.6-1.5,0.9c0.1,0.2,0.2,0.4,0.4,0.6
		c0.1,0.2,0.3,0.3,0.5,0.4c0.2,0.1,0.4,0.1,0.7,0c0,0,0,0,0,0c0.1,0,0.2-0.1,0.3-0.2C17.5,13,17.5,12.9,17.5,12.9z M17.2,13.1
		c-0.2,0.1-0.4,0.1-0.6,0c-0.2-0.1-0.3-0.2-0.5-0.3c-0.1-0.1-0.2-0.3-0.3-0.5c0.5-0.2,0.9-0.5,1.2-0.7c0.1,0.5,0.3,0.9,0.4,1.3
		l0,0.1C17.3,13,17.3,13,17.2,13.1z"/>
	<path class="st0" d="M20.2,12.6c0.2,0.2,0.5,0.8,0.1,1.5c0,0.1-0.2,0.3-0.4,0.3c-0.1,0-0.2,0-0.3-0.2c-0.2-0.3-0.2-1.2,0.1-1.6
		c0-0.2,0-0.4,0-0.7c0,0-0.1,0-0.1,0c0,0.2,0,0.5,0,0.7c0,0.1-0.1,0.2-0.1,0.3c0-0.1,0-0.3-0.1-0.4c0-0.2,0-0.4,0-0.6
		c0,0-0.1,0-0.1,0c0,0.3,0,0.5,0,0.7c0.3,1,0,1.7-0.3,2.3c-0.2,0.5-0.4,1-0.3,1.6c0,0.1-0.1,0.2-0.2,0.3c0,0-0.3,0.1-0.7,0.1
		c-0.1,0-0.3,0-0.5,0c-0.1,0-0.1,0-0.1,0c-0.2-0.1-0.2-0.3-0.1-0.4c0,0,0-0.1,0-0.1l-0.6,0c0,0,0,0-0.1,0c-0.1,0-0.1-0.1-0.2-0.1
		c0-0.1-0.1-0.2,0.4-1.3c0.1-0.2,0.2-0.5,0.3-0.9c-0.1,0-0.1,0-0.2,0c0,0-0.1,0-0.1,0l-0.2,0.5c0,0.1-0.1,0.2-0.2,0.2
		c0,0-0.1,0-0.1,0c-0.1,0-0.2-0.2-0.2-0.3l0.2-0.5c-0.1-0.1-0.3-0.1-0.4-0.2l-0.2,0.3c0,0.1-0.1,0.1-0.2,0.1c-0.1,0-0.1,0-0.2-0.1
		c-0.1-0.1-0.1-0.2,0-0.3l0.3-0.3c-0.2-0.2-0.3-0.5-0.4-0.6c-0.2,0.1-0.5,0.1-0.7,0.1c-0.1,0-0.2,0-0.3,0c-0.1,0-0.2,0-0.3,0
		c0,0-0.1,0.1-0.1,0.1c0.1,0,0.2,0,0.3,0c0.3,0,0.7,0,1-0.1c0.1,0.1,0.2,0.3,0.3,0.5l-0.2,0.2c-0.1,0.1-0.1,0.2-0.1,0.3
		c0,0.1,0.1,0.2,0.1,0.2c0.1,0.1,0.4,0.1,0.5,0l0.2-0.2c0.1,0.1,0.2,0.1,0.2,0.2L16,14c-0.1,0.2,0,0.4,0.2,0.5
		c0.2,0.1,0.4,0,0.4-0.2l0.1-0.4c0,0,0,0,0.1,0c-0.1,0.3-0.1,0.5-0.2,0.7c-0.5,1.1-0.4,1.3-0.4,1.4c0,0.1,0.1,0.2,0.2,0.2
		c0,0,0.1,0,0.1,0l0.5,0c0,0.2-0.1,0.4,0.2,0.5c0.1,0,0.1,0,0.2,0c0.1,0,0.3,0,0.5,0c0.4,0,0.7-0.1,0.7-0.1c0.2,0,0.3-0.2,0.3-0.4
		c-0.1-0.6,0.1-1,0.3-1.5c0.1-0.3,0.2-0.6,0.3-0.9c0,0.2,0.1,0.3,0.1,0.4c0.1,0.2,0.3,0.3,0.4,0.3c0.3,0,0.4-0.3,0.5-0.4
		c0.4-0.8,0-1.4-0.1-1.6c0-0.1,0-0.3,0-0.4c0,0-0.1,0-0.1,0C20.2,12.2,20.2,12.4,20.2,12.6z"/>
	<path class="st0" d="M9.4,12.7C9.4,12.7,9.4,12.8,9.4,12.7c0,0,0.1,0,0.1,0C9.5,12.7,9.5,12.7,9.4,12.7L9.4,12.7
		c-0.1-0.2-0.3-0.3-0.4-0.4c-0.2-0.2-0.3-0.3-0.4-0.5c0,0,0,0,0,0c0,0,0,0,0,0c0,0-0.1,0-0.1,0c0.1,0.2,0.3,0.4,0.5,0.6
		C9,12.5,9.2,12.6,9.4,12.7z"/>
	<path class="st0" d="M19.9,11c-0.1,0.3-0.2,0.6-0.2,0.9c0,0,0.1,0,0.1,0c0-0.3,0.1-0.6,0.2-0.9C20,11,19.9,11,19.9,11z"/>
	<path class="st0" d="M11.9,11.5c0.1,0.2,0.1,0.4,0,0.5c0,0,0.1,0,0.1,0c0-0.2,0-0.4-0.1-0.6c0-0.1,0-0.3,0.1-0.3
		c-0.1,0-0.1,0-0.2,0C11.9,11.2,11.9,11.4,11.9,11.5z"/>
	<path class="st0" d="M10.3,11.5c0,0,0-0.1-0.1-0.1c0,0-0.1,0-0.1,0c0,0,0,0.1,0.1,0.1c0,0,0.1,0.3,0.2,0.8c0,0,0.1,0,0.1,0
		C10.4,11.9,10.4,11.6,10.3,11.5z"/>
	<path class="st0" d="M20.3,12c0,0,0.1,0,0.1,0c0-0.3,0.1-0.6,0.2-0.9c0,0-0.1,0-0.1,0C20.3,11.5,20.3,11.8,20.3,12z"/>
	<path class="st0" d="M12.7,12.3c0.1,0,0.1,0.1,0.2,0.1c0.1,0,0.1,0,0.2,0c0.1,0,0.3,0.1,0.6,0.1c0,0,0.1-0.1,0.1-0.1
		c-0.3,0-0.5-0.1-0.6-0.1C13,12.3,12.9,12.3,12.7,12.3z"/>
	<path class="st0" d="M19.6,10.9c-0.1,0.3-0.2,0.6-0.2,0.9c0,0,0.1,0,0.1,0c0-0.3,0.1-0.6,0.2-0.9C19.6,10.9,19.6,10.9,19.6,10.9z"
		/>
	<path class="st0" d="M9.7,11.7c0,0.1,0.1,0.2,0.1,0.4c-0.1,0-0.3-0.1-0.4-0.2c0,0,0,0,0,0c0,0-0.1,0-0.1,0c0,0,0,0,0.1,0.1
		c0.2,0.2,0.4,0.3,0.6,0.3c-0.1-0.4-0.1-0.6-0.2-0.6C9.7,11.6,9.7,11.6,9.7,11.7C9.7,11.7,9.7,11.7,9.7,11.7z"/>
	<path class="st0" d="M19.4,9.6c0-0.1,0-0.1-0.1-0.1c-0.1,0.2-0.1,0.4-0.2,0.6c-0.2,0.5-0.3,0.9-0.4,1.3c0,0,0.1,0.1,0.1,0.1
		c0.1-0.4,0.2-0.9,0.4-1.4C19.3,10,19.4,9.8,19.4,9.6z"/>
	<path class="st0" d="M13.3,11.8c-0.2,0-0.3-0.1-0.6,0c0-0.1,0-0.3-0.1-0.4c0,0,0,0,0,0c-0.1,0-0.1,0-0.2-0.1c0,0,0.1,0.1,0.1,0.1
		c0.1,0.2,0.1,0.3,0.1,0.5c0.3,0,0.4,0,0.7,0c0.1,0,0.4,0.1,0.7,0.1c0,0,0-0.1,0-0.1C13.6,11.8,13.4,11.8,13.3,11.8z"/>
	<path class="st0" d="M17.6,9.7c-0.1-0.1-0.1-0.1-0.2-0.1c-0.1,0-0.2,0-0.3,0.1c0,0,0.1,0,0.1,0c0,0,0,0,0,0c0,0,0.1,0,0.1,0
		c0.1,0,0.1,0,0.1,0.1C17.6,9.8,17.6,9.8,17.6,9.7C17.7,9.8,17.7,9.8,17.6,9.7z"/>
	<path class="st0" d="M17.3,15.5C17.3,15.5,17.3,15.5,17.3,15.5c0,0,0-0.1,0-0.1v0c-0.1,0-0.1,0-0.1,0.1l0,0.1c0,0,0,0,0,0
		L17.3,15.5C17.3,15.6,17.3,15.5,17.3,15.5z"/>
	<path class="st0" d="M17.3,15.6C17.3,15.6,17.3,15.5,17.3,15.6C17.3,15.5,17.3,15.6,17.3,15.6L17.3,15.6z"/>
	<path class="st0" d="M12.2,11.2C12.2,11.2,12.2,11.2,12.2,11.2c0.1,0,0.2,0,0.2,0.1C12.4,11.2,12.3,11.1,12.2,11.2z"/>
	<path class="st0" d="M19.8,8.1C19.8,8.1,19.8,8.1,19.8,8.1c0,0.5-0.1,1-0.3,1.6c0,0.1,0,0.1,0,0.2c0.2-0.7,0.4-1.3,0.4-1.9
		C19.9,8,19.8,8.1,19.8,8.1z"/>
	<path class="st0" d="M8.5,9.8C8.8,9.7,9,9.5,9,9.2c0-0.2,0-0.3,0-0.4c0-0.1,0-0.4,0.4-0.6c0.4-0.4,0.4-1,0.4-1.5c0.1,0,0.3,0,0.4,0
		c0.1,0,0.2-0.1,0.3-0.1c0,0,0,0,0,0c0,0,2.1-0.1,3-0.1c0.3,0,0.6-0.1,0.9-0.2c1.1-0.4,2.9-0.9,4.6,0.5c0.4,0.3,0.6,0.7,0.7,1.1
		c0,0,0,0,0,0c0.1,0,0.1,0,0.1,0.1l0,0.1l0-0.1c0,0,0,0,0,0c0-0.5-0.3-1-0.7-1.3c-1.8-1.4-3.6-0.9-4.8-0.5c-0.4,0.1-0.7,0.2-0.9,0.2
		c-0.8,0-2.6,0.1-2.9,0.1l-0.1,0c0,0-0.1,0-0.1,0c-0.1,0.1-0.2,0.1-0.3,0.1c-0.1,0-0.2,0-0.3,0c0,0-0.1,0-0.1,0c0,0,0,0.1,0,0.1
		c0,0.4,0.1,1.1-0.3,1.4C8.9,8.4,8.9,8.7,8.9,8.8c0,0,0,0,0,0c0,0.1,0,0.2,0,0.3c0,0.3-0.2,0.5-0.4,0.6c-0.1,0-0.1,0.1-0.1,0.1
		c0.1,0.5,0.2,1.5,0.7,2.1c0,0,0.1,0,0.1,0C8.7,11.3,8.6,10.3,8.5,9.8z"/>
	<path class="st0" d="M19.3,12.5c0.2,1,0,1.6-0.3,2.2c-0.2,0.5-0.4,1-0.3,1.6c0,0.1,0,0.1-0.1,0.1c0,0-0.3,0.1-0.6,0.1
		c-0.2,0-0.3,0-0.4,0c0,0,0,0,0,0c0,0-0.1,0-0.1,0c-0.1,0-0.1-0.1-0.1-0.3l0-0.1c0,0,0-0.1,0-0.1c0,0-0.1,0-0.1,0l-0.6,0
		c0,0,0,0,0,0c0,0-0.1,0-0.1-0.1c0-0.1-0.1-0.2,0.4-1.2c0.1-0.3,0.2-0.6,0.3-0.9c0,0,0-0.1,0-0.1c0,0-0.1,0-0.1,0
		c-0.1,0-0.2,0-0.3,0c-0.1,0-0.1,0-0.1,0.1l-0.2,0.5c0,0.1-0.1,0.1-0.2,0.1c-0.1,0-0.1-0.1-0.1-0.2l0.2-0.5c0-0.1,0-0.1-0.1-0.1
		c-0.1-0.1-0.3-0.1-0.4-0.2c0,0-0.1,0-0.2,0l-0.2,0.3c0,0.1-0.1,0.1-0.2,0c0,0,0-0.1,0-0.1c0,0,0-0.1,0-0.1l0.3-0.3c0,0,0-0.1,0-0.1
		c-0.2-0.2-0.3-0.4-0.4-0.6c0,0-0.1-0.1-0.1-0.1c-0.4,0.1-0.7,0.1-1,0.1c-0.1,0-0.2,0-0.2,0c0,0,0,0,0,0c0,0,0,0.1,0,0.1
		c0.1,0,0.2,0,0.3,0c0.1,0,0.2,0,0.3,0c0.3,0,0.5,0,0.7-0.1c0.1,0.2,0.2,0.4,0.4,0.6l-0.3,0.3c-0.1,0.1-0.1,0.3,0,0.3
		c0,0,0.1,0.1,0.2,0.1c0.1,0,0.1,0,0.2-0.1l0.2-0.3c0.1,0.1,0.3,0.2,0.4,0.2l-0.2,0.5c0,0.1,0,0.3,0.2,0.3c0,0,0.1,0,0.1,0
		c0.1,0,0.2-0.1,0.2-0.2l0.2-0.5c0,0,0.1,0,0.1,0c0.1,0,0.1,0,0.2,0c-0.1,0.3-0.2,0.6-0.3,0.9c-0.5,1.1-0.4,1.2-0.4,1.3
		c0,0.1,0.1,0.1,0.2,0.1c0,0,0,0,0.1,0l0.6,0c0,0,0,0.1,0,0.1c0,0.2-0.1,0.4,0.1,0.4c0,0,0.1,0,0.1,0c0.1,0,0.3,0,0.5,0
		c0.3,0,0.7-0.1,0.7-0.1c0.1,0,0.2-0.1,0.2-0.3c-0.1-0.6,0.1-1.1,0.3-1.6c0.3-0.6,0.6-1.3,0.3-2.3c-0.1-0.2-0.1-0.4,0-0.7
		c0,0-0.1,0-0.1,0C19.2,12,19.2,12.2,19.3,12.5z"/>
	<path class="st0" d="M11.5,16.2c-0.2,0-0.4,0-0.6-0.1c0,0-0.1,0-0.1,0c0,0-0.1,0-0.1,0.1c0,0.1-0.1,0.3-0.1,0.4l0,0
		c0,0,0,0.1,0,0.1c0,0,0,0,0.1,0.1c0.1,0,0.3,0.1,0.4,0.1c0.1,0,0.3,0,0.4-0.1c0,0,0.1-0.1,0.1-0.1c0-0.1,0-0.2,0-0.3
		C11.7,16.3,11.6,16.2,11.5,16.2C11.6,16.2,11.6,16.2,11.5,16.2z M11.5,16.6c-0.3,0.1-0.6,0-0.8,0c0-0.1,0.1-0.3,0.1-0.4
		c0.1,0,0.3,0.1,0.4,0.1c0.1,0,0.2,0,0.2,0C11.5,16.4,11.5,16.5,11.5,16.6z"/>
	<path class="st0" d="M7.1,8.6c0.2-0.1,0.5,0,0.6,0c0,0,0,0,0,0h0.2c0,0,0,0,0,0c0.1,0,0.4-0.1,0.6,0c0.1,0,0.1,0,0.1-0.1
		C8.8,8.3,8.9,8,9.1,7.9C9.3,7.7,9.4,7.4,9.4,7c0-0.3,0-0.6-0.1-0.7c0,0,0,0,0,0c0,0,0-0.1,0-0.1c0-0.1,0.1-0.1,0.2,0
		C9.7,6.3,9.8,6.3,10,6.3c0.3-0.1,0.5-0.4,0.7-0.6c0,0,0-0.1,0-0.1c0,0-0.1-0.1-0.1-0.1c-0.4-0.1-1,0.2-1.2,0.4c0,0-0.1,0-0.1,0
		c0,0-0.1,0-0.1-0.1C9.2,5.6,8.8,5.1,8.6,5.1c-0.2,0-0.3,0-0.5,0c-0.2,0-0.5,0-0.8,0C6.8,5,6.3,5.8,6.3,5.9c0,0,0,0.1-0.1,0.1
		c0,0-0.1,0-0.1,0C5.9,5.8,5.4,5.5,5,5.6c0,0-0.1,0-0.1,0.1c0,0,0,0.1,0,0.1C5,5.9,5.3,6.2,5.6,6.3c0.2,0,0.3,0,0.5-0.1c0,0,0,0,0,0
		c0,0,0.1,0,0.1,0c0.1,0,0.1,0.1,0.1,0.2c0,0-0.3,1.2,0.2,1.5C6.7,8,6.9,8.3,6.9,8.5C6.9,8.5,7,8.6,7.1,8.6z M6.6,7.8
		C6.2,7.5,6.4,6.6,6.4,6.3c0-0.1-0.1-0.3-0.2-0.3C6.2,6,6.1,6.1,6,6.1C5.9,6.2,5.7,6.2,5.6,6.2C5.4,6.1,5.1,5.9,5,5.7
		c0.4,0,0.9,0.2,1.1,0.3c0.1,0,0.1,0.1,0.2,0C6.3,6,6.4,6,6.4,5.9c0.1-0.3,0.5-0.8,0.8-0.7c0.3,0.1,0.6,0,0.9,0c0.2,0,0.3,0,0.5,0
		c0.2,0,0.5,0.4,0.6,0.7C9.2,5.9,9.2,6,9.3,6c0.1,0,0.1,0,0.2,0c0.2-0.1,0.7-0.4,1.1-0.3c-0.1,0.2-0.4,0.5-0.6,0.5
		c-0.1,0-0.3,0-0.4-0.1C9.4,6,9.3,6,9.2,6.2c0,0.1,0,0.1,0,0.2c0,0,0,0,0,0c0,0,0,0,0,0c0,0,0,0,0,0c0,0,0,0,0,0
		c0,0.1,0.1,0.4,0.1,0.7c0,0.3,0,0.6-0.2,0.7C8.8,8,8.6,8.2,8.6,8.4c-0.3-0.1-0.5,0-0.7,0H7.7c-0.1,0-0.4-0.1-0.7,0
		C7,8.2,6.8,8,6.6,7.8z"/>
	<path class="st0" d="M20.1,12.6C20.1,12.6,20.1,12.6,20.1,12.6c0.2,0.3,0.5,0.8,0.2,1.5c-0.1,0.1-0.1,0.3-0.3,0.3
		c0,0-0.1,0-0.2-0.1c-0.1-0.3-0.1-1.1,0.1-1.5c0,0,0,0,0-0.1c0-0.2,0-0.4,0-0.6c0,0,0,0,0,0c0,0-0.1,0-0.1,0c0,0.3,0,0.5,0,0.7
		c-0.2,0.4-0.2,1.3-0.1,1.6c0.1,0.2,0.2,0.2,0.3,0.2c0.2,0,0.3-0.2,0.4-0.3c0.4-0.7,0-1.3-0.1-1.5c0-0.1,0-0.3,0-0.5
		c0,0-0.1,0-0.1,0C20.1,12.2,20.1,12.4,20.1,12.6z"/>
	<path class="st0" d="M20.2,9.1c0-0.1-0.1-0.1-0.1-0.1c0,0-0.1,0-0.1,0.1c-0.1,0.4-0.2,0.8-0.3,1.1c-0.1,0.2-0.1,0.4-0.2,0.6
		c0,0,0.1,0,0.1,0.1c0.1-0.2,0.1-0.4,0.2-0.6c0.1-0.4,0.2-0.7,0.3-1.1c0.1,0.5,0.1,1.2-0.1,1.8c0,0,0,0,0,0.1c0,0,0.1,0,0.1,0
		c0,0,0,0,0-0.1C20.3,10.5,20.3,9.8,20.2,9.1z"/>
	<path class="st0" d="M9.9,11.3c-0.1,0-0.2,0.2-0.2,0.3c0,0,0,0,0,0c0,0,0.1,0,0.1-0.1c0-0.1,0-0.1,0.1-0.1c0,0,0.1,0,0.1,0
		c0,0,0.1,0,0.1-0.1C10.1,11.3,10,11.3,9.9,11.3z"/>
	<path class="st0" d="M10,14.8C10,14.9,10.1,14.9,10,14.8c0.1,0.1,0.1,0.1,0.1,0.1c0,0,0,0,0,0l0.1,0c0,0,0,0,0.1,0
		c0.1,0,0.2-0.1,0.3-0.1c0,0,0.1-0.1,0-0.1c-0.1-0.5-0.3-1.3-0.5-1.9c0-0.1-0.1-0.1-0.1-0.1l0,0.1l0-0.1c0,0-0.1,0-0.1,0
		c0,0,0,0.1,0,0.1C10,13.2,10.1,14,10,14.8z M10.2,14.9C10.2,14.9,10.2,14.9,10.2,14.9C10.2,14.9,10.2,14.9,10.2,14.9L10.2,14.9z
		 M10,12.8C10,12.8,10,12.8,10,12.8c0.2,0.6,0.4,1.4,0.5,1.9c-0.2,0.1-0.3,0.1-0.3,0.1c0,0,0,0,0,0c0,0,0,0,0,0l-0.1,0
		C10.2,14,10.1,13.2,10,12.8z"/>
	<path class="st0" d="M10.6,15.1c0,0-0.1,0-0.1,0c-0.2,0.1-0.3,0.1-0.4,0.1c0,0-0.1,0-0.1,0c0,0,0,0-0.1,0.1c0,0.1-0.1,0.2-0.1,0.4
		c0,0,0,0.1,0,0.1c0,0,0,0,0.1,0.1c0.1,0,0.2,0,0.3,0c0.1,0,0.2,0,0.2,0c0,0,0.1,0,0.1-0.1C10.7,15.5,10.7,15.4,10.6,15.1
		C10.7,15.2,10.7,15.1,10.6,15.1z M10.5,15.7c-0.1,0-0.3,0-0.5,0c0-0.1,0.1-0.2,0.1-0.4c0,0,0.1,0,0.1,0c0.1,0,0.2,0,0.4-0.1
		C10.6,15.4,10.5,15.5,10.5,15.7z"/>
	<path class="st0" d="M17.6,13.1c0,0,0.1-0.1,0-0.1l-0.1-0.1c-0.1-0.4-0.3-0.9-0.4-1.4c0,0,0-0.1-0.1-0.1c0,0-0.1,0-0.1,0
		c-0.3,0.3-0.8,0.6-1.4,0.8c0,0-0.1,0-0.1,0.1c0,0,0,0.1,0,0.1c0.1,0.2,0.3,0.5,0.4,0.6c0.2,0.2,0.4,0.3,0.6,0.4c0.1,0,0.2,0,0.3,0
		c0.1,0,0.3,0,0.5-0.1C17.4,13.2,17.5,13.2,17.6,13.1z M17.2,13.2c-0.2,0.1-0.5,0.1-0.7,0c-0.2-0.1-0.4-0.2-0.5-0.4
		c-0.2-0.2-0.3-0.4-0.4-0.6c0.6-0.2,1.2-0.6,1.5-0.9c0.1,0.6,0.3,1.1,0.4,1.5c0,0,0,0.1,0.1,0.1C17.4,13.1,17.4,13.1,17.2,13.2
		C17.3,13.2,17.2,13.2,17.2,13.2z"/>
	<path class="st0" d="M15.2,12C15.3,12,15.3,12,15.2,12c1.1-0.3,1.9-1.1,1.9-1.1c0,0,0.1-0.1,0.1-0.1c0-0.3,0-0.6,0.1-0.9
		c0-0.1,0.1-0.1,0.2-0.1c0,0,0.1,0,0.1,0.1c0,0,0,0.1,0,0.1c-0.2,1.3,0.1,2.1,0.4,2.8c0,0.1,0.1,0.2,0.1,0.3c0,0,0,0,0,0
		c0.1,0.2,0.1,0.3,0.1,0.4c0,0.3-0.1,1-0.3,1.6c0,0.1,0,0.2-0.1,0.3c0,0.1,0,0.1,0.1,0.1c0.2,0.1,0.5,0,0.6-0.1c0,0,0.1,0,0.1-0.1
		c0.1-0.3,0.2-0.5,0.3-0.8c0.3-0.6,0.5-1.2,0.3-2.1c-0.1-0.3-0.1-0.6,0-1c0,0-0.1,0-0.1-0.1c-0.1,0.4-0.1,0.7,0,1.1
		c0.2,0.8,0,1.4-0.3,2c-0.1,0.3-0.2,0.5-0.3,0.8c-0.1,0-0.3,0.1-0.5,0.1c0-0.1,0.1-0.2,0.1-0.3c0,0,0,0,0,0c0.2-0.7,0.3-1.3,0.3-1.6
		c0-0.1-0.1-0.3-0.1-0.5c0,0,0,0,0,0c0,0,0,0,0,0c0,0,0,0,0,0c0-0.1-0.1-0.2-0.1-0.3c-0.2-0.7-0.6-1.5-0.4-2.7c0-0.1,0-0.1-0.1-0.2
		c-0.1,0-0.1,0-0.2-0.1c-0.1,0-0.2,0.1-0.2,0.2c-0.1,0.3-0.1,0.6-0.1,0.9c0,0,0,0,0,0c0,0-0.8,0.7-1.8,1.1c0,0,0,0,0,0c0,0,0,0,0,0
		C14.9,12,14.5,12,14.1,12c-0.1,0-0.1,0-0.2,0c0,0,0,0.1,0,0.1c0.1,0,0.1,0,0.2,0C14.5,12.2,14.9,12.1,15.2,12z"/>
	<path class="st0" d="M11.8,13.3c-0.2,0.5-0.4,1-0.3,1.4c0.1,0.3,0.1,0.7,0.1,1.1c-0.3,0.1-0.5,0-0.6,0c0.1-0.3,0.1-0.7,0-1
		c0,0,0,0,0,0c-0.1-0.6-0.4-1.7-0.6-2.4c0,0,0,0,0,0c0,0,0,0-0.1,0c0.2,0.7,0.4,1.8,0.6,2.4c0.1,0.3,0,0.6,0,0.9c0,0,0,0.1,0.1,0.1
		c0.1,0,0.2,0.1,0.4,0.1c0.1,0,0.2,0,0.3-0.1c0,0,0.1-0.1,0.1-0.1c0-0.5,0-0.9-0.1-1.1c-0.1-0.3,0.1-0.8,0.2-1.3
		c0.1-0.4,0.3-0.8,0.3-1.3c0,0-0.1,0-0.1,0C12.1,12.5,11.9,12.9,11.8,13.3z"/>
	<path class="st0" d="M17.4,15.2c-0.1,0-0.2-0.1-0.3-0.2c0,0-0.1,0-0.1,0c0,0-0.1,0-0.1,0.1c-0.1,0.2-0.1,0.3-0.2,0.5
		c0,0,0,0.1,0,0.1s0.1,0,0.1,0l0.4,0c0,0-0.1,0-0.1,0c0,0,0,0,0-0.1l-0.3,0c0-0.1,0.1-0.2,0.2-0.5c0.1,0.1,0.2,0.1,0.3,0.2
		c0,0,0,0.1,0,0.1c0.1,0,0.1,0.1,0.1,0.1c0,0,0,0,0,0c0,0,0,0,0,0l0.1-0.2C17.5,15.3,17.5,15.2,17.4,15.2z"/>
	<path class="st0" d="M17.6,14.8c0.2-0.9,0.2-1.2,0.2-1.3c0,0,0-0.1,0-0.1c0,0,0-0.1-0.1-0.1c0,0-0.1,0-0.1,0c0,0-0.1,0-0.1,0.1
		c0,0-0.1,0-0.1,0.1c-0.1,0.4-0.2,0.7-0.3,1c0,0,0,0.1,0,0.1c0.1,0.1,0.2,0.2,0.3,0.2c0,0,0,0,0,0C17.5,14.9,17.6,14.9,17.6,14.8
		C17.6,14.9,17.6,14.9,17.6,14.8z M17.3,14.6c0.1-0.3,0.2-0.7,0.3-1.1c0,0,0.1,0,0.1-0.1c0,0,0,0.1,0,0.1c0,0.2-0.1,0.7-0.2,1.2
		C17.4,14.8,17.4,14.7,17.3,14.6z"/>
	<path class="st0" d="M8.1,9.8C8.1,9.7,8.1,9.7,8.1,9.8C8,9.7,7.9,9.6,7.8,9.6c0,0-0.1,0-0.1,0C7.6,9.7,7.3,9.8,7,9.7
		C6.8,9.6,6.7,9.4,6.7,9.1c0-0.1,0-0.2,0-0.3c0,0,0,0,0,0c0-0.1,0-0.4-0.4-0.7C6,7.7,6,7.1,6,6.7c0,0,0-0.1,0-0.1c0,0-0.1,0-0.1,0
		c-0.1,0-0.2,0-0.4,0c-0.6-0.2-1-0.9-1-1c0-0.1,0-0.1,0.1-0.2c0.5-0.3,1.2,0,1.5,0.2c0.1,0,0.1,0,0.1,0c0.2-0.3,0.6-0.8,1.1-0.7
		c0.2,0.1,0.5,0,0.7,0c0.2,0,0.4,0,0.5,0c0.3,0,0.6,0.4,0.8,0.7c0,0.1,0.1,0.1,0.1,0c0.3-0.2,1-0.4,1.5-0.2c0.1,0,0.1,0.1,0.1,0.2
		c0,0-0.1,0.2-0.2,0.4c0,0,0,0.1,0,0.1c0,0,0.1,0.1,0.1,0.1c0.7,0,1.9-0.1,2.5-0.1c0.2,0,0.5-0.1,0.8-0.2c1.2-0.4,3.1-1,5,0.5
		c0.5,0.4,0.8,0.9,0.8,1.5c0,0,0,0,0,0c0.1,0.3,0.7,1.8,0.2,3.2c0,0,0,0,0,0c0,0,0.1,0,0.1,0c0,0,0,0,0,0c0.5-1.4-0.1-3-0.2-3.3
		c0-0.6-0.3-1.1-0.9-1.6c-2-1.6-3.9-0.9-5.1-0.6c-0.3,0.1-0.6,0.2-0.8,0.2C12.8,5.9,11.6,6,11,6c0.1-0.2,0.2-0.3,0.2-0.4
		c0.1-0.1,0-0.3-0.1-0.3c-0.6-0.3-1.3,0-1.6,0.2C9.3,5.2,9,4.8,8.6,4.7c-0.2,0-0.4,0-0.6,0c-0.2,0-0.5,0-0.7,0
		c-0.5-0.1-1,0.4-1.2,0.7C5.8,5.3,5.1,5,4.5,5.3C4.4,5.4,4.3,5.5,4.4,5.6c0,0.1,0.4,0.9,1.1,1c0.1,0,0.2,0,0.3,0c0.1,0,0.1,0,0.2,0
		c0,0.4,0,1.1,0.4,1.5c0.3,0.3,0.4,0.6,0.4,0.6c0,0,0,0,0,0c0,0.1-0.1,0.2,0,0.4C6.6,9.5,6.8,9.7,7,9.8c0.3,0.1,0.6,0,0.8-0.1
		c0.1,0,0.1,0.1,0.2,0.1c0,0.4,0.1,1.3,0.6,2c0,0,0.1,0,0.1,0C8.3,11.1,8.2,10.2,8.1,9.8z"/>
	<path class="st0" d="M9.5,15.7c0,0.1,0,0.1,0,0.2c0,0.1,0.1,0.1,0.1,0.1c0.1,0,0.4,0.1,0.8,0.1c0,0.1-0.1,0.2-0.1,0.3
		c-0.1,0.3-0.1,0.4,0,0.5c0,0,0.1,0,0.2,0c0.1,0,0.4,0.1,0.7,0.1c0.2,0,0.5,0,0.7-0.1c0.1,0,0.1-0.1,0.1-0.2c0-0.1,0.2-1.6,0-2.3
		c-0.1-0.2,0.1-0.6,0.2-1.1c0.1-0.4,0.3-0.8,0.3-1.2c0.1,0,0.1,0,0.2,0c-0.1,0-0.1-0.1-0.2-0.1c0,0-0.1,0-0.1,0.1
		c-0.1,0.4-0.2,0.8-0.3,1.2c-0.2,0.5-0.3,0.9-0.2,1.1c0.2,0.6,0.1,1.7,0,2.2c0,0,0,0.1-0.1,0.1C11.6,17,11.4,17,11.2,17
		c-0.3,0-0.5-0.1-0.6-0.1c0,0,0,0,0,0c0,0,0,0,0,0c0,0-0.1,0-0.1,0c-0.1-0.1-0.1-0.1,0-0.4c0-0.1,0.1-0.2,0.1-0.3c0,0,0-0.1,0-0.1
		c0,0-0.1,0-0.1,0c-0.3,0-0.6-0.1-0.7-0.1c0,0-0.1,0-0.1-0.1c0,0,0-0.1,0-0.1c0.4-1,0.2-2.6,0-3.1c0,0-0.1,0-0.1,0
		C9.6,13.3,9.9,14.8,9.5,15.7z"/>
	<path class="st0" d="M19.9,11.9c0-0.3,0.1-0.6,0.2-0.9c0,0-0.1,0-0.1,0c-0.1,0.3-0.2,0.6-0.2,0.9C19.8,11.9,19.9,11.9,19.9,11.9
		C19.9,11.9,19.9,11.9,19.9,11.9z"/>
	<path class="st0" d="M19.5,10.8c-0.1,0.3-0.2,0.6-0.2,0.9c0,0,0.1,0,0.1,0C19.4,11.5,19.5,11.2,19.5,10.8
		C19.5,10.8,19.5,10.8,19.5,10.8z"/>
	<path class="st0" d="M13.9,12.3c-0.3,0-0.5-0.1-0.7-0.1c-0.2,0-0.3,0-0.6,0c0,0,0,0,0,0c0.1,0,0.1,0.1,0.2,0.1c0.2,0,0.2,0,0.4,0
		c0.1,0,0.3,0.1,0.6,0.1C13.8,12.4,13.8,12.4,13.9,12.3C13.9,12.3,13.9,12.3,13.9,12.3z"/>
	<path class="st0" d="M9.6,12.6c0,0,0-0.1-0.1-0.1c-0.2-0.1-0.3-0.2-0.5-0.3c-0.1-0.1-0.2-0.3-0.3-0.4c0,0-0.1,0-0.1,0
		C8.7,12,8.8,12.2,9,12.3c0.2,0.1,0.3,0.3,0.5,0.3v0c0,0,0,0.1,0,0.1C9.5,12.7,9.6,12.7,9.6,12.6C9.6,12.7,9.6,12.7,9.6,12.6z"/>
	<path class="st0" d="M13.3,11.9c-0.3,0-0.3-0.1-0.7,0c0-0.2,0-0.3-0.1-0.5c0,0,0-0.1-0.1-0.1c-0.1,0-0.2,0-0.3-0.1
		c-0.1,0-0.2,0.2-0.1,0.3c0.1,0.2,0.1,0.4,0.1,0.6c0,0,0.1,0,0.1,0c0-0.2,0-0.5-0.1-0.7c0-0.1,0-0.1,0.1-0.2c0,0,0.1,0,0.1,0
		c0,0,0.1,0,0.1,0.1c0,0.1,0.1,0.3,0.1,0.5c0,0,0,0.1,0,0.1c0,0,0.1,0,0.1,0c0.3,0,0.4,0,0.6,0c0.1,0,0.3,0.1,0.7,0.1
		c0,0,0-0.1,0-0.1C13.6,11.9,13.4,11.9,13.3,11.9z"/>
	<path class="st0" d="M17.3,9.7c0.1,0,0.1,0.1,0.2,0.1C17.5,9.7,17.5,9.7,17.3,9.7C17.4,9.7,17.3,9.7,17.3,9.7z"/>
	<path class="st0" d="M20.2,12c0,0,0.1,0,0.1,0c0-0.3,0.1-0.6,0.2-0.9c0,0-0.1,0-0.1,0C20.3,11.4,20.2,11.7,20.2,12z"/>
	<path class="st0" d="M19.3,10.1c-0.2,0.5-0.3,0.9-0.4,1.4c0,0,0.1,0,0.1,0.1c0.1-0.4,0.2-0.9,0.4-1.4c0-0.1,0.1-0.2,0.1-0.3
		c0-0.1,0-0.1,0-0.2C19.4,9.8,19.3,10,19.3,10.1z"/>
	<path class="st0" d="M9.9,12.3c-0.2,0-0.4-0.1-0.6-0.3c0,0,0,0-0.1-0.1c0,0-0.1,0-0.1,0c0,0,0.1,0.1,0.1,0.1
		c0.2,0.2,0.4,0.3,0.7,0.3C9.9,12.4,10,12.4,9.9,12.3c0.1,0,0.1,0,0.1,0c-0.1-0.4-0.2-0.6-0.2-0.6c0,0,0,0,0,0c0,0-0.1,0-0.1,0.1
		C9.8,11.7,9.8,11.9,9.9,12.3z"/>
	<path class="st0" d="M10.4,12.3c-0.1-0.5-0.2-0.8-0.2-0.8c0,0,0-0.1-0.1-0.1c0,0-0.1,0-0.1,0.1c0,0,0,0,0.1,0.1
		c0,0.1,0.1,0.4,0.2,0.8C10.3,12.3,10.4,12.3,10.4,12.3C10.4,12.3,10.4,12.3,10.4,12.3z"/>
	<path class="st0" d="M17.4,15.4C17.4,15.4,17.4,15.5,17.4,15.4c0,0.1,0,0.1,0,0.1c0,0,0,0.1,0,0.1l0,0l-0.1,0c0,0,0,0.1,0,0.1
		c0,0,0.1,0,0.1,0l0,0c0,0,0,0,0,0c0,0,0.1,0,0.1,0c0,0,0-0.1,0-0.1c0,0,0,0,0,0c0,0,0,0,0,0C17.5,15.5,17.4,15.4,17.4,15.4z"/>
	<path class="st0" d="M19.6,7.9C19.6,7.9,19.6,7.9,19.6,7.9c0,0.1,0.1,0.2,0.1,0.2h0c0,0,0-0.1,0-0.1v0c0,0,0,0,0-0.1c0,0,0,0,0,0
		C19.8,7.9,19.8,7.8,19.6,7.9C19.7,7.8,19.7,7.8,19.6,7.9z"/>
	<path class="st0" d="M19.8,7.8C19.8,7.8,19.8,7.8,19.8,7.8c0,0,0,0.1,0,0.1c0,0,0,0,0,0c0,0,0,0,0,0.1v0c0,0,0,0.1,0,0.1
		c0,0,0,0,0,0c0.1,0,0.1-0.1,0.1-0.1l0-0.1C19.9,7.8,19.8,7.8,19.8,7.8z"/>
</g>
</svg>
