<?xml version="1.0" encoding="utf-8"?>
<!-- Generator: Adobe Illustrator 21.0.0, SVG Export Plug-In . SVG Version: 6.00 Build 0)  -->
<!DOCTYPE svg PUBLIC "-//W3C//DTD SVG 1.1//EN" "http://www.w3.org/Graphics/SVG/1.1/DTD/svg11.dtd">
<svg version="1.1" id="Ebene_1" xmlns="http://www.w3.org/2000/svg" xmlns:xlink="http://www.w3.org/1999/xlink" x="0px" y="0px"
	 width="30px" height="30px" viewBox="0 0 30 30" style="enable-background:new 0 0 30 30;" xml:space="preserve">
<style type="text/css">
	.st0{fill:#FFFFFF;}
</style>
<title>services-blau</title>
<g>
	<path class="st0" d="M12.5,21.1c-4.9,0-9-4-9-9c0-4.9,4-9,9-9c4.9,0,9,4,9,9C21.4,17.1,17.4,21.1,12.5,21.1z M12.5,4.2
		c-4.4,0-7.9,3.5-7.9,7.9S8.1,20,12.5,20s7.9-3.5,7.9-7.9C20.4,7.8,16.8,4.2,12.5,4.2z"/>
</g>
<g>
	<path class="st0" d="M23.5,26.9c-0.2,0-0.3,0-0.5-0.1c-0.1,0-0.2-0.1-0.2-0.1l-5.2-5.2c-0.1-0.1-0.2-0.3-0.2-0.5s0.1-0.3,0.3-0.4
		l2-1.2l1.2-2c0.1-0.1,0.2-0.2,0.4-0.3c0.2,0,0.3,0,0.5,0.2l5.2,5.2c0.1,0.1,0.1,0.2,0.1,0.2c0.4,0.7-0.3,1.9-1.2,2.8
		C25.2,26.2,24.3,26.9,23.5,26.9z M23.5,25.7C23.5,25.8,23.5,25.8,23.5,25.7c0.3,0,0.9-0.3,1.6-1s1-1.4,1-1.6V23l-4.6-4.6l-0.9,1.5
		c0,0.1-0.1,0.2-0.2,0.2L18.9,21L23.5,25.7z"/>
</g>
<g>
	<g>
		<path class="st0" d="M8,18.9H7V18c0-2.6,2.1-4.6,4.6-4.6h1.6c2.6,0,4.6,2.1,4.6,4.6v0.9h-1V18c0-2-1.7-3.7-3.7-3.7h-1.6
			c-2,0-3.7,1.7-3.7,3.7v0.9H8z"/>
	</g>
	<g>
		<path class="st0" d="M12.5,12.1c-1.5,0-2.7-1.2-2.7-2.7s1.2-2.7,2.7-2.7s2.7,1.2,2.7,2.7S14,12.1,12.5,12.1z M12.5,7.6
			c-1,0-1.8,0.8-1.8,1.8s0.8,1.8,1.8,1.8s1.8-0.8,1.8-1.8C14.2,8.4,13.4,7.6,12.5,7.6z"/>
	</g>
</g>
</svg>
