<?xml version="1.0" encoding="utf-8"?>
<!-- Generator: Adobe Illustrator 21.0.0, SVG Export Plug-In . SVG Version: 6.00 Build 0)  -->
<!DOCTYPE svg PUBLIC "-//W3C//DTD SVG 1.1//EN" "http://www.w3.org/Graphics/SVG/1.1/DTD/svg11.dtd">
<svg version="1.1" id="Ebene_1" xmlns="http://www.w3.org/2000/svg" xmlns:xlink="http://www.w3.org/1999/xlink" x="0px" y="0px"
	 width="100px" height="100px" viewBox="0 0 100 100" style="enable-background:new 0 0 100 100;" xml:space="preserve">
<style type="text/css">
	.st0{fill:#FFFFFF;}
</style>
<title>strassenzustand-blau</title>
<g id="road-7">
	<path class="st0" d="M50,24.6L50,24.6c0.9,0,1.5-0.7,1.5-1.6v-9.8c0-0.9-0.6-1.6-1.5-1.6l0,0c-0.9,0-1.5,0.7-1.5,1.6V23
		C48.5,23.8,49.2,24.5,50,24.6z"/>
	<path class="st0" d="M50,54L50,54c0.9,0,1.5-0.7,1.5-1.6V39.3c0-0.9-0.6-1.6-1.5-1.6l0,0c-0.9,0-1.5,0.7-1.5,1.6v13.1
		C48.5,53.3,49.1,54,50,54z"/>
	<path class="st0" d="M50,90L50,90c0.9,0,1.5-0.7,1.5-1.6V68.7c0-0.9-0.6-1.6-1.5-1.6l0,0c-0.9,0-1.5,0.7-1.5,1.6v19.6
		C48.4,89.2,49.1,89.9,50,90C50,90,50,90,50,90z"/>
</g>
<path class="st0" d="M87.6,90c-0.6,0-1.2-0.4-1.4-1l-26-77.1c-0.2-0.7,0.2-1.6,0.9-1.8c0.7-0.2,1.6,0.2,1.8,0.9l26,77.1
	c0.3,0.7-0.1,1.5-0.8,1.8c0,0-0.1,0-0.1,0C87.9,90,87.8,90,87.6,90z"/>
<path class="st0" d="M12.4,90c-0.2,0-0.3,0-0.5-0.1c-0.7-0.2-1.1-1-0.9-1.7c0,0,0-0.1,0-0.1L37,11c0.2-0.7,1.1-1.1,1.8-0.9
	c0.7,0.2,1.1,1.1,0.9,1.8L13.8,89C13.6,89.6,13,90,12.4,90z"/>
</svg>
