<?xml version="1.0" encoding="utf-8"?>
<!-- Generator: Adobe Illustrator 21.0.0, SVG Export Plug-In . SVG Version: 6.00 Build 0)  -->
<!DOCTYPE svg PUBLIC "-//W3C//DTD SVG 1.1//EN" "http://www.w3.org/Graphics/SVG/1.1/DTD/svg11.dtd">
<svg version="1.1" id="Ebene_1" xmlns="http://www.w3.org/2000/svg" xmlns:xlink="http://www.w3.org/1999/xlink" x="0px" y="0px"
	 width="30px" height="30px" viewBox="0 0 30 30" style="enable-background:new 0 0 30 30;" xml:space="preserve">
<style type="text/css">
	.st0{fill:#FFFFFF;}
</style>
<title>services-blau</title>
<g>
	<g>
		<path class="st0" d="M26.8,23.1c0-0.1-0.1-0.2-0.1-0.2l-5-5c-0.1-0.1-0.2-0.1-0.3-0.1c0,0,0,0-0.1,0S21,17.9,21,18l-1.1,2l-2,1.1
			c-0.1,0.1-0.2,0.2-0.2,0.3c0,0.1,0,0.3,0.1,0.4l5,5c0,0,0.1,0.1,0.2,0.1c0.1,0.1,0.3,0.1,0.4,0.1c0.7,0,1.6-0.7,2.2-1.3
			C26.4,25,27.1,23.8,26.8,23.1z M26,23.6c0,0.2-0.3,0.8-1,1.5c-0.6,0.6-1.3,1-1.5,1l0,0l0,0c0,0,0,0-0.1,0l0,0l-4.5-4.5l1.6-0.9
			c0.1,0,0.1-0.1,0.2-0.2l0.9-1.6l4.5,4.5C25.9,23.5,25.9,23.5,26,23.6L26,23.6L26,23.6z"/>
		<path class="st0" d="M21,13c0-0.1,0-0.2,0-0.3s0-0.2,0-0.2C21,12.6,21,12.8,21,13z"/>
		<polygon class="st0" points="19.1,13.5 19.1,13.4 19.1,13.4 19.1,13.4 19.1,13.4 19.1,13.5 19.1,13.5 19.1,13.5 19.1,13.5 
			19.1,13.5 19.1,13.5 19.1,13.5 		"/>
		<polygon class="st0" points="19.2,13.5 19.2,13.5 19.2,13.5 19.2,13.5 19.2,13.5 19.2,13.5 19.2,13.5 19.2,13.5 19.2,13.5 
			19.2,13.6 19.2,13.6 19.2,13.6 		"/>
		<path class="st0" d="M12.4,3.9c4.7,0,8.5,3.8,8.5,8.5s-3.8,8.5-8.5,8.5S4,17,4,12.3S7.8,3.9,12.4,3.9 M12.4,3
			c-5.1,0-9.3,4.2-9.3,9.3s4.2,9.3,9.3,9.3s9.3-4.2,9.3-9.3S17.6,3,12.4,3L12.4,3z"/>
	</g>
	<g>
		<g>
			<path class="st0" d="M18.6,17.3c-0.1,0-0.2,0-0.3-0.1c-1.7-1.5-3.3-1.4-5.1-1.4c-1.8,0.1-3.7,0.1-5.7-1.6
				c-0.1-0.1-0.1-0.2-0.1-0.3V6.5c0-0.2,0.1-0.3,0.3-0.4C7.9,6,8.1,6,8.2,6.2c0.1,0.1,0.2,0.2,0.3,0.2l0.1,0.1
				c0.1,0,0.1,0.1,0.2,0.1l0.1,0.1C9,6.7,9,6.8,9.1,6.8l0.1,0.1C9.3,6.9,9.4,7,9.4,7l0,0c0.1,0.1,0.2,0.1,0.3,0.1h0.1
				c0.1,0,0.1,0.1,0.2,0.1h0.1c0.1,0,0.1,0,0.2,0.1h0.1c0.1,0,0.1,0,0.2,0h0.1c0.1,0,0.2,0,0.3,0h0.1c0.1,0,0.2,0,0.2,0h0.1
				c0.1,0,0.2,0,0.2,0h0.1c0.1,0,0.1,0,0.2,0H12c0.1,0,0.2,0,0.3,0v0.4V7.6c0.1,0,0.3,0,0.4,0h0.1c0.1,0,0.3,0,0.4,0h0.5
				c0.2,0,0.3,0,0.5,0l0,0c0.1,0,0.2,0,0.3,0h0.1c0.1,0,0.2,0,0.2,0h0.1c0.1,0,0.2,0,0.2,0h0.1c0.1,0,0.2,0,0.3,0h0.1
				c0.1,0,0.2,0,0.3,0.1H16c0.1,0,0.2,0,0.3,0.1h0.1c0.1,0,0.2,0,0.2,0.1h0.1c0.2,0,0.3,0,0.3,0.1h0.1c0.1,0,0.2,0.1,0.3,0.1l0,0
				c0.1,0.1,0.2,0.1,0.3,0.2l0.1,0.1c0.1,0,0.1,0.1,0.2,0.1l0.1,0.1c0.1,0.1,0.2,0.1,0.2,0.2l0.1,0.1l0,0l0,0
				C18.7,9,18.8,9,18.9,9.1S19,9.3,19,9.4v7.4c0,0.2-0.1,0.3-0.3,0.4C18.7,17.3,18.7,17.3,18.6,17.3z M14.3,14.9
				c1.3,0,2.6,0.2,3.9,1.1V9.7l-0.1-0.1l0,0L18,9.5c-0.1-0.1-0.1-0.1-0.2-0.1l-0.1-0.1c-0.1,0-0.1-0.1-0.2-0.1l-0.1-0.1
				c-0.1,0-0.2-0.1-0.2-0.1l0,0c-0.1-0.1-0.2-0.1-0.3-0.1h-0.1c-0.1,0-0.1-0.1-0.2-0.1h-0.1c-0.1,0-0.1,0-0.2-0.1h-0.1
				c-0.1,0-0.1,0-0.2,0l0,0l0,0c-0.1,0-0.2,0-0.3-0.1h-0.1c-0.1,0-0.2,0-0.2,0h-0.1c-0.1,0-0.2,0-0.2,0H15c-0.1,0-0.1,0-0.2,0h-0.1
				c-0.1,0-0.2,0-0.3,0l0,0c-0.2,0-0.3,0-0.5,0h-0.5c-0.1,0-0.3,0-0.4,0h-0.1c-0.2,0-0.3,0-0.5,0l0,0c-0.1,0-0.2,0-0.3,0H12
				c-0.1,0-0.1,0-0.2,0h-0.1c-0.1,0-0.1,0-0.2,0h-0.1c-0.1,0-0.2,0-0.3,0H11c-0.1,0-0.2,0-0.3-0.1h-0.1c-0.1,0-0.2,0-0.2-0.1h-0.1
				c-0.1,0-0.1,0-0.2-0.1H10C9.7,8,9.6,8,9.5,8H9.4C9.3,8,9.2,7.9,9.1,7.9L9,7.8C8.9,7.7,8.8,7.7,8.7,7.6L8.6,7.5
				c-0.1,0-0.1-0.1-0.2-0.1H8.3v6.3c1.6,1.4,3.2,1.3,4.9,1.3C13.6,14.9,13.9,14.9,14.3,14.9z M12.4,14.6c-0.1,0-0.2,0-0.3-0.1
				C12,14.4,12,14.2,12,14.1V13c-0.4,0-0.8,0-1.2-0.1c-0.2,0-0.4-0.2-0.4-0.4v-1.8c0-0.1,0.1-0.2,0.1-0.3c0.1-0.1,0.2-0.1,0.3-0.1
				c0.3,0,0.6,0.1,1,0.1V9.3c0-0.2,0.2-0.4,0.4-0.4c0.3,0,0.6,0,0.9,0c0.3,0,0.6,0,1,0l0,0c0.1,0,0.2,0,0.3,0.1s0.1,0.2,0.1,0.3v1.1
				c0.1,0,0.2,0,0.2,0h0.2c0.1,0,0.2,0,0.2,0h0.1c0.1,0,0.3,0,0.4,0.1c0.2,0,0.4,0.2,0.4,0.4v1.8c0,0.1-0.1,0.2-0.2,0.3
				c-0.1,0.1-0.2,0.1-0.3,0.1C15.4,13,15,13,14.7,13v1.1c0,0.2-0.2,0.4-0.4,0.4c-0.3,0-0.6,0-0.9,0C13,14.5,12.7,14.6,12.4,14.6
				L12.4,14.6z M12.4,12.2c0.1,0,0.2,0,0.3,0.1s0.1,0.2,0.1,0.3v1.1c0.1,0,0.3,0,0.4,0c0.2,0,0.4,0,0.5,0v-1.1
				c0-0.2,0.2-0.4,0.4-0.4c0.4,0,0.8,0,1.1,0v-1h-0.1c-0.1,0-0.2,0-0.2,0h-0.1c-0.1,0-0.1,0-0.2,0h-0.2c-0.1,0-0.1,0-0.2,0l0,0
				c-0.1,0-0.2,0-0.3-0.1s-0.1-0.2-0.1-0.3V9.6c-0.2,0-0.3,0-0.5,0s-0.3,0-0.5,0v1.1c0,0.2-0.2,0.4-0.4,0.4c-0.4,0-0.8,0-1.1,0v1
				C11.6,12.2,12,12.2,12.4,12.2L12.4,12.2z"/>
		</g>
		<g>
			<path class="st0" d="M6.8,5.6H6.6c-0.1,0-0.3,0.1-0.3,0.3v2.5v10.9L7,19.5v-11V5.9C7.1,5.8,7,5.6,6.8,5.6z"/>
			<path class="st0" d="M7.2,19.5l-0.8-0.2v-0.1V5.9c0-0.2,0.2-0.3,0.3-0.3h0.2c0.2,0,0.3,0.2,0.3,0.3V19.5z M6.5,19.2L7,19.3V5.9
				c0-0.1-0.1-0.2-0.2-0.2H6.6c-0.1,0-0.2,0.1-0.2,0.2v2.5L6.5,19.2z"/>
		</g>
	</g>
</g>
</svg>
