<?xml version="1.0" encoding="utf-8"?>
<!-- Generator: Adobe Illustrator 21.0.0, SVG Export Plug-In . SVG Version: 6.00 Build 0)  -->
<!DOCTYPE svg PUBLIC "-//W3C//DTD SVG 1.1//EN" "http://www.w3.org/Graphics/SVG/1.1/DTD/svg11.dtd">
<svg version="1.1" id="Ebene_1" xmlns="http://www.w3.org/2000/svg" xmlns:xlink="http://www.w3.org/1999/xlink" x="0px" y="0px"
	 width="30px" height="30px" viewBox="0 0 30 30" style="enable-background:new 0 0 30 30;" xml:space="preserve">
<style type="text/css">
	.st0{fill:#FFFFFF;}
</style>
<title>services-blau</title>
<g>
	<path class="st0" d="M27.4,23.6c0-0.1-0.1-0.2-0.1-0.2L22,18.1C22,18,21.8,18,21.7,18c0,0,0,0-0.1,0c-0.1,0-0.3,0.1-0.3,0.2
		l-1.2,2.1l-2.1,1.2c-0.1,0.1-0.2,0.2-0.2,0.3c0,0.1,0,0.3,0.1,0.4l5.3,5.3c0.1,0.1,0.1,0.1,0.2,0.1c0.1,0.1,0.3,0.1,0.5,0.1
		c0.7,0,1.7-0.7,2.3-1.3C27,25.5,27.8,24.3,27.4,23.6z M26.6,24c0,0.2-0.3,0.9-1.1,1.6c-0.7,0.7-1.3,1-1.6,1.1l0,0l0,0
		c0,0,0,0-0.1,0l0,0L19.1,22l1.6-0.9c0.1,0,0.1-0.1,0.2-0.2l0.9-1.6l4.7,4.7C26.5,23.9,26.6,24,26.6,24L26.6,24L26.6,24z"/>
	<path class="st0" d="M21.4,12.9c0-0.1,0-0.2,0-0.4c0-0.1,0-0.2,0-0.2C21.3,12.5,21.3,12.7,21.4,12.9z"/>
	<g>
		<path class="st0" d="M7.8,20.7c-0.1,0-0.2,0-0.2-0.1c-0.4-0.3-0.9-0.6-1.2-0.9c0,0-0.1-0.1-0.1-0.1c-0.2-0.4-0.3-0.8-0.4-1.2
			c0-0.1,0-0.1,0-0.2c0.2-0.7,0.4-1.3,0.4-2c0-0.3,0-0.4,0-0.4c0,0-0.1,0-0.1-0.1c-0.1,0-0.1-0.1-0.2-0.1c-0.6-0.4-0.7-1.1-0.5-1.8
			c-0.1,0-0.3,0-0.4-0.1c0,0-0.1,0-0.1,0c0,0.1,0,0.1-0.1,0.2c-0.1,0.2-0.4,0.3-0.5,0.3c-0.3,0.1-0.6,0.1-0.9,0.2
			c-0.2,0-0.4-0.1-0.5-0.4C3,13.6,2.9,13,2.9,12.5c0-0.4,0-0.8,0.1-1.2c0-0.1,0.1-0.2,0.2-0.3c0,0,0-0.1,0.1-0.2
			C3.3,10.6,3.5,10.1,4,10c0.3-0.1,0.5,0,0.7,0.1c0.1,0,0.1,0,0.2,0.1c0.2,0,0.5-0.1,0.6-0.3c0,0,0.1-0.1,0.1-0.1C5.8,9.4,6,9,6.5,9
			c0,0,0,0,0,0c0.2,0,0.3,0,0.4,0.1c0,0,0,0,0.1,0c0.1,0,0.3-0.1,0.5-0.2c0.1,0,0.1-0.1,0.2-0.1c0.9-0.5,1.9-0.5,2.8,0
			c0.2-0.4,0.4-0.7,0.6-1l-0.5-0.8c-0.1-0.1-0.1-0.3,0-0.5c0.1-0.1,0.2-0.2,0.4-0.2c0,0,0.1,0,0.1-0.1c0.1,0,0.2-0.1,0.2-0.1
			c0.2-0.1,0.5,0,0.7,0.1c0.5-0.1,1.1-0.1,1.7,0.1c0.2,0,0.3,0.1,0.5,0.2c0.4,0.1,0.8,0.3,1.2,0.3c0.1,0,0.2,0,0.2,0.1
			c0.5,0.3,0.3,0.9,0.2,1.2c0,0.1,0,0.1,0,0.1c0,0.1,0.4,0.2,0.6,0.2c0.4,0.1,0.7,0.2,1,0.5c0.1,0.1,0.1,0.1,0.2,0.2
			c0.1,0.1,0.1,0.1,0.2,0.2c0.2,0.2,0.6,0.2,1.2-0.1c0-0.3,0.1-0.5,0.2-0.8c0.1-0.2,0.3-0.3,0.5-0.3c0.1,0,0.2,0.1,0.4,0.1
			c0.1-0.1,0.2-0.1,0.3-0.1c0.2,0,0.4,0.1,0.5,0.2c0.6,1.2,0.9,2.6,1,4c0,0,0,0.1,0,0.1c0,0.2,0,0.3,0,0.4c0,0.1,0,0.1,0,0.2
			c0,0.5-0.1,1.1-0.2,1.6c0,0.2-0.3,0.4-0.5,0.4l0,0c0,0-0.1,0-0.1,0c-0.1,0.1-0.1,0.1-0.2,0.1c-0.4,0-0.8-0.1-1-0.4
			c-0.2,0-0.3-0.1-0.4-0.2c-0.1-0.1-0.2-0.3-0.2-0.5c-0.1,0-0.2,0-0.3,0c-0.1,0.1-0.3,0.1-0.4,0.1c-0.1,0.3-0.3,0.6-0.5,0.8l0,0
			c0,0,0,0,0,0c0,0,0,0,0,0.1c0,0.3-0.1,0.7,0,0.9c0,0.1,0,0.1,0.1,0.1c0,0,0.1,0,0.2,0c0.1,0,0.1,0,0.2,0c0.4,0,0.8,0.2,0.9,0.6
			c0.1,0.5-0.3,0.8-0.5,1c-0.1,0.1-0.2,0.1-0.2,0.2c0,0,0,0.1,0.3,0.3c0.3,0.3,0.5,0.6,0.5,0.9c0,0.1,0,0.3-0.1,0.3
			c-0.2,0.2-0.4,0.4-0.6,0.5c-0.1,0-0.1,0.1-0.2,0.1c-0.4,0.1-0.8,0.1-1.1,0c-0.2-0.1-0.3-0.2-0.3-0.4c0-0.1,0-0.2,0.1-0.3
			c0,0-0.1,0-0.1-0.1c-0.1-0.1-0.2-0.1-0.3-0.3c-0.2-0.2-0.3-0.6-0.3-1c0,0-0.1-0.1-0.1-0.1c-0.1,0-0.3,0-0.4-0.1c0,0-0.2,0-0.4,0.2
			c-0.3,0.2-0.7,0.4-1.2,0.3c0,0.2-0.1,0.3-0.2,0.5c-0.2,0.2-0.4,0.2-0.5,0.2c-0.5,0.1-1.2,0.1-1.8-0.2c-0.3-0.2-0.5-0.4-0.6-0.7
			c-0.1-0.1-0.2-0.2-0.3-0.3l0,0c-0.1-0.1-0.2-0.2-0.3-0.4c-0.1-0.2-0.1-0.4-0.1-0.5l0-0.6c-0.1,0-0.2,0-0.3,0
			c-0.2,0-0.4-0.1-0.6-0.3c0-0.1-0.1-0.1-0.1-0.2c0,0-0.1,0-0.1,0c0,0-0.1,0-0.1,0c0,0,0,0.1,0,0.1c0,0.1-0.1,0.3-0.1,0.4
			c0.1,0.1,0.1,0.1,0.2,0.2c0.1,0.2,0.1,0.4,0.1,0.6c0,0,0,0.1,0,0.1c0,0.1,0,0.1,0.1,0.2c0,0.1,0.1,0.3,0.1,0.4l0,0
			c0.1,0.4-0.2,0.8-0.3,1.1l-0.9,1.7c-0.1,0.1-0.2,0.2-0.3,0.2C7.8,20.7,7.8,20.7,7.8,20.7z M7,19.1c0.2,0.2,0.4,0.3,0.6,0.5
			l0.7-1.3c0.1-0.2,0.2-0.4,0.2-0.5c0-0.1,0-0.1-0.1-0.2c-0.1-0.2-0.1-0.4-0.1-0.6c0-0.1,0-0.1,0-0.2c0,0,0,0,0,0c0,0,0,0,0,0
			C8.2,16.6,7.9,16.4,8,16c0-0.2,0.1-0.3,0.2-0.4c0,0,0.1-0.1,0.1-0.2c0.1-0.2,0.1-0.5,0.4-0.6c0.3-0.2,0.5-0.2,0.7-0.1
			c0.1,0,0.1,0,0.2,0c0.1-0.1,0.3-0.1,0.5,0c0.1,0.1,0.1,0.1,0.2,0.2c0.2-0.3,0.6-0.5,0.9-0.3c0.1,0.1,0.2,0.1,0.2,0.3
			c0,0.1,0,0.2,0,0.4c0,0,0,0.1,0,0.1c0,0,0,0.1,0,0.1l0,1.2c0,0,0,0.1,0,0.1c0,0,0.1,0.1,0.1,0.1l0.1,0.1c0.1,0.1,0.2,0.3,0.4,0.4
			c0.1,0.2,0.3,0.3,0.4,0.4c0.3,0.2,0.7,0.1,1.2,0.1c0,0,0,0,0,0l0-0.1c0.1-0.4,0.4-0.7,0.8-0.7c0.1,0,0.2,0.1,0.3,0.1
			c0.1,0.1,0.4-0.1,0.5-0.2c0.5-0.3,0.8-0.3,1.1-0.3c0,0,0,0,0,0c0.3-0.1,0.6,0,0.8,0.2c0,0,0.1,0.1,0.1,0.1c0,0,0,0,0,0
			c0.1,0,0.2,0.1,0.2,0.2c0.1,0.1,0.1,0.3,0.1,0.4c-0.1,0.2,0,0.4,0,0.5c0,0,0.1,0.1,0.2,0.1c0.1,0.1,0.2,0.2,0.3,0.3
			c0.1,0.1,0.2,0.3,0.2,0.5c0,0,0.1,0,0.1,0c0.1-0.1,0.2-0.1,0.2-0.2c0,0-0.1-0.1-0.2-0.2c-0.2-0.2-0.7-0.7-0.5-1.3
			c0.1-0.2,0.2-0.4,0.4-0.5c-0.4,0-0.8,0-1.1-0.7c-0.2-0.5-0.1-1,0-1.3c0-0.1,0-0.3,0.1-0.4c0.1-0.1,0.1-0.2,0.2-0.2l0,0
			c0.2-0.1,0.3-0.4,0.3-0.6c0-0.2,0.2-0.4,0.4-0.4c0,0,0,0,0,0c0.2,0,0.5-0.1,0.7-0.2c0.1-0.1,0.3-0.1,0.4,0
			c0.1-0.1,0.2-0.1,0.3-0.1c0.2,0,0.4,0,0.5,0.2l0.2,0.4c0.1,0.1,0.1,0.3,0,0.4c0.1,0.1,0.2,0.2,0.3,0.3c0,0,0.1,0.1,0.1,0.1
			c0.1,0,0.1-0.1,0.2-0.1c0.1-0.3,0.1-0.6,0.1-1c-0.1-0.2-0.1-0.4,0-0.7c0-1.1-0.3-2.1-0.7-3.1c-0.1,0-0.2,0-0.3,0
			c0,0.1,0,0.3,0,0.4c0,0.2-0.1,0.3-0.3,0.4c-0.4,0.2-1.6,0.7-2.4,0c-0.1-0.1-0.2-0.2-0.3-0.3c0,0-0.1-0.1-0.1-0.1
			c-0.1-0.1-0.4-0.2-0.6-0.2c-0.5-0.1-1.5-0.4-1.2-1.4c0,0,0-0.1,0-0.2c-0.4-0.1-0.7-0.2-1.1-0.3c-0.1-0.1-0.3-0.1-0.5-0.2
			C13,7,12.5,7,12.2,7.2c-0.1,0-0.2,0.1-0.3,0l0.2,0.4C12.2,7.8,12.2,8,12,8.2c-0.4,0.4-0.7,0.9-0.9,1.4c0,0.1-0.2,0.3-0.3,0.3
			c-0.1,0-0.3,0-0.4-0.1C9.8,9.3,8.9,9.2,8.1,9.6C8.1,9.6,8,9.7,8,9.7C7.6,9.9,7.2,10.1,6.7,10c-0.1,0-0.1,0-0.2-0.1c0,0,0,0,0,0
			c0,0.1-0.1,0.1-0.1,0.2c0,0.1-0.1,0.1-0.1,0.2C6,10.8,5.4,11.1,4.8,11c-0.1,0-0.2,0-0.3-0.1c-0.1,0-0.2-0.1-0.3-0.1c0,0,0,0,0,0
			c0,0-0.1,0.1-0.1,0.2c0,0.1-0.1,0.3-0.2,0.4c0,0,0,0-0.1,0.1c0,0.3-0.1,0.6-0.1,0.9c0,0.3,0,0.7,0.1,1.1c0.1,0,0.2,0,0.3-0.1
			c0,0,0,0,0,0c0.1-0.4,0.4-0.7,0.7-0.7c0.3,0,0.5,0.1,0.6,0.3c0,0,0.1,0,0.1,0c0.1,0,0.3,0,0.4,0.1c0.1,0,0.2,0.1,0.3,0.2
			c0.1,0.2,0.1,0.4,0,0.7c-0.2,0.3-0.2,0.7,0,0.9c0,0,0.1,0,0.1,0c0.1,0,0.2,0.1,0.3,0.2c0.4,0.3,0.4,0.9,0.3,1.1
			c0,0.7-0.2,1.5-0.4,2.2C6.8,18.7,6.8,18.9,7,19.1z M13.4,17.8L13.4,17.8L13.4,17.8z M16.1,17.5C16.1,17.5,16.1,17.5,16.1,17.5
			C16.1,17.5,16.1,17.5,16.1,17.5z M16.7,17L16.7,17L16.7,17z M21,14.8L21,14.8L21,14.8z"/>
	</g>
	<polygon class="st0" points="19.4,13.4 19.4,13.4 19.3,13.4 19.3,13.3 19.3,13.4 19.3,13.4 19.3,13.4 19.3,13.4 19.4,13.4 
		19.4,13.4 19.4,13.4 19.4,13.4 19.4,13.4 	"/>
	<polygon class="st0" points="19.4,13.5 19.4,13.5 19.4,13.4 19.4,13.4 19.4,13.4 19.4,13.4 19.4,13.4 19.4,13.5 19.4,13.5 
		19.4,13.5 19.4,13.5 19.4,13.5 19.4,13.5 	"/>
	<path class="st0" d="M12.3,3.2c4.9,0,8.9,4,8.9,8.9s-4,8.9-8.9,8.9s-8.9-4-8.9-8.9S7.4,3.2,12.3,3.2 M12.3,2.3
		c-5.4,0-9.8,4.4-9.8,9.8S6.9,22,12.3,22s9.8-4.4,9.8-9.8S17.7,2.3,12.3,2.3L12.3,2.3z"/>
</g>
</svg>
