<?xml version="1.0" encoding="utf-8"?>
<!-- Generator: Adobe Illustrator 21.0.0, SVG Export Plug-In . SVG Version: 6.00 Build 0)  -->
<!DOCTYPE svg PUBLIC "-//W3C//DTD SVG 1.1//EN" "http://www.w3.org/Graphics/SVG/1.1/DTD/svg11.dtd">
<svg version="1.1" id="Ebene_1" xmlns="http://www.w3.org/2000/svg" xmlns:xlink="http://www.w3.org/1999/xlink" x="0px" y="0px"
	 width="30px" height="30px" viewBox="0 0 30 30" style="enable-background:new 0 0 30 30;" xml:space="preserve">
<style type="text/css">
	.st0{fill:#FFFFFF;}
</style>
<title>services-blau</title>
<g>
	<path class="st0" d="M25.2,4.8h-3.8V3.9c0-0.3-0.2-0.5-0.5-0.5c-0.3,0-0.5,0.2-0.5,0.5v0.9H10.1V3.9c0-0.3-0.2-0.5-0.5-0.5
		c-0.3,0-0.5,0.2-0.5,0.5v0.9H5.3c-1,0-1.9,0.9-1.9,1.9v17.1c0,1,0.9,1.9,1.9,1.9h19.9c1,0,1.9-0.9,1.9-1.9V6.7
		C27.1,5.7,26.3,4.8,25.2,4.8z M26.2,23.8c0,0.5-0.4,0.9-0.9,0.9H5.3c-0.5,0-0.9-0.4-0.9-0.9V10.5h21.8V23.8z M26.2,9.6H4.4V6.7
		c0-0.5,0.4-0.9,0.9-0.9h3.8v1.1C8.8,7,8.6,7.3,8.6,7.7c0,0.5,0.4,0.9,0.9,0.9c0.5,0,0.9-0.4,0.9-0.9c0-0.4-0.2-0.7-0.5-0.8V5.8
		h10.4v1.1C20.2,7,20,7.3,20,7.7c0,0.5,0.4,0.9,0.9,0.9c0.5,0,0.9-0.4,0.9-0.9c0-0.4-0.2-0.7-0.5-0.8V5.8h3.8c0.5,0,0.9,0.4,0.9,0.9
		V9.6z"/>
	<path class="st0" d="M7.2,22.8h16.1c0.5,0,0.9-0.4,0.9-0.9v-9c0-0.5-0.4-0.9-0.9-0.9H7.2c-0.5,0-0.9,0.4-0.9,0.9v9
		C6.3,22.4,6.7,22.8,7.2,22.8z M23.3,18.6L23.3,18.6l-3.3,0v-2.4h3.3l0,0L23.3,18.6z M19.1,18.6h-3.3v-2.4h3.3V18.6z M15.8,19.5h3.3
		v2.4h-3.3V19.5z M14.8,21.9h-3.3v-2.4h3.3V21.9z M14.8,18.6h-3.3v-2.4h3.3V18.6z M10.5,18.6H7.2v-2.4h3.3V18.6z M7.2,19.5h3.3v2.4
		H7.2V19.5z M20,21.9v-2.4h3.3l0,0l0,2.4H20z M23.3,12.9l0,2.4l0,0H20v-2.4H23.3z M19.1,12.9v2.4h-3.3v-2.4H19.1z M14.8,12.9v2.4
		h-3.3v-2.4H14.8z M7.2,12.9h3.3v2.4H7.2V12.9z"/>
</g>
</svg>
