<svg id="Ebene_1" data-name="Ebene 1" xmlns="http://www.w3.org/2000/svg" viewBox="0 0 30 30"><defs><style>.cls-1{fill:#fff;}</style></defs><title>text-weiss</title><path class="cls-1" d="M17.6,4.7l-.2-.2h-8A2.26,2.26,0,0,0,7.1,6.8V23.2a2.26,2.26,0,0,0,2.3,2.3H20.6a2.26,2.26,0,0,0,2.3-2.3V10Zm1.3,5a1.22,1.22,0,0,1-1.2-1.2V6.4L21,9.7Zm0,1.1h2.9V23.2a1.22,1.22,0,0,1-1.2,1.2H9.4a1.22,1.22,0,0,1-1.2-1.2V6.8A1.22,1.22,0,0,1,9.4,5.6h7.2V8.5A2.33,2.33,0,0,0,18.9,10.8Z"/><rect class="cls-1" x="10.1" y="12.7" width="9.9" height="1.1"/><rect class="cls-1" x="10.1" y="14.4" width="9.9" height="1.1"/><rect class="cls-1" x="10.1" y="16.2" width="9.9" height="1.1"/><rect class="cls-1" x="10.1" y="17.9" width="9.9" height="1.1"/></svg>