<?xml version="1.0" encoding="utf-8"?>
<!-- Generator: Adobe Illustrator 21.0.0, SVG Export Plug-In . SVG Version: 6.00 Build 0)  -->
<!DOCTYPE svg PUBLIC "-//W3C//DTD SVG 1.1//EN" "http://www.w3.org/Graphics/SVG/1.1/DTD/svg11.dtd">
<svg version="1.1" id="Ebene_1" xmlns="http://www.w3.org/2000/svg" xmlns:xlink="http://www.w3.org/1999/xlink" x="0px" y="0px"
	 width="30px" height="30px" viewBox="0 0 30 30" style="enable-background:new 0 0 30 30;" xml:space="preserve">
<style type="text/css">
	.st0{fill:#817E65;}
</style>
<title>links-blau</title>
<path class="st0" d="M21.9,6.7h-8.1c-2,0-3.6,1.6-3.6,3.6c0,0,0,0,0,0v4.5c0,2,1.6,3.6,3.6,3.6c0,0,0,0,0,0h3.8
	c0.3,0,0.5-0.2,0.5-0.4c0,0,0,0,0-0.1v-0.2c0-0.3-0.2-0.5-0.4-0.5c0,0,0,0-0.1,0h-3.8c-1.4,0-2.5-1.1-2.5-2.5c0,0,0,0,0,0v-4.5
	c0-1.4,1.1-2.5,2.5-2.5c0,0,0,0,0,0h8.1c1.4,0,2.5,1.1,2.5,2.5c0,0,0,0,0,0v4.5c0,1.4-1.1,2.5-2.5,2.5c0,0,0,0,0,0h-1.2
	c-0.3,0-0.5,0.2-0.5,0.4c0,0,0,0,0,0.1v0.2c0,0.3,0.2,0.5,0.4,0.5c0,0,0,0,0.1,0h1.2c2,0,3.6-1.6,3.6-3.6c0,0,0,0,0,0v-4.5
	C25.5,8.3,23.9,6.7,21.9,6.7C21.9,6.7,21.9,6.7,21.9,6.7z"/>
<path class="st0" d="M16.1,11.6h-3.6c-0.3,0-0.5,0.2-0.5,0.4c0,0,0,0,0,0.1v0.2c0,0.3,0.2,0.5,0.4,0.5c0,0,0,0,0.1,0h3.6
	c1.4,0,2.5,1.1,2.5,2.5c0,0,0,0,0,0v4.5c0,1.4-1.1,2.5-2.5,2.5c0,0,0,0,0,0h-8c-1.4,0-2.5-1.1-2.5-2.5c0,0,0,0,0,0v-4.5
	c0-1.4,1.1-2.5,2.5-2.5c0,0,0,0,0,0h1.2c0.3,0,0.5-0.2,0.5-0.4c0,0,0,0,0-0.1v-0.2c0-0.3-0.2-0.5-0.4-0.5c0,0,0,0-0.1,0H8.1
	c-2,0-3.6,1.6-3.6,3.6c0,0,0,0,0,0v4.5c0,2,1.6,3.6,3.6,3.6c0,0,0,0,0,0h8.1c2,0,3.6-1.6,3.6-3.6c0,0,0,0,0,0v-4.5
	C19.7,13.2,18.1,11.6,16.1,11.6z"/>
</svg>
