<svg id="Ebene_1" data-name="Ebene 1" xmlns="http://www.w3.org/2000/svg" viewBox="0 0 30 30"><defs><style>.cls-1{fill:#fff;}</style></defs><title>kontakt-weiss</title><path class="cls-1" d="M11.4,10a.76.76,0,0,0,.4.2.76.76,0,0,0,.4-.2.61.61,0,0,0,0-.8L10,7a.57.57,0,1,0-.8.8Z"/><path class="cls-1" d="M22.6,20.8a.52.52,0,0,0,.4.2h0a.57.57,0,0,0,.4-1l-2.2-2.2a.57.57,0,1,0-.8.8Z"/><path class="cls-1" d="M24.9,19.1l-2.3-2.6a2.57,2.57,0,0,0-3.3-.3l-1.6,1.4h0l-.2.2c-.2,0-1-.3-2.9-2.2A7.33,7.33,0,0,1,13,13.5a1.76,1.76,0,0,1-.3-.8l.2-.2h0l.9-1.2A2.56,2.56,0,0,0,13.6,8L11,5.1a2.45,2.45,0,0,0-1.6-.6,2.09,2.09,0,0,0-1.6.8L5,9c-1.7,1.7,1.5,6.6,5.4,10.6,4.3,4.3,7.6,5.9,9.3,5.9a1.59,1.59,0,0,0,1.2-.4l3.8-2.9a1.9,1.9,0,0,0,.8-1.5A2.27,2.27,0,0,0,24.9,19.1ZM6,9.6,8.7,6a1.27,1.27,0,0,1,.7-.4,1.14,1.14,0,0,1,.8.3l2.6,2.7a1.27,1.27,0,0,1,.1,1.8l-1.1,1.4c-.3.3-.5.9.1,2.1a9.4,9.4,0,0,0,1.8,2.4c2,2,3.4,2.8,4.2,2.5h0l2-1.7a1.51,1.51,0,0,1,1.8.1L24,19.8a1.14,1.14,0,0,1,.3.8,1,1,0,0,1-.4.7L20.3,24h0l-.3.3c-.4.2-1.3.1-3-.8a28.8,28.8,0,0,1-5.9-4.7c-4.2-4.2-6-7.9-5.5-8.9L6,9.6Z"/></svg>