<?xml version="1.0" encoding="UTF-8" standalone="no"?>
<svg width="100px" height="100px" viewBox="0 0 100 100" version="1.1" xmlns="http://www.w3.org/2000/svg" xmlns:xlink="http://www.w3.org/1999/xlink">
    <!-- Generator: Sketch 39.1 (31720) - http://www.bohemiancoding.com/sketch -->
    <title>services-transparent</title>
    <desc>Created with Sketch.</desc>
    <defs>
        <polygon id="path-1" points="2474.53 4011.17873 2474.53 0 8 0 8 1003.0625 8 4011.17873 2474.53 4011.17873"></polygon>
    </defs>
    <g id="Page-1" stroke="none" stroke-width="1" fill="none" fill-rule="evenodd">
        <g id="icons-web-v205-jbe-rz" transform="translate(0.000000, -3490.000000)">
            <mask id="mask-2" fill="white">
                <use xlink:href="#path-1"></use>
            </mask>
            <g id="Clip-2"></g>
            <path fill="#ffffff" d="M51.202,3503.43 C46.576,3503.43 42.812,3507.19 42.812,3511.82 C42.812,3516.37 46.654,3520.21 51.202,3520.21 C55.908,3520.21 59.594,3516.52 59.594,3511.82 C59.594,3507.04 55.986,3503.43 51.202,3503.43 L51.202,3503.43 Z M51.202,3523.1 C44.981,3523.1 39.92,3518.04 39.92,3511.82 C39.92,3505.6 44.981,3500.54 51.202,3500.54 C57.529,3500.54 62.485,3505.49 62.485,3511.82 C62.485,3518.15 57.529,3523.1 51.202,3523.1 L51.202,3523.1 Z M37.495,3577.65 L65.47,3577.65 L65.47,3575.96 C59.809,3575.16 58.915,3573.68 58.915,3566.99 L58.915,3532.6 L37.498,3532.6 L37.498,3533.73 C43.477,3534.58 44.056,3535.7 44.056,3542.8 L44.054,3566.99 C44.054,3573.68 43.159,3575.16 37.495,3575.96 L37.495,3577.65 L37.495,3577.65 Z M68.361,3580.54 L34.604,3580.54 L34.604,3573.39 L35.887,3573.25 C41.163,3572.65 41.163,3572.65 41.163,3566.99 L41.164,3542.2 C41.156,3539.75 41.087,3538.11 40.608,3537.55 C40.103,3536.96 38.328,3536.74 35.873,3536.43 L34.607,3536.27 L34.607,3529.71 L61.807,3529.71 L61.807,3566.99 C61.807,3572.65 61.807,3572.65 67.078,3573.25 L68.361,3573.39 L68.361,3580.54 L68.361,3580.54 Z" id="Fill-612"  mask="url(#mask-2)"></path>
        </g>
    </g>
</svg>