<?xml version="1.0" encoding="utf-8"?>
<!-- Generator: Adobe Illustrator 21.0.0, SVG Export Plug-In . SVG Version: 6.00 Build 0)  -->
<!DOCTYPE svg PUBLIC "-//W3C//DTD SVG 1.1//EN" "http://www.w3.org/Graphics/SVG/1.1/DTD/svg11.dtd">
<svg version="1.1" id="Ebene_1" xmlns="http://www.w3.org/2000/svg" xmlns:xlink="http://www.w3.org/1999/xlink" x="0px" y="0px"
	 width="30px" height="30px" viewBox="0 0 30 30" style="enable-background:new 0 0 30 30;" xml:space="preserve">
<style type="text/css">
	.st0{fill:#817E65;}
</style>
<title>services-blau</title>
<g>
	<g>
		<path class="st0" d="M24.3,9.3h-8.4c0,0.1,0,0.3-0.1,0.5s-0.3,0.4-0.5,0.5h9c0.9,0,1.7,0.8,1.7,1.7v8.7c0,0.9-0.8,1.7-1.7,1.7H4.9
			c-0.9,0-1.7-0.8-1.7-1.7V12c0-0.9,0.8-1.7,1.7-1.7h6.2c0-0.2,0-0.4,0.2-0.5c0.1,0,0.1-0.1,0.2-0.1c0.1-0.1,0.2-0.1,0.2-0.1
			c0-0.1,0-0.2,0.1-0.2H4.9c-1.5,0-2.7,1.2-2.7,2.7v8.7c0,1.5,1.2,2.7,2.7,2.7h19.3c1.5,0,2.7-1.2,2.7-2.7V12
			C27,10.5,25.8,9.3,24.3,9.3z"/>
	</g>
	<g>
		<path class="st0" d="M23.8,16.1h-8.6c-0.3,0-0.5-0.2-0.5-0.5s0.2-0.5,0.5-0.5h8.6c0.3,0,0.5,0.2,0.5,0.5
			C24.3,15.9,24.1,16.1,23.8,16.1z"/>
	</g>
	<g>
		<path class="st0" d="M23.8,19.4H11c-0.3,0-0.5-0.2-0.5-0.5s0.2-0.5,0.5-0.5h12.8c0.3,0,0.5,0.2,0.5,0.5S24.1,19.4,23.8,19.4z"/>
	</g>
	<g>
		<path class="st0" d="M11.6,8.2c-0.1,0-0.3,0-0.4-0.1c-0.2-0.2-0.2-0.5,0-0.7L14,4.6c0.2-0.2,0.5-0.2,0.7,0C15,4.7,15,5,14.8,5.2
			L12,8C11.9,8.1,11.8,8.2,11.6,8.2z"/>
	</g>
	<g>
		<path class="st0" d="M8.3,17.6c-0.1,0-0.3,0-0.4-0.1l-2-2c-0.1-0.1-0.1-0.2-0.1-0.4s0.1-0.3,0.1-0.4L17.2,3.5
			c0.1-0.1,0.2-0.1,0.4-0.1l0,0c0.1,0,0.3,0.1,0.4,0.1l2,2c0.2,0.2,0.2,0.5,0,0.7L8.6,17.5C8.5,17.6,8.4,17.6,8.3,17.6z M7,15.1
			l1.3,1.3L18.8,5.9l-1.3-1.3L7,15.1z"/>
	</g>
	<g>
		<path class="st0" d="M16,9.9c-0.1,0-0.3,0-0.4-0.1l-2-2c-0.2-0.2-0.2-0.5,0-0.7s0.5-0.2,0.7,0l2,2c0.2,0.2,0.2,0.5,0,0.7
			C16.2,9.8,16.1,9.9,16,9.9z"/>
	</g>
	<g>
		<path class="st0" d="M15.2,6.1c-0.1,0-0.3,0-0.4-0.1l-0.7-0.7c-0.2-0.2-0.2-0.5,0-0.7s0.5-0.2,0.7,0l0.7,0.7
			c0.2,0.2,0.2,0.5,0,0.7C15.4,6,15.3,6.1,15.2,6.1z"/>
	</g>
	<g>
		<path class="st0" d="M5,18.9c-0.1,0-0.3,0-0.3-0.1c-0.1-0.1-0.2-0.3-0.1-0.5L5.9,15c0.1-0.3,0.4-0.4,0.6-0.3
			c0.3,0.1,0.4,0.4,0.3,0.6l-0.9,2.3l2.2-0.9c0.3-0.1,0.5,0,0.6,0.3s0,0.5-0.3,0.6L5,18.9C5.1,18.9,5.1,18.9,5,18.9z"/>
	</g>
</g>
</svg>
