<?xml version="1.0" encoding="utf-8"?>
<!-- Generator: Adobe Illustrator 21.0.0, SVG Export Plug-In . SVG Version: 6.00 Build 0)  -->
<!DOCTYPE svg PUBLIC "-//W3C//DTD SVG 1.1//EN" "http://www.w3.org/Graphics/SVG/1.1/DTD/svg11.dtd">
<svg version="1.1" id="Ebene_1" xmlns="http://www.w3.org/2000/svg" xmlns:xlink="http://www.w3.org/1999/xlink" x="0px" y="0px"
	 width="30px" height="30px" viewBox="0 0 30 30" style="enable-background:new 0 0 30 30;" xml:space="preserve">
<style type="text/css">
	.st0{fill:#817E65;}
</style>
<title>services-blau</title>
<g>
	<g>
		<path class="st0" d="M22.9,24.7H7.1c-1.9,0-3.5-1.6-3.5-3.5v-9.3c0-1.9,1.6-3.5,3.5-3.5h2.2c0.2,0,0.5,0.2,0.5,0.5
			c0,0.2-0.2,0.5-0.5,0.5H7.1c-1.4,0-2.6,1.2-2.6,2.6v9.3c0,1.4,1.2,2.6,2.6,2.6h15.7c1.4,0,2.6-1.2,2.6-2.6v-9.3
			c0-1.4-1.2-2.6-2.6-2.6h-2.2c-0.2,0-0.5-0.2-0.5-0.5c0-0.2,0.2-0.5,0.5-0.5h2.2c1.9,0,3.5,1.6,3.5,3.5v9.3
			C26.4,23.1,24.8,24.7,22.9,24.7z"/>
	</g>
	<g>
		<line class="st0" x1="4.1" y1="21.2" x2="25.9" y2="21.2"/>
		<path class="st0" d="M25.9,21.6H4.1c-0.2,0-0.5-0.2-0.5-0.5c0-0.2,0.2-0.5,0.5-0.5h21.8c0.2,0,0.5,0.2,0.5,0.5
			C26.4,21.4,26.2,21.6,25.9,21.6z"/>
	</g>
	<g>
		<line class="st0" x1="10.3" y1="27" x2="20" y2="27"/>
		<path class="st0" d="M20,27.5h-9.7c-0.2,0-0.5-0.2-0.5-0.5s0.2-0.5,0.5-0.5H20c0.2,0,0.5,0.2,0.5,0.5S20.3,27.5,20,27.5z"/>
	</g>
	<g>
		<line class="st0" x1="15.2" y1="27" x2="15.2" y2="24.2"/>
		<path class="st0" d="M15.2,27.5c-0.2,0-0.5-0.2-0.5-0.5v-2.8c0-0.2,0.2-0.5,0.5-0.5c0.2,0,0.5,0.2,0.5,0.5V27
			C15.6,27.3,15.4,27.5,15.2,27.5z"/>
	</g>
	<g>
		<polygon class="st0" points="15.2,17.8 10.9,13.2 11.2,12.9 15.2,16.5 19.1,12.9 19.5,13.2 		"/>
	</g>
	<g>
		<line class="st0" x1="15.2" y1="16.5" x2="15.2" y2="3"/>
		<path class="st0" d="M15.2,17c-0.2,0-0.5-0.2-0.5-0.5V3c0-0.2,0.2-0.5,0.5-0.5c0.2,0,0.5,0.2,0.5,0.5v13.5
			C15.6,16.8,15.4,17,15.2,17z"/>
	</g>
</g>
</svg>
