<?xml version="1.0" encoding="utf-8"?>
<!-- Generator: Adobe Illustrator 21.0.0, SVG Export Plug-In . SVG Version: 6.00 Build 0)  -->
<!DOCTYPE svg PUBLIC "-//W3C//DTD SVG 1.1//EN" "http://www.w3.org/Graphics/SVG/1.1/DTD/svg11.dtd">
<svg version="1.1" id="Ebene_1" xmlns="http://www.w3.org/2000/svg" xmlns:xlink="http://www.w3.org/1999/xlink" x="0px" y="0px"
	 width="30px" height="30px" viewBox="0 0 30 30" style="enable-background:new 0 0 30 30;" xml:space="preserve">
<style type="text/css">
	.st0{fill:#817E65;}
</style>
<title>services-blau</title>
<g>
	<g>
		<g>
			<g>
				<path class="st0" d="M21.5,27h-13C7.1,27,6,25.9,6,24.6V5.4C6,4.1,7.1,3,8.5,3h9.2l0.2,0.1L24,9.3v15.3C24,25.9,22.9,27,21.5,27
					z M8.5,3.8c-0.9,0-1.6,0.7-1.6,1.6v19.1c0,0.9,0.7,1.6,1.6,1.6h13.1c0.9,0,1.6-0.7,1.6-1.6V9.6l-5.8-5.8
					C17.4,3.8,8.5,3.8,8.5,3.8z"/>
			</g>
		</g>
		<g>
			<g>
				<path class="st0" d="M23.6,9.9h-4c-1.3,0-2.4-1.1-2.4-2.4v-4H18v4C18,8.3,18.7,9,19.6,9h4V9.9z"/>
			</g>
		</g>
	</g>
</g>
<g>
	<path class="st0" d="M8.5,16.7l0.7-0.2l0.3,1.1l0.6-1.3L11,16l-0.7,1.4l1.6,1.4L11,18.9l-1.1-1l-0.2,0.4l0.2,0.9l-0.7,0.2L8.5,16.7
		z"/>
	<path class="st0" d="M12.7,15.4c0.9-0.2,1.5,0.3,1.8,1.1c0.2,0.8-0.1,1.6-1,1.8c-0.9,0.2-1.5-0.3-1.8-1.1
		C11.5,16.4,11.8,15.6,12.7,15.4z M13.3,17.7c0.5-0.1,0.5-0.6,0.4-1s-0.4-0.8-0.9-0.6c-0.5,0.1-0.5,0.6-0.4,1
		C12.6,17.4,12.9,17.8,13.3,17.7z"/>
	<path class="st0" d="M14.6,14.9l1.3-0.4c0.5-0.1,1.1,0,1.3,0.6c0.2,0.7-0.1,1.1-0.7,1.2l-0.6,0.2l0.3,0.9l-0.7,0.2L14.6,14.9z
		 M15.7,16l0.5-0.1c0.2-0.1,0.4-0.2,0.3-0.5s-0.3-0.3-0.5-0.3l-0.5,0.1L15.7,16z"/>
	<path class="st0" d="M17.4,14.1l0.7-0.2l0.8,2.8l-0.7,0.2L17.4,14.1z"/>
	<path class="st0" d="M18.7,13.8l2.2-0.6l0.2,0.6l-1.5,0.4l0.1,0.5l1.4-0.4l0.2,0.6l-1.4,0.4l0.1,0.5l1.5-0.4l0.2,0.6l-2.2,0.6
		L18.7,13.8z"/>
</g>
</svg>
