<?xml version="1.0" encoding="utf-8"?>
<!-- Generator: Adobe Illustrator 21.0.0, SVG Export Plug-In . SVG Version: 6.00 Build 0)  -->
<!DOCTYPE svg PUBLIC "-//W3C//DTD SVG 1.1//EN" "http://www.w3.org/Graphics/SVG/1.1/DTD/svg11.dtd">
<svg version="1.1" id="Ebene_1" xmlns="http://www.w3.org/2000/svg" xmlns:xlink="http://www.w3.org/1999/xlink" x="0px" y="0px"
	 width="100px" height="100px" viewBox="0 0 100 100" style="enable-background:new 0 0 100 100;" xml:space="preserve">
<style type="text/css">
	.st0{fill:#817E65;}
</style>
<title>steuerrechner-blau</title>
<path class="st0" d="M69.2,10H30.8c-5.5,0-10,4.5-10,10v60c0,5.5,4.5,10,10,10h38.4c5.5,0,10-4.5,10-10V20
	C79.2,14.5,74.7,10,69.2,10z M76.2,20v60c0,3.8-3.1,6.9-7,6.9c0,0,0,0,0,0H30.8c-3.8,0-7-3-7-6.9c0,0,0,0,0,0V20
	c0-3.8,3.1-6.9,7-6.9c0,0,0,0,0,0h38.4C73,13.1,76.2,16.1,76.2,20C76.2,20,76.2,20,76.2,20z"/>
<path class="st0" d="M30,22.8v13.8h40V22.8H30z M33.1,33.6v-7.7H67v7.7H33.1z"/>
<path class="st0" d="M37.2,42.1c-1.3,0-2.6,0.5-3.5,1.4c-0.9,0.9-1.5,2.2-1.5,3.5c0,1.3,0.5,2.6,1.5,3.5c2,1.9,5,1.9,7,0
	c0.9-0.9,1.5-2.2,1.5-3.5c0-1.3-0.5-2.6-1.5-3.5C39.8,42.6,38.5,42.1,37.2,42.1z M39.1,47c0,0.5-0.2,1-0.6,1.3
	c-0.8,0.7-1.9,0.7-2.7,0c-0.4-0.3-0.6-0.8-0.6-1.3c0-0.5,0.2-1,0.6-1.3c0.4-0.4,0.9-0.6,1.4-0.6C38.2,45.2,39,46,39.1,47z"/>
<path class="st0" d="M53.5,43.5c-2-1.9-5-1.9-7,0C45.6,44.4,45,45.7,45,47c0,1.3,0.5,2.6,1.5,3.5c2,1.9,5,1.9,7,0
	c1.9-1.8,2-4.9,0.2-6.8C53.6,43.6,53.6,43.6,53.5,43.5z M51.9,47c0,0.5-0.2,1-0.6,1.3c-0.8,0.7-1.9,0.7-2.7,0C48.2,48,48,47.5,48,47
	c0-0.5,0.2-1,0.6-1.3c0.4-0.4,0.9-0.6,1.4-0.6C51,45.2,51.8,46,51.9,47z"/>
<path class="st0" d="M62.8,51.9c1.3,0,2.6-0.5,3.5-1.4c0.9-0.9,1.5-2.2,1.5-3.5c0-1.3-0.5-2.6-1.5-3.5c-2-1.9-5-1.9-7,0
	c-0.9,0.9-1.5,2.2-1.5,3.5c0,1.3,0.5,2.6,1.5,3.5C60.2,51.4,61.5,51.9,62.8,51.9z M60.9,47c0-0.5,0.2-1,0.6-1.3
	c0.4-0.4,0.9-0.6,1.4-0.6c0.5,0,1,0.2,1.3,0.6c0.4,0.3,0.6,0.8,0.6,1.3c0,0.5-0.2,1-0.6,1.3c-0.8,0.7-1.9,0.7-2.7,0
	C61.1,48,60.9,47.5,60.9,47z"/>
<path class="st0" d="M37.2,54.8c-1.3,0-2.6,0.5-3.5,1.4c-0.9,0.9-1.5,2.2-1.5,3.5c0,1.3,0.5,2.6,1.5,3.5c2,1.9,5,1.9,7,0
	c0.9-0.9,1.5-2.2,1.5-3.5c0-1.3-0.5-2.6-1.5-3.5C39.8,55.3,38.5,54.8,37.2,54.8z M39.1,59.7c0,0.5-0.2,1-0.6,1.3
	c-0.8,0.7-1.9,0.7-2.7,0c-0.4-0.3-0.6-0.8-0.6-1.3c0-0.5,0.2-1,0.6-1.3c0.4-0.4,0.9-0.6,1.4-0.6C38.2,57.9,39,58.7,39.1,59.7z"/>
<path class="st0" d="M50,54.8c-1.3,0-2.6,0.5-3.5,1.4c-0.9,0.9-1.5,2.2-1.5,3.5c0,1.3,0.5,2.6,1.5,3.5c2,1.9,5,1.9,7,0
	c0.9-0.9,1.5-2.2,1.5-3.5c0-1.3-0.5-2.6-1.5-3.5C52.6,55.3,51.3,54.8,50,54.8z M51.9,59.7c0,0.5-0.2,1-0.6,1.3
	c-0.8,0.7-1.9,0.7-2.7,0c-0.4-0.3-0.6-0.8-0.6-1.3c0-0.5,0.2-1,0.6-1.3c0.4-0.4,0.9-0.6,1.4-0.6c0.5,0,1,0.2,1.4,0.6
	C51.7,58.8,51.9,59.2,51.9,59.7z"/>
<path class="st0" d="M62.8,54.8c-1.3,0-2.6,0.5-3.5,1.4c-0.9,0.9-1.5,2.2-1.5,3.5c0,1.3,0.5,2.6,1.5,3.5c2,1.9,5,1.9,7,0
	c0.9-0.9,1.5-2.2,1.5-3.5c0-1.3-0.5-2.6-1.5-3.5C65.4,55.3,64.1,54.8,62.8,54.8z M64.7,59.7c0,0.5-0.2,1-0.6,1.3l0,0
	c-0.8,0.7-1.9,0.7-2.7,0c-0.4-0.3-0.6-0.8-0.6-1.3c0-0.5,0.2-1,0.6-1.3c0.4-0.4,0.9-0.6,1.4-0.6C63.8,57.9,64.6,58.7,64.7,59.7z"/>
<path class="st0" d="M37.2,67.5c-1.3,0-2.6,0.5-3.5,1.4c-0.9,0.9-1.5,2.2-1.5,3.5c0,1.3,0.5,2.6,1.5,3.5c2,1.9,5,1.9,7,0
	c0.9-0.9,1.5-2.2,1.5-3.5c0-1.3-0.5-2.6-1.5-3.5C39.8,68,38.5,67.5,37.2,67.5z M39.1,72.4c0,0.5-0.2,1-0.6,1.3
	c-0.8,0.7-1.9,0.7-2.7,0c-0.4-0.3-0.6-0.8-0.6-1.3c0-0.5,0.2-1,0.6-1.3c0.4-0.4,0.9-0.6,1.4-0.6C38.2,70.6,39,71.4,39.1,72.4z"/>
<path class="st0" d="M50,67.5c-1.3,0-2.6,0.5-3.5,1.4c-0.9,0.9-1.5,2.2-1.5,3.5c0,1.3,0.5,2.6,1.5,3.5c2,1.9,5,1.9,7,0
	c0.9-0.9,1.5-2.2,1.5-3.5c0-1.3-0.5-2.6-1.5-3.5C52.6,68,51.3,67.5,50,67.5z M51.4,73.7c-0.8,0.7-1.9,0.7-2.7,0
	c-0.4-0.3-0.6-0.8-0.6-1.3c0-0.5,0.2-1,0.6-1.3c0.4-0.4,0.9-0.6,1.4-0.6c0.5,0,1,0.2,1.3,0.6c0.4,0.3,0.6,0.8,0.6,1.3
	C51.9,72.9,51.7,73.3,51.4,73.7z"/>
<path class="st0" d="M62.8,67.5c-1.3,0-2.6,0.5-3.5,1.4c-0.9,0.9-1.5,2.2-1.5,3.5c0,1.3,0.5,2.6,1.5,3.5c2,1.9,5,1.9,7,0
	c0.9-0.9,1.5-2.2,1.5-3.5c0-1.3-0.5-2.6-1.5-3.5C65.4,68,64.1,67.5,62.8,67.5z M64.1,73.7L64.1,73.7c-0.8,0.7-1.9,0.7-2.7,0
	c-0.4-0.3-0.6-0.8-0.6-1.3c0-0.5,0.2-1,0.6-1.3c0.4-0.4,0.9-0.6,1.4-0.6c0.5,0,1,0.2,1.3,0.6c0.7,0.6,0.8,1.7,0.2,2.4
	C64.2,73.6,64.2,73.6,64.1,73.7z"/>
</svg>
