<?xml version="1.0" encoding="utf-8"?>
<!-- Generator: Adobe Illustrator 21.0.0, SVG Export Plug-In . SVG Version: 6.00 Build 0)  -->
<!DOCTYPE svg PUBLIC "-//W3C//DTD SVG 1.1//EN" "http://www.w3.org/Graphics/SVG/1.1/DTD/svg11.dtd">
<svg version="1.1" id="Ebene_1" xmlns="http://www.w3.org/2000/svg" xmlns:xlink="http://www.w3.org/1999/xlink" x="0px" y="0px"
	 width="100px" height="100px" viewBox="0 0 100 100" style="enable-background:new 0 0 100 100;" xml:space="preserve">
<style type="text/css">
	.st0{fill:#817E65;}
</style>
<title>waldbrandgefahr-blau</title>
<path class="st0" d="M28.6,87.5c-7.2,0-12.8-2.5-15.9-6.9c-3.2-4.6-3.5-11-0.9-18c4-10.8,6.6-13.8,6.7-13.9c0.3-0.4,0.9-0.6,1.4-0.5
	c0.5,0.1,0.9,0.5,1.1,0.9c0.1,0.2,1,2.7,1.8,5.2c1.2-4.3,3-11.6,4.5-18.4c0.1-0.7,0.7-1.1,1.4-1.1c0.7,0,1.3,0.4,1.4,1.1
	c1.9,7.6,4.2,15.9,5.8,20.3c0.1-2.5,0-5.8-0.1-8.8c0-0.6,0.4-1.2,1-1.4c0.6-0.2,1.3,0,1.7,0.5c0.5,0.6,11.5,15.3,11.3,23
	c-0.4,11.5-6.7,17.3-19.4,18H28.6z M19.2,52.9c-1.9,3.4-3.4,6.9-4.7,10.6c-2.3,6.1-2.1,11.6,0.6,15.4s7.3,5.7,13.5,5.7h1.6
	c14.4-0.7,16.4-8.5,16.6-15.1c0.1-4.3-4.4-12-7.9-17.2c0,3.6-0.1,7.5-0.7,8.8c-0.3,0.6-0.9,1-1.6,1c-1.3,0-2.1-1.1-3.4-4.8
	c-0.7-2-1.6-4.9-2.6-8.4c-0.6-2.2-1.2-4.4-1.7-6.4c-0.4,1.7-0.9,3.6-1.3,5.5c-0.8,3.3-1.5,5.9-2.1,7.8c-1,3.4-1.4,4.6-2.7,4.6l0,0
	c-0.7,0-1.4-0.6-1.5-1.3C20.9,57.9,19.9,55.1,19.2,52.9z"/>
<path class="st0" d="M89.6,64.2L75.8,48.5c2.8-0.7,5.4-1.8,7.9-3.3c0.4-0.2,0.6-0.6,0.7-1c0.1-0.4-0.1-0.9-0.3-1.2L73.4,31
	c1.8-0.5,3.5-1.3,5.1-2.2c0.4-0.2,0.6-0.6,0.7-1c0.1-0.4-0.1-0.9-0.3-1.2L67.4,13.5c-0.6-0.6-1.4-1-2.2-1l0,0c-0.8,0-1.6,0.4-2.2,1
	l-6,6.7l-4-4.6c-0.6-0.6-1.4-1-2.2-1l0,0c-0.8,0-1.6,0.4-2.2,1L37,28.7c-0.3,0.3-0.4,0.8-0.3,1.2c0.1,0.4,0.3,0.8,0.7,1
	c1.6,0.9,3.3,1.7,5.1,2.2l-7.9,9c-0.5,0.6-0.4,1.6,0.2,2.1c0.6,0.5,1.4,0.4,2-0.1l9.5-10.8c0.3-0.4,0.5-0.9,0.3-1.4
	c-0.2-0.5-0.6-0.9-1.1-1c-1.7-0.4-3.4-0.9-5-1.6l10.3-11.7L61,29.2c-1.6,0.7-3.3,1.2-5,1.6c-0.5,0.1-0.9,0.5-1.1,1
	c-0.2,0.5-0.1,1,0.3,1.4l11,12.5c-2.5,1.3-5.1,2.1-7.8,2.6c-0.5,0.1-0.9,0.5-1.1,1c-0.2,0.5-0.1,1,0.3,1.4l14.2,16.1
	c-4.6,2.3-9.5,3.8-14.6,4.4c-0.7,0.1-1.3,0.7-1.3,1.5v9.6c-0.1,0.5-0.5,0.9-1,0.9h-8.4c-0.8,0-1.5,0.7-1.5,1.5s0.7,1.5,1.5,1.5h8.4
	c2.1,0,3.9-1.6,3.9-3.7c0,0,0,0,0-0.1V74c3.2-0.5,6.4-1.3,9.5-2.4h0.1c0.6,0,1.2,0.1,1.8,0.1c6.7-0.1,13.2-1.9,19-5.2
	c0.4-0.2,0.6-0.6,0.7-1C90.1,65,90,64.5,89.6,64.2z M75.1,68.3c0.2-0.2,0.4-0.5,0.5-0.8c0.1-0.4-0.1-0.9-0.3-1.2L61.4,50.6
	c2.8-0.7,5.4-1.8,7.9-3.3c0.4-0.2,0.6-0.6,0.7-1c0.1-0.4-0.1-0.9-0.3-1.2L59,33.1c1.8-0.5,3.5-1.3,5.1-2.2c0.4-0.2,0.6-0.6,0.7-1
	c0.1-0.4-0.1-0.9-0.3-1.2L59,22.4l6.2-7l10.3,11.7c-1.6,0.7-3.3,1.2-5,1.6c-0.5,0.1-0.9,0.5-1.1,1c-0.2,0.5-0.1,1,0.3,1.4l11,12.5
	c-2.5,1.3-5.1,2.1-7.8,2.6c-0.5,0.1-0.9,0.5-1.1,1c-0.2,0.5-0.1,1,0.3,1.4l14.2,16.1C82.8,66.4,79,67.6,75.1,68.3z"/>
</svg>
