<?xml version="1.0" encoding="utf-8"?>
<!-- Generator: Adobe Illustrator 21.0.0, SVG Export Plug-In . SVG Version: 6.00 Build 0)  -->
<!DOCTYPE svg PUBLIC "-//W3C//DTD SVG 1.1//EN" "http://www.w3.org/Graphics/SVG/1.1/DTD/svg11.dtd">
<svg version="1.1" id="Ebene_1" xmlns="http://www.w3.org/2000/svg" xmlns:xlink="http://www.w3.org/1999/xlink" x="0px" y="0px"
	 width="30px" height="30px" viewBox="0 0 30 30" style="enable-background:new 0 0 30 30;" xml:space="preserve">
<style type="text/css">
	.st0{fill:#817E65;}
</style>
<title>services-blau</title>
<g>
	<path class="st0" d="M25.1,15.7V2.9H4.9v12.6l0,0c0,2.8,1.1,5.7,2.9,8c2,2.4,4.5,3.7,7.2,3.7C21,27.1,25.1,21.1,25.1,15.7
		L25.1,15.7z M21.5,3.3L21.5,3.3h3.2l0,0v3.2h-3.2V3.3z M20.2,8.2h4.5v0.9H21v3.6h-0.8V8.2z M15.2,6.9h3.7V3.3h0.8v4.5h-4.5
		C15.2,7.8,15.2,6.9,15.2,6.9z M15.2,9.6L15.2,9.6h3.2v3.2h-3.2V9.6z M10.3,3.3h4.5v9.5h-4.5V3.3z M24.7,15.7L24.7,15.7L24.7,15.7
		c0,1-0.1,1.9-0.3,2.7c-1.2,5-5.5,8.3-9.4,8.3c-4,0-8.5-3.6-9.4-9c-0.1-0.6-0.2-1.2-0.2-1.9c0-0.1,0-0.2,0-0.3l0,0
		c0-0.1,0-0.3,0-0.4v-1.7h19.4v1.7C24.7,15.2,24.7,15.5,24.7,15.7z"/>
	<path class="st0" d="M7.7,16.4L7.7,16.4c0.1,0.1,0.2,0.2,0.2,0.2L8,16.7c0,0.1,0.1,0,0.1,0c0.2,0,0.2,0.1,0.2,0.1h0.3h0.1
		c0.1,0,0.1-0.1,0.1-0.1v-0.1c0-0.1,0-0.1,0-0.1l-0.1-0.2c0-0.1,0-0.1,0-0.1c-0.1,0-0.9,0-0.9,0C7.5,16.1,7.6,16.3,7.7,16.4
		L7.7,16.4z"/>
	<path class="st0" d="M8.7,16.2c0.1,0.1,0.1,0.3,0.1,0.3c0,0.2,0.1,0.1,0.1,0.1c0.1,0,0.1,0,0.1,0h0.1l0.2,0.1
		c0.1,0,0.1,0.2,0.1,0.2C9.4,17,9.5,17,9.5,17c0.1,0,0.3-0.1,0.3-0.1c0.3-0.1,0.7,0,0.7,0c0.2,0,0.4,0.1,0.5,0.2
		c0.2,0.1,0.3,0.2,0.3,0.2c0.2,0.1,0.7,0.6,0.7,0.6c0.1,0.2,0.2,0.1,0.2,0.1c0.1-0.3,0.5-0.6,0.5-0.6v-0.1c-0.2,0-0.4-0.1-0.4-0.1
		c-0.1,0-0.2-0.1-0.2-0.2v-0.1c0-0.1-0.2-0.2-0.2-0.2c-0.1-0.1-0.5-0.2-0.5-0.2c-0.1,0-0.5-0.1-0.5-0.1c-0.1,0-0.6-0.2-0.8-0.2
		c0-0.1-0.4-0.2-0.4-0.2c-0.2-0.1-0.4-0.2-0.6-0.2c-0.2,0-0.4,0-0.4,0l0,0v0.1c0,0.1,0,0.2,0,0.2V16.2z"/>
	<path class="st0" d="M7.9,18.7l0.2-0.1c0,0,0,0,0.1,0h0.1v-0.1l-0.1-0.1H8.1c0,0-0.3,0.1-0.4,0.2c0,0-0.2,0.1-0.3,0.1
		c0,0-0.2,0-0.2,0.1l0.1,0.1h0.2C7.7,18.9,7.8,18.7,7.9,18.7z"/>
	<path class="st0" d="M8.8,19c0,0-0.2-0.1-0.3-0.2l-0.1-0.1H8.2c0,0-0.1,0.1-0.2,0.1c0,0-0.1,0.1-0.3,0.1H7.5c0,0-0.2,0.1-0.1,0.2
		c0,0,0,0.1,0.1,0c0,0,0.3,0.1,0.4,0.1h0.2c0,0,0.4,0,0.6-0.1c0,0,0.2-0.1,0.2-0.3C9,19,8.9,19,8.8,19z"/>
	<path class="st0" d="M11.2,24.7l0.3-0.4l0.1-0.2c0,0,0.1-0.1,0-0.2l-0.1-0.1c0,0,0,0,0,0.1l-0.2,0.4c0,0,0,0.1-0.1,0.1
		c0,0,0,0,0,0.1c0,0,0,0.1-0.1,0.1c0,0,0,0.1-0.1,0.1c0,0,0,0.1-0.1,0.1c0,0-0.1,0.1-0.1,0.2c0,0,0,0.1,0.1,0.1H11l0.1-0.1l0,0
		C11.1,24.8,11.2,24.7,11.2,24.7z"/>
	<path class="st0" d="M12,24.2l-0.2-0.1c0,0,0,0-0.1,0c0,0-0.1,0-0.1,0.1c0,0,0,0,0,0.1c0,0,0,0.1-0.1,0.1c0,0,0,0.1-0.1,0.1
		l-0.2,0.4l0,0.1l-0.1,0.1v0.1c0,0,0.1,0,0.2,0l0.3-0.1l0.3-0.2c0,0,0.2-0.2,0.2-0.4c0,0,0-0.1,0.1-0.1v-0.1
		C12.3,24.2,12.1,24.3,12,24.2z"/>
	<path class="st0" d="M20,24.3c0,0-0.2-0.1-0.3-0.1h-0.2c0,0-0.1,0-0.1,0.1v0.1h-0.1c0,0,0,0,0-0.1c0,0,0,0,0-0.1V24
		c0,0-0.1,0-0.2,0.1c0,0,0,0.1-0.1,0.2c0,0,0,0.1-0.1,0.1c0,0,0,0.2-0.1,0.3c0,0,0,0.1-0.1,0.2c0,0-0.1,0.1,0,0.2
		c0,0,0.1,0.1,0.2-0.1l0.3-0.4l0,0v0.1l-0.1,0.2l0.1,0.1l-0.1,0.1c0,0,0,0,0.1,0l0.1-0.1h0.1c0,0,0.1,0,0.1-0.1c0,0,0,0,0.1,0
		c0,0,0.1,0,0.1-0.1c0,0,0.1,0,0.1-0.1l0.1-0.1C19.9,24.6,19.9,24.5,20,24.3c0,0.1,0,0.1,0-0.1C20.1,24.4,20,24.3,20,24.3z"/>
	<path class="st0" d="M12.9,15.2l0.1,0.1h0.1h0.1h0.2h0.1h0.1c0,0,0.2,0,0.3,0h0.3l0,0h0.1c0,0,0.1,0,0.1-0.1h-0.1l-0.2-0.1H14h-0.8
		c0,0-0.1,0-0.2-0.1c0,0-0.1-0.1-0.1-0.2c0,0-0.2,0-0.2,0.2C12.8,15,12.8,15.2,12.9,15.2z"/>
	<path class="st0" d="M7.9,15.9L7.9,15.9h0.3h0.3c0.1-0.1,0-0.2,0-0.2H8.4H8.3c0,0,0,0-0.1,0s-0.6,0-0.6,0s0,0,0,0.1
		s0.1,0.1,0.1,0.1L7.9,15.9z"/>
	<path class="st0" d="M21.6,15.8c0-0.1-0.1-0.1-0.1-0.1s-0.1-0.2-0.2-0.1c0,0-0.1,0.2-0.2,0.1v-0.2c0,0,0.1,0,0.1-0.2
		c0,0,0.1-0.2-0.1-0.2c0,0,0,0-0.1,0c0,0-0.3,0-0.4-0.1c0,0-0.2,0-0.2-0.1c0,0-0.2-0.1-0.3-0.1c0,0,0-0.1-0.1,0.2
		c0,0-0.1,0.4-0.2,0.1c0,0,0.1-0.3,0-0.5l-0.1-0.1c0,0-0.2,0.1-0.7-0.1c0,0-0.3-0.1-0.4-0.1c0,0-0.1,0.3-0.1,0.4c0,0,0,0.1-0.1-0.1
		c0,0,0.1,0,0-0.1v-0.1c0,0,0,0,0-0.1c0,0,0-0.2-0.1-0.2c0,0-0.2,0.1-0.5,0.1c0,0-0.4,0-0.4-0.1c0,0,0,0.1-0.1,0.1l-0.1,0.4
		c0,0-0.1,0.1-0.1-0.2c0,0,0-0.4-0.1-0.4l-0.1-0.1c0,0-0.2,0.1-0.2,0.2c0,0-0.2,0.1-0.3,0c0,0-0.1-0.2-0.2-0.3L16,13.7
		c0,0-0.2,0-0.1,0.2c0,0,0.1,0.1,0,0.2c0,0-0.1,0-0.2-0.3c0,0-0.2-0.2-0.2-0.1c0,0-0.1,0,0,0.2c0,0,0,0.2-0.2,0.3c0,0-0.3,0-0.4,0.1
		l-0.3,0.1c0,0-0.3,0-0.4,0H14h-0.1c0,0-0.2,0.1-0.1,0.2c0,0,0,0.1,0.2,0.1l0.2,0.1c0,0,0,0.1-0.1,0.1h-0.2c0,0-0.3,0-0.3,0.1
		c0,0,0,0.2,0.1,0.2H14c0,0,0,0,0.1,0c0,0,0.2,0,0.3,0.1c0,0,0.1,0,0.1,0.1v0.1c0,0-0.2,0.2-0.5,0.1h-0.2c0,0-0.3,0-0.2,0.2l0.1,0.1
		c0,0,0,0,0.1,0.1c0,0,0.1,0.1,0,0.1c0,0,0,0.1-0.1,0.1l-0.2,0.2c0,0-0.1,0-0.1,0.1c0,0-0.1,0-0.2,0c0,0-0.2,0-0.1,0.1
		c0,0,0,0.1,0.1,0.1h0.1c0,0,0.1,0,0.2,0c0,0,0.2-0.1,0.3-0.2c0,0,0.1,0,0.1-0.1l0.2-0.2c0,0,0.1-0.2,0.2-0.2h0.2c0,0,0,0.1,0.3,0.1
		l0.3,0.1h0.2l0,0l0.2-0.1c0,0,0.2,0,0,0.1c0,0-0.2,0.2-0.3,0.2h-0.1c0,0-0.1,0.1-0.3,0c0,0-0.1-0.1-0.2-0.1c0,0-0.1,0.1-0.1,0.2
		v0.1c0,0-0.2,0.1-0.3,0.2c0,0-0.1,0-0.2,0.1l-0.4,0.2c0,0-0.1,0-0.2,0.1c-0.2,0.1-0.5,0.3-0.6,0.4c0,0-0.3,0.3-0.5,0.4
		c0,0-0.3,0.4-0.3,0.5v0.2c0,0,0,0.1,0,0.2c0,0,0,0,0.1,0c0,0,0.2,0,0.3,0.1l0.1,0.1c0,0,0.1,0.1-0.1,0c-0.2,0-0.3,0-0.3,0h-0.2
		c0,0-0.1-0.1-0.2-0.1c0,0-0.1-0.1-0.2-0.1l-0.1-0.1c0,0-0.6,0-0.7,0c0,0,0,0-0.1,0c0,0-0.7,0-0.8-0.1c0,0-0.4-0.1-0.9-0.1
		c0,0-0.2,0-0.4,0H8.3c0,0-0.2,0.1-0.2,0.2c0,0,0,0.1,0.1,0.2l0.1,0.1c0,0,0.1,0,0.1,0.1c0,0,0.1,0,0.2,0c0,0,0.4-0.1,0.5-0.1
		c0,0,0.2-0.1,0.2,0.2l0.1,0.2c0,0,0.1,0,0.2,0c0,0,0.5-0.3,1.3-0.2c0,0,0.8,0.1,1.7,0.7l0.7,0.5c0,0,0.1,0.1,0.1-0.1
		c0,0,0.3-0.3,0.8-0.4l1-0.1c0.1,0.1,0.1,0.1,0.1,0.1s0,0.1,0,0.2c0,0,0,0,0,0.1c0,0,0,0,0,0.1c-0.1,0-0.6,0.2-0.7,0.2
		c0,0-0.7,0.3-0.9,0.4c0,0-0.4,0.3-0.5,0.5c0,0,0,0.2-0.1,0.3c0,0,0,0.1-0.2,0.1c0,0-0.2,0-0.2,0.1c0,0-0.4,0.1-0.6-0.1
		c0,0-0.2,0,0.1,0.2c0,0,0.1,0.1,0.4,0.2c0,0,0.3,0,0.4-0.1l0.1-0.1c0,0,0,0,0.1,0c0,0,0.1,0.1-0.1,0.1c0,0-0.2,0.2-0.4,0.2
		c0,0-0.1,0.1-0.4,0c0,0-0.2-0.1,0,0.1c0,0,0.1,0.1,0.5,0.1c0,0,0.4-0.1,0.4-0.2c0,0,0.3-0.1,0.1,0.1c0,0,0,0.2-0.6,0.2
		c0,0-0.1,0.2,0.4,0.1c0,0,0.2,0,0.5-0.3c0,0,0.1-0.1,0.1,0c0,0-0.1,0.4-1.1,0.6c0,0-1,0.2-1.5,0.8c0,0-0.1,0.2,0.3,0.4l0.2,0.1h0.1
		c0,0,0.2,0,0.2-0.1c0,0,0.1-0.2,0.3,0.1c0,0,0.1,0.2,0.3-0.1c0,0,0.5-0.7,1.1-0.7c0,0,0.1,0,0.3-0.1c0,0,0.7-0.5,0.9-0.5
		c0,0,0.2-0.1,0.2-0.2c0,0,0.1-0.1-0.1-0.1c0,0-0.7,0-0.2-0.8c0,0,0.3-0.6,1.2-0.8c0,0,0.2-0.1,0.1,0.1c0,0-0.1,0.6,0.1,0.8
		c0,0,0.2,0.2,0.5-0.1c0,0,0-0.1-0.1-0.1c0,0-0.2-0.4-0.2-0.6c0,0,0-0.5-0.3-0.6c0,0-0.1-0.1-0.2-0.1c0,0-0.2,0-0.3,0c0,0,0,0-0.2,0
		c0-0.1,0-0.3,0-0.3s0.1,0,0.2,0c0,0,0.4,0,0.6,0.2c0,0,0.1,0.1,0.2,0.3c0,0,0.2,0.6,0.2,0.7c0,0,0,0.2,0.3,0.4c0,0,0.1,0,0.1,0.1
		c0,0,0.1,0.1,0.2,0.2c0,0,0.4,0.5,0.3,1.1c0,0,0,0.2-0.2,0.3c0,0-0.1,0.2,0.1,0c0,0,0.2-0.1,0.2-0.3c0,0,0-0.2,0-0.3
		c0,0,0-0.2,0.1-0.2c0,0,0.1,0,0.1,0.2c0,0,0,0.3,0,0.4c0,0-0.2,0.4,0.1,0.1c0,0,0.1,0,0.2-0.6c0,0,0.1-0.3,0.2,0c0,0,0.2,0.2,0,0.6
		c0,0,0,0.1,0.2-0.1c0,0,0,0,0.1-0.5c0,0,0-0.2,0.3,0.1c0,0,0.3,0.2,0.4,0.5c0,0,0.1,0.2,0,0.4c0,0,0,0.1-0.2,0.2
		c0,0-0.2,0.2-0.3,0.2c0,0-0.1,0.1,0.1,0.2c0,0,0.3,0,0.5,0.2c0,0,0.2,0.2,0.2-0.2c0,0,0-0.2,0.2-0.2c0,0,0.2,0,0.3,0
		c0,0,0.2,0,0.2-0.2v-0.2c0,0,0-0.1-0.1-0.2l-0.7-0.8c0,0-0.1-0.2-0.2-0.2c0,0,0.1-0.4-0.3-0.9l-0.1-0.2c0,0-0.2,0.1-0.4,0.2
		c0,0,0-0.1-0.1,0c0,0,0,0-0.1-0.1l-0.1-0.1c0,0-0.2-0.4-0.4-0.6c0,0-0.2-0.4-0.5-0.7c0,0-0.1,0,0.1-0.1l0.7,0.3
		c0,0,0.6,0.1,0.8-0.2l0.1-0.1V20c0,0-0.5,0.1-0.6,0.1c0,0-0.2,0,0.1-0.2c0,0,0.6-0.1,0.6-0.6c0,0,0-0.2-0.1,0c0,0-0.1,0.3-0.8,0.3
		c0,0-0.6-0.1-0.8,0c0,0-0.3,0-0.4,0.2c0,0-0.1,0-0.1-0.2c0,0-0.5-0.5-0.9-0.6c0,0-0.5-0.2-0.6-0.2c0,0-0.2-0.1-0.3-0.2
		c0,0-0.2-0.2,0-0.2h0.1c0,0,0.1,0.1,0.1,0c0,0,0,0,0.1-0.1c0,0,0.1,0,0.1-0.2c0,0-0.3,0-0.4,0c0,0-0.2-0.1,0.1-0.2h0.2
		c0,0,0,0,0.1,0h0.1c0,0,0.1-0.1,0.1-0.2h-0.1c0,0-0.2,0-0.3-0.1c0,0,0-0.1,0.1-0.2c0,0,0.2,0.1,0.5,0c0,0,0.1,0,0.2-0.1l0,0v-0.1
		c0,0,0.1-0.1-0.1-0.1c0,0-0.2,0.1-0.4-0.2c0,0,0-0.2,0.1-0.2c0,0,0-0.1,0.4,0.1c0,0,0.5,0.2,0.9,0.1l0.2-0.1c0,0,0.1-0.2-0.1-0.2
		l-0.1-0.1c0,0-0.5,0-0.7-0.1c0,0-0.3,0-0.3-0.1c0,0,0-0.1,0.1-0.1c0,0,0.2,0.1,0.3,0c0,0,0.6,0.1,0.7,0.1c0,0,0.8,0.2,0.9,0.3
		c0,0,0.8,0.4,1,0.6c0,0,0.3,0.2,0.5,0.6c0.1,0.2,0.3,0.4,0.3,0.6c0,0,0.3,0.5-0.2,1c0,0-0.2,0.2,0.2,0.1c0,0,0.4-0.2,0.4-1
		c0,0,0-0.3,0-0.5c0-0.1,0-0.3-0.1-0.3c0,0-0.1-0.1-0.2,0c0,0-0.3,0.2-0.1-0.1c0,0,0.3-0.3,0.1-0.5h-0.2c0,0-0.2,0-0.3-0.2l-0.2-0.2
		H19c0,0-0.1,0.3-0.3,0.3c0,0-0.2,0.1-0.1-0.1l0.1-0.2c0,0,0.1-0.2,0-0.3c0,0-0.1-0.1-0.4-0.1c0,0-0.1,0.1-0.3-0.1c0,0,0,0-0.1-0.1
		c0,0-0.2-0.1-0.3-0.1v0.1c0,0.1-0.1,0.2-0.1,0.2s-0.2,0-0.1-0.2l0,0c0-0.1,0.1-0.4,0-0.5c0,0-0.1-0.1-0.2,0c0,0-0.1,0.1-0.5,0h-0.2
		l0,0c0,0,0,0.1,0,0.2l-0.1,0.1c0,0-0.1,0-0.1-0.3c0,0,0.1-0.4-0.1-0.4c0,0-0.1-0.1-0.2,0.1c0,0-0.1,0.1-0.3,0.1c0,0-0.2,0-0.3-0.2
		c0,0,0,0,0-0.1V15c0,0,0.2,0,0.3,0c0,0,1.2,0,2.3,0.3c0,0,0.9,0.3,1.5,0.7l0.1,0.1c0,0,0.8,0.5,0.7,1.3c0,0-0.2,0.6,0.2,0.2
		c0,0,0.2-0.2,0.1-0.9C21.8,16.5,21.7,16,21.6,15.8z M16,20L16,20L16,20L16,20z M16.3,14.9C16.2,15,16.2,14.9,16.3,14.9L16.1,15
		c-0.2,0.1-0.4,0-0.4,0h-0.1l-0.3-0.1l-0.2-0.1H15c0-0.1,0-0.1,0-0.1l0.1-0.1c0.1,0,0.1,0,0.1,0c0.1-0.1,0.2-0.1,0.2-0.1h0.1v0.1
		c0,0.1,0.1,0.1,0.1,0.1c0,0.1,0.1,0.1,0.1,0.1l0,0h0.1c0,0.1,0.1,0,0.1,0H16h0.1c0.1-0.1,0.1-0.1,0.1-0.1c0.1-0.1,0.2,0,0.2,0v0.1
		C16.3,14.8,16.3,14.9,16.3,14.9L16.3,14.9z"/>
</g>
</svg>
