<?xml version="1.0" encoding="utf-8"?>
<!-- Generator: Adobe Illustrator 20.0.0, SVG Export Plug-In . SVG Version: 6.00 Build 0)  -->
<svg version="1.2" baseProfile="tiny" id="Ebene_1" xmlns="http://www.w3.org/2000/svg" xmlns:xlink="http://www.w3.org/1999/xlink"
	 x="0px" y="0px" width="30px" height="30px" viewBox="0 0 30 30"  xml:space="preserve">
<g>
	<path fill="#FFFFFF" d="M17.7,18.5c0-1.5-1.2-2.7-2.7-2.7s-2.7,1.2-2.7,2.7c0,0.2,0,0.3,0,0.5l-2.8,2.8l2.2,0.4l0.4,2.2l2.8-2.8
		l2.8,2.8l0.4-2.2l2.2-0.4l-2.8-2.8C17.7,18.8,17.7,18.6,17.7,18.5z M14,21l-1.1,1.1l-0.2-0.9L11.8,21l1-1
		C13.1,20.5,13.5,20.8,14,21z M15,20.1c-0.9,0-1.6-0.7-1.6-1.6c0-0.9,0.7-1.6,1.6-1.6s1.6,0.7,1.6,1.6C16.6,19.3,15.9,20.1,15,20.1z
		 M17.2,20.1l1,1l-0.9,0.2l-0.2,0.9L16,21C16.5,20.8,16.9,20.5,17.2,20.1z"/>
	<path fill="#FFFFFF" d="M20.6,4.5H9.4c-1.3,0-2.3,1-2.3,2.3v16.4c0,1.3,1,2.3,2.3,2.3h11.2c1.3,0,2.3-1,2.3-2.3V6.8
		C22.9,5.5,21.9,4.5,20.6,4.5z M21.8,6.8v16.4c0,0.6-0.5,1.2-1.2,1.2H9.4c-0.6,0-1.2-0.5-1.2-1.2V6.8c0-0.6,0.5-1.2,1.2-1.2h11.2
		C21.3,5.6,21.8,6.1,21.8,6.8z"/>
	<rect x="13.1" y="8.8" fill="#FFFFFF" width="3.8" height="1.1"/>
	<rect x="10.1" y="10.5" fill="#FFFFFF" width="9.9" height="1.1"/>
	<rect x="10.1" y="12.3" fill="#FFFFFF" width="9.9" height="1.1"/>
</g>
</svg>
