<?xml version="1.0" encoding="utf-8"?>
<!-- Generator: Adobe Illustrator 20.0.0, SVG Export Plug-In . SVG Version: 6.00 Build 0)  -->
<svg version="1.2" baseProfile="tiny" id="Ebene_1" xmlns="http://www.w3.org/2000/svg" xmlns:xlink="http://www.w3.org/1999/xlink"
	 x="0px" y="0px" width="30px" height="30px" viewBox="0 0 30 30"  xml:space="preserve">
<path fill="#FFFFFF" d="M21.4,4.5H8.6c-2.3,0-4.1,1.9-4.1,4.1v12.7c0,2.3,1.9,4.1,4.1,4.1h12.7c2.3,0,4.1-1.9,4.1-4.1V8.6
	C25.5,6.4,23.6,4.5,21.4,4.5z M17.2,24.2h-1.3v-7H14v-1.3h1.9v-3.5c0-0.9,0.7-1.6,1.6-1.6h2.2v1.3h-1c-0.7,0-1.5,0.6-1.5,1.6V16h1.9
	v1.3h-1.9V24.2z M24.2,21.4c0,1.6-1.3,2.9-2.9,2.9h-2.9v-5.7h1.9v-3.8h-1.9v-1c0-0.3,0.2-0.3,0.3-0.3H21V10c0-0.3-0.2-0.3-0.7-0.3
	c-0.4,0-1.1,0-2.5,0h-0.2c-2.1,0-2.9,1.8-2.9,2.9v2.2h-1.9v3.8h1.9v5.7h-6c-1.6,0-2.9-1.3-2.9-2.9V8.6C5.8,7,7,5.8,8.6,5.8h12.7
	c1.6,0,2.9,1.3,2.9,2.9C24.2,8.7,24.2,21.4,24.2,21.4z"/>
</svg>
