<svg id="Ebene_1" data-name="Ebene 1" xmlns="http://www.w3.org/2000/svg" viewBox="0 0 30 30"><defs><style>.cls-1{fill:#fff;}</style></defs><title>top-links-weiss</title><path class="cls-1" d="M25.4,12.5a1.21,1.21,0,0,0-1.2-.8H18L16.1,5.8A1.08,1.08,0,0,0,15,5h0a1.3,1.3,0,0,0-1.2.8l-1.9,5.9H5.7a1.3,1.3,0,0,0-1.2.8,1.28,1.28,0,0,0,.4,1.4l5,3.7L8,23.5a1.28,1.28,0,0,0,.4,1.4,2.49,2.49,0,0,0,.8.1,1.85,1.85,0,0,0,.7-.2l5-3.6,5,3.6a1,1,0,0,0,.7.2,1.45,1.45,0,0,0,.7-.2,1.24,1.24,0,0,0,.4-1.4L20,17.6l5-3.7A1.24,1.24,0,0,0,25.4,12.5Zm-6.9,4.6,2.2,6.7L15,19.7,9.3,23.8l2.2-6.7L5.8,12.9h7.1L15,6.2l2.2,6.7h7.1Z"/></svg>