<?xml version="1.0" encoding="utf-8"?>
<!-- Generator: Adobe Illustrator 20.0.0, SVG Export Plug-In . SVG Version: 6.00 Build 0)  -->
<svg version="1.2" baseProfile="tiny" id="Ebene_1" xmlns="http://www.w3.org/2000/svg" xmlns:xlink="http://www.w3.org/1999/xlink"
	 x="0px" y="0px" width="30px" height="30px" viewBox="0 0 30 30"  xml:space="preserve">
<g>
	<path fill="#0069B4" d="M17.5,4.6l-0.2-0.1h-8c-1.2,0-2.2,1-2.2,2.2v16.5c0,1.2,1,2.2,2.2,2.2h11.3c1.2,0,2.2-1,2.2-2.2V10
		L17.5,4.6z M18.9,9.7c-0.7,0-1.2-0.6-1.2-1.2V6.2l3.5,3.5H18.9z M18.9,10.7h2.9v12.5c0,0.7-0.6,1.2-1.2,1.2H9.3
		c-0.7,0-1.2-0.6-1.2-1.2V6.7c0-0.7,0.6-1.2,1.2-1.2h7.4v3C16.7,9.7,17.7,10.7,18.9,10.7z"/>
	<path fill="#0069B4" d="M11.5,13.3c1,0,1.8-0.8,1.8-1.8s-0.8-1.8-1.8-1.8s-1.8,0.8-1.8,1.8S10.5,13.3,11.5,13.3z M10.7,11.5
		c0-0.4,0.4-0.8,0.8-0.8c0.4,0,0.8,0.4,0.8,0.8c0,0.4-0.4,0.8-0.8,0.8C11.1,12.3,10.7,12,10.7,11.5z"/>
	<rect x="10.1" y="14.9" fill="#0069B4" width="9.8" height="1"/>
	<rect x="10.1" y="16.7" fill="#0069B4" width="9.8" height="1"/>
	<rect x="10.1" y="18.4" fill="#0069B4" width="9.8" height="1"/>
	<rect x="10.1" y="20.1" fill="#0069B4" width="9.8" height="1"/>
</g>
</svg>
