<svg id="Ebene_1" data-name="Ebene 1" xmlns="http://www.w3.org/2000/svg" viewBox="0 0 30 30"><defs><style>.cls-1{fill:#0069b4;}</style></defs><title>power-point-blau</title><path class="cls-1" d="M12.3,12.8v7.3h1.3V17.3h1.9a2.35,2.35,0,0,0,1.7-.6,2.11,2.11,0,0,0,.6-1.6,2,2,0,0,0-2.3-2.2H12.3ZM16.5,15a1.14,1.14,0,0,1-.3.8,1.61,1.61,0,0,1-1.1.3H13.5V14h1.6C16.4,13.9,16.5,14.5,16.5,15Z"/><path class="cls-1" d="M16.9,4.7l-.2-.2H9.8A2.48,2.48,0,0,0,7.3,7V23a2.48,2.48,0,0,0,2.5,2.5H20.2A2.48,2.48,0,0,0,22.7,23V10.5Zm1.4,5.5A1.32,1.32,0,0,1,17,8.9V6.5l3.6,3.6H18.3Zm0,1.2h3.1V23a1.32,1.32,0,0,1-1.3,1.3H9.8A1.32,1.32,0,0,1,8.5,23V7A1.32,1.32,0,0,1,9.8,5.7h6V8.9A2.69,2.69,0,0,0,18.3,11.4Z"/></svg>