<?xml version="1.0" encoding="utf-8"?>
<!-- Generator: Adobe Illustrator 21.0.0, SVG Export Plug-In . SVG Version: 6.00 Build 0)  -->
<!DOCTYPE svg PUBLIC "-//W3C//DTD SVG 1.1//EN" "http://www.w3.org/Graphics/SVG/1.1/DTD/svg11.dtd">
<svg version="1.1" id="Ebene_1" xmlns="http://www.w3.org/2000/svg" xmlns:xlink="http://www.w3.org/1999/xlink" x="0px" y="0px"
	 width="30px" height="30px" viewBox="0 0 30 30" style="enable-background:new 0 0 30 30;" xml:space="preserve">
<style type="text/css">
	.st0{fill:#0069B4;}
</style>
<title>services-blau</title>
<g>
	<g>
		<path class="st0" d="M25,7.4h-8.2V5.7c0-0.6-0.5-1.1-1.1-1.1h-1.4c-0.6,0-1.1,0.5-1.1,1.1v1.7H5c-1,0-1.9,0.8-1.9,1.9v14.3
			c0,1,0.8,1.9,1.9,1.9h20c1,0,1.9-0.8,1.9-1.9V9.3C26.9,8.3,26,7.4,25,7.4z M14,5.7c0-0.2,0.1-0.3,0.3-0.3h1.4
			c0.2,0,0.3,0.1,0.3,0.3v3.6h-2V5.7z M26,23.6c0,0.6-0.5,1-1,1H5c-0.6,0-1-0.5-1-1V9.3c0-0.6,0.5-1,1-1h8.2v1.1h-1
			c-0.2,0-0.4,0.2-0.4,0.4s0.2,0.4,0.4,0.4h5.7c0.2,0,0.4-0.2,0.4-0.4s-0.2-0.4-0.4-0.4h-1V8.3H25c0.6,0,1,0.5,1,1V23.6z"/>
	</g>
	<g>
		<path class="st0" d="M24.1,14h-7.1c-0.3,0-0.5,0.2-0.5,0.5c0,0.3,0.2,0.5,0.5,0.5h7.1c0.3,0,0.5-0.2,0.5-0.5
			C24.5,14.3,24.3,14,24.1,14z"/>
	</g>
	<g>
		<path class="st0" d="M24.1,16.4h-7.1c-0.3,0-0.5,0.2-0.5,0.5s0.2,0.5,0.5,0.5h7.1c0.3,0,0.5-0.2,0.5-0.5S24.3,16.4,24.1,16.4z"/>
	</g>
	<g>
		<path class="st0" d="M24.1,18.8h-7.1c-0.3,0-0.5,0.2-0.5,0.5s0.2,0.5,0.5,0.5h7.1c0.3,0,0.5-0.2,0.5-0.5S24.3,18.8,24.1,18.8z"/>
	</g>
	<g>
		<path class="st0" d="M12.9,17.7c-0.1,0-0.2-0.1-0.4-0.1c-0.1,0-0.3-0.1-0.4-0.1l-0.1,0c-0.1,0-0.3-0.1-0.4-0.2
			c0-0.4,0-0.4,0.2-0.6c0.5-0.6,0.8-1.2,0.8-2.1c0-1.4-1-2.4-2.4-2.4c-1.4,0-2.4,1-2.4,2.4c0,0.9,0.2,1.6,0.8,2.1
			c0.2,0.2,0.2,0.2,0.2,0.6c0,0-0.3,0.1-0.4,0.2l-0.1,0c-0.1,0-0.3,0.1-0.4,0.1c-0.1,0-0.2,0.1-0.4,0.1c-1.2,0.4-2,0.7-2.1,3
			c0,0.1,0,0.3,0.1,0.3c0.1,0.1,0.2,0.1,0.3,0.1h8.6c0.1,0,0.3-0.1,0.3-0.1C15,21,15,20.8,15,20.7C15,18.5,14.2,18.1,12.9,17.7z
			 M6.4,20.3L6.4,20.3c0.1-1.3,0.5-1.4,1.4-1.7c0.1,0,0.2-0.1,0.4-0.1c0.1,0,0.5-0.2,0.5-0.2c0.4-0.1,1-0.3,1-1c0-0.5,0-0.8-0.4-1.2
			c-0.4-0.4-0.5-0.8-0.5-1.5c0-0.9,0.6-1.5,1.5-1.5c0.9,0,1.5,0.6,1.5,1.5c0,0.7-0.2,1.1-0.5,1.5c-0.4,0.4-0.4,0.7-0.4,1.2
			c0,0.7,0.6,0.9,1,1c0,0,0.4,0.1,0.5,0.2c0.1,0,0.3,0.1,0.4,0.1c0.9,0.3,1.3,0.4,1.4,1.6l0,0.1H6.4z"/>
	</g>
</g>
</svg>
