<?xml version="1.0" encoding="utf-8"?>
<!-- Generator: Adobe Illustrator 21.0.0, SVG Export Plug-In . SVG Version: 6.00 Build 0)  -->
<!DOCTYPE svg PUBLIC "-//W3C//DTD SVG 1.1//EN" "http://www.w3.org/Graphics/SVG/1.1/DTD/svg11.dtd">
<svg version="1.1" id="Ebene_1" xmlns="http://www.w3.org/2000/svg" xmlns:xlink="http://www.w3.org/1999/xlink" x="0px" y="0px"
	 width="30px" height="30px" viewBox="0 0 30 30" style="enable-background:new 0 0 30 30;" xml:space="preserve">
<style type="text/css">
	.st0{fill:#0069B4;}
</style>
<title>services-blau</title>
<path class="st0" d="M22.3,3.1H7.7c-2.5,0-4.5,2-4.5,4.5v14.6c0,2.5,2,4.5,4.5,4.5h14.6c2.5,0,4.5-2,4.5-4.5V7.7
	C26.9,5.2,24.8,3.1,22.3,3.1z M13.7,17.8v-1.9h2.2v-3.8c0-1.1,1-2,2-2h2.8v1.9h-1.4c-0.7,0-1.5,0.6-1.5,1.6v2.3l2.2,0v1.9h-2.2v8.1
	h-1.9l0-8.1H13.7z M18.8,18.8H21v-4l-2.2,0v-1.3c0-0.6,0.5-0.6,0.6-0.6h2.4l0-3.8c0-0.1,0-0.1-0.6-0.1c-0.4,0-1.3,0-2.9,0h-0.3
	c-2.2,0-3.1,1.9-3.1,3.1l0,2.8l-2.2,0v4l2.2,0v7H7.7c-1.9,0-3.5-1.6-3.5-3.5V7.7c0-1.9,1.6-3.5,3.5-3.5h14.6c1.9,0,3.5,1.6,3.5,3.5
	v14.6c0,1.9-1.6,3.5-3.5,3.5h-3.5V18.8z"/>
</svg>
