<?xml version="1.0" encoding="utf-8"?>
<!-- Generator: Adobe Illustrator 21.0.0, SVG Export Plug-In . SVG Version: 6.00 Build 0)  -->
<!DOCTYPE svg PUBLIC "-//W3C//DTD SVG 1.1//EN" "http://www.w3.org/Graphics/SVG/1.1/DTD/svg11.dtd">
<svg version="1.1" id="Ebene_1" xmlns="http://www.w3.org/2000/svg" xmlns:xlink="http://www.w3.org/1999/xlink" x="0px" y="0px"
	 width="30px" height="30px" viewBox="0 0 30 30" style="enable-background:new 0 0 30 30;" xml:space="preserve">
<style type="text/css">
	.st0{fill:#FFFFFF;}
</style>
<title>services-blau</title>
<path class="st0" d="M20,9.8c-0.6-0.6-1.4-0.9-2.2-0.9c-0.9,0-1.8,0.4-2.4,1c-1.3,1.3-1.3,3.4-0.1,4.6c0.6,0.6,1.4,0.9,2.2,0.9
	c0.9,0,1.8-0.4,2.4-1C21.2,13.2,21.2,11.1,20,9.8L20,9.8z M15.9,14L15.9,14c-0.9-1-0.9-2.5,0.1-3.5c0.5-0.5,1.1-0.8,1.8-0.8
	c0.6,0,1.2,0.2,1.6,0.6l0,0c0.9,0.9,0.9,2.5-0.1,3.4c-0.5,0.5-1.1,0.8-1.8,0.8C16.9,14.7,16.3,14.4,15.9,14z"/>
<path class="st0" d="M5.4,21.6"/>
<g>
	<path class="st0" d="M4.5,25.8c-0.1,0-0.2,0-0.3-0.1c-0.1-0.1-0.2-0.3-0.1-0.5l0-0.1c0-0.1,0.1-0.2,0.1-0.3l0-0.1
		c0.1-0.3,0.1-0.6,0.2-0.8l0.1-0.5c0-0.1,0-0.2,0.1-0.3c0-0.1,0.1-0.3,0.1-0.4c0-0.1,0-0.1,0.1-0.2l0-0.1c0-0.1,0.1-0.2,0.1-0.2l0,0
		C5,22.1,5,22,5.1,22l0.1-0.2c0,0,0.1-0.1,0.1-0.1l0.1-0.1c0,0,0.1-0.1,0.1-0.1c0,0,0,0,0,0c0.1-0.1,0.1-0.1,0.2-0.2
		c0.1,0,0.1-0.1,0.2-0.1C6,21.1,6.2,21,6.4,21c0.3-0.1,0.7-0.1,1-0.1c0.2,0,0.4,0.3,0.4,0.5s-0.3,0.4-0.5,0.4c-0.2,0-0.4,0-0.6,0
		c-0.1,0-0.2,0.1-0.3,0.1c0,0-0.1,0-0.1,0.1c0,0-0.1,0.1-0.1,0.1c0,0,0,0,0,0l0,0l0,0L6,22.2c0,0,0,0-0.1,0.1c0,0,0,0,0,0l-0.1,0.2
		c0,0,0,0,0,0.1c0,0,0,0.1,0,0.1c0,0,0,0.1-0.1,0.1c0,0,0,0.1,0,0.1c0,0,0,0,0,0.1c0,0.1-0.1,0.2-0.1,0.3c0,0.1,0,0.2-0.1,0.3
		L5.3,24c0,0.2-0.1,0.4-0.1,0.6c0.2-0.1,0.4-0.1,0.6-0.1l0.5-0.1c0.1,0,0.2,0,0.2-0.1c0.1,0,0.2-0.1,0.4-0.1c0,0,0.1,0,0.1,0l0.1,0
		c0,0,0.1,0,0.1-0.1c0,0,0.1,0,0.1,0c0,0,0,0,0.1,0l0.2-0.1c0,0,0,0,0,0c0,0,0,0,0.1-0.1l0.1-0.1c0,0,0,0,0,0c0,0,0,0,0.1-0.1
		C7.9,23.6,8,23.4,8,23.2c0.1-0.2,0.1-0.4,0-0.6c0-0.2,0.1-0.5,0.4-0.5c0.2,0,0.5,0.1,0.5,0.4c0.1,0.3,0,0.7-0.1,1
		c-0.1,0.3-0.3,0.6-0.5,0.9L8,24l0.3,0.3c0,0,0,0-0.1,0.1l-0.1,0.1c0,0-0.1,0.1-0.2,0.1l-0.1,0.1c0,0-0.1,0.1-0.1,0.1l0,0
		c-0.1,0-0.1,0.1-0.2,0.1l0,0c-0.1,0-0.1,0-0.2,0.1c-0.1,0-0.3,0.1-0.4,0.1c-0.1,0-0.2,0-0.3,0.1L6,25.4c-0.3,0.1-0.6,0.1-0.8,0.2
		l-0.1,0c-0.1,0-0.2,0.1-0.3,0.1l-0.1,0C4.6,25.8,4.5,25.8,4.5,25.8z M8,24.1L8,24.1L8,24.1z M6.1,22.1L6.1,22.1L6.1,22.1z
		 M6.1,22.1C6.1,22.1,6.1,22.1,6.1,22.1C6.1,22.1,6.1,22.1,6.1,22.1z"/>
</g>
<path class="st0" d="M27.4,3.4c0.2-0.2,0.2-0.5,0-0.6c-0.2-0.2-0.5-0.2-0.6,0l-2.2,2c0,0-0.1,0.1-0.1,0.1l0,0
	c-0.3-0.2-0.6-0.4-1-0.5c-1-0.3-2.1-0.5-3-0.5c-6.5,0-9.9,7.1-11.3,10.2c-0.1,0.3-0.2,0.5-0.3,0.7c-0.5-0.1-0.9-0.2-1.3-0.2
	c-4.1,0-4.9,5.8-4.9,6.1l-0.1,0.8L5,20c0.3-0.2,0.7-0.3,1.1-0.3c0.6,0,1.2,0.2,1.7,0.7L9.5,22c0.7,0.7,0.9,1.9,0.4,2.8l-1.4,2.5
	l0.8-0.1c0.2,0,4-0.5,5.5-2.9c0.6-1,0.7-2.1,0.4-3.3c0.2-0.1,0.4-0.2,0.7-0.3c3.4-1.6,12.4-5.9,9.7-14.4c-0.1-0.3-0.3-0.6-0.4-0.9
	c0,0,0.1,0,0.1-0.1L27.4,3.4z M15.5,20c-0.4,0.2-0.8,0.4-1,0.5l-0.3,0.2l0.1,0.3c0.4,1.1,0.3,2.1-0.2,2.9c-0.9,1.4-2.9,2.1-4.1,2.3
	l0.6-1c0.7-1.2,0.5-2.8-0.5-3.8l-1.7-1.7c-0.6-0.6-1.4-0.9-2.2-0.9c-0.5,0-1.1,0.1-1.5,0.4l-1,0.6c0.4-1.5,1.4-4.5,3.9-4.5
	c0.4,0,0.9,0.1,1.4,0.2l0.3,0.1l0.2-0.3c0.1-0.2,0.3-0.6,0.5-1c1.4-2.9,4.6-9.7,10.6-9.7c0.9,0,1.8,0.2,2.8,0.5
	c0.7,0.2,1.3,0.8,1.5,1.5C27.2,14.4,18.7,18.4,15.5,20z"/>
</svg>
