<?xml version="1.0" encoding="utf-8"?>
<!-- Generator: Adobe Illustrator 21.0.0, SVG Export Plug-In . SVG Version: 6.00 Build 0)  -->
<!DOCTYPE svg PUBLIC "-//W3C//DTD SVG 1.1//EN" "http://www.w3.org/Graphics/SVG/1.1/DTD/svg11.dtd">
<svg version="1.1" id="Ebene_1" xmlns="http://www.w3.org/2000/svg" xmlns:xlink="http://www.w3.org/1999/xlink" x="0px" y="0px"
	 width="30px" height="30px" viewBox="0 0 30 30" style="enable-background:new 0 0 30 30;" xml:space="preserve">
<style type="text/css">
	.st0{fill:#FFFFFF;}
</style>
<title>services-blau</title>
<g>
	<g>
		<path class="st0" d="M14.5,27.3c-1.7,0-3-0.4-4-1.3c-1-0.9-1.6-2.1-1.8-3.6C8.6,22.2,8.8,22,9,22l2.2-0.3c0.2,0,0.4,0.1,0.5,0.3
			c0.2,1,0.5,1.6,1,2c0.4,0.4,1,0.5,1.8,0.5c0.7,0,1.3-0.2,1.7-0.5c0.4-0.3,0.6-0.7,0.6-1.2c0-0.3-0.1-0.6-0.3-0.9
			c-0.3-0.4-1.3-1.2-4.1-2.9c-1.3-0.8-2.1-1.4-2.6-1.8c-0.5-0.5-0.9-1-1.3-1.6c-0.3-0.6-0.5-1.3-0.5-2c0-0.9,0.3-1.7,0.8-2.4
			c0.4-0.5,0.9-1,1.6-1.3C9.9,9.5,9.7,9.1,9.5,8.8C9.2,8.2,9.1,7.6,9.1,7c0-1.2,0.5-2.2,1.4-3.1c0.9-0.8,2.1-1.3,3.6-1.3
			c1.6,0,2.9,0.4,3.9,1.2c0.9,0.8,1.5,2,1.7,3.5c0,0.1,0,0.2-0.1,0.3c-0.1,0.1-0.2,0.2-0.3,0.2l-2.3,0.2c-0.2,0-0.4-0.1-0.5-0.4
			c-0.2-0.9-0.4-1.5-0.8-1.8c-0.4-0.3-0.8-0.5-1.4-0.5c-0.7,0-1.2,0.2-1.5,0.5c-0.4,0.3-0.5,0.7-0.5,1c0,0.3,0.1,0.6,0.3,0.9
			c0.3,0.4,1.2,1.1,3.7,2.6c1.3,0.8,2.2,1.4,2.7,1.8c0.6,0.5,1.1,1.1,1.4,1.7c0.3,0.6,0.5,1.2,0.5,1.9c0,1-0.3,1.9-1,2.7
			c-0.3,0.3-0.8,0.6-1.4,1c0.4,0.4,0.8,0.8,1,1.3c0.4,0.6,0.5,1.3,0.5,2.1c0,0.8-0.2,1.6-0.7,2.3c-0.5,0.7-1.1,1.3-2,1.6
			C16.4,27.1,15.4,27.3,14.5,27.3z M9.6,22.8c0.2,1.1,0.7,1.9,1.4,2.6c0.8,0.7,2,1.1,3.5,1.1c0.8,0,1.6-0.2,2.3-0.5
			c0.7-0.3,1.2-0.7,1.6-1.3c0.4-0.6,0.5-1.2,0.5-1.8c0-0.6-0.1-1.1-0.4-1.6c-0.3-0.5-0.8-1-1.4-1.5C17,19.6,17,19.4,17,19.3
			c0-0.2,0.1-0.3,0.3-0.4c0.9-0.4,1.4-0.7,1.7-1c0.5-0.6,0.8-1.3,0.8-2.1c0-0.5-0.1-1-0.4-1.5c-0.2-0.5-0.6-0.9-1.2-1.4
			c-0.4-0.4-1.3-0.9-2.6-1.7c-2.1-1.3-3.4-2.2-3.9-2.8c-0.4-0.4-0.5-0.9-0.5-1.5c0-0.6,0.3-1.2,0.8-1.7c0.5-0.5,1.3-0.7,2.1-0.7
			c0.8,0,1.5,0.2,2,0.7c0.4,0.4,0.8,1,1,1.9L18.7,7C18.5,6,18,5.2,17.3,4.6c-0.8-0.7-1.9-1-3.3-1c-1.3,0-2.2,0.3-3,1
			C10.3,5.3,10,6.1,10,7c0,0.5,0.1,0.9,0.3,1.3c0.2,0.4,0.6,0.9,1.1,1.4c0.1,0.1,0.2,0.3,0.1,0.4c0,0.2-0.2,0.3-0.3,0.3
			c-0.8,0.2-1.4,0.6-1.8,1.2c-0.4,0.6-0.6,1.2-0.6,1.9c0,0.5,0.1,1.1,0.4,1.6c0.3,0.5,0.6,1,1.1,1.4c0.5,0.4,1.3,1,2.5,1.7
			c2.3,1.4,3.8,2.5,4.3,3.1c0.4,0.4,0.5,0.9,0.5,1.4c0,0.7-0.3,1.3-0.9,1.8c-0.6,0.5-1.3,0.8-2.3,0.8c-1,0-1.8-0.3-2.3-0.8
			c-0.5-0.4-0.9-1.1-1.1-2.1L9.6,22.8z M16.3,19c-0.1,0-0.2,0-0.3-0.1c-0.8-0.6-1.7-1.2-2.8-1.8c-1.4-0.8-2.3-1.5-2.7-2
			c-0.4-0.5-0.7-1.1-0.7-1.8c0-0.6,0.2-1.1,0.5-1.5c0.3-0.4,0.8-0.8,1.6-1.3c0.2-0.1,0.4-0.1,0.5,0c0.5,0.4,1.4,1,2.5,1.7
			c1.5,0.9,2.4,1.6,2.9,2.2c0.5,0.6,0.7,1.2,0.7,1.8c0,0.5-0.2,1-0.5,1.5c-0.3,0.5-0.9,0.9-1.5,1.2C16.5,19,16.4,19,16.3,19z
			 M12.2,11.5c-0.5,0.3-0.8,0.6-1,0.9c-0.2,0.3-0.3,0.6-0.3,1c0,0.4,0.2,0.8,0.5,1.2c0.2,0.3,0.8,0.8,2.4,1.8c1,0.6,1.9,1.2,2.7,1.7
			c0.4-0.2,0.8-0.5,1-0.8c0.2-0.3,0.4-0.7,0.4-1c0-0.4-0.2-0.8-0.5-1.2c-0.4-0.5-1.3-1.1-2.7-2C13.5,12.4,12.7,11.9,12.2,11.5z"/>
	</g>
</g>
</svg>
