<?xml version="1.0" encoding="utf-8"?>
<!-- Generator: Adobe Illustrator 21.0.0, SVG Export Plug-In . SVG Version: 6.00 Build 0)  -->
<!DOCTYPE svg PUBLIC "-//W3C//DTD SVG 1.1//EN" "http://www.w3.org/Graphics/SVG/1.1/DTD/svg11.dtd">
<svg version="1.1" id="Ebene_1" xmlns="http://www.w3.org/2000/svg" xmlns:xlink="http://www.w3.org/1999/xlink" x="0px" y="0px"
	 width="30px" height="30px" viewBox="0 0 30 30" style="enable-background:new 0 0 30 30;" xml:space="preserve">
<style type="text/css">
	.st0{fill:#FFFFFF;}
</style>
<title>services-blau</title>
<g>
	<g>
		<path class="st0" d="M25.9,9.1C25.9,9.1,25.8,9.1,25.9,9.1l-3-0.2c-0.1,0-0.2-0.1-0.3-0.1l-1.4-1.4c-0.1-0.1-0.1-0.2-0.1-0.3
			l-0.2-2.9l0,0c0-0.6,0.3-1.2,1-1.5c0.2-0.1,0.5-0.1,0.7-0.1c0.4,0,0.7,0.2,1,0.5L27,6.4c0.3,0.3,0.4,0.6,0.5,1
			c0,0.2,0,0.5-0.1,0.7c-0.1,0.2-0.2,0.4-0.4,0.5C26.7,8.9,26.3,9.1,25.9,9.1z M23.2,8l2.7,0.2c0.2,0,0.4-0.1,0.5-0.2
			c0.1-0.1,0.1-0.1,0.2-0.2c0-0.1,0.1-0.2,0.1-0.3c0-0.2-0.1-0.3-0.2-0.4L23,3.7c-0.1-0.1-0.3-0.2-0.4-0.2c-0.1,0-0.2,0-0.3,0.1
			c-0.2,0.1-0.4,0.3-0.4,0.6L22,6.8L23.2,8z"/>
	</g>
	<g>
		<path class="st0" d="M10.2,27.5c-0.1,0-0.2,0-0.3,0L4,26.9c-0.5,0-0.9-0.4-0.9-0.9l-0.5-5.9c-0.1-0.3,0-0.7,0.2-1l4.8-4.8
			c0.3-0.4,1-0.4,1.3,0c0,0,0,0,0,0l1.8,1.8l1.2-1.2c0.2-0.2,0.5-0.2,0.6,0l2.5,2.5c0.1,0.1,0.1,0.2,0.1,0.3s0,0.2-0.1,0.3l-1.2,1.2
			l1.8,1.8c0.4,0.4,0.4,1,0,1.3l-4.8,4.8C10.6,27.4,10.4,27.5,10.2,27.5z M8.3,15C8.3,15,8.3,15,8.3,15l-4.8,4.8c0,0,0,0,0,0
			c0,0,0,0.1,0,0.1L4,25.9c0,0,0.1,0.1,0.1,0.1l5.9,0.5c0,0,0.1,0,0.1,0c0,0,0,0,0,0l4.8-4.8c0,0,0,0,0,0l-2.1-2.1
			c-0.2-0.2-0.2-0.5,0-0.6l1.2-1.2l-1.9-1.9L11,17.1c-0.2,0.2-0.5,0.2-0.6,0L8.3,15C8.3,15,8.3,15,8.3,15z"/>
	</g>
	<g>
		<path class="st0" d="M13,15.7c-0.1,0-0.2,0-0.3-0.1c-0.2-0.2-0.2-0.5,0-0.6l8.4-8.4c0.2-0.2,0.5-0.2,0.6,0s0.2,0.5,0,0.6l-8.4,8.4
			C13.3,15.7,13.1,15.7,13,15.7z"/>
	</g>
	<g>
		<path class="st0" d="M14.7,17.4c-0.1,0-0.2,0-0.3-0.1c-0.2-0.2-0.2-0.5,0-0.6l8.4-8.4C23,8,23.3,8,23.5,8.2s0.2,0.5,0,0.6
			l-8.4,8.4C15,17.4,14.9,17.4,14.7,17.4z"/>
	</g>
	<g>
		<path class="st0" d="M8.3,19.6c-0.1,0-0.2,0-0.3-0.1c-0.2-0.2-0.2-0.5,0-0.6l2.7-2.7c0.2-0.2,0.5-0.2,0.6,0s0.2,0.5,0,0.6
			l-2.7,2.7C8.5,19.6,8.4,19.6,8.3,19.6z"/>
	</g>
	<g>
		<path class="st0" d="M10.8,22.1c-0.1,0-0.2,0-0.3-0.1c-0.2-0.2-0.2-0.5,0-0.6l2.7-2.6c0.2-0.2,0.5-0.2,0.6,0
			c0.2,0.2,0.2,0.5,0,0.6L11.1,22C11,22.1,10.9,22.1,10.8,22.1z"/>
	</g>
</g>
</svg>
