<?xml version="1.0" encoding="utf-8"?>
<!-- Generator: Adobe Illustrator 21.0.0, SVG Export Plug-In . SVG Version: 6.00 Build 0)  -->
<!DOCTYPE svg PUBLIC "-//W3C//DTD SVG 1.1//EN" "http://www.w3.org/Graphics/SVG/1.1/DTD/svg11.dtd">
<svg version="1.1" id="Ebene_1" xmlns="http://www.w3.org/2000/svg" xmlns:xlink="http://www.w3.org/1999/xlink" x="0px" y="0px"
	 width="30px" height="30px" viewBox="0 0 30 30" style="enable-background:new 0 0 30 30;" xml:space="preserve">
<style type="text/css">
	.st0{fill:#FFFFFF;}
</style>
<title>services-blau</title>
<g>
	<g>
		<path class="st0" d="M10.5,19.3H8.8c-0.1,0-0.3-0.1-0.3-0.2l-2.7-4.3v4.1c0,0.2-0.2,0.4-0.4,0.4H3.7c-0.2,0-0.4-0.2-0.4-0.4v-8.1
			c0-0.2,0.2-0.4,0.4-0.4h1.8c0.1,0,0.3,0.1,0.3,0.2L8.5,15v-4.1c0-0.2,0.2-0.4,0.4-0.4h1.7c0.2,0,0.4,0.2,0.4,0.4V19
			C10.9,19.1,10.8,19.3,10.5,19.3z M9,18.6h1.2v-7.3H9.3v5c0,0.2-0.2,0.4-0.4,0.4c-0.1,0-0.3-0.1-0.3-0.2l-3.3-5.2H4.1v7.3H5v-5
			c0-0.2,0.2-0.4,0.4-0.4c0.1,0,0.3,0.1,0.3,0.2L9,18.6z"/>
	</g>
	<g>
		<path class="st0" d="M18.2,19.3h-6.1c-0.2,0-0.4-0.2-0.4-0.4v-8.1c0-0.2,0.2-0.4,0.4-0.4h6c0.2,0,0.4,0.2,0.4,0.4v1.5
			c0,0.2-0.2,0.4-0.4,0.4h-3.9v1h3.5c0.2,0,0.4,0.2,0.4,0.4v1.4c0,0.2-0.2,0.4-0.4,0.4h-3.5v1.2h4c0.2,0,0.4,0.2,0.4,0.4V19
			C18.6,19.1,18.4,19.3,18.2,19.3z M12.5,18.6h5.4v-0.7h-4c-0.2,0-0.4-0.2-0.4-0.4v-2c0-0.2,0.2-0.4,0.4-0.4h3.5v-0.6h-3.5
			c-0.2,0-0.4-0.2-0.4-0.4v-1.7c0-0.2,0.2-0.4,0.4-0.4h3.9v-0.7h-5.3C12.5,11.3,12.5,18.6,12.5,18.6z"/>
	</g>
	<g>
		<path class="st0" d="M22.8,19.5c-2.5,0-3.8-1.3-3.8-3.6v-5c0-0.2,0.2-0.4,0.4-0.4h1.8c0.2,0,0.4,0.2,0.4,0.4v5
			c0,0.9,0.2,1.4,1.3,1.4c1,0,1.3-0.3,1.3-1.4v-5c0-0.2,0.2-0.4,0.4-0.4h1.8c0.2,0,0.4,0.2,0.4,0.4v5C26.6,18.2,25.3,19.5,22.8,19.5
			z M19.8,11.2v4.6c0,1.9,1,2.9,3.1,2.9c2,0,3.1-1,3.1-2.9v-4.6h-1v4.6c0,1.5-0.6,2.1-2,2.1c-2,0-2-1.6-2-2.1v-4.6
			C21,11.2,19.8,11.2,19.8,11.2z"/>
	</g>
</g>
</svg>
