<?xml version="1.0" encoding="utf-8"?>
<!-- Generator: Adobe Illustrator 21.0.0, SVG Export Plug-In . SVG Version: 6.00 Build 0)  -->
<!DOCTYPE svg PUBLIC "-//W3C//DTD SVG 1.1//EN" "http://www.w3.org/Graphics/SVG/1.1/DTD/svg11.dtd">
<svg version="1.1" id="Ebene_1" xmlns="http://www.w3.org/2000/svg" xmlns:xlink="http://www.w3.org/1999/xlink" x="0px" y="0px"
	 width="30px" height="30px" viewBox="0 0 30 30" style="enable-background:new 0 0 30 30;" xml:space="preserve">
<style type="text/css">
	.st0{fill:#FFFFFF;}
</style>
<title>services-blau</title>
<g>
	<g>
		<path class="st0" d="M15.9,21.8c0-0.1-0.1-0.1-0.2-0.1H13v-4.3c0-0.1-0.1-0.2-0.2-0.2h-0.5c-0.1,0-0.2,0.1-0.2,0.2v4.3H9.3
			c-0.1,0-0.2,0-0.2,0.1s0,0.2,0,0.2l3.2,4.5c0,0.1,0.1,0.1,0.2,0.1c0.1,0,0.1,0,0.2-0.1l3.2-4.5C16,21.9,16,21.8,15.9,21.8z
			 M14.3,22.6l-1.8,2.5l-1.8-2.5H14.3z"/>
		<path class="st0" d="M22.8,23.4c-0.1-0.7-0.4-1.3-0.9-1.8c-0.2-0.2-0.5-0.4-0.7-0.6c0.4-0.9,0.4-1.9,0.2-2.9
			c-0.2-0.6-0.5-1.2-0.9-1.7c-0.2-0.3-0.4-0.5-0.7-0.7V6.9c0-0.1-0.1-0.2-0.2-0.2h-1.2V3.6c0-0.1-0.1-0.2-0.2-0.2H8
			C7.5,3.4,6.9,3.6,6.5,4l0,0C6.1,4.4,5.9,4.9,5.9,5.5v9.6c-0.8,1.1-1.1,2.5-1,4c-0.5,0.3-0.9,0.7-1.3,1.1c-0.5,0.7-0.8,1.5-0.9,2.4
			c-0.1,0.8,0.1,1.7,0.5,2.4c0.3,0.6,0.7,1.1,1.3,1.5l0.1,0.1h0.1h6.1c0.1,0,0.2-0.1,0.2-0.2v-0.5c0-0.1-0.1-0.2-0.2-0.2H5
			c-0.4-0.3-0.7-0.7-0.9-1.1c-0.3-0.6-0.4-1.3-0.4-1.9c0-0.7,0.3-1.3,0.7-1.9c0.3-0.4,0.7-0.8,1.2-1l0.2-0.1c0.1,0,0.1-0.1,0.1-0.2
			v-0.2c-0.2-1.5,0.1-2.8,1-3.9c0.6-0.7,1.3-1.3,2.2-1.6c0.9-0.3,1.8-0.5,2.7-0.3c1,0.1,2.4,0.6,3.4,2.2l0.1,0.2
			c0.1,0.1,0.1,0.1,0.2,0.1h0.2c0.9-0.3,1.9-0.2,2.7,0.3c0.5,0.2,0.9,0.6,1.2,1c0.3,0.4,0.6,0.9,0.7,1.4c0.2,0.9,0.1,1.8-0.3,2.7
			l-0.1,0.3c0,0.1,0,0.1,0,0.2S20,22,20,22l0.3,0.1c0.3,0.1,0.6,0.3,0.9,0.6c0.3,0.3,0.6,0.8,0.6,1.2c0.1,0.5,0,1-0.1,1.4
			c-0.1,0.3-0.2,0.5-0.4,0.7h-7.1c-0.1,0-0.2,0.1-0.2,0.2v0.5c0,0.1,0.1,0.2,0.2,0.2h7.4c0.1,0,0.1,0,0.2-0.1l0.1-0.1
			c0.3-0.3,0.6-0.7,0.8-1.2C22.8,24.7,22.9,24,22.8,23.4z M18.8,7.6v7.5c-0.6-0.3-1.3-0.4-1.9-0.4c-0.3,0-0.6,0-0.9,0.1
			c-1-1.3-2.3-2.1-3.9-2.3c-1.1-0.2-2.2,0-3.2,0.4c-0.7,0.3-1.4,0.7-1.9,1.2V7.3c0.2,0.2,0.6,0.3,1,0.3l0,0H18.8z M7.2,4.7L7.2,4.7
			C7.4,4.4,7.7,4.3,8,4.3h9.3v2.3L8,6.7l0,0c-0.3,0-0.6-0.1-0.8-0.3l0,0C7,6.1,6.8,5.8,6.8,5.5S7,4.9,7.2,4.7z"/>
	</g>
	<path class="st0" d="M27.1,7.7l-4.2-1.3c-0.1,0-0.1,0-0.2,0s-0.1,0.1-0.1,0.2V11c-0.2-0.1-0.5-0.2-0.7-0.2c-0.4,0-0.8,0.1-1.1,0.4
		c-0.3,0.3-0.5,0.6-0.5,1s0.2,0.7,0.5,1s0.7,0.4,1.1,0.4s0.8-0.1,1.1-0.4c0.3-0.3,0.5-0.6,0.5-1v-3l3,0.9v2
		c-0.2-0.1-0.5-0.2-0.7-0.2c-0.4,0-0.8,0.1-1.1,0.4c-0.3,0.3-0.5,0.6-0.5,1s0.2,0.7,0.5,1s0.7,0.4,1.1,0.4s0.8-0.1,1.1-0.4
		c0.3-0.3,0.5-0.6,0.5-1V7.9C27.2,7.8,27.2,7.7,27.1,7.7z M21.4,12.7c-0.1-0.1-0.2-0.3-0.2-0.4c0-0.2,0.1-0.3,0.2-0.4
		c0.1-0.1,0.3-0.2,0.5-0.2s0.4,0.1,0.5,0.2c0.1,0.1,0.2,0.3,0.2,0.4s-0.1,0.3-0.2,0.4C22.1,12.9,21.6,12.9,21.4,12.7z M26.4,8.3v1
		l-3-0.9v-1L26.4,8.3z M26.4,13.4L26.4,13.4c0,0.2-0.1,0.3-0.2,0.4c-0.3,0.2-0.8,0.2-1,0c-0.1-0.1-0.2-0.3-0.2-0.4
		c0-0.2,0.1-0.3,0.2-0.4c0.1-0.1,0.3-0.2,0.5-0.2s0.4,0.1,0.5,0.2C26.4,13.2,26.4,13.3,26.4,13.4z"/>
</g>
</svg>
