<?xml version="1.0" encoding="utf-8"?>
<!-- Generator: Adobe Illustrator 21.0.0, SVG Export Plug-In . SVG Version: 6.00 Build 0)  -->
<!DOCTYPE svg PUBLIC "-//W3C//DTD SVG 1.1//EN" "http://www.w3.org/Graphics/SVG/1.1/DTD/svg11.dtd">
<svg version="1.1" id="Ebene_1" xmlns="http://www.w3.org/2000/svg" xmlns:xlink="http://www.w3.org/1999/xlink" x="0px" y="0px"
	 width="30px" height="30px" viewBox="0 0 30 30" style="enable-background:new 0 0 30 30;" xml:space="preserve">
<style type="text/css">
	.st0{fill:#FFFFFF;}
</style>
<title>services-blau</title>
<g>
	<g>
		<g>
			<path class="st0" d="M11.4,14.2c-3.7-0.3-7.9-1.3-8-1.4l-0.3-0.1V6.9h23.7v5.9l-0.3,0.1c0,0-4.6,1-8.1,1.4l-0.1-0.9
				c2.9-0.3,6.5-1,7.6-1.3V7.8H4v4.3c1.1,0.2,4.5,1,7.5,1.3L11.4,14.2z"/>
		</g>
	</g>
	<g>
		<g>
			<polygon class="st0" points="26.2,24.4 3.8,24.4 3.8,12.7 4.7,12.7 4.7,23.5 25.3,23.5 25.3,12.7 26.2,12.7 			"/>
		</g>
	</g>
	<g>
		<g>
			<path class="st0" d="M20.6,7.8H9.4V5.4c0-0.9,0.8-1.7,1.7-1.7h7.8c0.9,0,1.7,0.8,1.7,1.7V7.8z M10.3,6.9h9.4V5.4
				c0-0.5-0.4-0.8-0.8-0.8h-7.8c-0.5,0-0.8,0.4-0.8,0.8V6.9z"/>
		</g>
	</g>
	<g>
		<path class="st0" d="M16.8,14.6h-3.5c-0.2,0-0.4-0.2-0.4-0.4V7.4c0-0.2,0.2-0.4,0.4-0.4h3.5c0.2,0,0.4,0.2,0.4,0.4v6.9
			C17.2,14.4,17,14.6,16.8,14.6z M13.7,13.9h2.8V7.7h-2.8V13.9z"/>
	</g>
	<g>
		<path class="st0" d="M16.8,20.2h-3.5c-0.2,0-0.4-0.2-0.4-0.4v-3.5c0-0.2,0.2-0.4,0.4-0.4h3.5c0.2,0,0.4,0.2,0.4,0.4v3.5
			C17.2,20,17,20.2,16.8,20.2z M13.7,19.5h2.8v-2.8h-2.8V19.5z"/>
	</g>
</g>
</svg>
