<?xml version="1.0" encoding="utf-8"?>
<!-- Generator: Adobe Illustrator 21.0.0, SVG Export Plug-In . SVG Version: 6.00 Build 0)  -->
<!DOCTYPE svg PUBLIC "-//W3C//DTD SVG 1.1//EN" "http://www.w3.org/Graphics/SVG/1.1/DTD/svg11.dtd">
<svg version="1.1" id="Ebene_1" xmlns="http://www.w3.org/2000/svg" xmlns:xlink="http://www.w3.org/1999/xlink" x="0px" y="0px"
	 width="30px" height="30px" viewBox="0 0 30 30" style="enable-background:new 0 0 30 30;" xml:space="preserve">
<style type="text/css">
	.st0{fill:#FFFFFF;}
</style>
<title>services-blau</title>
<g>
	<g>
		<path class="st0" d="M23.5,26.4H6.5c-2.2,0-3.9-1.8-3.9-3.9V7.5c0-2.2,1.8-3.9,3.9-3.9h17.1c2.2,0,3.9,1.8,3.9,3.9v14.9
			C27.5,24.6,25.7,26.4,23.5,26.4z M6.5,4.5c-1.7,0-3,1.4-3,3v14.9c0,1.7,1.4,3,3,3h17.1c1.7,0,3-1.4,3-3V7.5c0-1.7-1.4-3-3-3H6.5z"
			/>
	</g>
	<g>
		<g>
			<path class="st0" d="M18.3,17.9l1.1-0.2c0.1,0.5,0.3,0.9,0.6,1.1c0.3,0.2,0.6,0.3,1,0.3c0.4,0,0.8-0.1,1-0.3
				c0.2-0.2,0.4-0.5,0.4-0.8c0-0.2-0.1-0.4-0.2-0.6c-0.3-0.3-1-0.8-2.1-1.5c-0.6-0.4-1-0.7-1.3-0.9c-0.2-0.2-0.4-0.5-0.6-0.8
				c-0.2-0.3-0.2-0.6-0.2-0.9c0-0.4,0.1-0.8,0.4-1.1s0.6-0.5,1-0.7c-0.3-0.3-0.5-0.5-0.6-0.8c-0.1-0.2-0.2-0.5-0.2-0.8
				c0-0.5,0.2-1,0.6-1.4c0.4-0.4,1-0.6,1.6-0.6c0.8,0,1.4,0.2,1.8,0.6c0.4,0.4,0.7,0.9,0.8,1.6l-1.2,0.1c-0.1-0.5-0.2-0.9-0.5-1.1
				c-0.2-0.2-0.5-0.3-0.9-0.3c-0.4,0-0.7,0.1-0.9,0.3c-0.2,0.2-0.4,0.4-0.4,0.7c0,0.2,0.1,0.4,0.2,0.6c0.2,0.3,0.9,0.7,1.9,1.4
				c0.7,0.4,1.1,0.7,1.3,0.9c0.3,0.2,0.5,0.5,0.7,0.8c0.1,0.3,0.2,0.6,0.2,0.9c0,0.5-0.2,0.9-0.5,1.2c-0.2,0.2-0.5,0.4-1,0.6
				c0.3,0.3,0.6,0.5,0.7,0.8c0.2,0.3,0.2,0.6,0.2,0.9c0,0.4-0.1,0.7-0.3,1c-0.2,0.3-0.5,0.6-0.9,0.7c-0.4,0.2-0.8,0.3-1.3,0.3
				c-0.8,0-1.4-0.2-1.9-0.6C18.7,19.1,18.4,18.6,18.3,17.9z M21.9,15.9c0.3-0.2,0.5-0.3,0.7-0.6c0.2-0.2,0.2-0.4,0.2-0.6
				c0-0.2-0.1-0.5-0.3-0.7c-0.2-0.3-0.7-0.6-1.4-1.1c-0.6-0.3-1-0.6-1.3-0.9c-0.3,0.2-0.6,0.4-0.7,0.6c-0.1,0.2-0.2,0.4-0.2,0.6
				c0,0.3,0.1,0.5,0.3,0.7c0.2,0.2,0.6,0.6,1.3,0.9C21,15.3,21.5,15.6,21.9,15.9z"/>
		</g>
	</g>
	<g>
		<path class="st0" d="M11.8,26.2c-0.2,0-0.3-0.1-0.4-0.3l-8.1-20c-0.1-0.2,0-0.5,0.2-0.6c0.2-0.1,0.5,0,0.6,0.2l8.1,20
			c0.1,0.2,0,0.5-0.2,0.6C11.9,26.1,11.8,26.2,11.8,26.2z"/>
	</g>
	<g>
		<path class="st0" d="M25.3,25.9c-0.2,0-0.3-0.1-0.4-0.3l-2.5-6.2c-0.1-0.2,0-0.5,0.2-0.6c0.2-0.1,0.5,0,0.6,0.2l2.5,6.2
			c0.1,0.2,0,0.5-0.2,0.6C25.4,25.9,25.3,25.9,25.3,25.9z"/>
	</g>
	<g>
		<path class="st0" d="M19,10c-0.2,0-0.3-0.1-0.4-0.3l-2.3-5.4c-0.1-0.2,0-0.5,0.2-0.6c0.2-0.1,0.5,0,0.6,0.2l2.3,5.4
			c0.1,0.2,0,0.5-0.2,0.6C19.2,9.9,19.1,10,19,10z"/>
	</g>
	<g>
		<path class="st0" d="M6.4,12.7c-0.2,0-0.3-0.1-0.4-0.3c-0.1-0.2,0-0.5,0.2-0.6l19-7.7c0.2-0.1,0.5,0,0.6,0.2
			c0.1,0.2,0,0.5-0.2,0.6l-19,7.7C6.5,12.7,6.5,12.7,6.4,12.7z"/>
	</g>
	<g>
		<path class="st0" d="M23.1,18.2c-0.2,0-0.3-0.1-0.4-0.3c-0.1-0.2,0-0.5,0.2-0.6l3.5-1.4c0.2-0.1,0.5,0,0.6,0.2
			c0.1,0.2,0,0.5-0.2,0.6l-3.5,1.4C23.3,18.2,23.2,18.2,23.1,18.2z"/>
	</g>
	<g>
		<path class="st0" d="M4.4,25.5c-0.2,0-0.3-0.1-0.4-0.3c-0.1-0.2,0-0.5,0.3-0.6l15-6c0.2-0.1,0.5,0,0.6,0.3c0.1,0.2,0,0.5-0.3,0.6
			l-15,6C4.5,25.5,4.5,25.5,4.4,25.5z"/>
	</g>
	<g>
		<path class="st0" d="M11,18.9c-0.2,0-0.3-0.1-0.4-0.3l-2-4.6c0-0.1-0.1-0.2,0-0.4c0-0.1,0.1-0.2,0.3-0.2l2.9-1.1
			c0.2-0.1,0.5,0,0.6,0.2l0.7,1.6l2.6-1.1c0.1,0,0.2,0,0.3,0c0.1,0,0.2,0.1,0.2,0.2l1,2.6c0.1,0.2,0,0.5-0.2,0.6l-5.8,2.5
			C11.1,18.9,11.1,18.9,11,18.9z M9.6,14.1l1.7,3.8l5-2.1L15.5,14l-2.6,1.1c-0.2,0.1-0.5,0-0.6-0.2l-0.7-1.6L9.6,14.1z"/>
	</g>
</g>
</svg>
