<?xml version="1.0" encoding="utf-8"?>
<!-- Generator: Adobe Illustrator 21.0.0, SVG Export Plug-In . SVG Version: 6.00 Build 0)  -->
<!DOCTYPE svg PUBLIC "-//W3C//DTD SVG 1.1//EN" "http://www.w3.org/Graphics/SVG/1.1/DTD/svg11.dtd">
<svg version="1.1" id="Ebene_1" xmlns="http://www.w3.org/2000/svg" xmlns:xlink="http://www.w3.org/1999/xlink" x="0px" y="0px"
	 width="100px" height="100px" viewBox="0 0 100 100" style="enable-background:new 0 0 100 100;" xml:space="preserve">
<style type="text/css">
	.st0{fill:#FFFFFF;}
</style>
<title>wahlen-blau</title>
<path class="st0" d="M81.5,69.9c-0.3-0.1-0.6-0.2-0.9-0.4c1.7-0.1,3.4-0.6,4.9-1.3l0.6-2c-1.8-3-2.7-8.6-2.7-16.4
	c0-3.4-1.3-6.6-3.7-9c-2.3-2.4-5.6-3.7-8.9-3.7h-0.1l-0.1,0.1l-0.1-0.1h-0.1c-3.3,0-6.6,1.3-8.9,3.7c-2.4,2.4-3.7,5.6-3.7,9
	c0,7.8-0.9,13.4-2.7,16.4l0.6,2c1.6,0.6,3.2,1,4.9,1.3c-0.3,0.1-0.6,0.3-0.9,0.4c-5,1.2-8.5,5.7-8.5,10.9v2.7l0.6,1.2
	c0.2,0.2,6.1,4.1,18.7,4.1s18.5-4,18.7-4.1l0.6-1.2v-2.7C90,75.6,86.5,71.1,81.5,69.9z M65.7,67.8c0-0.1,0.1-0.2,0.1-0.3
	c1.4,0.9,3.1,1.4,4.8,1.4h0.1c1.7,0,3.4-0.5,4.8-1.4c0,0.1,0.1,0.2,0.1,0.3c0.1,0.5,0.3,0.9,0.6,1.3c-0.1,1.7-0.7,3.3-1.7,4.6
	c-1,1-2.4,1.6-3.9,1.5c-1.4,0.1-2.8-0.4-3.9-1.4c-1.1-1.3-1.6-3-1.7-4.7C65.3,68.7,65.6,68.3,65.7,67.8z M77.8,42.9
	c1.9,1.8,2.9,4.4,2.9,7c0,7.3,0.8,12.7,2.3,16.3c-1.5,0.4-3,0.7-4.6,0.7c-0.2-0.6-0.3-1.2-0.4-1.5c1.2-1.6,1.8-3.5,1.8-5.5v-7.3
	l-0.9-1.3c-6-2.2-6.7-8.3-6.8-11.1C74.3,40.4,76.3,41.4,77.8,42.9z M70.7,46.9c1.2,2.9,3.4,5.3,6.3,6.6v6.3c0,3.4-2.8,6.2-6.2,6.2
	h-0.1c-3.4,0-6.2-2.8-6.2-6.2v-6.3C67.3,52.1,69.5,49.8,70.7,46.9z M60.7,49.9c0-2.6,1-5.1,2.9-7c1.5-1.5,3.5-2.5,5.6-2.8
	c-0.1,2.7-0.9,8.9-6.8,11.1l-0.9,1.3v7.3c0,2,0.6,3.9,1.8,5.5c-0.1,0.3-0.2,0.9-0.4,1.5c-1.6,0-3.1-0.2-4.6-0.7
	C60,62.6,60.7,57.1,60.7,49.9z M87.1,82.6c-1.7,0.9-7.1,3.3-16.5,3.3s-14.8-2.4-16.5-3.3v-1.8c0-3.8,2.6-7.2,6.3-8.1
	c0.7-0.2,1.5-0.5,2.1-0.9c0.3,1.5,1,2.8,2.1,3.9c1.5,1.6,3.7,2.5,5.9,2.4c2.2,0.1,4.4-0.8,5.9-2.4c1-1.1,1.7-2.5,2.1-3.9
	c0.7,0.4,1.4,0.7,2.1,0.9c3.7,0.9,6.3,4.3,6.3,8.1v1.8L87.1,82.6z"/>
<path class="st0" d="M40.1,51c-1-0.2-1.8-0.8-2.4-1.6v-0.2h-0.1L37,48c-0.2-0.5-0.3-0.9-0.4-1.4c2.7-3.1,4.4-7.9,4.4-13.5
	C41,23.5,36,16,29.5,16S18,23.5,18,33.1c-0.1,4.6,1.3,9.2,3.9,13c-0.1,0.6-0.3,1.3-0.5,1.9c-0.1,0.4-0.3,0.8-0.6,1.2h-0.1v0.2
	c-0.6,0.8-1.4,1.4-2.4,1.6c-5,1.2-8.5,5.7-8.5,10.9v2.7l0.6,1.2c0.2,0.2,6.1,4.1,18.7,4.1s18.5-4,18.7-4.1l0.6-1.2v-2.7
	C48.7,56.7,45.2,52.1,40.1,51z M24.4,48.5c1.5,1.1,3.3,1.8,5.1,1.8c1.7,0,3.3-0.5,4.7-1.5v0.1c0.1,0.5,0.3,0.9,0.6,1.3
	c-0.1,1.7-0.7,3.3-1.7,4.6c-1,1-2.4,1.6-3.9,1.5c-1.4,0.1-2.8-0.4-3.9-1.4c-1.1-1.3-1.6-3-1.7-4.7c0.2-0.4,0.4-0.8,0.6-1.3
	C24.4,48.7,24.4,48.6,24.4,48.5z M29.6,19c4.7,0,8.6,6.5,8.6,14.2s-3.9,14.2-8.6,14.2S21,40.9,21,33.2S24.9,19,29.6,19z M45.8,63.7
	c-1.7,0.9-7.1,3.3-16.5,3.3s-14.8-2.4-16.5-3.3v-1.8c0-3.8,2.6-7.2,6.3-8.1c0.7-0.2,1.5-0.5,2.1-0.9c0.3,1.5,1,2.8,2.1,3.9
	c1.5,1.6,3.7,2.5,5.9,2.4c2.2,0.1,4.4-0.8,5.9-2.4c1-1.1,1.7-2.5,2.1-3.9c0.7,0.4,1.4,0.7,2.1,0.9c3.7,0.9,6.3,4.3,6.3,8.1v1.8H45.8
	z"/>
<path class="st0" d="M56.1,15.1c0.7,0.7,1,1.6,0.9,2.6c0.1,0.9-0.2,1.8-0.7,2.6c-0.7,1-1.5,1.9-2.3,2.7c-0.8,0.6-1.4,1.4-1.9,2.3
	c-0.3,1-0.5,2.1-0.4,3.1c0,0.2,0.1,0.3,0.2,0.5c0.1,0.1,0.3,0.2,0.5,0.2h1.8c0.4,0,0.7-0.3,0.7-0.7c0,0,0,0,0,0c0-0.7,0-1.3,0.2-2
	c0.2-0.5,0.6-0.9,1-1.2c1.1-1,2.2-2.2,3-3.5c0.7-1.2,1.1-2.6,1.1-4c0.1-1.7-0.6-3.4-1.8-4.7c-1.3-1.2-3-1.8-4.8-1.7
	c-1.7-0.1-3.3,0.5-4.6,1.6c-1.3,1.1-1.9,2.8-1.8,4.5c0,0.1,0,0.2,0.1,0.3c0.1,0.3,0.3,0.4,0.6,0.4h1.7c0.4,0,0.7-0.3,0.7-0.7
	c0,0,0,0,0,0c0-0.9,0.3-1.8,0.9-2.4c0.7-0.6,1.6-1,2.5-0.9C54.6,14.1,55.4,14.5,56.1,15.1z"/>
<path class="st0" d="M54.4,31.6h-2.1c-0.4,0-0.7,0.3-0.7,0.7c0,0,0,0,0,0v2.4c0,0.4,0.3,0.7,0.7,0.7c0,0,0,0,0,0h2.1
	c0.4,0,0.7-0.3,0.7-0.7c0,0,0,0,0,0v-2.4C55.1,31.9,54.8,31.6,54.4,31.6C54.4,31.6,54.4,31.6,54.4,31.6z"/>
</svg>
