<?xml version="1.0" encoding="utf-8"?>
<!-- Generator: Adobe Illustrator 21.0.0, SVG Export Plug-In . SVG Version: 6.00 Build 0)  -->
<!DOCTYPE svg PUBLIC "-//W3C//DTD SVG 1.1//EN" "http://www.w3.org/Graphics/SVG/1.1/DTD/svg11.dtd">
<svg version="1.1" id="Ebene_1" xmlns="http://www.w3.org/2000/svg" xmlns:xlink="http://www.w3.org/1999/xlink" x="0px" y="0px"
	 width="30px" height="30px" viewBox="0 0 30 30" style="enable-background:new 0 0 30 30;" xml:space="preserve">
<style type="text/css">
	.st0{fill:#FFFFFF;}
</style>
<title>services-blau</title>
<g>
	<path class="st0" d="M9.8,15.8l1.8-4.7l1.8,4.7l1.8-4.5H16l-2.6,6.6l-1.8-4.6l-1.8,4.6l-2.6-6.6H8L9.8,15.8z"/>
	<path class="st0" d="M17.3,11.3h3.4V12h-2.6v1.8h2.5v0.7h-2.5v2.4h2.6v0.7h-3.4V11.3z"/>
	<path class="st0" d="M23.6,12v1.8h2.2v0.7h-2.2v3.1h-0.8v-6.3h3.1V12H23.6z"/>
</g>
<g>
	<path class="st0" d="M11.8,23.8c-2.1,0-4.2-0.8-5.8-2.1c-0.2-0.2-0.2-0.4,0-0.6c0.2-0.2,0.4-0.2,0.6,0c1.5,1.2,3.3,1.9,5.2,1.9
		c2,0,3.8-0.7,5.3-2c0.2-0.2,0.5-0.1,0.6,0c0.2,0.2,0.1,0.5,0,0.6C16.1,23.1,14,23.8,11.8,23.8z"/>
</g>
<g>
	<path class="st0" d="M11.8,23.3C7,23.3,3,19.4,3,14.5c0-3.6,2.3-6.9,5.6-8.2c0.2-0.1,0.3,0,0.4,0.2c0.1,0.2,0,0.3-0.2,0.4
		c-3.2,1.2-5.3,4.3-5.3,7.6c0,4.5,3.7,8.2,8.2,8.2c2,0,3.9-0.7,5.4-2c0.1-0.1,0.3-0.1,0.4,0c0.1,0.1,0.1,0.3,0,0.4
		C16,22.5,13.9,23.3,11.8,23.3z"/>
</g>
<g>
	<circle class="st0" cx="17.4" cy="21.2" r="0.5"/>
</g>
</svg>
