<svg id="Ebene_1" data-name="Ebene 1" xmlns="http://www.w3.org/2000/svg" viewBox="0 0 30 30"><defs><style>.cls-1{fill:#fff;}</style></defs><title>youtube-weiss</title><path class="cls-1" d="M19.3,14.1,12.9,9.9a1.42,1.42,0,0,0-.6-.2,1.11,1.11,0,0,0-1.1,1.1v8.5a1,1,0,0,0,1,1.1,1.42,1.42,0,0,0,.6-.2l6.4-4.3a1.05,1.05,0,0,0,.5-.9C19.9,14.6,19.7,14.3,19.3,14.1Zm-.9.8-6,4.1V11Z"/><path class="cls-1" d="M22.1,6.6H7.9A3.37,3.37,0,0,0,4.5,10V20a3.37,3.37,0,0,0,3.4,3.4H22.2A3.37,3.37,0,0,0,25.6,20V10A3.52,3.52,0,0,0,22.1,6.6ZM24.3,10V20a2.11,2.11,0,0,1-2.1,2.1H7.9A2.11,2.11,0,0,1,5.8,20V10A2.11,2.11,0,0,1,7.9,7.9H22.2A2.11,2.11,0,0,1,24.3,10Z"/></svg>