<?xml version="1.0" encoding="utf-8"?>
<!-- Generator: Adobe Illustrator 21.0.0, SVG Export Plug-In . SVG Version: 6.00 Build 0)  -->
<!DOCTYPE svg PUBLIC "-//W3C//DTD SVG 1.1//EN" "http://www.w3.org/Graphics/SVG/1.1/DTD/svg11.dtd">
<svg version="1.1" id="Ebene_1" xmlns="http://www.w3.org/2000/svg" xmlns:xlink="http://www.w3.org/1999/xlink" x="0px" y="0px"
	 width="30px" height="30px" viewBox="0 0 30 30" style="enable-background:new 0 0 30 30;" xml:space="preserve">
<style type="text/css">
	.st0{fill:#817E65;}
</style>
<title>suche-blau</title>
<path class="st0" d="M24.4,20.9l-7.1-5.3l-0.6-0.3c0.4-0.9,0.7-1.8,0.7-2.8c0-3.4-2.8-6.2-6.2-6.2S5,9.1,5,12.5s2.8,6.2,6.2,6.2l0,0
	c1.3,0,2.6-0.4,3.7-1.2c0.1,0.3,0.3,0.5,0.5,0.7l7.1,5.3c0.3,0.2,0.6,0.3,0.9,0.3c0.5,0,1-0.2,1.3-0.6
	C25.2,22.5,25.1,21.5,24.4,20.9z M11.2,17c-2.5,0-4.5-2-4.5-4.5S8.7,8,11.2,8s4.5,2,4.5,4.5C15.7,15,13.7,17,11.2,17z"/>
</svg>
