<?xml version="1.0" encoding="utf-8"?>
<!-- Generator: Adobe Illustrator 21.0.0, SVG Export Plug-In . SVG Version: 6.00 Build 0)  -->
<!DOCTYPE svg PUBLIC "-//W3C//DTD SVG 1.1//EN" "http://www.w3.org/Graphics/SVG/1.1/DTD/svg11.dtd">
<svg version="1.1" id="Ebene_1" xmlns="http://www.w3.org/2000/svg" xmlns:xlink="http://www.w3.org/1999/xlink" x="0px" y="0px"
	 width="30px" height="30px" viewBox="0 0 30 30" style="enable-background:new 0 0 30 30;" xml:space="preserve">
<style type="text/css">
	.st0{fill:#817E65;}
</style>
<title>services-blau</title>
<g>
	<g>
		<path class="st0" d="M5.9,27.2c-1.9,0-3.4-1.5-3.4-3.4c0-1.9,1.5-3.4,3.4-3.4s3.4,1.5,3.4,3.4C9.4,25.6,7.8,27.2,5.9,27.2z
			 M5.9,21.2c-1.4,0-2.5,1.1-2.5,2.5c0,1.4,1.1,2.5,2.5,2.5s2.5-1.1,2.5-2.5C8.5,22.3,7.4,21.2,5.9,21.2z"/>
	</g>
	<g>
		<path class="st0" d="M17.3,26.8c-0.2,0-0.4-0.2-0.4-0.4c0-7.5-6.1-13.5-13.5-13.5c-0.2,0-0.4-0.2-0.4-0.4s0.2-0.4,0.4-0.4
			c8,0,14.4,6.5,14.4,14.4C17.7,26.6,17.5,26.8,17.3,26.8z"/>
	</g>
	<g>
		<path class="st0" d="M26.7,26.8c-0.2,0-0.4-0.2-0.4-0.4c0-12.6-10.3-22.9-22.9-22.9C3.1,3.4,2.9,3.2,2.9,3s0.2-0.4,0.4-0.4
			c13.1,0,23.8,10.7,23.8,23.8C27.1,26.6,26.9,26.8,26.7,26.8z"/>
	</g>
</g>
</svg>
