<?xml version="1.0" encoding="UTF-8" standalone="no"?>
<svg width="100px" height="100px" viewBox="0 0 100 100" version="1.1" xmlns="http://www.w3.org/2000/svg" xmlns:xlink="http://www.w3.org/1999/xlink">
    <!-- Generator: Sketch 39.1 (31720) - http://www.bohemiancoding.com/sketch -->
    <title>gesetze-transparent</title>
    <desc>Created with Sketch.</desc>
    <defs>
        <polygon id="path-1" points="2474.53 4011.17873 2474.53 0 8 0 8 1003.0625 8 4011.17873 2474.53 4011.17873"></polygon>
    </defs>
    <g id="Page-1" stroke="none" stroke-width="1" fill="none" fill-rule="evenodd">
        <g id="icons-web-v205-jbe-rz" transform="translate(0.000000, -3890.000000)">
            <mask id="mask-2" fill="white">
                <use xlink:href="#path-1"></use>
            </mask>
            <g id="Clip-2"></g>
            <path d="M50.102,3946.72 C46.247,3946.72 43.11,3949.85 43.11,3953.69 C43.11,3957.541 46.247,3960.67 50.102,3960.67 C53.957,3960.67 57.093,3957.541 57.093,3953.69 C57.093,3949.85 53.957,3946.72 50.102,3946.72 L50.102,3946.72 Z M50.102,3963.541 C44.665,3963.541 40.24,3959.12 40.24,3953.69 C40.24,3948.26 44.665,3943.85 50.102,3943.85 C55.539,3943.85 59.963,3948.26 59.963,3953.69 C59.963,3959.12 55.539,3963.541 50.102,3963.541 L50.102,3963.541 Z" id="Fill-708" fill="#ffffff" mask="url(#mask-2)"></path>
            <polyline id="Fill-709" fill="#ffffff" mask="url(#mask-2)" points="39.601 3975.02 38.074 3967.38 30.42 3965.86 41.062 3955.23 43.088 3957.271 36.249 3964.09 40.512 3964.94 41.364 3969.2 49.003 3961.58 51.029 3963.61 39.601 3975.02"></polyline>
            <polyline id="Fill-710" fill="#ffffff" mask="url(#mask-2)" points="60.602 3975.02 49.174 3963.61 51.2 3961.58 58.839 3969.2 59.691 3964.94 63.954 3964.09 57.117 3957.271 59.143 3955.23 69.784 3965.86 62.129 3967.38 60.602 3975.02"></polyline>
            <path d="M28.304,3903.12 C25.397,3903.12 23.032,3905.49 23.032,3908.39 L23.032,3972.11 C23.032,3975.02 25.397,3977.38 28.304,3977.38 L71.9,3977.38 C74.806,3977.38 77.172,3975.02 77.172,3972.11 L77.172,3908.39 C77.172,3905.49 74.806,3903.12 71.9,3903.12 L28.304,3903.12 L28.304,3903.12 Z M71.9,3980.25 L28.304,3980.25 C23.814,3980.25 20.162,3976.6 20.162,3972.11 L20.162,3908.39 C20.162,3903.9 23.814,3900.25 28.304,3900.25 L71.9,3900.25 C76.39,3900.25 80.041,3903.9 80.041,3908.39 L80.041,3972.11 C80.041,3976.6 76.39,3980.25 71.9,3980.25 L71.9,3980.25 Z" id="Fill-711" fill="#ffffff" mask="url(#mask-2)"></path>
            <polygon id="Fill-712" fill="#ffffff" mask="url(#mask-2)" points="43.395 3919.89 56.809 3919.89 56.809 3917.02 43.395 3917.02"></polygon>
            <polygon id="Fill-713" fill="#ffffff" mask="url(#mask-2)" points="31.657 3926.6 68.546 3926.6 68.546 3923.73 31.657 3923.73"></polygon>
            <polygon id="Fill-714" fill="#ffffff" mask="url(#mask-2)" points="31.657 3933.3 68.546 3933.3 68.546 3930.43 31.657 3930.43"></polygon>
        </g>
    </g>
</svg>