<?xml version="1.0" encoding="utf-8"?>
<!-- Generator: Adobe Illustrator 21.0.0, SVG Export Plug-In . SVG Version: 6.00 Build 0)  -->
<!DOCTYPE svg PUBLIC "-//W3C//DTD SVG 1.1//EN" "http://www.w3.org/Graphics/SVG/1.1/DTD/svg11.dtd">
<svg version="1.1" id="Ebene_1" xmlns="http://www.w3.org/2000/svg" xmlns:xlink="http://www.w3.org/1999/xlink" x="0px" y="0px"
	 width="30px" height="30px" viewBox="0 0 30 30" style="enable-background:new 0 0 30 30;" xml:space="preserve">
<style type="text/css">
	.st0{fill:#817E65;}
</style>
<title>youtube-blau</title>
<path class="st0" d="M19.3,14.1l-6.4-4.2c-0.2-0.1-0.4-0.2-0.6-0.2c-0.6,0-1.1,0.5-1.1,1.1v8.5c-0.1,0.5,0.3,1,0.9,1.1
	c0,0,0.1,0,0.1,0c0.2,0,0.4-0.1,0.6-0.2l6.4-4.3c0.3-0.2,0.5-0.5,0.5-0.9C19.9,14.6,19.7,14.3,19.3,14.1z M18.4,14.9l-6,4.1v-8
	L18.4,14.9z"/>
<path class="st0" d="M22.1,6.6H7.9C6,6.6,4.5,8.1,4.5,9.9c0,0,0,0,0,0.1v10c0,1.9,1.5,3.4,3.3,3.4c0,0,0,0,0.1,0h14.3
	c1.9,0,3.4-1.5,3.4-3.3c0,0,0,0,0-0.1V10C25.5,8.1,24,6.6,22.1,6.6z M24.3,10v10c0,1.2-0.9,2.1-2.1,2.1H7.9c-1.2,0-2.1-0.9-2.1-2.1
	V10c0-1.2,0.9-2.1,2.1-2.1h14.3C23.4,7.9,24.3,8.8,24.3,10z"/>
</svg>
