<?xml version="1.0" encoding="utf-8"?>
<!-- Generator: Adobe Illustrator 20.0.0, SVG Export Plug-In . SVG Version: 6.00 Build 0)  -->
<svg version="1.2" baseProfile="tiny" id="Ebene_1" xmlns="http://www.w3.org/2000/svg" xmlns:xlink="http://www.w3.org/1999/xlink"
	 x="0px" y="0px" width="30px" height="30px" viewBox="0 0 30 30"  xml:space="preserve">
<g>
	<g>
		<path fill="#817E65" d="M23.7,6.5h-3.3V5.7c0-0.2-0.2-0.4-0.4-0.4c-0.2,0-0.4,0.2-0.4,0.4v0.8h-9.1V5.7c0-0.2-0.2-0.4-0.4-0.4
			c-0.2,0-0.4,0.2-0.4,0.4v0.8H6.3c-0.9,0-1.7,0.7-1.7,1.7v14.9c0,0.9,0.7,1.7,1.7,1.7h17.4c0.9,0,1.7-0.7,1.7-1.7V8.2
			C25.4,7.2,24.6,6.5,23.7,6.5z M24.5,23.1c0,0.5-0.4,0.8-0.8,0.8H6.3c-0.5,0-0.8-0.4-0.8-0.8V11.5h19.1V23.1z M24.5,10.6H5.5V8.2
			c0-0.5,0.4-0.8,0.8-0.8h3.3v0.9C9.4,8.4,9.2,8.7,9.2,9c0,0.5,0.4,0.8,0.8,0.8c0.5,0,0.8-0.4,0.8-0.8c0-0.3-0.2-0.6-0.4-0.7V7.3
			h9.1v0.9c-0.2,0.1-0.4,0.4-0.4,0.7c0,0.5,0.4,0.8,0.8,0.8c0.5,0,0.8-0.4,0.8-0.8c0-0.3-0.2-0.6-0.4-0.7V7.3h3.3
			c0.5,0,0.8,0.4,0.8,0.8V10.6z"/>
		<path fill="#817E65" d="M23.7,24.9H6.3c-1,0-1.8-0.8-1.8-1.8V8.2c0-1,0.8-1.8,1.8-1.8h3.2V5.7c0-0.3,0.2-0.5,0.5-0.5
			s0.5,0.2,0.5,0.5v0.7h8.9V5.7c0-0.3,0.2-0.5,0.5-0.5c0.3,0,0.5,0.2,0.5,0.5v0.7h3.2c1,0,1.8,0.8,1.8,1.8v14.9
			C25.5,24.1,24.7,24.9,23.7,24.9z M6.3,6.6c-0.8,0-1.5,0.7-1.5,1.5v14.9c0,0.8,0.7,1.5,1.5,1.5h17.4c0.8,0,1.5-0.7,1.5-1.5V8.2
			c0-0.8-0.7-1.5-1.5-1.5h-3.4v-1c0-0.2-0.1-0.3-0.3-0.3s-0.3,0.1-0.3,0.3v1h-9.4v-1c0-0.2-0.1-0.3-0.3-0.3c-0.2,0-0.3,0.1-0.3,0.3
			v1H6.3z M23.7,24H6.3c-0.5,0-1-0.4-1-1V11.3h19.3v11.7C24.7,23.6,24.2,24,23.7,24z M5.6,11.6v11.5c0,0.4,0.3,0.7,0.7,0.7h17.4
			c0.4,0,0.7-0.3,0.7-0.7V11.6H5.6z M24.7,10.8H5.3V8.2c0-0.5,0.4-1,1-1h3.4v1.1l-0.1,0C9.4,8.5,9.3,8.7,9.3,9
			c0,0.4,0.3,0.7,0.7,0.7c0.4,0,0.7-0.3,0.7-0.7c0-0.3-0.1-0.5-0.4-0.6l-0.1,0V7.2h9.4v1.1l-0.1,0c-0.2,0.1-0.4,0.4-0.4,0.6
			c0,0.4,0.3,0.7,0.7,0.7s0.7-0.3,0.7-0.7c0-0.3-0.1-0.5-0.4-0.6l-0.1,0V7.2h3.4c0.5,0,1,0.4,1,1V10.8z M5.6,10.5h18.8V8.2
			c0-0.4-0.3-0.7-0.7-0.7h-3.2v0.8c0.3,0.2,0.4,0.5,0.4,0.8c0,0.5-0.4,1-1,1c-0.5,0-1-0.4-1-1c0-0.3,0.2-0.6,0.4-0.8V7.4h-8.9v0.8
			C10.8,8.4,11,8.7,11,9c0,0.5-0.4,1-1,1c-0.5,0-1-0.4-1-1c0-0.3,0.2-0.6,0.4-0.8V7.4H6.3c-0.4,0-0.7,0.3-0.7,0.7V10.5z"/>
	</g>
	<g>
		<path fill="#817E65" d="M7.9,22.3h14.1c0.5,0,0.8-0.4,0.8-0.8v-7.9c0-0.5-0.4-0.8-0.8-0.8H7.9c-0.5,0-0.8,0.4-0.8,0.8v7.9
			C7.1,21.9,7.5,22.3,7.9,22.3z M22.1,18.5L22.1,18.5l-2.9,0v-2.1h2.9l0,0L22.1,18.5z M18.3,18.5h-2.9v-2.1h2.9V18.5z M15.4,19.4
			h2.9v2.1h-2.9V19.4z M14.6,21.4h-2.9v-2.1h2.9V21.4z M14.6,18.5h-2.9v-2.1h2.9V18.5z M10.9,18.5H7.9v-2.1h2.9V18.5z M7.9,19.4h2.9
			v2.1H7.9V19.4z M19.1,21.4v-2.1h2.9l0,0l0,2.1H19.1z M22.1,13.5l0,2.1l0,0h-2.9v-2.1H22.1z M18.3,13.5v2.1h-2.9v-2.1H18.3z
			 M14.6,13.5v2.1h-2.9v-2.1H14.6z M7.9,13.5h2.9v2.1H7.9V13.5z"/>
		<path fill="#817E65" d="M22.1,22.4H7.9c-0.5,0-1-0.4-1-1v-7.9c0-0.5,0.4-1,1-1h14.1c0.5,0,1,0.4,1,1v7.9
			C23,22,22.6,22.4,22.1,22.4z M7.9,12.8c-0.4,0-0.7,0.3-0.7,0.7v7.9c0,0.4,0.3,0.7,0.7,0.7h14.1c0.4,0,0.7-0.3,0.7-0.7v-7.9
			c0-0.4-0.3-0.7-0.7-0.7H7.9z M22.2,21.6H19v-2.3h3l0.2-0.2L22.2,21.6z M19.3,21.3h2.7v-1.8h-2.7V21.3z M18.4,21.6h-3.2v-2.3h3.2
			V21.6z M15.5,21.3h2.7v-1.8h-2.7V21.3z M14.7,21.6h-3.2v-2.3h3.2V21.6z M11.8,21.3h2.7v-1.8h-2.7V21.3z M11,21.6H7.8v-2.3H11V21.6
			z M8.1,21.3h2.7v-1.8H8.1V21.3z M22.2,18.7H19v-2.3h3.2L22.2,18.7z M19.3,18.4h2.7l0-1.8h-2.7V18.4z M18.4,18.7h-3.2v-2.3h3.2
			V18.7z M15.5,18.4h2.7v-1.8h-2.7V18.4z M14.7,18.7h-3.2v-2.3h3.2V18.7z M11.8,18.4h2.7v-1.8h-2.7V18.4z M11,18.7H7.8v-2.3H11V18.7
			z M8.1,18.4h2.7v-1.8H8.1V18.4z M22.2,15.7H19v-2.3h3.2V15.7z M19.3,15.5h2.7v-1.8h-2.7V15.5z M18.4,15.7h-3.2v-2.3h3.2V15.7z
			 M15.5,15.5h2.7v-1.8h-2.7V15.5z M14.7,15.7h-3.2v-2.3h3.2V15.7z M11.8,15.5h2.7v-1.8h-2.7V15.5z M11,15.7H7.8v-2.3H11V15.7z
			 M8.1,15.5h2.7v-1.8H8.1V15.5z"/>
	</g>
</g>
</svg>
