<svg id="Ebene_1" data-name="Ebene 1" xmlns="http://www.w3.org/2000/svg" viewBox="0 0 30 30"><defs><style>.cls-1{fill:#0069b4;}</style></defs><title>links-blau</title><path class="cls-1" d="M21.9,6.7H13.8a3.59,3.59,0,0,0-3.6,3.6v4.5a3.59,3.59,0,0,0,3.6,3.6h3.8a.47.47,0,0,0,.5-.5v-.2a.47.47,0,0,0-.5-.5H13.8a2.48,2.48,0,0,1-2.5-2.5V10.2a2.48,2.48,0,0,1,2.5-2.5h8.1a2.48,2.48,0,0,1,2.5,2.5v4.5a2.48,2.48,0,0,1-2.5,2.5H20.7a.47.47,0,0,0-.5.5v.2a.47.47,0,0,0,.5.5h1.2a3.59,3.59,0,0,0,3.6-3.6V10.3A3.59,3.59,0,0,0,21.9,6.7Z"/><path class="cls-1" d="M16.1,11.6H12.5a.47.47,0,0,0-.5.5v.2a.47.47,0,0,0,.5.5h3.6a2.48,2.48,0,0,1,2.5,2.5v4.5a2.48,2.48,0,0,1-2.5,2.5h-8a2.48,2.48,0,0,1-2.5-2.5V15.3a2.48,2.48,0,0,1,2.5-2.5H9.3a.47.47,0,0,0,.5-.5v-.2a.47.47,0,0,0-.5-.5H8.1a3.59,3.59,0,0,0-3.6,3.6v4.5a3.59,3.59,0,0,0,3.6,3.6h8.1a3.59,3.59,0,0,0,3.6-3.6V15.2A3.74,3.74,0,0,0,16.1,11.6Z"/></svg>