<?xml version="1.0" encoding="utf-8"?>
<!-- Generator: Adobe Illustrator 21.0.0, SVG Export Plug-In . SVG Version: 6.00 Build 0)  -->
<!DOCTYPE svg PUBLIC "-//W3C//DTD SVG 1.1//EN" "http://www.w3.org/Graphics/SVG/1.1/DTD/svg11.dtd">
<svg version="1.1" id="Ebene_1" xmlns="http://www.w3.org/2000/svg" xmlns:xlink="http://www.w3.org/1999/xlink" x="0px" y="0px"
	 width="30px" height="30px" viewBox="0 0 30 30" style="enable-background:new 0 0 30 30;" xml:space="preserve">
<style type="text/css">
	.st0{fill:#0069B4;}
</style>
<title>services-blau</title>
<g>
	<path class="st0" d="M23.6,4.5h-2.4c0,0,0,0,0,0H6.4c-2.1,0-3.9,1.7-3.9,3.9v10.2c0,2.1,1.7,3.9,3.9,3.9h8.3v2.1H9.9
		c-0.3,0-0.5,0.2-0.5,0.5c0,0.3,0.2,0.5,0.5,0.5h5.3h5.3c0.3,0,0.5-0.2,0.5-0.5c0-0.3-0.2-0.5-0.5-0.5h-4.8v-2.1h8
		c2.1,0,3.9-1.7,3.9-3.9V8.4C27.5,6.2,25.8,4.5,23.6,4.5z M23.6,21.4h-8.5H6.4c-1.4,0-2.6-1-2.8-2.4h23
		C26.2,20.4,25.1,21.4,23.6,21.4z M26.5,18.1h-23V8.4c0-1.6,1.3-2.9,2.9-2.9h14.9c0,0,0,0,0,0h2.4c1.6,0,2.9,1.3,2.9,2.9V18.1z"/>
</g>
<g>
	<path class="st0" d="M18.5,9.7l-2.2-2.2c0,0,0,0,0,0l-0.1,0c-0.1,0-0.1-0.1-0.2-0.1h-3.3c-0.7,0-1.2,0.5-1.2,1.2v6.8
		c0,0.7,0.5,1.2,1.2,1.2h4.6c0.7,0,1.2-0.5,1.2-1.2V9.9C18.6,9.8,18.6,9.7,18.5,9.7z M17.7,15.3c0,0.1-0.1,0.2-0.2,0.2h-4.6
		c-0.1,0-0.2-0.1-0.2-0.2V8.6c0-0.1,0.1-0.2,0.2-0.2h2.7v0.9c0,0.7,0.5,1.2,1.2,1.2h0.9V15.3z M16.5,9.3V9L17,9.5h-0.2
		C16.6,9.5,16.5,9.4,16.5,9.3z"/>
	<path class="st0" d="M16.8,12.3h-3.1c-0.2,0-0.3,0.1-0.3,0.3v0.3c0,0.2,0.1,0.3,0.3,0.3h3.1c0.2,0,0.3-0.1,0.3-0.3v-0.3
		C17,12.4,16.9,12.3,16.8,12.3z"/>
	<path class="st0" d="M13.3,11.2v0.3c0,0.2,0.1,0.3,0.3,0.3h3.1c0.2,0,0.3-0.1,0.3-0.3v-0.3c0-0.2-0.1-0.3-0.3-0.3h-3.1
		C13.4,10.9,13.3,11,13.3,11.2z"/>
	<path class="st0" d="M16.8,13.7h-3.1c-0.2,0-0.3,0.1-0.3,0.3v0.3c0,0.2,0.1,0.3,0.3,0.3h3.1c0.2,0,0.3-0.1,0.3-0.3V14
		C17,13.9,16.9,13.7,16.8,13.7z"/>
</g>
</svg>
