<?xml version="1.0" encoding="utf-8"?>
<!-- Generator: Adobe Illustrator 21.0.0, SVG Export Plug-In . SVG Version: 6.00 Build 0)  -->
<!DOCTYPE svg PUBLIC "-//W3C//DTD SVG 1.1//EN" "http://www.w3.org/Graphics/SVG/1.1/DTD/svg11.dtd">
<svg version="1.1" id="Ebene_1" xmlns="http://www.w3.org/2000/svg" xmlns:xlink="http://www.w3.org/1999/xlink" x="0px" y="0px"
	 width="30px" height="30px" viewBox="0 0 30 30" style="enable-background:new 0 0 30 30;" xml:space="preserve">
<style type="text/css">
	.st0{fill:#0069B4;}
</style>
<title>services-blau</title>
<g>
	<g>
		<g>
			<path class="st0" d="M18.2,25.2c-0.2-0.1-0.3-0.3-0.2-0.4H9.2c-0.8,0-1.5-0.7-1.5-1.5V5.4c0-0.8,0.7-1.5,1.5-1.5h8.3l5.4,5.4
				v10.4c0.1,0,0.1,0,0.2,0.1c0.2,0.2,0.4,0.3,0.6,0.5V9l-5.7-5.7l-0.2-0.1H9.2c-1.3,0-2.3,1-2.3,2.3v17.8c0,1.3,1,2.3,2.3,2.3h9.7
				C18.7,25.4,18.4,25.3,18.2,25.2z"/>
		</g>
		<g>
			<path class="st0" d="M23.2,9.6h-3.7c-1.3,0-2.3-1-2.3-2.3V3.5H18v3.8c0,0.8,0.7,1.5,1.5,1.5h3.7V9.6z"/>
		</g>
	</g>
	<g>
		<rect x="10.1" y="14.4" class="st0" width="10.3" height="0.8"/>
	</g>
	<g>
		<rect x="10.1" y="16.3" class="st0" width="10.3" height="0.8"/>
	</g>
	<g>
		<rect x="10.1" y="10.6" class="st0" width="10.3" height="0.8"/>
	</g>
	<g>
		<rect x="10.1" y="12.5" class="st0" width="10.3" height="0.8"/>
	</g>
	<g>
		<rect x="10.1" y="18.2" class="st0" width="10.3" height="0.8"/>
	</g>
	<g>
		<path class="st0" d="M18.4,20.5c0.1-0.2,0.3-0.3,0.4-0.5h-8.7v0.8h8.2C18.3,20.7,18.3,20.6,18.4,20.5z"/>
	</g>
</g>
<g>
	<g>
		<path class="st0" d="M21.2,26.9c-2.2,0-3.9-1.8-3.9-3.9c0-2.2,1.8-3.9,3.9-3.9s3.9,1.8,3.9,3.9C25.1,25.1,23.3,26.9,21.2,26.9z
			 M21.2,19.6c-1.8,0-3.3,1.5-3.3,3.3c0,1.8,1.5,3.3,3.3,3.3c1.8,0,3.3-1.5,3.3-3.3C24.5,21.1,23,19.6,21.2,19.6z"/>
	</g>
	<path class="st0" d="M23.1,21.5c-0.2-0.2-0.6-0.2-0.8,0l-1.8,1.8L20,22.7c-0.2-0.2-0.6-0.2-0.8,0c-0.2,0.2-0.2,0.6,0,0.8l0.9,0.9
		c0.1,0.1,0.3,0.2,0.4,0.2c0,0,0,0,0,0c0,0,0,0,0,0c0.1,0,0.3-0.1,0.4-0.2l2.1-2.1C23.3,22,23.4,21.7,23.1,21.5z"/>
</g>
</svg>
