<svg id="Ebene_1" data-name="Ebene 1" xmlns="http://www.w3.org/2000/svg" viewBox="0 0 100 100"><defs><style>.cls-1{fill:#0069b4;}</style></defs><title>grosser-rat-blau</title><path class="cls-1" d="M80.9,52.5V33.9l2-4.4a1.23,1.23,0,0,0-.1-1.3,1.38,1.38,0,0,0-1.1-.6H18.4a1.15,1.15,0,0,0-1.1.6,1.23,1.23,0,0,0-.1,1.3l2,4.4V52.6H10v6.7h9.1V71.2a1.37,1.37,0,0,0,1.4,1.4h59a1.37,1.37,0,0,0,1.4-1.4v-12H90V52.5Zm6.4,4H48.5l.3,1.6a15.26,15.26,0,0,1,.3,3c0,5.1-2.2,8.7-4.2,8.7s-4.2-3.6-4.2-8.7a15.26,15.26,0,0,1,.3-3l.3-1.6H12.7V55.3H87.2v1.2ZM21.7,33l-1.2-2.7h59L78.3,33a1.27,1.27,0,0,0-.1.6v19H21.8v-19A1.27,1.27,0,0,0,21.7,33Zm.1,36.7V59.2H38a11.48,11.48,0,0,0-.1,1.9,15.18,15.18,0,0,0,2.4,8.7H21.8Zm56.3,0H49.4A15.18,15.18,0,0,0,51.8,61a12.75,12.75,0,0,0-.1-1.9H78.1Z"/><path class="cls-1" d="M36.3,41.1a3.9,3.9,0,0,0-3.9-3.9,4,4,0,0,0-4,4v7.3h7.8V41.1Zm-2.8,4.6H31.1V41.1a1.16,1.16,0,0,1,1.2-1.2A1.11,1.11,0,0,1,33.4,41v4.7Z"/><path class="cls-1" d="M54,41.1a3.9,3.9,0,0,0-3.9-3.9,4,4,0,0,0-4,4v7.3H54Zm-2.8,4.6H48.8V41.1A1.16,1.16,0,0,1,50,39.9,1.11,1.11,0,0,1,51.1,41v4.7Z"/><path class="cls-1" d="M71.7,41.1a3.9,3.9,0,0,0-3.9-3.9,4,4,0,0,0-4,4v7.3h7.8V41.1Zm-2.8,4.6H66.5V41.1a1.16,1.16,0,0,1,1.2-1.2A1.11,1.11,0,0,1,68.8,41v4.7Z"/></svg>