<svg id="Ebene_1" data-name="Ebene 1" xmlns="http://www.w3.org/2000/svg" viewBox="0 0 30 30"><defs><style>.cls-1{fill:#0069b4;}.cls-2{fill:#0d68ad;}</style></defs><title>kalender-blau</title><path class="cls-1" d="M23.7,6.5H20.4V5.7a.4.4,0,1,0-.8,0v.8H10.5V5.7a.4.4,0,1,0-.8,0v.8H6.3A1.69,1.69,0,0,0,4.6,8.2V23.1a1.69,1.69,0,0,0,1.7,1.7H23.7a1.69,1.69,0,0,0,1.7-1.7V8.2A1.69,1.69,0,0,0,23.7,6.5Zm.8,16.6a.79.79,0,0,1-.8.8H6.3a.79.79,0,0,1-.8-.8V11.5H24.6V23.1Zm0-12.5H5.5V8.2a.79.79,0,0,1,.8-.8H9.6v.9a.84.84,0,0,0-.4.7.8.8,0,1,0,1.6,0,.84.84,0,0,0-.4-.7v-1h9.1v.9a.84.84,0,0,0-.4.7.8.8,0,1,0,1.6,0,.84.84,0,0,0-.4-.7V7.3h3.3a.79.79,0,0,1,.8.8v2.5Z"/><path class="cls-2" d="M23.7,24.9H6.3a1.79,1.79,0,0,1-1.8-1.8V8.2A1.79,1.79,0,0,1,6.3,6.4H9.5V5.7a.5.5,0,0,1,1,0v.7h8.9V5.7a.5.5,0,0,1,1,0v.7h3.2a1.79,1.79,0,0,1,1.8,1.8V23.1A1.65,1.65,0,0,1,23.7,24.9ZM6.3,6.6A1.54,1.54,0,0,0,4.8,8.1V23a1.54,1.54,0,0,0,1.5,1.5H23.7A1.54,1.54,0,0,0,25.2,23V8.2a1.54,1.54,0,0,0-1.5-1.5H20.3v-1a.3.3,0,1,0-.6,0v1H10.3v-1a.3.3,0,0,0-.6,0v1H6.3ZM23.7,24H6.3a1,1,0,0,1-1-1V11.3H24.6V23A.87.87,0,0,1,23.7,24ZM5.6,11.6V23.1a.68.68,0,0,0,.7.7H23.7a.68.68,0,0,0,.7-.7V11.6Zm19.1-.8H5.3V8.2a1,1,0,0,1,1-1H9.7V8.3H9.6a.91.91,0,0,0-.3.7.7.7,0,0,0,1.4,0,.55.55,0,0,0-.4-.6h-.1V7.2h9.4V8.3h-.1a.82.82,0,0,0-.4.6.7.7,0,0,0,1.4,0,.55.55,0,0,0-.4-.6H20V7.2h3.4a1,1,0,0,1,1,1v2.6ZM5.6,10.5H24.4V8.2a.68.68,0,0,0-.7-.7H20.5v.8a.91.91,0,0,1,.4.8,1,1,0,0,1-2,0,1.23,1.23,0,0,1,.4-.8V7.4H10.4v.8A.94.94,0,0,1,11,9,1,1,0,0,1,9,9a1.23,1.23,0,0,1,.4-.8V7.4H6.3a.68.68,0,0,0-.7.7Z"/><path class="cls-1" d="M7.9,22.3H22a.79.79,0,0,0,.8-.8V13.6a.79.79,0,0,0-.8-.8H7.9a.79.79,0,0,0-.8.8v7.9A.86.86,0,0,0,7.9,22.3Zm14.2-3.8H19.2V16.4h2.9Zm-3.8,0H15.4V16.4h2.9Zm-2.9.9h2.9v2.1H15.4Zm-.8,2H11.7V19.3h2.9Zm0-2.9H11.7V16.4h2.9Zm-3.7,0h-3V16.4h2.9v2.1Zm-3,.9h2.9v2.1H7.9Zm11.2,2V19.3H22v2.1Zm3-7.9v2.1H19.2V13.5Zm-3.8,0v2.1H15.4V13.5Zm-3.7,0v2.1H11.7V13.5Zm-6.7,0h2.9v2.1H7.9Z"/><path class="cls-2" d="M22.1,22.4H7.9a1,1,0,0,1-1-1V13.5a1,1,0,0,1,1-1H22a1,1,0,0,1,1,1v7.9A.92.92,0,0,1,22.1,22.4ZM7.9,12.8a.68.68,0,0,0-.7.7v7.9a.68.68,0,0,0,.7.7H22a.68.68,0,0,0,.7-.7V13.5a.68.68,0,0,0-.7-.7Zm14.3,8.8H19V19.3h3l.2-.2Zm-2.9-.3H22V19.5H19.3Zm-.9.3H15.2V19.3h3.2Zm-2.9-.3h2.7V19.5H15.5Zm-.8.3H11.5V19.3h3.2Zm-2.9-.3h2.7V19.5H11.8Zm-.8.3H7.8V19.3H11Zm-2.9-.3h2.7V19.5H8.1Zm14.1-2.6H19V16.4h3.2Zm-2.9-.3H22V16.6H19.3Zm-.9.3H15.2V16.4h3.2Zm-2.9-.3h2.7V16.6H15.5Zm-.8.3H11.5V16.4h3.2Zm-2.9-.3h2.7V16.6H11.8Zm-.8.3H7.8V16.4H11Zm-2.9-.3h2.7V16.6H8.1Zm14.1-2.7H19V13.4h3.2Zm-2.9-.2H22V13.7H19.3Zm-.9.2H15.2V13.4h3.2Zm-2.9-.2h2.7V13.7H15.5Zm-.8.2H11.5V13.4h3.2Zm-2.9-.2h2.7V13.7H11.8Zm-.8.2H7.8V13.4H11Zm-2.9-.2h2.7V13.7H8.1Z"/></svg>