<?xml version="1.0" encoding="utf-8"?>
<!-- Generator: Adobe Illustrator 21.0.0, SVG Export Plug-In . SVG Version: 6.00 Build 0)  -->
<!DOCTYPE svg PUBLIC "-//W3C//DTD SVG 1.1//EN" "http://www.w3.org/Graphics/SVG/1.1/DTD/svg11.dtd">
<svg version="1.1" id="Ebene_1" xmlns="http://www.w3.org/2000/svg" xmlns:xlink="http://www.w3.org/1999/xlink" x="0px" y="0px"
	 width="30px" height="30px" viewBox="0 0 30 30" style="enable-background:new 0 0 30 30;" xml:space="preserve">
<style type="text/css">
	.st0{fill:#0069B4;}
</style>
<title>services-blau</title>
<g>
	<g>
		<g>
			<path class="st0" d="M9.4,23.7c-0.1,0-0.1,0-0.2,0c-1-0.5-1.7-1.5-1.8-2.6c0-0.1,0-0.1,0-0.2c0.3-0.8,0.4-1.5,0.5-2.3
				c0-0.3,0-0.4-0.1-0.5c0,0-0.1,0-0.1-0.1c-0.1,0-0.1-0.1-0.2-0.1c-0.7-0.4-0.8-1.3-0.5-2c-0.2,0-0.3,0-0.5-0.1
				c-0.1,0-0.1-0.1-0.2-0.1c0,0.1,0,0.2-0.1,0.3c-0.2,0.2-0.4,0.3-0.5,0.3c-0.9,0.3-1.8,0.2-2.8-0.1c-0.1,0-0.2-0.1-0.3-0.2
				c-0.1-0.2-0.1-0.4-0.1-0.4c0,0-0.1-0.1-0.1-0.2l0-0.1c-0.3-0.5-0.2-0.8-0.1-1c0-0.1,0.1-0.1,0.1-0.2c0-0.1,0-0.2,0-0.4
				c0.1-0.3,0.4-0.4,0.5-0.5c0.3-0.1,0.5-0.3,0.6-0.5c0.1-0.2,0.4-0.3,0.6-0.2c0,0,0,0,0.1,0c0,0,0.1,0,0.1,0c0-0.1,0.1-0.1,0.1-0.2
				c0.1-0.3,0.2-0.8,0.9-0.9c0.3-0.1,0.6,0,0.8,0.1c0.1,0,0.2,0.1,0.2,0.1c0.3,0.1,0.6-0.1,0.8-0.3c0-0.1,0.1-0.1,0.1-0.2
				c0.2-0.3,0.4-0.8,1-0.7c0.2,0,0.3,0.1,0.4,0.1c0,0,0.1,0,0.1,0c0.2,0,0.4-0.1,0.7-0.3c0.1,0,0.1-0.1,0.2-0.1c1-0.5,2.2-0.5,3.2,0
				c0.2-0.5,0.5-0.9,0.8-1.2l-0.6-1c-0.1-0.1-0.1-0.3,0-0.5c0.1-0.1,0.2-0.2,0.4-0.2c0,0,0.1,0,0.2-0.1c0.1,0,0.2-0.1,0.3-0.1
				c0.2-0.1,0.5,0,0.8,0.1c0.5-0.2,1.2-0.1,2,0.1c0.2,0.1,0.4,0.1,0.6,0.2c0.5,0.2,0.9,0.3,1.3,0.3c0.1,0,0.2,0,0.2,0.1
				c0.5,0.4,0.3,1,0.2,1.3c0,0.2-0.1,0.2,0.7,0.5c0.4,0.1,0.8,0.2,1.1,0.5c0.1,0.1,0.1,0.1,0.2,0.2c0.1,0.1,0.1,0.1,0.2,0.2
				c0.3,0.2,0.7,0.2,1.4-0.1c0-0.3,0.1-0.6,0.2-0.9c0.1-0.2,0.3-0.3,0.5-0.3c0.1,0,0.3,0.1,0.4,0.1c0.1-0.3,0.2-0.7,0.5-0.9
				c0.3-0.2,0.7-0.3,1-0.3c0.3,0.1,0.5,0.3,0.7,0.5c0,0.1,0,0.1,0.1,0.2c0,0,0,0,0,0c0,0,0.1,0,0.1,0c0.2,0.1,0.5,0.2,0.6,0.5
				c0.1,0.2,0,0.4,0,0.5l-0.2,1.2c-0.1,0.3-0.1,0.8-0.4,1.1c0.1,0.2,0.1,0.4,0,0.6c-0.1,0.2-0.2,0.3-0.3,0.4c0,0,0,0-0.1,0.1
				c0,0,0,0.1,0,0.1l-0.1,0.3c-0.1,0.2-0.2,0.5-0.1,0.7c0.4,0.1,0.7,0.2,1.1,0.4c0.1,0.1,0.2,0.3,0.2,0.4c-0.1,0.6-0.2,1.1-0.6,1.6
				c-0.1,0.2-0.4,0.2-0.6,0.1c-0.3-0.2-0.6-0.3-0.9-0.3c0,0,0,0,0,0c-0.1,0.1-0.2,0.1-0.3,0.1c-0.4,0-0.9-0.2-1.1-0.5
				c-0.2,0-0.3-0.1-0.5-0.2c-0.1-0.1-0.2-0.3-0.2-0.5c0,0,0,0-0.1-0.1l0,0c0,0,0,0,0,0c-0.1,0-0.2,0-0.3,0c-0.2,0.1-0.4,0.1-0.6,0.1
				c-0.1,0.3-0.3,0.7-0.6,0.9l0,0c0,0,0,0-0.1,0.1c0,0,0,0.1,0,0.1c0,0.3-0.1,0.8,0,1.1C21,18,21,18,21,18.1c0,0,0.2,0,0.3,0
				c0.1,0,0.1,0,0.2,0c0.5,0,0.8,0.2,0.9,0.6c0.2,0.5-0.3,0.9-0.5,1c-0.1,0.1-0.2,0.2-0.3,0.2c0,0,0,0.1,0.3,0.4
				c0.7,0.6,0.6,1.1,0.4,1.5c-0.1,0.2-0.3,0.4-0.6,0.5c-0.5,0.2-1,0.2-1.5,0c-0.2-0.1-0.3-0.2-0.3-0.4c0-0.1,0.1-0.2,0.1-0.3
				c0,0-0.1-0.1-0.2-0.1c-0.1-0.1-0.2-0.2-0.4-0.3c-0.3-0.3-0.4-0.7-0.3-1.1c-0.1-0.1-0.1-0.1-0.2-0.2c0,0,0,0,0,0
				c-0.1,0.1-0.3,0-0.4-0.1c-0.1,0-0.2,0-0.6,0.2c-0.3,0.2-0.8,0.5-1.3,0.3c0,0.2-0.1,0.4-0.3,0.6c-0.2,0.2-0.4,0.2-0.6,0.2
				c-0.5,0.1-1.3,0.2-2-0.3c-0.3-0.2-0.5-0.5-0.7-0.7c-0.1-0.1-0.2-0.3-0.3-0.4l0,0c-0.1-0.1-0.2-0.2-0.3-0.4
				c-0.1-0.2-0.1-0.4-0.1-0.5l0-0.7c-0.1,0-0.2,0.1-0.4,0c-0.2,0-0.4-0.1-0.6-0.3c-0.1-0.1-0.1-0.1-0.1-0.2c-0.1,0-0.1,0-0.2,0
				c-0.1,0-0.1,0-0.2,0c0,0,0,0.1-0.1,0.2c0,0.1-0.1,0.3-0.2,0.5c0.1,0.1,0.2,0.2,0.2,0.3c0.1,0.2,0.1,0.5,0.1,0.6c0,0,0,0.1,0,0.1
				c0,0.1,0,0.2,0.1,0.3c0.1,0.1,0.1,0.3,0.1,0.5c0.1,0.5-0.2,0.9-0.3,1.2l-1.2,2.2C9.7,23.6,9.5,23.7,9.4,23.7z M8.2,21
				c0.1,0.6,0.5,1.2,1,1.6l1-1.8c0.1-0.3,0.3-0.5,0.2-0.7c0-0.1,0-0.2-0.1-0.3c-0.1-0.2-0.2-0.4-0.1-0.7c0-0.1,0-0.1,0-0.2
				c0,0,0,0,0-0.1c0,0,0,0,0,0c-0.1-0.1-0.4-0.3-0.4-0.7c0-0.2,0.1-0.3,0.2-0.4c0,0,0.1-0.2,0.1-0.3c0.1-0.2,0.1-0.5,0.4-0.7
				c0.3-0.2,0.6-0.2,0.8-0.1c0.1,0,0.2,0,0.2,0c0.1-0.1,0.3-0.1,0.5,0c0.1,0.1,0.2,0.2,0.2,0.4c0,0,0,0,0,0c0,0,0-0.1,0.1-0.1
				c0.2-0.4,0.6-0.6,1-0.4c0.1,0.1,0.2,0.1,0.2,0.3c0,0.1,0,0.2,0,0.3c0,0,0,0.1-0.1,0.1c0,0,0,0.1,0,0.1l0,1.3c0,0.1,0,0.1,0,0.2
				c0,0,0.1,0.1,0.1,0.1l0.1,0.1c0.2,0.2,0.3,0.3,0.4,0.5c0.2,0.2,0.3,0.4,0.5,0.5c0.3,0.2,0.8,0.2,1.4,0.1c0,0,0,0,0.1,0
				c0,0,0-0.1,0-0.1c0,0,0-0.1,0-0.1c0.1-0.5,0.4-0.8,0.8-0.7c0.1,0,0.2,0.1,0.3,0.1c0.2,0.1,0.5-0.1,0.7-0.2
				c0.5-0.3,0.9-0.4,1.2-0.3c0,0,0,0,0,0c0.3-0.1,0.6,0,0.8,0.2c0,0,0.1,0.1,0.1,0.1c0,0,0,0.1,0.1,0.1c0.1,0,0.2,0.1,0.3,0.2
				c0.1,0.1,0.1,0.3,0.1,0.4c-0.1,0.3,0,0.5,0.1,0.7c0,0,0.1,0.1,0.2,0.1c0.1,0.1,0.3,0.2,0.4,0.3c0.1,0.1,0.2,0.3,0.2,0.5
				c0.1,0,0.3,0,0.4-0.1c0.1,0,0.2-0.1,0.2-0.1c0,0,0-0.2-0.3-0.4c-0.2-0.2-0.8-0.8-0.5-1.4c0.1-0.3,0.3-0.5,0.5-0.6c0,0,0,0,0.1,0
				c-0.1,0-0.1,0-0.1,0c-0.4,0-1,0-1.2-0.8c-0.2-0.5-0.1-1.1,0-1.5c0-0.1,0-0.3,0.1-0.4c0.1-0.1,0.2-0.2,0.2-0.2l0,0
				c0.2-0.2,0.3-0.4,0.3-0.7c0-0.2,0.2-0.4,0.4-0.4c0,0,0,0,0,0c0.3,0,0.6-0.1,0.8-0.2c0.1-0.1,0.3-0.1,0.4,0
				c0.1-0.1,0.2-0.1,0.3-0.2c0.2,0,0.4,0,0.5,0.2l0.3,0.4c0.1,0.1,0.1,0.3,0,0.4c0.2,0.1,0.3,0.2,0.3,0.3c0,0.1,0.1,0.1,0.2,0.2
				c0.1-0.1,0.3-0.1,0.5-0.1c0.3,0,0.6,0.1,0.9,0.2c0.1-0.2,0.1-0.4,0.2-0.6c-0.2-0.1-0.5-0.2-0.7-0.2c-0.1,0-0.2-0.1-0.3-0.2
				c-0.4-0.6-0.2-1.3-0.1-1.6l0.1-0.3c0-0.1,0.1-0.2,0.2-0.3c0.1-0.1,0.1-0.2,0.2-0.2c0,0,0,0,0,0c0,0,0-0.1-0.1-0.1
				c-0.1-0.1-0.1-0.2-0.1-0.4c0-0.1,0.1-0.2,0.2-0.3c0.2-0.1,0.3-0.5,0.4-0.8l0.2-1.2c0,0,0,0,0,0c-0.2-0.1-0.4-0.1-0.5-0.3
				C25.1,9.3,25,9.2,25,9.1c0,0,0,0,0-0.1c0,0,0,0-0.1,0c-0.1,0-0.2,0-0.3,0.1c-0.2,0.2-0.3,0.5-0.3,0.8c0,0.2-0.2,0.4-0.4,0.4
				c-0.2,0-0.4,0-0.6,0c0,0.2-0.1,0.4,0,0.5c0,0.2-0.1,0.3-0.3,0.4c-0.5,0.2-1.7,0.8-2.6,0.1c-0.1-0.1-0.2-0.2-0.3-0.3
				c0-0.1-0.1-0.1-0.1-0.1c-0.1-0.1-0.4-0.2-0.7-0.3c-0.6-0.2-1.6-0.5-1.3-1.6c0-0.1,0.1-0.2,0.1-0.3c-0.5-0.1-0.9-0.2-1.3-0.4
				c-0.2-0.1-0.3-0.1-0.5-0.2c-0.7-0.2-1.3-0.2-1.7,0c-0.1,0.1-0.3,0.1-0.5,0c0,0,0,0,0,0l0.4,0.6c0.1,0.2,0.1,0.4-0.1,0.6
				c-0.5,0.4-0.8,1-1,1.7c0,0.1-0.2,0.3-0.3,0.3c-0.1,0-0.3,0-0.4-0.1c-0.7-0.6-1.9-0.7-2.7-0.3c-0.1,0-0.1,0.1-0.2,0.1
				c-0.4,0.2-0.8,0.5-1.4,0.3c-0.1,0-0.1,0-0.2-0.1c0,0-0.1,0-0.1,0C8,11.2,8,11.3,7.9,11.4c0,0.1-0.1,0.2-0.1,0.2
				c-0.3,0.5-1,0.8-1.7,0.7c-0.1,0-0.2-0.1-0.3-0.1c-0.1,0-0.3-0.1-0.4-0.1c-0.1,0-0.1,0-0.2,0.3c0,0.1-0.1,0.3-0.2,0.5
				c-0.1,0.2-0.5,0.5-0.9,0.5c-0.2,0.3-0.5,0.5-0.8,0.6c0,0.1,0,0.2,0,0.2c0,0.2-0.2,0.3-0.2,0.4c0,0,0,0,0,0.1l0,0.1
				c0.1,0.1,0.2,0.3,0.2,0.5c0.7,0.2,1.4,0.2,2.1,0c0,0,0-0.1,0-0.1c0.1-0.4,0.4-0.7,0.7-0.8c0.4,0,0.6,0.2,0.7,0.4
				c0.1,0,0.1,0,0.2,0c0.1,0,0.3,0,0.5,0.1c0.1,0,0.2,0.1,0.4,0.3c0.2,0.3,0,0.6,0,0.7c-0.2,0.4-0.2,0.9,0.1,1.1c0,0,0.1,0,0.1,0.1
				c0.1,0,0.2,0.1,0.3,0.2c0.4,0.4,0.4,1,0.4,1.2C8.7,19.4,8.5,20.2,8.2,21z M15.9,20.3L15.9,20.3L15.9,20.3z M19,19.8
				C19,19.8,19,19.8,19,19.8C19,19.8,19,19.8,19,19.8z M19.7,19.4C19.7,19.4,19.7,19.4,19.7,19.4C19.7,19.4,19.7,19.4,19.7,19.4z
				 M24.5,16.7L24.5,16.7L24.5,16.7z M25.7,9.7L25.7,9.7L25.7,9.7z"/>
		</g>
	</g>
</g>
</svg>
