<?xml version="1.0" encoding="utf-8"?>
<!-- Generator: Adobe Illustrator 21.0.0, SVG Export Plug-In . SVG Version: 6.00 Build 0)  -->
<!DOCTYPE svg PUBLIC "-//W3C//DTD SVG 1.1//EN" "http://www.w3.org/Graphics/SVG/1.1/DTD/svg11.dtd">
<svg version="1.1" id="Ebene_1" xmlns="http://www.w3.org/2000/svg" xmlns:xlink="http://www.w3.org/1999/xlink" x="0px" y="0px"
	 width="30px" height="30px" viewBox="0 0 30 30" style="enable-background:new 0 0 30 30;" xml:space="preserve">
<style type="text/css">
	.st0{fill:#0069B4;}
</style>
<title>services-blau</title>
<g>
	<path class="st0" d="M25.4,24H4.6c-1.1,0-2.1-0.9-2.1-2.1V10.6c0-1.1,0.9-2.1,2.1-2.1h7.3l2.4-2.4C14.4,6,14.5,6,14.7,6h6
		c0.1,0,0.2,0,0.3,0.1l2.4,2.4h2c1.1,0,2.1,0.9,2.1,2.1v11.3C27.5,23.1,26.5,24,25.4,24z M4.6,9.4C4,9.4,3.4,10,3.4,10.6v11.3
		c0,0.7,0.5,1.2,1.2,1.2h20.8c0.7,0,1.2-0.5,1.2-1.2V10.6c0-0.7-0.5-1.2-1.2-1.2h-2.2c-0.1,0-0.2,0-0.3-0.1l-2.4-2.4h-5.6l-2.4,2.4
		c-0.1,0.1-0.2,0.1-0.3,0.1H4.6z"/>
</g>
<g>
	<path class="st0" d="M6.9,15c-1.2,0-2.1-1-2.1-2.1c0-1.2,1-2.1,2.1-2.1s2.1,1,2.1,2.1C9,14,8,15,6.9,15z M6.9,11.7
		c-0.7,0-1.2,0.5-1.2,1.2c0,0.7,0.5,1.2,1.2,1.2s1.2-0.5,1.2-1.2C8.1,12.2,7.5,11.7,6.9,11.7z"/>
</g>
<g>
	<path class="st0" d="M8.5,9.4H5.2C5,9.4,4.8,9.1,4.8,8.9c0-1.2,1-2.1,2.1-2.1S9,7.7,9,8.9C9,9.1,8.8,9.4,8.5,9.4z M5.7,8.4H8
		C7.8,8,7.4,7.7,6.9,7.7S5.9,8,5.7,8.4z"/>
</g>
<g>
	<path class="st0" d="M17.7,19.3c-1.9,0-3.5-1.5-3.5-3.5c0-1.9,1.5-3.5,3.5-3.5s3.5,1.5,3.5,3.5C21.1,17.8,19.6,19.3,17.7,19.3z
		 M17.7,13.3c-1.4,0-2.6,1.1-2.6,2.5c0,1.4,1.1,2.6,2.6,2.6s2.5-1.1,2.5-2.6C20.2,14.5,19.1,13.3,17.7,13.3z"/>
</g>
<g>
	<path class="st0" d="M17.7,22.1c-3.4,0-6.2-2.8-6.2-6.2s2.8-6.2,6.2-6.2c3.4,0,6.2,2.8,6.2,6.2S21.1,22.1,17.7,22.1z M17.7,10.6
		c-2.9,0-5.3,2.4-5.3,5.3s2.4,5.3,5.3,5.3c2.9,0,5.3-2.4,5.3-5.3S20.6,10.6,17.7,10.6z"/>
</g>
</svg>
