<svg id="Ebene_1" data-name="Ebene 1" xmlns="http://www.w3.org/2000/svg" viewBox="0 0 100 100"><defs><style>.cls-1{fill:#0069b4;}</style></defs><title>news-blau</title><path class="cls-1" d="M81.8,13.3H31.6a8.24,8.24,0,0,0-8.2,8.2v5.1H18.3a8.24,8.24,0,0,0-8.2,8.2V78.3a8.24,8.24,0,0,0,8.2,8.2H80.2a1.09,1.09,0,0,0,.5-.1h0a4.48,4.48,0,0,0,1.1.1A8.24,8.24,0,0,0,90,78.3V21.6A8.26,8.26,0,0,0,81.8,13.3ZM18.2,83.6a5.12,5.12,0,0,1-5.1-5.1V35a5.12,5.12,0,0,1,5.1-5.1H68.4A5.12,5.12,0,0,1,73.5,35V78.5a7.88,7.88,0,0,0,1.7,4.9l.2.2Zm68.7-5.2a5.1,5.1,0,0,1-10.2,0V35a8.24,8.24,0,0,0-8.2-8.2h-42V21.7a5.12,5.12,0,0,1,5.1-5.1H81.8a5.12,5.12,0,0,1,5.1,5.1Z"/><path class="cls-1" d="M65,38.2H21.6a1.5,1.5,0,0,0,0,3H65a1.47,1.47,0,0,0,1.5-1.5A1.42,1.42,0,0,0,65,38.2Z"/><path class="cls-1" d="M65,71.6H21.6a1.47,1.47,0,0,0-1.5,1.5,1.54,1.54,0,0,0,1.5,1.5H65a1.5,1.5,0,0,0,0-3Z"/><path class="cls-1" d="M21.6,64.7H45a1.47,1.47,0,0,0,1.5-1.5V49.8A1.47,1.47,0,0,0,45,48.3H21.6a1.47,1.47,0,0,0-1.5,1.5V63.2A1.42,1.42,0,0,0,21.6,64.7Zm1.5-13.4H43.4V61.6H23.1Z"/><path class="cls-1" d="M65,48.2H51.7a1.47,1.47,0,0,0-1.5,1.5,1.54,1.54,0,0,0,1.5,1.5H65a1.5,1.5,0,0,0,0-3Z"/><path class="cls-1" d="M65,61.6H51.7a1.47,1.47,0,0,0-1.5,1.5,1.54,1.54,0,0,0,1.5,1.5H65a1.5,1.5,0,0,0,0-3Z"/></svg>