<svg id="Ebene_1" data-name="Ebene 1" xmlns="http://www.w3.org/2000/svg" viewBox="0 0 100 100"><defs><style>.cls-1{fill:#0069b4;}</style></defs><title>polizeimeldungen-blau</title><path class="cls-1" d="M80.3,70.1c-2.6-2.8-9.3-5.6-20.1-8.3V56.3a35.67,35.67,0,0,0,3-5.5,2.15,2.15,0,0,0,1.5-.4c1.4-.9,2.3-3.2,2.7-5,.6-3,.3-6.2-1.8-6.7h-.1a30,30,0,0,0-.9-6.5V29.8c5.1-2.1,8.1-5.2,8.1-8.6C72.6,14.9,62.7,10,50,10S27.4,14.9,27.4,21.1c0,3.4,2.9,6.5,8.1,8.6v2.1a23.75,23.75,0,0,0-1.1,6.9h-.1c-2.1.5-2.5,3.7-1.8,6.7A9.59,9.59,0,0,0,34,49.1a3,3,0,0,0,2.7,1.7,30.93,30.93,0,0,0,3.1,5.7v5.3c-10.7,2.7-17.5,5.5-20.1,8.3-3.3,3.6-4.7,17-4.9,18.5a1.4,1.4,0,0,0,.3.9,1.62,1.62,0,0,0,.9.5H84a1.09,1.09,0,0,0,.9-.4,1.61,1.61,0,0,0,.3-.9C85,87.1,83.6,73.7,80.3,70.1ZM67.6,66.7c0-.1,0-.1.1-.1h.1a52.91,52.91,0,0,1,7.6,2.7c.3.1.7.3.7.7l.1.1c-.2.4-.3.8-.5,1.2-.2.6-.3,1.1-1.1,1a3.18,3.18,0,0,1-.9-.3,37.27,37.27,0,0,0-3.5-1.6l-1.8-.6c-.2-.1-1.7-.7-1.6-.8A7.8,7.8,0,0,1,67.6,66.7Zm-5.8-2-5.5,8.5L52,69.3c1.8-1.3,6.1-4.3,7.5-5.2C60.2,64.3,61,64.5,61.8,64.7Zm-32-43.6c0-4.7,9.2-8.7,20.2-8.7s20.2,4,20.2,8.7c0,2.1-2,4.3-5.6,5.9V25a1.27,1.27,0,0,0-.4-.9C64,24,60.4,21,49.9,21s-13.8,2.8-14.1,3.1a1.27,1.27,0,0,0-.4.9v2C31.9,25.4,29.8,23.3,29.8,21.1Zm8,8.9a7.44,7.44,0,0,1,0-1.5c0-.6.1-1.1.1-1.7s0-.9.4-1.2a2.38,2.38,0,0,1,1.1-.6,18.73,18.73,0,0,1,3.2-.8A41,41,0,0,1,57,24.1c1,.2,2,.4,3,.7.7.2,1.9.4,2.2,1.2a12.5,12.5,0,0,1,.3,1.9,6.69,6.69,0,0,1,0,2,.9.9,0,0,1-.1.5c-.2.5-1,.3-1.4.3H39.4a4,4,0,0,1-1.1,0A.61.61,0,0,1,37.8,30Zm.6,18.6h0a1.33,1.33,0,0,0-1-.8h-.1a1.39,1.39,0,0,0-1,.5A6.63,6.63,0,0,1,34.8,45a8.53,8.53,0,0,1-.1-3.6,1.26,1.26,0,0,0,1.3.2,1.36,1.36,0,0,0,.7-1.1v-.4a27.47,27.47,0,0,1,.4-5.2C39.4,38,44.3,40,49.9,40c5.4,0,10.3-1.9,12.6-4.9a25.32,25.32,0,0,1,.4,5v.4a1.23,1.23,0,0,0,.7,1.1,1.5,1.5,0,0,0,1.3-.1,6.72,6.72,0,0,1,0,3.6,9.65,9.65,0,0,1-1.4,3.4,1.61,1.61,0,0,0-1.1-.5,1.08,1.08,0,0,0-1,.8,26.66,26.66,0,0,1-3.2,6.3c-2.5,3.5-5.4,5.5-8.3,5.5-3.4,0-6.1-2.7-7.8-4.9l-.2-.2c0-.1-.1-.1-.1-.2A32.46,32.46,0,0,1,38.4,48.6Zm2.2,15.5c.9.8,3,2.3,7.4,5.3l-4.3,3.9-6.1-8.4C38.6,64.6,39.6,64.4,40.6,64.1Zm-16,5.5a21,21,0,0,1,3-1.5c1.4-.6,2.9-1,4.4-1.5l.9,2.3c.1.2-5.2,2.2-5.7,2.3-.1.1-2.8,1.1-2.8,1.1-.1-.2-.9-2-.9-2.1A10.91,10.91,0,0,1,24.6,69.6Zm22.9,18H17.4c.6-5,2.1-13.6,4.1-15.7l1.1,2.6a1.31,1.31,0,0,0,1.6.7l10.7-4.3a1.31,1.31,0,0,0,.7-1.6L34.3,66a2.35,2.35,0,0,1,.8-.2l7.4,10.3a1.05,1.05,0,0,0,.9.5h.1a1.14,1.14,0,0,0,.8-.3l3.2-2.9,1,2ZM42.2,62.3v-3A11.17,11.17,0,0,0,50,62.8c2.7,0,5.3-1.3,7.8-3.7v3.1c-1,.7-3.1,2.1-7.8,5.5C46.9,65.7,43.4,63.2,42.2,62.3ZM52.5,87.6l-1-12.4,1-2,3.2,2.9a1.21,1.21,0,0,0,1,.3,1,1,0,0,0,.9-.6l6.7-10.4c.4.1.8.2,1.1.3L64,69.1a1.35,1.35,0,0,0,.7,1.6L75.4,75a1.35,1.35,0,0,0,1.6-.7l1.2-2.8.2.2c2,2.2,3.5,10.7,4.1,15.8h-30Z"/></svg>