<?xml version="1.0" encoding="utf-8"?>
<!-- Generator: Adobe Illustrator 21.0.0, SVG Export Plug-In . SVG Version: 6.00 Build 0)  -->
<!DOCTYPE svg PUBLIC "-//W3C//DTD SVG 1.1//EN" "http://www.w3.org/Graphics/SVG/1.1/DTD/svg11.dtd">
<svg version="1.1" id="Ebene_1" xmlns="http://www.w3.org/2000/svg" xmlns:xlink="http://www.w3.org/1999/xlink" x="0px" y="0px"
	 width="30px" height="30px" viewBox="0 0 30 30" style="enable-background:new 0 0 30 30;" xml:space="preserve">
<style type="text/css">
	.st0{fill:#0069B4;}
</style>
<title>services-blau</title>
<g>
	<g>
		<path class="st0" d="M15.2,26.8H2.9c-0.2,0-0.5-0.2-0.5-0.5V9.3c0-0.2,0.2-0.5,0.5-0.5h12.3c0.2,0,0.5,0.2,0.5,0.5v17.1
			C15.7,26.6,15.5,26.8,15.2,26.8z M3.4,25.9h11.4V9.7H3.4V25.9z"/>
	</g>
	<g>
		<path class="st0" d="M27,26.8c-0.2,0-0.3-0.1-0.4-0.3l-2.7-5.6l-2.5,5.6c-0.1,0.2-0.2,0.3-0.4,0.3c-0.2,0-0.3-0.1-0.4-0.3
			l-2.7-5.6l-2.2,5.6c-0.1,0.2-0.3,0.3-0.5,0.3c-0.2,0-0.4-0.2-0.4-0.4V9.3c0-0.1,0-0.1,0-0.2l2.6-6.3c0.1-0.2,0.2-0.3,0.4-0.3
			c0.2,0,0.3,0.1,0.4,0.3L21,8.2l2.5-5.4c0.1-0.2,0.2-0.3,0.4-0.3c0.2,0,0.3,0.1,0.4,0.3l3.1,6.3c0,0.1,0,0.1,0,0.2v17.1
			C27.5,26.5,27.3,26.7,27,26.8C27.1,26.8,27,26.8,27,26.8z M17.9,19.4c0.2,0,0.3,0.1,0.4,0.3l2.7,5.6l2.5-5.6
			c0.1-0.2,0.2-0.3,0.4-0.3c0,0,0,0,0,0c0.2,0,0.3,0.1,0.4,0.3l2.2,4.7v-15L23.9,4l-2.5,5.4c-0.1,0.2-0.2,0.3-0.4,0.3
			c-0.2,0-0.3-0.1-0.4-0.3l-2.7-5.4l-2.2,5.3V24l1.8-4.4C17.5,19.5,17.7,19.4,17.9,19.4C17.9,19.4,17.9,19.4,17.9,19.4z"/>
	</g>
	<g>
		<path class="st0" d="M17.9,20.3c-0.2,0-0.5-0.2-0.5-0.5V3c0-0.2,0.2-0.5,0.5-0.5c0.2,0,0.5,0.2,0.5,0.5v16.8
			C18.3,20.1,18.1,20.3,17.9,20.3z"/>
	</g>
	<g>
		<path class="st0" d="M23.9,20.3c-0.2,0-0.5-0.2-0.5-0.5V3c0-0.2,0.2-0.5,0.5-0.5s0.5,0.2,0.5,0.5v16.8
			C24.4,20.1,24.2,20.3,23.9,20.3z"/>
	</g>
	<g>
		<path class="st0" d="M21,26.8c-0.2,0-0.5-0.2-0.5-0.5V9.3c0-0.2,0.2-0.5,0.5-0.5c0.2,0,0.5,0.2,0.5,0.5v17.1
			C21.5,26.6,21.3,26.8,21,26.8z"/>
	</g>
</g>
<g>
	<path class="st0" d="M5.5,17.8v-0.4c0.4,0,0.7-0.1,0.7-0.5h0.5v2.5H6.1v-1.5H5.5z"/>
	<path class="st0" d="M8.3,18.1H7.6v-0.7h0.7V18.1z M7.6,18.7h0.7v0.7H7.6V18.7z"/>
	<path class="st0" d="M9.2,18.6c0,0.2,0.2,0.3,0.4,0.3c0.2,0,0.4-0.2,0.4-0.4c0-0.2-0.1-0.4-0.4-0.4c-0.2,0-0.3,0-0.4,0.2H8.7
		l0.2-1.4h1.6v0.5H9.4l-0.1,0.5h0c0.1-0.1,0.3-0.2,0.5-0.2c0.5,0,0.8,0.3,0.8,0.8c0,0.6-0.4,0.9-1,0.9c-0.5,0-1-0.2-1-0.8H9.2z"/>
	<path class="st0" d="M10.9,18.1c0-0.7,0.3-1.3,1-1.3c0.7,0,1,0.6,1,1.3c0,0.7-0.3,1.3-1,1.3C11.1,19.4,10.9,18.7,10.9,18.1z
		 M12.3,18.1c0-0.3,0-0.8-0.4-0.8c-0.4,0-0.4,0.5-0.4,0.8c0,0.3,0,0.8,0.4,0.8C12.3,18.9,12.3,18.4,12.3,18.1z"/>
</g>
</svg>
