<?xml version="1.0" encoding="utf-8"?>
<!-- Generator: Adobe Illustrator 21.0.0, SVG Export Plug-In . SVG Version: 6.00 Build 0)  -->
<!DOCTYPE svg PUBLIC "-//W3C//DTD SVG 1.1//EN" "http://www.w3.org/Graphics/SVG/1.1/DTD/svg11.dtd">
<svg version="1.1" id="Ebene_1" xmlns="http://www.w3.org/2000/svg" xmlns:xlink="http://www.w3.org/1999/xlink" x="0px" y="0px"
	 width="30px" height="30px" viewBox="0 0 30 30" style="enable-background:new 0 0 30 30;" xml:space="preserve">
<style type="text/css">
	.st0{fill:#0069B4;}
</style>
<title>services-blau</title>
<g>
	<g>
		<path class="st0" d="M8.6,13.3v8.4h4.8v-5.1h3.2v5.1h4.8v-8.4L15,9.5L8.6,13.3z M20.7,21h-3.4v-5.1h-4.6V21H9.4v-7.3l5.7-3.4
			l5.7,3.4V21z"/>
	</g>
	<g>
		<polygon class="st0" points="15,7.9 5.3,13.7 5.6,14.3 15,8.8 24.4,14.3 24.8,13.7 		"/>
	</g>
	<g>
		<polygon class="st0" points="19.7,8.7 20.7,8.7 20.7,10.7 21.4,10.7 21.4,8 19,8 19,9.5 19.7,9.5 		"/>
	</g>
</g>
<g>
	<g>
		<path class="st0" d="M17,27.2c-0.2,0-0.3-0.1-0.4-0.3c0-0.2,0.1-0.4,0.3-0.4c5.6-0.9,9.7-5.8,9.7-11.5c0-6.1-4.8-11.2-10.8-11.7
			c-0.2,0-0.4-0.2-0.3-0.4c0-0.2,0.2-0.4,0.4-0.3C22.3,3,27.4,8.5,27.4,15C27.4,21.1,23,26.2,17,27.2C17,27.2,17,27.2,17,27.2z"/>
	</g>
	<g>
		<g>
			<polygon class="st0" points="18.3,25.4 17.2,26.8 18.6,27.9 17.6,28.1 16.1,27 17.2,25.5 			"/>
		</g>
	</g>
</g>
<g>
	<g>
		<path class="st0" d="M13.8,27.3C13.8,27.3,13.8,27.3,13.8,27.3C7.4,26.7,2.6,21.4,2.6,15c0-5.9,4.2-11.1,10-12.2
			c0.2,0,0.4,0.1,0.4,0.3c0,0.2-0.1,0.4-0.3,0.4C7.3,4.5,3.4,9.4,3.4,15C3.4,21,7.9,26,13.9,26.6c0.2,0,0.4,0.2,0.3,0.4
			C14.2,27.2,14,27.3,13.8,27.3z"/>
	</g>
	<g>
		<g>
			<polygon class="st0" points="11.4,4.6 12.5,3.2 11,2.1 12.1,1.9 13.6,3 12.5,4.5 			"/>
		</g>
	</g>
</g>
</svg>
