<?xml version="1.0" encoding="utf-8"?>
<!-- Generator: Adobe Illustrator 21.0.0, SVG Export Plug-In . SVG Version: 6.00 Build 0)  -->
<!DOCTYPE svg PUBLIC "-//W3C//DTD SVG 1.1//EN" "http://www.w3.org/Graphics/SVG/1.1/DTD/svg11.dtd">
<svg version="1.1" id="Ebene_1" xmlns="http://www.w3.org/2000/svg" xmlns:xlink="http://www.w3.org/1999/xlink" x="0px" y="0px"
	 width="30px" height="30px" viewBox="0 0 30 30" style="enable-background:new 0 0 30 30;" xml:space="preserve">
<style type="text/css">
	.st0{fill:#0069B4;}
</style>
<title>services-blau</title>
<g>
	<g>
		<path class="st0" d="M22.6,22.2H11.4c-0.2,0-0.4-0.2-0.5-0.4l-4-16.5H3c-0.3,0-0.5-0.2-0.5-0.5c0-0.3,0.2-0.5,0.5-0.5h4.3
			c0.2,0,0.4,0.2,0.5,0.4l4,16.5h10.8c0.3,0,0.5,0.2,0.5,0.5C23.1,21.9,22.9,22.2,22.6,22.2z"/>
	</g>
	<g>
		<path class="st0" d="M11.3,25.7c-1.2,0-2.3-1-2.3-2.3c0-1.2,1-2.3,2.3-2.3s2.3,1,2.3,2.3C13.5,24.7,12.5,25.7,11.3,25.7z
			 M11.3,22.2c-0.7,0-1.3,0.6-1.3,1.3c0,0.7,0.6,1.3,1.3,1.3c0.7,0,1.3-0.6,1.3-1.3C12.5,22.7,12,22.2,11.3,22.2z"/>
	</g>
	<g>
		<path class="st0" d="M22.6,25.7c-1.2,0-2.3-1-2.3-2.3c0-1.2,1-2.3,2.3-2.3s2.3,1,2.3,2.3C24.9,24.7,23.9,25.7,22.6,25.7z
			 M22.6,22.2c-0.7,0-1.3,0.6-1.3,1.3c0,0.7,0.6,1.3,1.3,1.3s1.3-0.6,1.3-1.3C23.9,22.7,23.3,22.2,22.6,22.2z"/>
	</g>
	<g>
		<path class="st0" d="M23.8,20h-13c-0.3,0-0.5-0.2-0.5-0.5c0-0.3,0.2-0.5,0.5-0.5h12.6l2.8-7.5H8.8c-0.3,0-0.5-0.2-0.5-0.5
			s0.2-0.5,0.5-0.5H27c0.2,0,0.3,0.1,0.4,0.2c0.1,0.1,0.1,0.3,0.1,0.5l-3.2,8.5C24.2,19.9,24,20,23.8,20z"/>
	</g>
</g>
</svg>
