<svg id="Ebene_1" data-name="Ebene 1" xmlns="http://www.w3.org/2000/svg" viewBox="0 0 100 100"><defs><style>.cls-1{fill:#0069b4;}</style></defs><title>steuerrechner-blau</title><path class="cls-1" d="M69.2,10H30.8a10,10,0,0,0-10,10V80a10,10,0,0,0,10,10H69.2a10,10,0,0,0,10-10V20A10,10,0,0,0,69.2,10Zm7,10V80a6.94,6.94,0,0,1-7,6.9H30.8a6.94,6.94,0,0,1-7-6.9V20a6.94,6.94,0,0,1,7-6.9H69.2A6.94,6.94,0,0,1,76.2,20Z"/><path class="cls-1" d="M30,22.8V36.6H70V22.8Zm3.1,10.8V25.9H67v7.7Z"/><path class="cls-1" d="M37.2,42.1a5,5,0,0,0-3.5,1.4A5.09,5.09,0,0,0,32.2,47a4.69,4.69,0,0,0,1.5,3.5,5.07,5.07,0,0,0,7,0A5.09,5.09,0,0,0,42.2,47a4.69,4.69,0,0,0-1.5-3.5A5,5,0,0,0,37.2,42.1ZM39.1,47a1.61,1.61,0,0,1-.6,1.3,2,2,0,0,1-2.7,0,1.76,1.76,0,0,1-.6-1.3,1.61,1.61,0,0,1,.6-1.3,1.82,1.82,0,0,1,1.4-.6A2.07,2.07,0,0,1,39.1,47Z"/><path class="cls-1" d="M53.5,43.5a5.07,5.07,0,0,0-7,0A5.09,5.09,0,0,0,45,47a4.69,4.69,0,0,0,1.5,3.5,5.07,5.07,0,0,0,7,0,4.83,4.83,0,0,0,0-7ZM51.9,47a1.61,1.61,0,0,1-.6,1.3,2,2,0,0,1-2.7,0A1.76,1.76,0,0,1,48,47a1.61,1.61,0,0,1,.6-1.3,1.82,1.82,0,0,1,1.4-.6A2.07,2.07,0,0,1,51.9,47Z"/><path class="cls-1" d="M62.8,51.9a5,5,0,0,0,3.5-1.4A5.09,5.09,0,0,0,67.8,47a4.69,4.69,0,0,0-1.5-3.5,5.07,5.07,0,0,0-7,0A5.09,5.09,0,0,0,57.8,47a4.69,4.69,0,0,0,1.5,3.5A5,5,0,0,0,62.8,51.9ZM60.9,47a1.61,1.61,0,0,1,.6-1.3,1.82,1.82,0,0,1,1.4-.6,1.61,1.61,0,0,1,1.3.6,1.76,1.76,0,0,1,.6,1.3,1.61,1.61,0,0,1-.6,1.3,2,2,0,0,1-2.7,0A1.61,1.61,0,0,1,60.9,47Z"/><path class="cls-1" d="M37.2,54.8a5,5,0,0,0-3.5,1.4,5.09,5.09,0,0,0-1.5,3.5,4.85,4.85,0,0,0,1.5,3.5,5.08,5.08,0,0,0,7,0,5.09,5.09,0,0,0,1.5-3.5,4.69,4.69,0,0,0-1.5-3.5A5,5,0,0,0,37.2,54.8Zm1.9,4.9a1.61,1.61,0,0,1-.6,1.3,2,2,0,0,1-2.7,0,1.76,1.76,0,0,1-.6-1.3,1.61,1.61,0,0,1,.6-1.3,1.82,1.82,0,0,1,1.4-.6,2.07,2.07,0,0,1,1.9,1.9Z"/><path class="cls-1" d="M50,54.8a5,5,0,0,0-3.5,1.4A5.09,5.09,0,0,0,45,59.7a4.85,4.85,0,0,0,1.5,3.5,5.08,5.08,0,0,0,7,0A5.09,5.09,0,0,0,55,59.7a4.69,4.69,0,0,0-1.5-3.5A5,5,0,0,0,50,54.8Zm1.9,4.9a1.61,1.61,0,0,1-.6,1.3,2,2,0,0,1-2.7,0,1.76,1.76,0,0,1-.6-1.3,1.61,1.61,0,0,1,.6-1.3,1.82,1.82,0,0,1,1.4-.6,2,2,0,0,1,1.4.6A1.9,1.9,0,0,1,51.9,59.7Z"/><path class="cls-1" d="M62.8,54.8a5,5,0,0,0-3.5,1.4,5.09,5.09,0,0,0-1.5,3.5,4.69,4.69,0,0,0,1.5,3.5,5.08,5.08,0,0,0,7,0,5.09,5.09,0,0,0,1.5-3.5,4.69,4.69,0,0,0-1.5-3.5A5,5,0,0,0,62.8,54.8Zm1.9,4.9a1.61,1.61,0,0,1-.6,1.3h0a2,2,0,0,1-2.7,0,1.76,1.76,0,0,1-.6-1.3,1.61,1.61,0,0,1,.6-1.3,1.82,1.82,0,0,1,1.4-.6,2.07,2.07,0,0,1,1.9,1.9Z"/><path class="cls-1" d="M37.2,67.5a5,5,0,0,0-3.5,1.4,5.09,5.09,0,0,0-1.5,3.5,4.85,4.85,0,0,0,1.5,3.5,5.07,5.07,0,0,0,7,0,5.09,5.09,0,0,0,1.5-3.5,4.69,4.69,0,0,0-1.5-3.5A5,5,0,0,0,37.2,67.5Zm1.9,4.9a1.61,1.61,0,0,1-.6,1.3,2,2,0,0,1-2.7,0,1.76,1.76,0,0,1-.6-1.3,1.61,1.61,0,0,1,.6-1.3,1.82,1.82,0,0,1,1.4-.6,2.07,2.07,0,0,1,1.9,1.9Z"/><path class="cls-1" d="M50,67.5a5,5,0,0,0-3.5,1.4A5.09,5.09,0,0,0,45,72.4a4.85,4.85,0,0,0,1.5,3.5,5.07,5.07,0,0,0,7,0A5.09,5.09,0,0,0,55,72.4a4.69,4.69,0,0,0-1.5-3.5A5,5,0,0,0,50,67.5Zm1.4,6.2a2,2,0,0,1-2.7,0,1.76,1.76,0,0,1-.6-1.3,1.61,1.61,0,0,1,.6-1.3,1.82,1.82,0,0,1,1.4-.6,1.61,1.61,0,0,1,1.3.6,1.76,1.76,0,0,1,.6,1.3A3.1,3.1,0,0,1,51.4,73.7Z"/><path class="cls-1" d="M62.8,67.5a5,5,0,0,0-3.5,1.4,5.09,5.09,0,0,0-1.5,3.5,4.69,4.69,0,0,0,1.5,3.5,5.08,5.08,0,0,0,7,0,5.09,5.09,0,0,0,1.5-3.5,4.69,4.69,0,0,0-1.5-3.5A5,5,0,0,0,62.8,67.5Zm1.3,6.2h0a2,2,0,0,1-2.7,0,1.76,1.76,0,0,1-.6-1.3,1.61,1.61,0,0,1,.6-1.3,1.82,1.82,0,0,1,1.4-.6,1.61,1.61,0,0,1,1.3.6,1.71,1.71,0,0,1,0,2.6Z"/></svg>