<svg id="Ebene_1" data-name="Ebene 1" xmlns="http://www.w3.org/2000/svg" viewBox="0 0 100 100"><defs><style>.cls-1{fill:#0069b4;}</style></defs><title>stipendien-blau</title><path class="cls-1" d="M89.9,28.4a7,7,0,0,0-7-7H69.8a5.87,5.87,0,0,0-4.6-5.2A6,6,0,0,0,59.9,18a5.75,5.75,0,0,0-4.3-1.9A5.91,5.91,0,0,0,51.3,18,5.75,5.75,0,0,0,47,16.1,5.91,5.91,0,0,0,42.7,18a5.54,5.54,0,0,0-5.3-1.8,5.65,5.65,0,0,0-4.6,5.2H17.4a7.26,7.26,0,0,0-5.2,2.2A7.49,7.49,0,0,0,10,28.9l.1,21a8,8,0,0,0,8,8h6.6v.9a8.46,8.46,0,0,0,6.7,8.3.88.88,0,0,1,.7.6v2.4H30V83.7H67.5V70.2h-2a5.81,5.81,0,0,1,1.7-3.5,8.77,8.77,0,0,0,2.7-6.1V58H82.7a7.26,7.26,0,0,0,5.2-2.2,7.44,7.44,0,0,0,2.2-5.2ZM69.8,24.3H82.3A4.69,4.69,0,0,1,87,29l.1,21.2A4.78,4.78,0,0,1,82.3,55H69.8ZM64.7,81H32.8V73H64.7ZM34.9,70.2V67.4a3.85,3.85,0,0,0-3-3,5.6,5.6,0,0,1-4.4-5.6v-.9h8.2v-36a3.21,3.21,0,0,1,1-2.2,2.81,2.81,0,0,1,2.3-.6,3.14,3.14,0,0,1,2.3,3V39h2.8V21.9a3.21,3.21,0,0,1,1-2.2,2.81,2.81,0,0,1,2.3-.6,3.14,3.14,0,0,1,2.3,3V39h2.8V21.9a3.21,3.21,0,0,1,1-2.2,2.81,2.81,0,0,1,2.3-.6,3.14,3.14,0,0,1,2.3,3V39h2.8V21.9a3.21,3.21,0,0,1,1-2.2,2.81,2.81,0,0,1,2.3-.6,3.14,3.14,0,0,1,2.3,3V60.2a6,6,0,0,1-1.7,4.3,8.77,8.77,0,0,0-2.7,5.7ZM32.9,55H17.8A4.8,4.8,0,0,1,13,50.2l-.1-21a4.78,4.78,0,0,1,4.8-4.8H32.9Z"/></svg>