<svg id="Ebene_1" data-name="Ebene 1" xmlns="http://www.w3.org/2000/svg" viewBox="0 0 100 100"><defs><style>.cls-1{fill:#0069b4;}</style></defs><title>strassenzustand-blau</title><g id="road-7"><path class="cls-1" d="M50,24.6h0A1.56,1.56,0,0,0,51.5,23V13.2A1.56,1.56,0,0,0,50,11.6h0a1.56,1.56,0,0,0-1.5,1.6V23A1.63,1.63,0,0,0,50,24.6Z"/><path class="cls-1" d="M50,54h0a1.56,1.56,0,0,0,1.5-1.6V39.3A1.56,1.56,0,0,0,50,37.7h0a1.56,1.56,0,0,0-1.5,1.6V52.4A1.56,1.56,0,0,0,50,54Z"/><path class="cls-1" d="M50,90h0a1.56,1.56,0,0,0,1.5-1.6V68.7A1.56,1.56,0,0,0,50,67.1h0a1.56,1.56,0,0,0-1.5,1.6V88.3A1.59,1.59,0,0,0,50,90Z"/></g><path class="cls-1" d="M87.6,90a1.5,1.5,0,0,1-1.4-1l-26-77.1a1.42,1.42,0,0,1,2.7-.9l26,77.1a1.38,1.38,0,0,1-.9,1.8C87.9,90,87.8,90,87.6,90Z"/><path class="cls-1" d="M12.4,90a.9.9,0,0,1-.5-.1,1.38,1.38,0,0,1-.9-1.8L37,11a1.42,1.42,0,0,1,2.7.9L13.8,89A1.5,1.5,0,0,1,12.4,90Z"/></svg>