<svg id="Ebene_1" data-name="Ebene 1" xmlns="http://www.w3.org/2000/svg" viewBox="0 0 100 100"><defs><style>.cls-1{fill:#0069b4;}</style></defs><title>waldbrandgefahr-blau</title><path class="cls-1" d="M28.6,87.5c-7.2,0-12.8-2.5-15.9-6.9-3.2-4.6-3.5-11-.9-18,4-10.8,6.6-13.8,6.7-13.9a1.47,1.47,0,0,1,1.4-.5,1.67,1.67,0,0,1,1.1.9c.1.2,1,2.7,1.8,5.2,1.2-4.3,3-11.6,4.5-18.4a1.39,1.39,0,0,1,1.4-1.1,1.41,1.41,0,0,1,1.4,1.1c1.9,7.6,4.2,15.9,5.8,20.3.1-2.5,0-5.8-.1-8.8a1.5,1.5,0,0,1,1-1.4,1.57,1.57,0,0,1,1.7.5c.5.6,11.5,15.3,11.3,23-.4,11.5-6.7,17.3-19.4,18ZM19.2,52.9a71.33,71.33,0,0,0-4.7,10.6c-2.3,6.1-2.1,11.6.6,15.4s7.3,5.7,13.5,5.7h1.6c14.4-.7,16.4-8.5,16.6-15.1.1-4.3-4.4-12-7.9-17.2,0,3.6-.1,7.5-.7,8.8a1.78,1.78,0,0,1-1.6,1c-1.3,0-2.1-1.1-3.4-4.8-.7-2-1.6-4.9-2.6-8.4-.6-2.2-1.2-4.4-1.7-6.4-.4,1.7-.9,3.6-1.3,5.5q-1.2,4.95-2.1,7.8c-1,3.4-1.4,4.6-2.7,4.6h0a1.56,1.56,0,0,1-1.5-1.3C20.9,57.9,19.9,55.1,19.2,52.9Z"/><path class="cls-1" d="M89.6,64.2,75.8,48.5a31.25,31.25,0,0,0,7.9-3.3,1.45,1.45,0,0,0,.7-1,1.68,1.68,0,0,0-.3-1.2L73.4,31a23.75,23.75,0,0,0,5.1-2.2,1.45,1.45,0,0,0,.7-1,1.68,1.68,0,0,0-.3-1.2L67.4,13.5a3.21,3.21,0,0,0-2.2-1h0a3.21,3.21,0,0,0-2.2,1l-6,6.7-4-4.6a3.21,3.21,0,0,0-2.2-1h0a3.21,3.21,0,0,0-2.2,1L37,28.7a1.31,1.31,0,0,0-.3,1.2,1.45,1.45,0,0,0,.7,1,23.75,23.75,0,0,0,5.1,2.2l-7.9,9a1.49,1.49,0,0,0,2.2,2l9.5-10.8a1.44,1.44,0,0,0,.3-1.4,1.57,1.57,0,0,0-1.1-1,24.41,24.41,0,0,1-5-1.6L50.8,17.6,61,29.2a24.41,24.41,0,0,1-5,1.6,1.57,1.57,0,0,0-1.1,1,1.24,1.24,0,0,0,.3,1.4l11,12.5a27.55,27.55,0,0,1-7.8,2.6,1.57,1.57,0,0,0-1.1,1,1.24,1.24,0,0,0,.3,1.4L71.8,66.8a43.76,43.76,0,0,1-14.6,4.4,1.51,1.51,0,0,0-1.3,1.5v9.6a1,1,0,0,1-1,.9H46.5a1.5,1.5,0,1,0,0,3h8.4a3.82,3.82,0,0,0,3.9-3.8V74a45.55,45.55,0,0,0,9.5-2.4h.1c.6,0,1.2.1,1.8.1a40,40,0,0,0,19-5.2,1.45,1.45,0,0,0,.7-1A1.16,1.16,0,0,0,89.6,64.2ZM75.1,68.3a2.18,2.18,0,0,0,.5-.8,1.68,1.68,0,0,0-.3-1.2L61.4,50.6a31.25,31.25,0,0,0,7.9-3.3,1.45,1.45,0,0,0,.7-1,1.68,1.68,0,0,0-.3-1.2L59,33.1a23.75,23.75,0,0,0,5.1-2.2,1.45,1.45,0,0,0,.7-1,1.68,1.68,0,0,0-.3-1.2L59,22.4l6.2-7L75.5,27.1a24.41,24.41,0,0,1-5,1.6,1.57,1.57,0,0,0-1.1,1,1.24,1.24,0,0,0,.3,1.4l11,12.5a27.55,27.55,0,0,1-7.8,2.6,1.57,1.57,0,0,0-1.1,1,1.24,1.24,0,0,0,.3,1.4L86.3,64.7A41,41,0,0,1,75.1,68.3Z"/></svg>