<?xml version="1.0" encoding="utf-8"?>
<!-- Generator: Adobe Illustrator 21.0.0, SVG Export Plug-In . SVG Version: 6.00 Build 0)  -->
<!DOCTYPE svg PUBLIC "-//W3C//DTD SVG 1.1//EN" "http://www.w3.org/Graphics/SVG/1.1/DTD/svg11.dtd">
<svg version="1.1" id="Ebene_1" xmlns="http://www.w3.org/2000/svg" xmlns:xlink="http://www.w3.org/1999/xlink" x="0px" y="0px"
	 width="30px" height="30px" viewBox="0 0 30 30" style="enable-background:new 0 0 30 30;" xml:space="preserve">
<style type="text/css">
	.st0{fill:#0069B4;}
	.st1{fill:#FFFFFF;}
</style>
<title>services-blau</title>
<g>
	<g>
		<g>
			<g>
				<g>
					<g>
						<path class="st0" d="M19.5,3.1L19.3,3H12c-1.4,0-2.5,1.1-2.5,2.5v9.9c0.4,0,0.5,0,0.9,0.1V5.5c0-0.9,0.7-1.6,1.6-1.6h7
							l5.8,5.9v13.1c0,0.9-0.7,1.6-1.6,1.6h-2.3c0,0.3,0,0.6,0,0.9h2.2c1.4,0,2.5-1.1,2.5-2.5V9.4L19.5,3.1z"/>
					</g>
				</g>
				<g>
					<g>
						<path class="st0" d="M25.3,10h-4.1c-1.4,0-2.5-1.1-2.5-2.5V3.4h0.9v4.1c0,0.9,0.7,1.6,1.6,1.6h4.1V10z"/>
					</g>
				</g>
			</g>
		</g>
	</g>
	<g>
		<g>
			<path class="st0" d="M10.8,15.8l1.4,1.4c0.2,0.2,0.4,0.3,0.6,0.3h7.7v8.6H5.2V15.8H10.8 M11.2,14.9H4.3V27h17.2V16.6h-8.6
				L11.2,14.9L11.2,14.9z"/>
		</g>
	</g>
	<g>
		<line class="st1" x1="12.1" y1="6.7" x2="16.4" y2="6.7"/>
		<path class="st0" d="M16.4,7.2h-4.3c-0.2,0-0.5-0.2-0.5-0.5s0.2-0.5,0.5-0.5h4.3c0.2,0,0.5,0.2,0.5,0.5S16.7,7.2,16.4,7.2z"/>
	</g>
	<g>
		<line class="st1" x1="12.1" y1="9.6" x2="16.4" y2="9.6"/>
		<path class="st0" d="M16.4,10h-4.3c-0.2,0-0.5-0.2-0.5-0.5c0-0.2,0.2-0.5,0.5-0.5h4.3c0.2,0,0.5,0.2,0.5,0.5
			C16.9,9.8,16.7,10,16.4,10z"/>
	</g>
	<g>
		<line class="st1" x1="12.1" y1="12.2" x2="23.2" y2="12.2"/>
		<path class="st0" d="M23.2,12.7H12.1c-0.2,0-0.5-0.2-0.5-0.5c0-0.2,0.2-0.5,0.5-0.5h11.1c0.2,0,0.5,0.2,0.5,0.5
			C23.6,12.5,23.4,12.7,23.2,12.7z"/>
	</g>
</g>
</svg>
