<?xml version="1.0" encoding="utf-8"?>
<!-- Generator: Adobe Illustrator 20.0.0, SVG Export Plug-In . SVG Version: 6.00 Build 0)  -->
<!DOCTYPE svg PUBLIC "-//W3C//DTD SVG 1.1//EN" "http://www.w3.org/Graphics/SVG/1.1/DTD/svg11.dtd">
<svg version="1.1" id="Ebene_1" xmlns="http://www.w3.org/2000/svg" xmlns:xlink="http://www.w3.org/1999/xlink" x="0px" y="0px"
	 width="30px" height="30px" viewBox="0 0 30 30" style="enable-background:new 0 0 30 30;" xml:space="preserve">
<style type="text/css">
	.st0{fill:#0169B4;}
</style>
<title>youtube-blau</title>
<g>
	<g>
		<path class="st0" d="M15,26.1c-6.1,0-11.1-5-11.1-11.1c0-6.1,5-11.1,11.1-11.1c6.1,0,11.1,5,11.1,11.1
			C26.1,21.1,21.1,26.1,15,26.1z M15,5.1c-5.5,0-9.9,4.4-9.9,9.9s4.4,9.9,9.9,9.9s9.9-4.4,9.9-9.9S20.5,5.1,15,5.1z"/>
	</g>
	<g>
		<path class="st0" d="M10.8,21.9c-0.1,0-0.2,0-0.3-0.1c-0.2-0.1-0.3-0.3-0.3-0.5V8.5c0-0.2,0.1-0.4,0.3-0.5c0.2-0.1,0.4-0.1,0.6,0
			l11.1,6.4c0.2,0.1,0.3,0.3,0.3,0.5s-0.1,0.4-0.3,0.5l-11.1,6.4C11,21.9,10.9,21.9,10.8,21.9z M11.4,9.5v10.8l9.3-5.4L11.4,9.5z"/>
	</g>
</g>
</svg>
