<?xml version="1.0" encoding="utf-8"?>
<!-- Generator: Adobe Illustrator 21.0.0, SVG Export Plug-In . SVG Version: 6.00 Build 0)  -->
<!DOCTYPE svg PUBLIC "-//W3C//DTD SVG 1.1//EN" "http://www.w3.org/Graphics/SVG/1.1/DTD/svg11.dtd">
<svg version="1.1" id="Ebene_1" xmlns="http://www.w3.org/2000/svg" xmlns:xlink="http://www.w3.org/1999/xlink" x="0px" y="0px"
	 width="30px" height="30px" viewBox="0 0 30 30" style="enable-background:new 0 0 30 30;" xml:space="preserve">
<style type="text/css">
	.st0{fill:#817E65;}
</style>
<title>services-blau</title>
<g>
	<path class="st0" d="M24.4,22.1h-6.2c-0.3,0-0.5,0.2-0.5,0.5c0,0.3,0.2,0.5,0.5,0.5h2.4v3.5c0,0.3,0.2,0.5,0.5,0.5
		c0.3,0,0.5-0.2,0.5-0.5v-3.5h2.8c0.3,0,0.5-0.2,0.5-0.5C24.9,22.3,24.7,22.1,24.4,22.1z"/>
	<g>
		<path class="st0" d="M21.5,10.8h-1.9c-0.1,0-0.2,0-0.3,0.1l-3.1,2.2H14c-0.2,0-0.5,0.2-0.5,0.4c0,0-0.1,1.1,0.4,1.9h0h-2.2V15h1.4
			c0.3,0,0.5-0.2,0.5-0.5S13.3,14,13.1,14h-1.9c-0.3,0-0.5,0.2-0.5,0.5v0.9H9.8v-0.9c0-0.3-0.2-0.5-0.5-0.5H7V9.4h0.9v2.3
			c0,0.8,0.6,1.4,1.4,1.4h1.4c0.3,0,0.5-0.2,0.5-0.5v-8c0-0.3-0.2-0.5-0.5-0.5H9.3c-0.8,0-1.4,0.6-1.4,1.4v2.8H6.5
			C6.3,8.4,6,8.6,6,8.9v5.6C6,14.8,6.3,15,6.5,15h2.3v0.4H5.6c-0.3,0-0.5,0.2-0.5,0.5s0.2,0.5,0.5,0.5h3.7h1.9h4.7h1.9h0.9v0.9h-1.9
			c-1.2,0-2.3,0.8-2.7,1.9l-2.3,6.9c0,0.1,0,0.3,0.1,0.4c0.1,0.1,0.2,0.2,0.4,0.2h2.1c0.2,0,0.3-0.1,0.4-0.3l2.7-4.9h3
			c1.8,0,3.3-1.5,3.3-3.3v-5.1C23.9,11.8,22.8,10.8,21.5,10.8z M8.9,5.6c0-0.2,0.2-0.4,0.4-0.4h0.9v7H9.3c-0.2,0-0.4-0.2-0.4-0.4
			V5.6z M13,25.7l2-6.2c0.3-0.7,1-1.2,1.7-1.2h2.3c0.3,0,0.5-0.2,0.5-0.5v-1.9v-0.7l1.2-0.8c0.1-0.1,0.2-0.2,0.2-0.3
			c0-0.1,0-0.3-0.1-0.4c-0.1-0.2-0.5-0.3-0.7-0.1l-2.7,1.8h-1.7c-0.5,0-0.8-0.1-1-0.4c-0.3-0.3-0.3-0.7-0.4-1h1.9
			c0.1,0,0.2,0,0.3-0.1l3.1-2.2h1.7c0.8,0,1.4,0.6,1.4,1.4v5.1c0,1.3-1,2.3-2.3,2.3h-3.3c-0.2,0-0.3,0.1-0.4,0.3l-2.7,4.9H13z"/>
		<path class="st0" d="M24.7,6l-1.1-0.2l-0.2-2c0-0.1,0-0.1-0.1-0.2c-0.1,0-0.1-0.1-0.2,0l-1.8,0.4l-1.6-1c-0.1,0-0.1,0-0.2,0
			c-0.1,0-0.1,0.1-0.2,0.1l-0.8,1.8l-1.1-0.2c-0.1,0-0.3,0.1-0.3,0.2l-0.1,0.5c0,0.1,0,0.1,0,0.2c0,0.1,0.1,0.1,0.2,0.1l1.3,0.2
			c-0.2,0.4-0.3,0.8-0.3,1.2v0.7c0,1.4,1.2,2.5,2.6,2.5s2.6-1.1,2.6-2.5V7.2c0-0.1,0-0.2,0-0.3l0,0v0L24.5,7l0,0c0.1,0,0.1,0,0.1,0
			c0.1,0,0.1-0.1,0.1-0.2l0.1-0.5C24.9,6.2,24.8,6,24.7,6z M20.8,9.4c-0.9,0-1.6-0.7-1.6-1.5V7.2c0-0.4,0.2-0.7,0.4-1l2.7,0.5
			c0.1,0.2,0.1,0.3,0.1,0.5v0.7C22.4,8.7,21.7,9.4,20.8,9.4z M21.1,4.9c0.1,0,0.1,0,0.2,0l1.3-0.3l0.1,0.9l0,0.2l-2.9-0.5v0l-0.1,0
			l0,0l0.4-1L21.1,4.9z"/>
	</g>
</g>
</svg>
