<?xml version="1.0" encoding="utf-8"?>
<!-- Generator: Adobe Illustrator 21.0.0, SVG Export Plug-In . SVG Version: 6.00 Build 0)  -->
<!DOCTYPE svg PUBLIC "-//W3C//DTD SVG 1.1//EN" "http://www.w3.org/Graphics/SVG/1.1/DTD/svg11.dtd">
<svg version="1.1" id="Ebene_1" xmlns="http://www.w3.org/2000/svg" xmlns:xlink="http://www.w3.org/1999/xlink" x="0px" y="0px"
	 width="30px" height="30px" viewBox="0 0 30 30" style="enable-background:new 0 0 30 30;" xml:space="preserve">
<style type="text/css">
	.st0{fill:#817E65;}
</style>
<title>services-blau</title>
<path class="st0" d="M22.6,26.5l4.3-4.3L7.4,2.8L3.1,7.1L22.6,26.5z M7.4,3.8l18.5,18.5l-3.3,3.3L22,25l2.3-2.3l-0.5-0.5l-2.3,2.3
	l-0.6-0.6l1.2-1.2l-0.5-0.5l-1.2,1.2l-0.7-0.7l1.2-1.2L20.5,21l-1.2,1.2l-0.7-0.7l1.2-1.2l-0.5-0.5l-1.2,1.2l-0.6-0.6l1.2-1.2
	l-0.5-0.5L17,20l-0.6-0.6l2.3-2.3l-0.5-0.5l-2.3,2.3l-0.6-0.6l1.2-1.2L16,16.6l-1.2,1.2l-0.7-0.7l1.2-1.2l-0.5-0.5l-1.2,1.2L13,16
	l1.2-1.2l-0.5-0.5l-1.2,1.2l-0.6-0.6l1.2-1.2l-0.5-0.5l-1.2,1.2l-0.6-0.6l2.3-2.3L12.6,11l-2.3,2.3l-0.6-0.6l1.2-1.2L10.4,11
	l-1.2,1.2l-0.7-0.7l1.2-1.2L9.3,9.8L8,11.1l-0.7-0.7l1.2-1.2L8.1,8.7L6.9,9.9L6.2,9.3L7.5,8L7,7.6L5.8,8.8L5.2,8.2l2.3-2.3L7,5.4
	L4.7,7.7L4.1,7.1L7.4,3.8z"/>
</svg>
