<?xml version="1.0" encoding="utf-8"?>
<!-- Generator: Adobe Illustrator 21.0.0, SVG Export Plug-In . SVG Version: 6.00 Build 0)  -->
<!DOCTYPE svg PUBLIC "-//W3C//DTD SVG 1.1//EN" "http://www.w3.org/Graphics/SVG/1.1/DTD/svg11.dtd">
<svg version="1.1" id="Ebene_1" xmlns="http://www.w3.org/2000/svg" xmlns:xlink="http://www.w3.org/1999/xlink" x="0px" y="0px"
	 width="30px" height="30px" viewBox="0 0 30 30" style="enable-background:new 0 0 30 30;" xml:space="preserve">
<style type="text/css">
	.st0{fill:#817E65;}
</style>
<title>services-blau</title>
<g>
	<path class="st0" d="M22.1,15.7c-0.3-0.2-0.7-0.2-1,0l-3.2,3h-2c-0.5,0-1,0.4-1,1v3c0,0.5,0.4,1,1,1h2l3.2,2.9c0.3,0.2,0.7,0.2,1,0
		s0.5-0.5,0.5-0.9v-9.2C22.6,16.2,22.4,15.9,22.1,15.7z M21.7,16.5v9.3l-3.2-3c-0.1-0.1-0.3-0.1-0.5-0.1h-2v-3.1h2
		c0.2,0,0.3,0,0.5-0.1L21.7,16.5z"/>
	<path class="st0" d="M25.7,18.1C25.6,18,25.5,18,25.4,18l0,0c-0.1,0-0.2,0.1-0.3,0.1c-0.1,0.1-0.2,0.2-0.2,0.3
		c0,0.1,0.1,0.2,0.2,0.3c0.7,0.7,1,1.6,1,2.5s-0.4,1.8-1,2.5c-0.1,0.1-0.2,0.2-0.2,0.3c0,0.1,0,0.3,0.1,0.3c0.1,0.1,0.2,0.2,0.3,0.2
		c0.1,0,0.3,0,0.3-0.1c0.8-0.8,1.3-2,1.3-3.2C27,20.1,26.6,19,25.7,18.1z"/>
	<path class="st0" d="M24.2,18.8c-0.1-0.1-0.2-0.1-0.3-0.1c-0.1,0-0.3,0-0.3,0.1c-0.1,0.1-0.2,0.2-0.2,0.3c0,0.1,0.1,0.2,0.2,0.3
		c0.4,0.4,0.7,1,0.7,1.7c0,0.6-0.2,1.2-0.7,1.7c-0.2,0.2-0.2,0.5,0,0.7c0.1,0.1,0.2,0.2,0.3,0.2c0.1,0,0.2,0,0.3-0.1
		c0.6-0.6,1-1.5,1-2.4C25.2,20.3,24.8,19.4,24.2,18.8z"/>
</g>
<path class="st0" d="M22.7,10.1c-0.2-0.2-0.5-0.2-0.6,0l-0.4,0.4l-0.6-0.6l0.4-0.4c0.2-0.2,0.2-0.5,0-0.6l-4.2-4.2
	c-0.2-0.2-0.5-0.2-0.6,0L16.3,5l-0.6-0.6L16.1,4c0.2-0.2,0.2-0.5,0-0.6c-0.2-0.2-0.5-0.2-0.6,0L3.1,15.7c-0.2,0.2-0.2,0.5,0,0.6
	c0.1,0.1,0.2,0.1,0.3,0.1s0.2,0,0.3-0.1l0.5-0.5l0.6,0.6l-0.4,0.4c-0.1,0.1-0.1,0.2-0.1,0.3s0,0.2,0.1,0.3l4.2,4.2
	c0.1,0.1,0.2,0.1,0.3,0.1s0.2,0,0.3-0.1l0.4-0.4l0.6,0.6l-0.5,0.5c-0.2,0.2-0.2,0.5,0,0.6C9.8,23,9.9,23,10,23s0.2,0,0.3-0.1
	l12.3-12.3C22.9,10.5,22.9,10.2,22.7,10.1z M21.1,11.1l-0.7,0.7l-0.6-0.6l0.7-0.7L21.1,11.1z M19,13.1l-0.6-0.6l0.7-0.7l0.6,0.6
	L19,13.1z M17.7,14.5l-0.6-0.6l0.3-0.3l0,0l0.4-0.4l0.6,0.6L17.7,14.5z M16.3,15.8l-0.6-0.6l0.7-0.7l0.6,0.6L16.3,15.8z M15,17.2
	l-0.6-0.6l0.7-0.7l0.6,0.6L15,17.2z M13.6,18.5L13,17.9l0.3-0.3l0,0l0,0l0.4-0.4l0.6,0.6L13.6,18.5z M12.3,19.9l-0.6-0.6l0.7-0.7
	l0.6,0.6L12.3,19.9z M6.9,14.4l-0.6-0.6L7,13.1l0.6,0.6L6.9,14.4z M8.3,11.8l0.6,0.6l-0.4,0.4l0,0l0,0l-0.3,0.3l-0.6-0.6L8.3,11.8z
	 M9.7,10.4l0.6,0.6l-0.7,0.7L9,11.1L9.7,10.4z M11,9.1l0.6,0.6l-0.7,0.7l-0.6-0.6L11,9.1z M12.4,7.7L13,8.3l-0.4,0.4l0,0L12.2,9
	l-0.6-0.6L12.4,7.7z M13.7,6.4L14.3,7l-0.7,0.7L13,7.1L13.7,6.4z M13.1,16.6L9.5,13l3.4-3.4l3.6,3.6L13.1,16.6z M17,5.6l3.6,3.6
	l-3.4,3.4L13.6,9L17,5.6z M15.7,5.6L15,6.3l-0.6-0.6L15.1,5L15.7,5.6z M4.9,15.2l0.7-0.7l0.6,0.6l-0.7,0.7L4.9,15.2z M9,20.7
	l-3.6-3.6l3.4-3.4l3.6,3.6L9,20.7z M10.3,20.6l0.7-0.7l0.6,0.6L11,21.2L10.3,20.6z"/>
</svg>
