<?xml version="1.0" encoding="utf-8"?>
<!-- Generator: Adobe Illustrator 21.0.0, SVG Export Plug-In . SVG Version: 6.00 Build 0)  -->
<!DOCTYPE svg PUBLIC "-//W3C//DTD SVG 1.1//EN" "http://www.w3.org/Graphics/SVG/1.1/DTD/svg11.dtd">
<svg version="1.1" id="Ebene_1" xmlns="http://www.w3.org/2000/svg" xmlns:xlink="http://www.w3.org/1999/xlink" x="0px" y="0px"
	 width="30px" height="30px" viewBox="0 0 30 30" style="enable-background:new 0 0 30 30;" xml:space="preserve">
<style type="text/css">
	.st0{fill:#817E65;}
</style>
<title>services-blau</title>
<g id="XMLID_1_">
	<path id="XMLID_2_" class="st0" d="M24,7l-1.6-1.7c-0.1-0.1-0.2-0.1-0.3-0.1h-7V3.4C15,3.2,14.8,3,14.6,3c-0.2,0-0.4,0.2-0.4,0.4
		v6.9H8c-0.1,0-0.2,0-0.3,0.1L6,12.1c-0.2,0.2-0.2,0.4,0,0.6l1.6,1.7c0.1,0.1,0.2,0.1,0.3,0.1h6.2v11.7h-3.3c-0.2,0-0.4,0.2-0.4,0.4
		c0,0.2,0.2,0.4,0.4,0.4h7.4c0.2,0,0.4-0.2,0.4-0.4c0-0.2-0.2-0.4-0.4-0.4H15V9.3h7c0.1,0,0.2,0,0.3-0.1L24,7.6
		C24.2,7.4,24.2,7.1,24,7z M8.1,13.6l-1.2-1.2l1.2-1.2h6v2.4H8.1z M21.9,8.5H15V6h6.9l1.2,1.2L21.9,8.5z"/>
</g>
</svg>
