<?xml version="1.0" encoding="utf-8"?>
<!-- Generator: Adobe Illustrator 21.0.0, SVG Export Plug-In . SVG Version: 6.00 Build 0)  -->
<!DOCTYPE svg PUBLIC "-//W3C//DTD SVG 1.1//EN" "http://www.w3.org/Graphics/SVG/1.1/DTD/svg11.dtd">
<svg version="1.1" id="Ebene_1" xmlns="http://www.w3.org/2000/svg" xmlns:xlink="http://www.w3.org/1999/xlink" x="0px" y="0px"
	 width="30px" height="30px" viewBox="0 0 30 30" style="enable-background:new 0 0 30 30;" xml:space="preserve">
<style type="text/css">
	.st0{fill:#817E65;}
</style>
<title>kalender-blau</title>
<path class="st0" d="M23.7,6.5h-3.3V5.7c0-0.2-0.2-0.4-0.4-0.4c-0.2,0-0.4,0.2-0.4,0.4c0,0,0,0,0,0v0.8h-9.1V5.7
	c0-0.2-0.2-0.4-0.4-0.4c-0.2,0-0.4,0.2-0.4,0.4v0.8H6.3c-0.9,0-1.7,0.7-1.7,1.7c0,0,0,0,0,0v14.9c0,0.9,0.7,1.7,1.7,1.7c0,0,0,0,0,0
	h17.4c0.9,0,1.7-0.7,1.7-1.7c0,0,0,0,0,0V8.2C25.4,7.3,24.7,6.5,23.7,6.5C23.7,6.5,23.7,6.5,23.7,6.5z M24.5,23.1
	c0,0.4-0.3,0.8-0.8,0.8c0,0,0,0,0,0H6.3c-0.4,0-0.8-0.3-0.8-0.8c0,0,0,0,0,0V11.5h19.1v11.6H24.5z M24.5,10.6h-19V8.2
	c0-0.4,0.3-0.8,0.8-0.8c0,0,0,0,0,0h3.3v0.9C9.4,8.4,9.2,8.7,9.2,9c0,0.4,0.4,0.8,0.8,0.8s0.8-0.4,0.8-0.8c0-0.3-0.2-0.6-0.4-0.7v-1
	h9.1v0.9c-0.2,0.1-0.4,0.4-0.4,0.7c0,0.4,0.4,0.8,0.8,0.8c0.4,0,0.8-0.4,0.8-0.8c0-0.3-0.2-0.6-0.4-0.7V7.3h3.3
	c0.4,0,0.8,0.3,0.8,0.8c0,0,0,0,0,0L24.5,10.6L24.5,10.6z"/>
<path class="st0" d="M23.7,24.9H6.3c-1,0-1.8-0.8-1.8-1.8c0,0,0,0,0,0V8.2c0-1,0.8-1.8,1.8-1.8c0,0,0,0,0,0h3.2V5.7
	c0-0.3,0.2-0.5,0.5-0.5s0.5,0.2,0.5,0.5v0.7h8.9V5.7c0-0.3,0.2-0.5,0.5-0.5s0.5,0.2,0.5,0.5v0.7h3.2c1,0,1.8,0.8,1.8,1.8
	c0,0,0,0,0,0v14.9c0.1,0.9-0.6,1.7-1.5,1.8C23.8,24.9,23.8,24.9,23.7,24.9z M6.3,6.6c-0.8,0-1.5,0.7-1.5,1.5V23
	c0,0.8,0.7,1.5,1.5,1.5h17.4c0.8,0,1.5-0.7,1.5-1.5V8.2c0-0.8-0.7-1.5-1.5-1.5h-3.4v-1c0-0.2-0.1-0.3-0.3-0.3
	c-0.2,0-0.3,0.1-0.3,0.3l0,0v1h-9.4v-1c0-0.2-0.1-0.3-0.3-0.3S9.7,5.5,9.7,5.7l0,0v1L6.3,6.6L6.3,6.6z M23.7,24H6.3
	c-0.6,0-1-0.4-1-1V11.3h19.3V23c0.1,0.5-0.3,0.9-0.7,1C23.8,24,23.8,24,23.7,24z M5.6,11.6v11.5c0,0.4,0.3,0.7,0.7,0.7c0,0,0,0,0,0
	h17.4c0.4,0,0.7-0.3,0.7-0.7c0,0,0,0,0,0V11.6H5.6z M24.7,10.8H5.3V8.2c0-0.6,0.4-1,1-1h3.4v1.1H9.6C9.4,8.5,9.3,8.7,9.3,9
	c0,0.4,0.3,0.7,0.7,0.7c0.4,0,0.7-0.3,0.7-0.7c0-0.3-0.1-0.5-0.4-0.6h-0.1V7.2h9.4v1.1h-0.1c-0.2,0.1-0.4,0.3-0.4,0.6
	c0,0.4,0.3,0.7,0.7,0.7c0.4,0,0.7-0.3,0.7-0.7c0-0.3-0.1-0.5-0.4-0.6H20V7.2h3.4c0.6,0,1,0.4,1,1v2.6L24.7,10.8z M5.6,10.5h18.8V8.2
	c0-0.4-0.3-0.7-0.7-0.7c0,0,0,0,0,0h-3.2v0.8c0.3,0.2,0.4,0.5,0.4,0.8c0,0.6-0.4,1-1,1s-1-0.4-1-1c0-0.3,0.2-0.6,0.4-0.8V7.4h-8.9
	v0.8C10.7,8.3,11,8.6,11,9c0,0.6-0.4,1-1,1S9,9.6,9,9c0-0.3,0.2-0.6,0.4-0.8V7.4H6.3c-0.4,0-0.7,0.3-0.7,0.7c0,0,0,0,0,0L5.6,10.5z"
	/>
<path class="st0" d="M7.9,22.3H22c0.4,0,0.8-0.3,0.8-0.8c0,0,0,0,0,0v-7.9c0-0.4-0.3-0.8-0.8-0.8c0,0,0,0,0,0H7.9
	c-0.4,0-0.8,0.3-0.8,0.8c0,0,0,0,0,0v7.9C7.1,21.9,7.5,22.3,7.9,22.3z M22.1,18.5h-2.9v-2.1h2.9V18.5z M18.3,18.5h-2.9v-2.1h2.9
	L18.3,18.5z M15.4,19.4h2.9v2.1h-2.9L15.4,19.4z M14.6,21.4h-2.9v-2.1h2.9L14.6,21.4z M14.6,18.5h-2.9v-2.1h2.9L14.6,18.5z
	 M10.9,18.5h-3v-2.1h2.9v2.1H10.9z M7.9,19.4h2.9v2.1H7.9L7.9,19.4z M19.1,21.4v-2.1H22v2.1H19.1z M22.1,13.5v2.1h-2.9v-2.1H22.1z
	 M18.3,13.5v2.1h-2.9v-2.1H18.3z M14.6,13.5v2.1h-2.9v-2.1H14.6z M7.9,13.5h2.9v2.1H7.9L7.9,13.5z"/>
<path class="st0" d="M22.1,22.4H7.9c-0.6,0-1-0.4-1-1v-7.9c0-0.6,0.4-1,1-1H22c0.6,0,1,0.4,1,1v7.9C23,21.9,22.7,22.4,22.1,22.4
	C22.1,22.4,22.1,22.4,22.1,22.4z M7.9,12.8c-0.4,0-0.7,0.3-0.7,0.7c0,0,0,0,0,0v7.9c0,0.4,0.3,0.7,0.7,0.7c0,0,0,0,0,0H22
	c0.4,0,0.7-0.3,0.7-0.7c0,0,0,0,0,0v-7.9c0-0.4-0.3-0.7-0.7-0.7c0,0,0,0,0,0H7.9z M22.2,21.6H19v-2.3h3l0.2-0.2V21.6z M19.3,21.3H22
	v-1.8h-2.7L19.3,21.3z M18.4,21.6h-3.2v-2.3h3.2L18.4,21.6z M15.5,21.3h2.7v-1.8h-2.7L15.5,21.3z M14.7,21.6h-3.2v-2.3h3.2
	L14.7,21.6z M11.8,21.3h2.7v-1.8h-2.7L11.8,21.3z M11,21.6H7.8v-2.3H11L11,21.6z M8.1,21.3h2.7v-1.8H8.1V21.3z M22.2,18.7H19v-2.3
	h3.2V18.7z M19.3,18.4H22v-1.8h-2.7L19.3,18.4z M18.4,18.7h-3.2v-2.3h3.2L18.4,18.7z M15.5,18.4h2.7v-1.8h-2.7L15.5,18.4z
	 M14.7,18.7h-3.2v-2.3h3.2L14.7,18.7z M11.8,18.4h2.7v-1.8h-2.7L11.8,18.4z M11,18.7H7.8v-2.3H11L11,18.7z M8.1,18.4h2.7v-1.8H8.1
	V18.4z M22.2,15.7H19v-2.3h3.2V15.7z M19.3,15.5H22v-1.8h-2.7L19.3,15.5z M18.4,15.7h-3.2v-2.3h3.2L18.4,15.7z M15.5,15.5h2.7v-1.8
	h-2.7L15.5,15.5z M14.7,15.7h-3.2v-2.3h3.2L14.7,15.7z M11.8,15.5h2.7v-1.8h-2.7L11.8,15.5z M11,15.7H7.8v-2.3H11L11,15.7z
	 M8.1,15.5h2.7v-1.8H8.1V15.5z"/>
</svg>
