<?xml version="1.0" encoding="utf-8"?>
<!-- Generator: Adobe Illustrator 21.0.0, SVG Export Plug-In . SVG Version: 6.00 Build 0)  -->
<!DOCTYPE svg PUBLIC "-//W3C//DTD SVG 1.1//EN" "http://www.w3.org/Graphics/SVG/1.1/DTD/svg11.dtd">
<svg version="1.1" id="Ebene_1" xmlns="http://www.w3.org/2000/svg" xmlns:xlink="http://www.w3.org/1999/xlink" x="0px" y="0px"
	 width="30px" height="30px" viewBox="0 0 30 30" style="enable-background:new 0 0 30 30;" xml:space="preserve">
<style type="text/css">
	.st0{fill:#817E65;}
</style>
<title>services-blau</title>
<g>
	<g>
		<path class="st0" d="M25.7,17.9h-22c-0.7,0-1.3-0.6-1.3-1.3v-4c0-0.7,0.6-1.3,1.3-1.3h22c0.7,0,1.3,0.6,1.3,1.3v4
			C27,17.3,26.4,17.9,25.7,17.9z M3.7,12.2c-0.2,0-0.4,0.2-0.4,0.4v4c0,0.2,0.2,0.4,0.4,0.4h22c0.2,0,0.4-0.2,0.4-0.4v-4
			c0-0.2-0.2-0.4-0.4-0.4C25.7,12.2,3.7,12.2,3.7,12.2z"/>
	</g>
	<g>
		<path class="st0" d="M4.1,13.2h2.2v1.9c0,0-0.2,0.9-1.1,0.9s-1.1-0.8-1.1-0.8S4.1,13.2,4.1,13.2z"/>
	</g>
	<g>
		<path class="st0" d="M22.9,13.2h2.2v1.9c0,0-0.2,0.9-1.1,0.9s-1.1-0.8-1.1-0.8V13.2z"/>
	</g>
	<g>
		<path class="st0" d="M9.5,15.5c-0.2,0.2-0.4,0.3-0.6,0.3c-0.7,0-1-0.5-1-1.1s0.4-1.1,1-1.1c0.4,0,0.8,0.3,0.9,0.7H9.3
			c0-0.2-0.2-0.3-0.4-0.3c-0.4,0-0.6,0.4-0.6,0.7c0,0.4,0.2,0.7,0.6,0.7c0.3,0,0.5-0.2,0.5-0.5H8.9v-0.3h0.9v1.1H9.5V15.5z"/>
		<path class="st0" d="M10.5,13.6h1.1c0.4,0,0.6,0.3,0.6,0.6c0,0.2-0.1,0.4-0.3,0.5l0,0c0.2,0.1,0.3,0.3,0.3,0.5
			c0,0.1,0,0.4,0.1,0.5h-0.5c-0.1-0.1-0.1-0.3-0.1-0.5s-0.1-0.3-0.4-0.3H11v0.8h-0.5V13.6z M11,14.6h0.5c0.2,0,0.3-0.1,0.3-0.3
			S11.7,14,11.5,14H11V14.6z"/>
		<path class="st0" d="M13.1,14.6c0.1,0,0.2,0.1,0.2,0.3c0,0.1-0.1,0.2-0.2,0.2c-0.1,0-0.3-0.1-0.3-0.2C12.8,14.7,13,14.6,13.1,14.6
			z"/>
		<path class="st0" d="M14.9,14.2c0-0.1-0.1-0.3-0.3-0.3c-0.3,0-0.4,0.4-0.4,0.6l0,0c0.1-0.2,0.3-0.2,0.5-0.2s0.4,0.1,0.5,0.2
			c0.1,0.1,0.2,0.3,0.2,0.5c0,0.4-0.3,0.8-0.7,0.8c-0.6,0-0.8-0.5-0.8-1.1c0-0.5,0.2-1.1,0.8-1.1c0.4,0,0.6,0.2,0.7,0.6H14.9z
			 M14.2,15c0,0.2,0.1,0.4,0.3,0.4s0.3-0.2,0.3-0.4s-0.1-0.4-0.3-0.4C14.4,14.7,14.2,14.8,14.2,15z"/>
		<path class="st0" d="M16.3,15.3h-0.9v-0.4l0.9-1.2h0.4v1.2H17v0.3h-0.3v0.5h-0.4C16.3,15.7,16.3,15.3,16.3,15.3z M16.3,14.2
			L16.3,14.2l-0.5,0.7h0.5V14.2z"/>
		<path class="st0" d="M18,15.3h-0.9v-0.4l0.9-1.2h0.4v1.2h0.3v0.3h-0.3v0.5H18V15.3z M18,14.2L18,14.2l-0.5,0.7H18V14.2z"/>
		<path class="st0" d="M19.6,15.3h-0.9v-0.4l0.9-1.2H20v1.2h0.3v0.3H20v0.5h-0.4V15.3z M19.6,14.2L19.6,14.2l-0.5,0.7h0.5V14.2z"/>
		<path class="st0" d="M21.1,13.6c0.4,0,0.8,0.3,0.8,1.1s-0.3,1.1-0.8,1.1c-0.4,0-0.8-0.3-0.8-1.1C20.4,13.9,20.7,13.6,21.1,13.6z
			 M21.1,15.4c0.3,0,0.3-0.5,0.3-0.7s0-0.7-0.3-0.7s-0.3,0.5-0.3,0.7C20.8,14.9,20.8,15.4,21.1,15.4z"/>
	</g>
</g>
</svg>
