<?xml version="1.0" encoding="utf-8"?>
<!-- Generator: Adobe Illustrator 21.0.0, SVG Export Plug-In . SVG Version: 6.00 Build 0)  -->
<!DOCTYPE svg PUBLIC "-//W3C//DTD SVG 1.1//EN" "http://www.w3.org/Graphics/SVG/1.1/DTD/svg11.dtd">
<svg version="1.1" id="Ebene_1" xmlns="http://www.w3.org/2000/svg" xmlns:xlink="http://www.w3.org/1999/xlink" x="0px" y="0px"
	 width="30px" height="30px" viewBox="0 0 30 30" style="enable-background:new 0 0 30 30;" xml:space="preserve">
<style type="text/css">
	.st0{fill:#817E65;}
</style>
<title>kontakt-blau</title>
<path class="st0" d="M11.4,10c0.1,0.1,0.2,0.2,0.4,0.2c0.2,0,0.3-0.1,0.4-0.2c0.2-0.2,0.2-0.6,0-0.8L10,7C9.8,6.8,9.4,6.7,9.2,6.9
	S8.9,7.5,9.1,7.7c0,0,0.1,0.1,0.1,0.1L11.4,10z"/>
<path class="st0" d="M22.6,20.8c0.1,0.1,0.2,0.2,0.4,0.2l0,0c0.3,0,0.6-0.2,0.6-0.5c0-0.2-0.1-0.3-0.2-0.5l-2.2-2.2
	c-0.2-0.2-0.6-0.3-0.8-0.1s-0.3,0.6-0.1,0.8c0,0,0.1,0.1,0.1,0.1L22.6,20.8z"/>
<path class="st0" d="M24.9,19.1l-2.3-2.6c-0.9-0.9-2.3-1-3.3-0.3l-1.6,1.4l0,0l-0.2,0.2c-0.2,0-1-0.3-2.9-2.2
	c-0.7-0.6-1.2-1.3-1.6-2.1c-0.2-0.2-0.3-0.5-0.3-0.8l0.2-0.2l0,0l0.9-1.2c0.7-1,0.7-2.4-0.2-3.3L11,5.1c-0.4-0.4-1-0.6-1.6-0.6
	c-0.6,0-1.2,0.3-1.6,0.8L5,9c-1.7,1.7,1.5,6.6,5.4,10.6c4.3,4.3,7.6,5.9,9.3,5.9c0.4,0,0.9-0.1,1.2-0.4l3.8-2.9
	c0.5-0.3,0.8-0.9,0.8-1.5C25.5,20.1,25.3,19.5,24.9,19.1z M6,9.6L8.7,6c0.2-0.2,0.4-0.3,0.7-0.4c0.3,0,0.6,0.1,0.8,0.3l2.6,2.7
	c0.5,0.5,0.6,1.3,0.1,1.8c0,0,0,0,0,0l-1.1,1.4c-0.3,0.3-0.5,0.9,0.1,2.1c0.5,0.9,1.1,1.7,1.8,2.4c2,2,3.4,2.8,4.2,2.5l0,0l2-1.7
	c0.6-0.4,1.3-0.3,1.8,0.1l2.3,2.6c0.2,0.2,0.3,0.5,0.3,0.8c0,0.3-0.2,0.5-0.4,0.7L20.3,24l0,0L20,24.3c-0.4,0.2-1.3,0.1-3-0.8
	c-2.2-1.3-4.1-2.9-5.9-4.7c-4.2-4.2-6-7.9-5.5-8.9L6,9.6z"/>
</svg>
