<?xml version="1.0" encoding="utf-8"?>
<!-- Generator: Adobe Illustrator 21.0.0, SVG Export Plug-In . SVG Version: 6.00 Build 0)  -->
<!DOCTYPE svg PUBLIC "-//W3C//DTD SVG 1.1//EN" "http://www.w3.org/Graphics/SVG/1.1/DTD/svg11.dtd">
<svg version="1.1" id="Ebene_1" xmlns="http://www.w3.org/2000/svg" xmlns:xlink="http://www.w3.org/1999/xlink" x="0px" y="0px"
	 width="30px" height="30px" viewBox="0 0 30 30" style="enable-background:new 0 0 30 30;" xml:space="preserve">
<style type="text/css">
	.st0{fill:#817E65;}
</style>
<title>services-blau</title>
<g>
	<g>
		<path class="st0" d="M26,17.5c-1.1,5-5.6,8.6-10.8,8.6s-9.6-3.6-10.8-8.6h2.5c1.1,3.6,4.5,6.2,8.3,6.2c3.9,0,7.3-2.6,8.3-6.2H26
			 M27,16.6L27,16.6L27,16.6z M27,16.6h-4.1c-0.7,3.6-3.9,6.2-7.6,6.2s-6.9-2.7-7.6-6.2H3.4c0.8,5.8,5.8,10.3,11.8,10.3
			S26.3,22.4,27,16.6L27,16.6z"/>
		<path class="st0" d="M15.2,3.9c5.2,0,9.7,3.7,10.8,8.7h-2.4c-1-3.7-4.4-6.4-8.4-6.4s-7.4,2.6-8.4,6.4H4.4
			C5.5,7.6,9.9,3.9,15.2,3.9 M15.2,3.1C9.1,3.1,4,7.6,3.3,13.6h4.2c0.7-3.6,3.9-6.4,7.7-6.4s7,2.7,7.7,6.4H27
			C26.3,7.6,21.3,3.1,15.2,3.1L15.2,3.1z"/>
	</g>
	<g>
		<path class="st0" d="M13.5,20.4l0.3,0c3.2,0,5.7-2.9,5.7-6H18c0,2.4-1.8,4.3-4.3,4.3L13.5,20.4L13.5,20.4z"/>
		<path class="st0" d="M19.7,10.4c-2.9-0.1-3.9,1.6-3.9,3.9h1.7c-0.2-2.2,1.1-3,2.1-2.9L19.7,10.4L19.7,10.4z"/>
		<path class="st0" d="M11.3,10.4c2.9-0.1,3.9,1.6,3.9,3.9h-1.7c0.2-2.2-1.1-3-2.1-2.9L11.3,10.4L11.3,10.4z"/>
	</g>
</g>
</svg>
