<?xml version="1.0" encoding="utf-8"?>
<!-- Generator: Adobe Illustrator 21.0.0, SVG Export Plug-In . SVG Version: 6.00 Build 0)  -->
<!DOCTYPE svg PUBLIC "-//W3C//DTD SVG 1.1//EN" "http://www.w3.org/Graphics/SVG/1.1/DTD/svg11.dtd">
<svg version="1.1" id="Ebene_1" xmlns="http://www.w3.org/2000/svg" xmlns:xlink="http://www.w3.org/1999/xlink" x="0px" y="0px"
	 width="30px" height="30px" viewBox="0 0 30 30" style="enable-background:new 0 0 30 30;" xml:space="preserve">
<style type="text/css">
	.st0{fill:#817E65;}
</style>
<title>services-blau</title>
<path class="st0" d="M25.1,25.1l-0.4-3.9c0-0.1,0-0.2-0.1-0.2c-0.3-1.1-1.2-2-2.4-2.3c-0.4-0.1-0.8-0.2-1.2-0.2c-0.8,0-1.2,0-1.4,0
	l0.3-1c0.1-0.2,0-0.4-0.1-0.5c-0.1-0.1-0.4-0.1-0.5,0l-0.9,0.6v-2.5c1-0.8,1.5-1.8,1.5-2.9v-0.4c0.9-0.3,1.5-1.5,1.5-2.9V8.6
	c0-0.1,0-0.1,0-0.2C22.5,8.1,23,7.7,23,7.2c0-0.8-1.2-1.3-3.6-1.7l-0.3-0.8c-0.2-0.7-0.7-1.2-1.4-1.5c-0.7-0.3-1.4-0.2-2.1,0.1
	c-0.5,0.2-1,0.2-1.5,0C13.7,3.1,13.3,3,13,3c-1.1,0-2,0.7-2.4,1.7l-0.3,0.8C7.9,5.9,6.7,6.4,6.7,7.2c0,0.5,0.5,0.9,1.6,1.2
	c0,0,0,0.1,0,0.2v0.3c0,1.4,0.6,2.6,1.5,2.9v0.4c0,1.1,0.5,2.1,1.5,2.9c0,0,0,0,0,0v2.5L10.4,17c-0.2-0.1-0.4-0.1-0.5,0
	c-0.1,0.1-0.2,0.3-0.1,0.5l0.3,1c-0.6,0-2.3,0.1-2.6,0.2C6.3,19,5.3,19.9,5.1,21l0,0l0,0c0,0.1,0,0.1,0,0.2l-0.1,3.8
	c0,0.2,0.2,0.5,0.4,0.5c0,0,0,0,0,0c0.2,0,0.4-0.2,0.4-0.4l0.1-3.8c0,0,0,0,0,0c0.2-0.8,0.9-1.5,1.8-1.8c0,0,0.1,0,0.4-0.1l-0.5,4.5
	l-0.1,0l0,0.2c0,0,0,0.1,0,0.1c0,0.2,0,0.4,0,0.6l0,0.1L7.9,25c2.1,1.3,4.5,2,7,2s4.9-0.7,7-2c0.1,0,0.2-0.1,0.2-0.2l0.1,0l0-0.1
	c0-0.2-0.1-0.5-0.1-0.7l0-0.2l0,0l-0.5-4.5c0.2,0,0.3,0.1,0.4,0.1c1,0.3,1.7,1.1,1.9,1.9l0.1,1l0,0l0.3,2.8c0,0.2,0.2,0.4,0.4,0.4
	c0,0,0,0,0,0C24.9,25.5,25.1,25.3,25.1,25.1z M9.8,8.8v2c-0.4-0.3-0.7-1.1-0.7-1.9l0-0.2C9.3,8.7,9.6,8.8,9.8,8.8z M20.6,8.7v0.2
	c0,0.8-0.3,1.6-0.7,1.9v-2C20.1,8.8,20.3,8.7,20.6,8.7z M12,21.3l-1-3l3,2L12,21.3z M10.6,8.9c1.2,0.2,2.7,0.2,4.2,0.2
	c1.5,0,3-0.1,4.2-0.2v3.3c0,1.7-1.9,3.1-4.2,3.1c-1.1,0-2.2-0.3-3-1c-0.8-0.6-1.2-1.4-1.2-2.2V8.9z M19,22.2c0,1.3-1.1,2.4-2.4,2.4
	h-1.4v-3.5l2.5,1.2c0.1,0.1,0.2,0.1,0.4,0c0.1,0,0.2-0.1,0.2-0.3L19,20V22.2z M11.9,22.3l2.5-1.2v3.5H13c-1.3,0-2.4-1.1-2.4-2.4V20
	l0.7,2.1c0,0.1,0.1,0.2,0.2,0.3C11.7,22.4,11.8,22.4,11.9,22.3z M9.1,19.3c0.2,0,0.5,0,0.7,0v2.9c0,1.8,1.5,3.3,3.3,3.3h3.6
	c1.8,0,3.3-1.5,3.3-3.3v-2.9h0.7l0.5,5.1c-1.9,1.1-4.1,1.7-6.3,1.7c-2.2,0-4.4-0.6-6.3-1.7L9.1,19.3z M15.7,20.4l3-2l-1,3L15.7,20.4
	z M17.5,18.1l-2.7,1.8l-2.7-1.8v-2.5c0.8,0.4,1.7,0.6,2.7,0.6c0.9,0,1.9-0.2,2.7-0.6V18.1z M9.9,6.8c0,0.1,0,0.3,0,0.4
	c0.1,0.1,0.2,0.2,0.3,0.2c1.3,0.2,2.9,0.3,4.6,0.3s3.3-0.1,4.6-0.3c0.1,0,0.2-0.1,0.3-0.2c0.1-0.1,0.1-0.2,0-0.4l-0.1-0.3
	c1.8,0.3,2.3,0.7,2.4,0.8c-0.1,0.1-0.4,0.3-1.3,0.5c-0.5,0.1-1,0.2-1.4,0.3c-1.3,0.2-2.8,0.3-4.6,0.3c-1.7,0-3.3-0.1-4.6-0.3
	C9.8,7.9,9.3,7.8,8.8,7.7C7.9,7.5,7.7,7.3,7.6,7.2C7.7,7.1,8.2,6.7,10,6.4L9.9,6.8z M10.9,6.5L11.4,5c0.2-0.5,0.5-0.8,0.9-1
	c0.4-0.2,0.9-0.2,1.4,0.1c0.7,0.4,1.5,0.4,2.3,0c0.2-0.1,0.5-0.2,0.7-0.2c0.7,0,1.3,0.4,1.6,1.1l0.5,1.6C16.4,6.8,13.3,6.8,10.9,6.5
	z"/>
</svg>
