<?xml version="1.0" encoding="utf-8"?>
<!-- Generator: Adobe Illustrator 21.0.0, SVG Export Plug-In . SVG Version: 6.00 Build 0)  -->
<!DOCTYPE svg PUBLIC "-//W3C//DTD SVG 1.1//EN" "http://www.w3.org/Graphics/SVG/1.1/DTD/svg11.dtd">
<svg version="1.1" id="Ebene_1" xmlns="http://www.w3.org/2000/svg" xmlns:xlink="http://www.w3.org/1999/xlink" x="0px" y="0px"
	 width="30px" height="30px" viewBox="0 0 30 30" style="enable-background:new 0 0 30 30;" xml:space="preserve">
<style type="text/css">
	.st0{fill:#817E65;}
</style>
<title>services-blau</title>
<g>
	<g>
		<path class="st0" d="M24.7,27.4H5.3c-0.8,0-1.4-0.6-1.4-1.4V4c0-0.8,0.6-1.4,1.4-1.4h19.3C25.4,2.6,26,3.2,26,4v22
			C26.1,26.8,25.5,27.4,24.7,27.4z M5.3,3.5C5,3.5,4.8,3.7,4.8,4v22c0,0.3,0.2,0.5,0.5,0.5h19.3c0.3,0,0.5-0.2,0.5-0.5V4
			c0-0.3-0.2-0.5-0.5-0.5H5.3z"/>
	</g>
	<g>
		<rect x="4.4" y="13.5" class="st0" width="21.2" height="0.9"/>
	</g>
	<g>
		<rect x="14.6" y="2.9" class="st0" width="0.9" height="11"/>
	</g>
	<g>
		<path class="st0" d="M4,13.9h6.2V2.7h-3C5.4,2.7,4,4.1,4,5.9V13.9z"/>
	</g>
	<g>
		<rect x="15.1" y="3.1" class="st0" width="4.2" height="4.2"/>
	</g>
	<g>
		<rect x="21.5" y="9.7" class="st0" width="4.2" height="4.2"/>
	</g>
	<g>
		<rect x="19" y="8.6" class="st0" width="1.4" height="5.4"/>
	</g>
	<g>
		<rect x="20.4" y="3" class="st0" width="1.4" height="5.6"/>
	</g>
	<g>
		<rect x="15" y="8.6" class="st0" width="5.4" height="1.4"/>
	</g>
	<g>
		<rect x="20.8" y="7.2" class="st0" width="4.9" height="1.4"/>
	</g>
	<g>
		<path class="st0" d="M12.6,19.3c-0.3-0.3-0.7-0.6-1.1-0.9c-0.2-0.1-0.5-0.2-0.8-0.2s-0.6,0-0.8,0.1c-0.1,0-0.1-0.1-0.2-0.1
			C9.7,18,9.5,18,9.4,18s-0.2,0-0.3,0C9,17.9,9,17.8,8.9,17.7c0,0,0,0,0-0.1c-0.1-0.4-0.1-0.4,0.3-0.4c0.5,0.1,1,0.3,1.5,0.5
			c0.3,0.1,0.6,0.3,0.9,0.3c0.3,0,0.5,0.2,0.7,0.4c0.2,0.2,0.3,0.3,0.5,0.4c0.1,0,0.1,0.1,0,0.1C12.9,18.9,12.8,19.1,12.6,19.3z"/>
	</g>
	<g>
		<path class="st0" d="M11.3,26.2c0.2-0.3,0.4-0.7,0.6-1c0,0,0,0,0.1,0c0.1,0.1,0.3,0.1,0.4,0.1c0.1,0,0.1,0.1,0.1,0.3
			c-0.1,0.3-0.3,0.4-0.6,0.5C11.8,26.2,11.5,26.2,11.3,26.2z"/>
	</g>
	<g>
		<path class="st0" d="M19.5,26.2C19.4,26.2,19.4,26.1,19.5,26.2c0.1-0.4,0.2-0.6,0.3-0.9c0-0.1,0.1-0.1,0.1,0c0.1,0,0.2,0,0.4,0.1
			c0.2,0.1,0.3,0.2,0.1,0.3C20.2,25.9,19.9,26.1,19.5,26.2z"/>
	</g>
	<g>
		<path class="st0" d="M8.6,17.4c0.1,0,0.2-0.1,0.2,0C8.9,17.6,9,17.8,9,17.9c0,0,0,0.1-0.1,0.1c-0.4,0-0.7-0.2-1-0.4l-0.1-0.1
			l0.1-0.1C8.2,17.5,8.4,17.4,8.6,17.4z"/>
	</g>
	<g>
		<path class="st0" d="M7.7,20.4C8,20.3,8.3,20.2,8.5,20c0.1,0,0.1,0,0.1,0c0.1,0.1,0.3,0.2,0.5,0.2c0,0,0.1,0,0.1,0.1v0.1
			c-0.1,0.1-0.3,0.1-0.4,0.1c-0.3,0-0.6,0-0.9-0.1C7.8,20.5,7.8,20.4,7.7,20.4z"/>
	</g>
	<g>
		<path class="st0" d="M11,25.9c0.3-0.3,0.4-0.6,0.6-0.9c0-0.1,0.1-0.1,0.2-0.1c0.1,0,0.1,0,0.1,0V25c-0.2,0.3-0.4,0.6-0.6,0.9
			C11.2,26.1,11.1,26,11,25.9z"/>
	</g>
	<g>
		<path class="st0" d="M19.8,25.1c-0.1,0.3-0.3,0.6-0.4,0.9c0,0.1,0,0.1-0.1,0.1s-0.2,0-0.1-0.1c0.1-0.3,0.3-0.6,0.4-0.8
			C19.6,25,19.7,25,19.8,25.1z"/>
	</g>
	<g>
		<path class="st0" d="M7.6,20.1c0.2-0.2,0.6-0.2,0.8-0.4c0.1,0,0.1,0,0.1,0s0.1,0.1,0,0.1C8.3,20,8,20.1,7.8,20.2
			C7.7,20.2,7.6,20.1,7.6,20.1z"/>
	</g>
	<g>
		<path class="st0" d="M8.4,17.3c-0.1,0-0.3,0-0.4,0c0,0-0.1,0-0.1-0.1c0,0,0-0.1,0.1-0.1c0.3-0.1,0.5,0,0.8,0
			c0.1,0,0.1,0.1,0.1,0.1c0,0.1,0,0.1-0.1,0.1C8.6,17.3,8.5,17.3,8.4,17.3z"/>
	</g>
	<g>
		<path class="st0" d="M16.8,15.6L16.8,15.6L16.8,15.6z"/>
		<path class="st0" d="M22.1,17c-0.1-0.2-0.2-0.2-0.3-0.1c0,0-0.1,0.1-0.1,0c-0.1-0.1,0-0.1,0-0.2c0,0,0-0.1,0.1-0.1
			c0-0.1,0.1-0.2,0-0.3c-0.1-0.1-0.2-0.2-0.3-0.1h-0.1c-0.1-0.1-0.3-0.1-0.4-0.2c-0.1-0.1-0.2-0.1-0.2,0.1c0,0,0,0.1-0.1,0.2
			c-0.1-0.1-0.1-0.2,0-0.3c0-0.1,0.1-0.2,0-0.3s-0.3-0.1-0.4,0h-0.1c-0.1-0.1-0.2-0.1-0.4-0.1c-0.3-0.1-0.3-0.1-0.4,0.2l0,0
			c0,0,0,0-0.1,0.1c0,0,0,0-0.1-0.1c0-0.1,0-0.2,0-0.2c0-0.3-0.2-0.3-0.4-0.2c-0.1,0.1-0.2,0.1-0.3,0c-0.1,0-0.2,0-0.3,0
			c-0.2,0,0,0.2-0.2,0.3c0,0,0,0,0,0.1c-0.1-0.1,0-0.1-0.1-0.2c0-0.2-0.2-0.3-0.4-0.2c0,0-0.1,0-0.1,0.1c-0.1,0.1-0.3,0-0.3-0.1
			s-0.2-0.3-0.4-0.2c0,0.1,0.1,0.2,0,0.3c0,0,0,0.1-0.1,0.1s0-0.1,0-0.1C16.4,15,16.3,15,16.1,15c0.1,0.3,0,0.4-0.2,0.4l0,0
			c-0.1-0.1-0.2,0-0.3,0c0,0.1-0.1,0.1-0.2,0.1c-0.3,0.1-0.6,0.1-0.9,0.1c-0.1,0-0.2,0.1-0.3,0.1v0.1c0,0.1,0.1,0,0.1,0
			c0.1,0,0.2,0,0.3,0s0.1,0,0.1,0.1c0,0,0,0.1-0.1,0.1s-0.2,0-0.3,0c-0.2,0-0.2,0.1-0.2,0.2s0.1,0.1,0.2,0.1c0.2,0,0.5-0.1,0.6,0.1
			c0,0.1,0,0.2-0.1,0.2c0-0.1-0.1-0.1-0.2-0.1c-0.1,0-0.3,0-0.4,0c-0.4,0-0.9,0.1-1.3-0.3c0,0.1-0.1,0.2,0,0.3
			c0.1,0.2,0.5,0.3,0.7,0.3c0.1,0,0.3,0,0.4,0c0,0.1,0,0.2,0.2,0.2c0.1,0,0.1,0,0.1,0.1c-0.1,0.1-0.1,0.2-0.2,0.3
			c-0.1,0.1-0.3,0.2-0.4,0.2c0,0.1,0.1,0.1,0.2,0.1c0.3,0.1,0.8-0.2,0.9-0.5C14.9,17,15,17,15.1,17s0.2,0,0.3,0
			c0.2,0.1,0.4,0.2,0.6,0h0.1c-0.1,0.1-0.1,0.1-0.2,0.2c-0.2,0.1-0.5,0.1-0.7,0c-0.1,0-0.1,0-0.1,0.1c0,0.2-0.1,0.3-0.3,0.4
			c-0.3,0.1-0.6,0.2-0.9,0.3c-0.3,0.2-0.6,0.4-0.9,0.6c-0.3,0.2-0.4,0.5-0.6,0.8c0,0.1,0,0.1,0.1,0.2c0.2,0,0.3,0.1,0.5,0.2
			c0,0,0.1,0,0.1,0.1c0,0,0,0-0.1,0c-0.3-0.1-0.7-0.1-1-0.3c-0.2-0.1-0.4-0.2-0.7-0.1s-0.7,0-1,0c-0.5-0.1-0.9-0.1-1.4-0.1
			c-0.1,0-0.2,0-0.3,0.1c-0.1,0-0.2,0.1-0.2,0.2s0,0.2,0.2,0.3c0.2,0.1,0.4,0.1,0.6,0.1c0.2,0,0.3,0,0.4,0.2c0,0.2,0.2,0.2,0.3,0.2
			c0.2-0.1,0.5-0.1,0.7-0.1c0.5,0,1,0.1,1.5,0.3c0.3,0.1,0.5,0.3,0.8,0.4c0.2,0.1,0.4,0.2,0.5,0.3c0.1,0.2,0.2,0.1,0.3,0
			s0.2-0.2,0.3-0.2c0.5-0.1,0.9-0.2,1.4-0.2c0.2,0,0.2,0.2,0.2,0.3c0.1,0.1-0.1,0.1-0.2,0.2c-0.5,0.1-0.9,0.3-1.3,0.5
			c-0.2,0.1-0.4,0.3-0.6,0.5c-0.1,0.1-0.2,0.3-0.3,0.4C13,23,12.8,23.1,12.6,23c-0.1,0-0.2-0.1-0.3-0.1c0.1,0.4,0.6,0.5,1.2,0.2
			c0,0.2-0.2,0.3-0.4,0.3s-0.3,0-0.6,0.1c0.1,0.1,0.2,0.1,0.4,0.2c0.3,0,0.5,0,0.8-0.2c-0.2,0.2-0.3,0.3-0.6,0.4
			c0.3,0.1,0.7,0.1,0.9-0.2c0.1,0.2,0,0.2-0.1,0.3c-0.3,0.2-0.6,0.3-0.9,0.4c-0.5,0.1-0.9,0.3-1.3,0.6c-0.2,0.1-0.1,0.2,0,0.3
			l0.1,0.1c0.2,0.1,0.4,0.1,0.6,0c0.1-0.1,0.3-0.2,0.4,0c0,0.1,0.2,0.1,0.2,0c0.2-0.4,0.6-0.6,1-0.8c0.3-0.1,0.6-0.1,0.8-0.3
			c0.2-0.2,0.5-0.2,0.8-0.4c0.1,0,0.1-0.1,0.1-0.2s-0.1-0.1-0.2-0.1c-0.1,0-0.3-0.3-0.3-0.3c0.1-0.2,0.1-0.4,0.2-0.5
			c0.2-0.2,0.5-0.4,0.8-0.6c0.2-0.1,0.3-0.1,0.5-0.1c0,0.1-0.1,0.1-0.1,0.2c-0.1,0.3,0,0.7,0.2,0.8c0.1,0.1,0.3,0,0.3-0.1
			c0.1-0.1,0.1-0.2,0-0.3c-0.1-0.2-0.3-0.3-0.2-0.6c0-0.3,0-0.4-0.3-0.5c-0.2-0.1-0.4-0.1-0.6-0.1h-0.1c0-0.1,0.1-0.3,0.2-0.2
			c0.2,0.1,0.5,0.2,0.7,0.3c0.2,0.2,0.2,0.4,0.3,0.6c0.1,0.3,0.3,0.7,0.6,0.9c0.4,0.4,0.5,0.9,0.2,1.4c0.1,0,0.2,0,0.2-0.1
			c0.2-0.2,0.3-0.3,0.3-0.6c0-0.1,0-0.1,0-0.1c0.1,0,0.1,0.1,0.1,0.2s0,0.3,0,0.4c0,0-0.1,0.1,0,0.2s0.1,0,0.2,0s0.1-0.1,0.1-0.2
			c0.1-0.2,0.1-0.4,0.1-0.6c0.2,0.2,0.2,0.5,0.1,0.7c0.1,0,0.2,0,0.2-0.1c0.1-0.1,0.1-0.2,0.1-0.4c0-0.1,0-0.2,0.1-0.1
			c0.3,0.2,0.6,0.5,0.6,0.9c0,0.2-0.1,0.3-0.2,0.3c-0.1,0.1-0.3,0.1-0.4,0.2c0.2,0.2,0.5,0.2,0.7,0.3c0.1,0,0.1,0,0.2-0.1
			c0.1-0.2,0.3-0.3,0.5-0.3c0.1,0,0.1,0,0.2-0.1c0-0.1,0.1-0.2,0-0.4c-0.1-0.3-0.4-0.5-0.5-0.7s-0.4-0.4-0.4-0.6
			c0-0.3-0.2-0.4-0.3-0.6c-0.1-0.2-0.2-0.2-0.4,0h-0.1c-0.2,0-0.3-0.2-0.4-0.3c-0.2-0.4-0.4-0.8-0.7-1.1c0.2,0,0.3,0,0.4,0
			c0.2,0.1,0.3,0.2,0.5,0.2c0.3,0.1,0.6-0.1,0.8-0.3c-0.2,0-0.4,0.1-0.6,0c0.3-0.2,0.8-0.1,0.8-0.7c-0.3,0.3-0.7,0.3-1.1,0.3
			c-0.2,0-0.4-0.1-0.6,0c-0.3,0.1-0.5,0.1-0.7-0.1c-0.3-0.3-0.7-0.5-1.1-0.6c-0.3-0.1-0.6-0.2-0.7-0.5c0.2,0,0.5,0.1,0.5-0.2
			c-0.1,0-0.2,0-0.3-0.1c0,0-0.2,0-0.1-0.1c0-0.1,0.1-0.1,0.2-0.1c0.3,0.1,0.5,0,0.5-0.2c-0.1,0-0.2,0-0.2,0c-0.1,0-0.2-0.1-0.2-0.2
			s0.1-0.1,0.2,0c0.2,0,0.4,0,0.5-0.2c0,0,0,0,0-0.1c-0.1,0-0.1,0-0.2,0s-0.2,0-0.2-0.2c0-0.1,0-0.1,0.1-0.1
			c0.1-0.1,0.1-0.1,0.2-0.1c0.2,0.1,0.4,0.1,0.5,0.1c0.2,0,0.4,0,0.6,0c0,0,0.2,0,0.1-0.1s-0.2-0.2-0.4-0.2c-0.2,0-0.5-0.1-0.7-0.1
			c-0.1,0-0.2,0-0.2-0.1s0.1,0,0.2,0c0.5,0,1,0.1,1.5,0.3c0.7,0.2,1.3,0.6,1.8,1.1c0.3,0.3,0.5,0.7,0.5,1.2c0,0.3-0.1,0.4-0.3,0.6
			c0.4,0,0.5-0.1,0.6-0.5s0.1-0.7,0-1.1c0-0.1,0-0.4-0.3-0.2h-0.1v-0.1c0.1-0.1,0.1-0.1,0.1-0.2c0.1-0.1,0-0.4-0.1-0.4
			c-0.2,0-0.3-0.1-0.4-0.2c-0.2-0.2-0.2-0.2-0.5,0l0,0h-0.1V18c0-0.1,0.1-0.1,0.1-0.2s0.1-0.2,0-0.3c-0.1-0.1-0.2-0.1-0.3,0
			c0,0,0,0-0.1,0c-0.1-0.1-0.3-0.1-0.4-0.2c-0.2-0.1-0.2-0.1-0.3,0.1v0.1c0,0,0,0.1-0.1,0v-0.1c0.1-0.1,0-0.2,0.1-0.3
			c0-0.1,0-0.2-0.1-0.3c-0.1-0.1-0.2-0.1-0.2,0c-0.1,0.1-0.2,0.1-0.3,0c-0.1-0.1-0.3-0.2-0.4,0.1c0,0.1-0.1,0.2-0.2,0.1
			c-0.1,0,0-0.1,0-0.2s0-0.3-0.1-0.3c-0.1-0.1-0.2-0.1-0.3,0c-0.2,0.1-0.3,0-0.5,0c-0.1,0-0.1-0.1-0.1-0.2s0.1,0,0.1-0.1
			c0.4,0,0.8,0,1.2,0c0.6,0.1,1.1,0.2,1.7,0.4c0.5,0.2,0.9,0.4,1.2,0.7c0.6,0.5,0.7,0.9,0.6,1.4c0,0.1,0,0.1,0.1,0.1s0.1,0,0.2-0.1
			c0.1-0.2,0.2-0.4,0.2-0.6C22.3,17.7,22.2,17.3,22.1,17z M16.1,21c0,0.1,0,0.2-0.1,0.2s-0.1-0.1-0.1-0.2s0-0.1,0.1-0.1
			S16.2,20.9,16.1,21z M16.7,16.3c-0.2,0.2-0.6,0.2-0.8,0.1c-0.1-0.1-0.2-0.2-0.4-0.1c-0.1,0-0.1,0-0.1-0.1c0.1,0,0.2,0,0.2-0.1
			c0.1-0.1,0.2-0.1,0.3,0v0.1c0.1,0.2,0.2,0.2,0.4,0c0,0,0-0.1,0.1-0.1s0.1,0.1,0.2,0.1C16.8,16.1,16.8,16.2,16.7,16.3z M16.8,15.6
			L16.8,15.6L16.8,15.6L16.8,15.6z"/>
	</g>
</g>
</svg>
