<?xml version="1.0" encoding="utf-8"?>
<!-- Generator: Adobe Illustrator 21.0.0, SVG Export Plug-In . SVG Version: 6.00 Build 0)  -->
<!DOCTYPE svg PUBLIC "-//W3C//DTD SVG 1.1//EN" "http://www.w3.org/Graphics/SVG/1.1/DTD/svg11.dtd">
<svg version="1.1" id="Ebene_1" xmlns="http://www.w3.org/2000/svg" xmlns:xlink="http://www.w3.org/1999/xlink" x="0px" y="0px"
	 width="30px" height="30px" viewBox="0 0 30 30" style="enable-background:new 0 0 30 30;" xml:space="preserve">
<style type="text/css">
	.st0{fill:#817E65;}
</style>
<title>services-blau</title>
<g>
	<path class="st0" d="M24.6,27.4H4.8c-1.1,0-2.1-0.9-2.1-2.1V13.7c0-1.1,0.9-2.1,2.1-2.1h19.8c1.1,0,2.1,0.9,2.1,2.1v11.6
		C26.7,26.5,25.8,27.4,24.6,27.4z M4.8,12.5c-0.7,0-1.2,0.5-1.2,1.2v11.6c0,0.7,0.5,1.2,1.2,1.2h19.8c0.7,0,1.2-0.5,1.2-1.2V13.7
		c0-0.7-0.5-1.2-1.2-1.2H4.8z"/>
</g>
<g>
	<polygon class="st0" points="14.6,19.5 3.4,13 3.9,12.2 14.6,18.5 25.4,12.2 25.8,12.9 	"/>
</g>
<g>
	<path class="st0" d="M26,7.6c-0.1,0-0.1,0-0.2,0l-1.2-0.6l-1.2,0.6c-0.1,0.1-0.3,0.1-0.4,0s-0.2-0.2-0.1-0.4l0.2-1.3l-1-0.9
		c-0.1-0.1-0.1-0.2-0.1-0.4c0-0.1,0.2-0.2,0.3-0.3L23.7,4l0.6-1.2c0.1-0.1,0.2-0.2,0.3-0.2l0,0c0.1,0,0.3,0.1,0.3,0.2L25.6,4
		l1.3,0.2c0.1,0,0.3,0.1,0.3,0.3c0,0.1,0,0.3-0.1,0.4l-1,0.9l0.2,1.3c0,0.1,0,0.3-0.1,0.4C26.2,7.5,26.1,7.6,26,7.6z M23.3,4.8
		l0.6,0.6c0.1,0.1,0.1,0.2,0.1,0.3l-0.1,0.8l0.7-0.4c0.1-0.1,0.2-0.1,0.3,0l0.7,0.4l-0.1-0.8c0-0.1,0-0.2,0.1-0.3l0.6-0.6l-0.8-0.1
		c-0.1,0-0.2-0.1-0.3-0.2l-0.3-0.7l-0.3,0.7c-0.1,0.1-0.2,0.2-0.3,0.2L23.3,4.8z"/>
</g>
<g>
	<g>
		<path class="st0" d="M5.6,9.9L5.3,9.8l0.2-0.7l0.8,0.2l4.5-2.8l0.2-0.8l0.7,0.2l-0.1,0.3l11.7,2.7c0.7,0.2,1.1,0.9,1,1.6l-0.4,1.6
			h0.7l0.3-1.4c0.2-1.1-0.4-2.2-1.5-2.4L11.2,5.4L5.1,9.2L5,9.3l-0.6,2.8h0.7L5.6,9.9z"/>
	</g>
	<g>
		<path class="st0" d="M10.9,9.1l0.7-2.8l-0.2,0l-0.6,0.4l-0.5,2.4C10,9.6,9.3,10,8.6,9.9L6.3,9.3L5.6,9.7l0,0.2l2.9,0.7
			C9.6,10.8,10.6,10.2,10.9,9.1z"/>
	</g>
	<g>
		<polygon class="st0" points="11.5,6.2 11.6,5.9 10.9,5.7 10.7,6.6 11.3,6.2 		"/>
	</g>
	<g>
		<polygon class="st0" points="6.3,9.3 5.4,9.1 5.3,9.8 5.6,9.9 5.6,9.7 		"/>
	</g>
	<g>
		<polygon class="st0" points="15.9,9.4 15.2,9.3 14.5,12.1 15.3,12.1 		"/>
	</g>
	<g>
		<polygon class="st0" points="17.5,9.8 16.8,9.6 16.2,12.1 17,12.1 		"/>
	</g>
	<g>
		<polygon class="st0" points="12.6,8.7 12,8.5 11.1,12.1 11.9,12.1 		"/>
	</g>
	<g>
		<polygon class="st0" points="14.3,9 13.6,8.9 12.8,12.1 13.6,12.1 		"/>
	</g>
	<g>
		<polygon class="st0" points="19.1,10.2 18.4,10 17.9,12.1 18.7,12.1 		"/>
	</g>
	<g>
		<polygon class="st0" points="20.7,10.5 20,10.4 19.6,12.1 20.4,12.1 		"/>
	</g>
</g>
</svg>
