<?xml version="1.0" encoding="utf-8"?>
<!-- Generator: Adobe Illustrator 21.0.0, SVG Export Plug-In . SVG Version: 6.00 Build 0)  -->
<!DOCTYPE svg PUBLIC "-//W3C//DTD SVG 1.1//EN" "http://www.w3.org/Graphics/SVG/1.1/DTD/svg11.dtd">
<svg version="1.1" id="Ebene_1" xmlns="http://www.w3.org/2000/svg" xmlns:xlink="http://www.w3.org/1999/xlink" x="0px" y="0px"
	 width="30px" height="30px" viewBox="0 0 30 30" style="enable-background:new 0 0 30 30;" xml:space="preserve">
<style type="text/css">
	.st0{fill:#817E65;}
</style>
<title>services-blau</title>
<g>
	<path class="st0" d="M22.2,8.7H7.8c-0.2,0-0.4-0.2-0.4-0.4V4c0-0.2,0.2-0.4,0.4-0.4h14.4c0.2,0,0.4,0.2,0.4,0.4v4.3
		C22.7,8.5,22.5,8.7,22.2,8.7z M8.3,7.8h13.5V4.4H8.3V7.8z"/>
</g>
<g>
	<path class="st0" d="M17.6,26h-5.1c-0.2,0-0.4-0.2-0.4-0.4v-5.1c0-0.2,0.2-0.4,0.4-0.4h5.1c0.2,0,0.4,0.2,0.4,0.4v5.1
		C18,25.8,17.8,26,17.6,26z M12.9,25.1h4.2v-4.2h-4.2C12.9,20.9,12.9,25.1,12.9,25.1z"/>
</g>
<g>
	<path class="st0" d="M26.9,26h-5.1c-0.2,0-0.4-0.2-0.4-0.4v-5.1c0-0.2,0.2-0.4,0.4-0.4h5.1c0.2,0,0.4,0.2,0.4,0.4v5.1
		C27.3,25.8,27.1,26,26.9,26z M22.2,25.1h4.2v-4.2h-4.2V25.1z"/>
</g>
<g>
	<path class="st0" d="M8.2,26H3.1c-0.2,0-0.4-0.2-0.4-0.4v-5.1c0-0.2,0.2-0.4,0.4-0.4h5.1c0.2,0,0.4,0.2,0.4,0.4v5.1
		C8.7,25.8,8.5,26,8.2,26z M3.6,25.1h4.2v-4.2H3.6V25.1z"/>
</g>
<g>
	<path class="st0" d="M15,20.9c-0.2,0-0.4-0.2-0.4-0.4v-12c0-0.2,0.2-0.4,0.4-0.4s0.4,0.2,0.4,0.4v12C15.5,20.7,15.3,20.9,15,20.9z"
		/>
</g>
<g>
	<path class="st0" d="M24.3,20.9c-0.2,0-0.4-0.2-0.4-0.4V15H6.1v5.5c0,0.2-0.2,0.4-0.4,0.4s-0.4-0.2-0.4-0.4v-6
		c0-0.2,0.2-0.4,0.4-0.4h18.6c0.2,0,0.4,0.2,0.4,0.4v6C24.7,20.7,24.6,20.9,24.3,20.9z"/>
</g>
</svg>
