<?xml version="1.0" encoding="utf-8"?>
<!-- Generator: Adobe Illustrator 21.0.0, SVG Export Plug-In . SVG Version: 6.00 Build 0)  -->
<!DOCTYPE svg PUBLIC "-//W3C//DTD SVG 1.1//EN" "http://www.w3.org/Graphics/SVG/1.1/DTD/svg11.dtd">
<svg version="1.1" id="Ebene_1" xmlns="http://www.w3.org/2000/svg" xmlns:xlink="http://www.w3.org/1999/xlink" x="0px" y="0px"
	 width="30px" height="30px" viewBox="0 0 30 30" style="enable-background:new 0 0 30 30;" xml:space="preserve">
<style type="text/css">
	.st0{fill:#817E65;}
</style>
<title>services-blau</title>
<g>
	<path class="st0" d="M21.8,6.1L21.6,6h-7.5c-0.8-1.5-2.1-2.5-3.5-2.5c-2.5,0-4.4,2.9-4.4,6.7c0,2,0.6,3.8,1.5,5.1l0,0l0,0
		c0,0.1-0.1,0.4-0.2,0.8c-0.1,0.2-0.1,0.3-0.2,0.5l0,0.1c-0.3,0.3-0.6,0.6-1,0.7C4.3,17.8,3,19.6,3,21.6v1L3.2,23
		c0.3,0.2,2.6,1.6,7.4,1.6c0.4,0,0.8,0,1.1,0c0.1,1.1,1,1.9,2.1,1.9h11.2c1.2,0,2.1-0.9,2.1-2.1V11.3L21.8,6.1z M21.9,7.2l3.9,3.9
		h-2.5c-0.7,0-1.4-0.6-1.4-1.4V7.2z M7.1,10.2c0-3.1,1.6-5.8,3.5-5.8c0.9,0,1.8,0.6,2.4,1.7c0.1,0.2,0.3,0.4,0.4,0.7
		c0.5,1,0.7,2.2,0.7,3.4c0,2.1-0.7,4-1.8,5c-0.2,0.2-0.5,0.4-0.7,0.5c-0.3,0.2-0.6,0.2-1,0.2C8.7,15.9,7.1,13.3,7.1,10.2z
		 M12.9,16.9L12.9,16.9c0,0.4-0.1,1.1-0.5,1.7c-0.1,0.1-0.1,0.2-0.2,0.3c-0.2,0.2-0.3,0.3-0.5,0.4c-0.3,0.2-0.7,0.2-1.1,0.2
		c-0.7,0-1.2-0.2-1.6-0.6c-0.6-0.6-0.7-1.5-0.7-1.9l0,0l0,0c0.1-0.2,0.2-0.3,0.2-0.5l0.1-0.3l0.1,0.1c0.6,0.5,1.3,0.7,2,0.7
		c0.3,0,0.7-0.1,1-0.2c0.3-0.1,0.5-0.2,0.7-0.4c0,0,0,0,0.1,0l0.1-0.1l0.1,0.2C12.7,16.5,12.8,16.7,12.9,16.9L12.9,16.9z M11.6,23.7
		c-0.4,0-0.7,0-1.1,0c-3.7,0-5.9-0.9-6.6-1.3l-0.1,0v-0.8c0-1.6,1.1-2.9,2.6-3.3c0.3-0.1,0.6-0.2,0.8-0.4l0.1-0.1l0,0.2
		c0.2,0.6,0.4,1.1,0.8,1.5c0.6,0.6,1.3,0.9,2.3,0.9c0.4,0,0.8-0.1,1.1-0.2c0.3-0.1,0.5-0.2,0.7-0.4c0.2-0.1,0.3-0.2,0.4-0.4
		c0.4-0.4,0.6-0.9,0.8-1.5l0-0.2l0.1,0.1c0.3,0.2,0.5,0.3,0.8,0.4c1.5,0.4,2.6,1.7,2.6,3.3v0.8l-0.1,0c-0.6,0.3-2.2,1-4.8,1.2
		C12.2,23.7,11.9,23.7,11.6,23.7z M26.3,24.4c0,0.7-0.6,1.4-1.4,1.4H13.7c-0.7,0-1.3-0.5-1.3-1.2c3.5-0.3,5.3-1.4,5.5-1.5l0.2-0.4
		v-0.2h6.6c0.2,0,0.4-0.2,0.4-0.4s-0.2-0.4-0.4-0.4h-6.6v-0.1c0-0.7-0.1-1.3-0.4-1.8h7c0.2,0,0.4-0.2,0.4-0.4S25,19,24.8,19h-7.4
		c0,0-0.1,0-0.1,0c-0.6-0.8-1.4-1.4-2.5-1.7c-0.2,0-0.4-0.1-0.6-0.2h10.5c0.3,0,0.5-0.2,0.5-0.5c0-0.3-0.2-0.5-0.5-0.5H13.6
		c0,0,0,0,0,0c0,0,0-0.1,0-0.1c-0.1-0.2-0.1-0.4-0.1-0.6l0-0.1l0,0c0.3-0.3,0.5-0.7,0.7-1.1c0.1,0,0.1,0,0.2,0H18
		c0.3,0,0.5-0.2,0.5-0.5c0-0.3-0.2-0.5-0.5-0.5h-3.4c0.2-0.6,0.4-1.3,0.5-2c0,0,0,0,0.1,0H18c0.3,0,0.5-0.2,0.5-0.5
		c0-0.3-0.2-0.5-0.5-0.5h-2.9c0-0.2,0-0.3,0-0.5c0-1.3-0.2-2.5-0.6-3.5h6.7v3.1c0,1.2,0.9,2.1,2.1,2.1h3V24.4z"/>
</g>
</svg>
