<?xml version="1.0" encoding="utf-8"?>
<!-- Generator: Adobe Illustrator 21.0.0, SVG Export Plug-In . SVG Version: 6.00 Build 0)  -->
<!DOCTYPE svg PUBLIC "-//W3C//DTD SVG 1.1//EN" "http://www.w3.org/Graphics/SVG/1.1/DTD/svg11.dtd">
<svg version="1.1" id="Ebene_1" xmlns="http://www.w3.org/2000/svg" xmlns:xlink="http://www.w3.org/1999/xlink" x="0px" y="0px"
	 width="30px" height="30px" viewBox="0 0 30 30" style="enable-background:new 0 0 30 30;" xml:space="preserve">
<style type="text/css">
	.st0{fill:#817E65;}
</style>
<title>services-blau</title>
<g>
	<g>
		<path class="st0" d="M7,17.5v7H3.7v-7H7 M7.9,16.6H2.8v8.8h5.1V16.6L7.9,16.6z"/>
	</g>
	<g>
		<path class="st0" d="M21.1,4.3c1.3,0,2.3,1,2.3,2.3s-1,2.3-2.3,2.3c-1.3,0-2.3-1-2.3-2.3S19.8,4.3,21.1,4.3 M21.1,3.4
			c-1.8,0-3.2,1.4-3.2,3.2s1.4,3.2,3.2,3.2s3.2-1.4,3.2-3.2S22.9,3.4,21.1,3.4L21.1,3.4z"/>
	</g>
	<g>
		<path class="st0" d="M15.8,11.1c1.3,0,2.3,1,2.3,2.3s-1,2.3-2.3,2.3s-2.3-1-2.3-2.3S14.5,11.1,15.8,11.1 M15.8,10.2
			c-1.8,0-3.2,1.4-3.2,3.2s1.4,3.2,3.2,3.2s3.2-1.4,3.2-3.2S17.6,10.2,15.8,10.2L15.8,10.2z"/>
	</g>
	<g>
		<path class="st0" d="M14.6,22.2c-0.8,0-1.5,0-2.1,0c-0.2,0-0.4-0.2-0.4-0.5c0-0.2,0.2-0.5,0.5-0.4c2.9,0.1,6.4,0,7-0.4
			C19.6,20.2,19.1,20,19,20h-4c-0.1,0-0.2,0-0.2-0.1c0,0-0.9-0.5-1.5-1.2c-0.3-0.3-1.4-0.4-2.3-0.4l-3.1,0c-0.2,0-0.5-0.2-0.5-0.5
			c0-0.2,0.2-0.5,0.5-0.5H11c0.4,0,2.4-0.1,3,0.7c0.4,0.5,0.9,0.8,1.1,1h3.9c0,0,0.1,0,0.1,0c0.5,0.1,1.4,0.7,1.4,1.9
			c0,0.1,0,0.3-0.2,0.5C19.7,22.1,16.9,22.2,14.6,22.2z"/>
	</g>
	<g>
		<path class="st0" d="M15.7,26.6c-1.9,0-7.3-2.5-8-2.8c-0.2-0.1-0.3-0.4-0.2-0.6C7.6,23,7.8,22.9,8.1,23c2.4,1.1,6.6,2.9,7.7,2.7
			c1.1-0.1,6.6-2.9,10.4-4.9c-0.4-0.5-1.1-1.1-1.8-1.1c-1,0-3.2,1.2-4,1.7c-0.2,0.1-0.5,0.1-0.6-0.2c-0.1-0.2-0.1-0.5,0.2-0.6
			c0.3-0.2,3-1.8,4.5-1.8c1.6,0,2.8,1.9,2.8,1.9c0.1,0.1,0.1,0.2,0.1,0.4c0,0.1-0.1,0.2-0.2,0.3c-1,0.5-9.5,5-11.1,5.2
			C15.8,26.6,15.7,26.6,15.7,26.6z"/>
	</g>
</g>
</svg>
