<?xml version="1.0" encoding="utf-8"?>
<!-- Generator: Adobe Illustrator 21.0.0, SVG Export Plug-In . SVG Version: 6.00 Build 0)  -->
<!DOCTYPE svg PUBLIC "-//W3C//DTD SVG 1.1//EN" "http://www.w3.org/Graphics/SVG/1.1/DTD/svg11.dtd">
<svg version="1.1" id="Ebene_1" xmlns="http://www.w3.org/2000/svg" xmlns:xlink="http://www.w3.org/1999/xlink" x="0px" y="0px"
	 width="30px" height="30px" viewBox="0 0 30 30" style="enable-background:new 0 0 30 30;" xml:space="preserve">
<style type="text/css">
	.st0{fill:#817E65;}
</style>
<title>services-blau</title>
<path class="st0" d="M19,23.2c-1.2-0.1-1.2-0.1-1.2-1.4V12h-7.4v2.1l0.5,0.1c0.4,0,0.7,0.1,1.1,0.2c0.1,0.4,0.1,0.7,0.1,1.1v6.4
	c0,1.3,0,1.3-1.2,1.4l-0.5,0.1v2.2h9.1v-2.2L19,23.2z M13.3,21.8v-6.2c0-1.6-0.1-2.2-1.3-2.4h4.8v8.7c0,1.7,0.2,2.2,1.7,2.5v0.1
	h-6.8v-0.1C13.1,24.1,13.3,23.5,13.3,21.8z"/>
<path class="st0" d="M14.9,10.7c1.7,0,3.1-1.4,3.1-3.1c0-1.7-1.4-3.1-3.1-3.1c-1.7,0-3.1,1.4-3.1,3.1C11.8,9.3,13.2,10.7,14.9,10.7z
	 M13,7.6c0-1.1,0.9-2,2-2c1.1,0,2,0.8,2,1.9c0,0,0,0.1,0,0.1c0,1.1-0.9,2-2,2S13,8.7,13,7.6z"/>
</svg>
