<?xml version="1.0" encoding="utf-8"?>
<!-- Generator: Adobe Illustrator 21.0.0, SVG Export Plug-In . SVG Version: 6.00 Build 0)  -->
<!DOCTYPE svg PUBLIC "-//W3C//DTD SVG 1.1//EN" "http://www.w3.org/Graphics/SVG/1.1/DTD/svg11.dtd">
<svg version="1.1" id="Ebene_1" xmlns="http://www.w3.org/2000/svg" xmlns:xlink="http://www.w3.org/1999/xlink" x="0px" y="0px"
	 width="30px" height="30px" viewBox="0 0 30 30" style="enable-background:new 0 0 30 30;" xml:space="preserve">
<style type="text/css">
	.st0{fill:#817E65;}
</style>
<title>services-blau</title>
<g>
	<path class="st0" d="M26.8,23.2c0-0.1-0.1-0.2-0.1-0.2l-5-5c-0.1-0.1-0.2-0.1-0.3-0.1c0,0,0,0-0.1,0S21,18,21,18.1l-1.1,2l-2,1.1
		c-0.1,0.1-0.2,0.2-0.2,0.3c0,0.1,0,0.3,0.1,0.4l5,5c0,0.1,0.1,0.1,0.2,0.1c0.1,0.1,0.3,0.1,0.4,0.1c0.7,0,1.6-0.7,2.2-1.3
		C26.4,25,27.2,23.9,26.8,23.2z M26,23.6c0,0.2-0.3,0.8-1,1.6c-0.6,0.6-1.3,1-1.5,1l0,0l0,0c0,0,0,0-0.1,0l0,0l-4.5-4.5l1.6-0.9
		c0.1,0,0.1-0.1,0.2-0.2l0.9-1.6l4.5,4.5C26,23.5,26,23.5,26,23.6L26,23.6L26,23.6z"/>
	<polygon class="st0" points="19.1,13.4 19.1,13.5 19.1,13.5 19.1,13.5 19.2,13.5 19.2,13.5 19.2,13.5 19.2,13.5 19.2,13.5 
		19.1,13.4 19.1,13.4 19.1,13.4 	"/>
	<polygon class="st0" points="19.2,13.5 19.2,13.5 19.2,13.5 19.2,13.6 19.2,13.6 19.2,13.5 19.2,13.5 19.2,13.5 19.2,13.5 
		19.2,13.5 19.2,13.5 19.2,13.5 	"/>
	<path class="st0" d="M20.4,17.2c0.9-1.4,1.4-3.1,1.4-4.9c0-5.1-4.2-9.3-9.3-9.3C7.9,3,4,6.3,3.3,10.6c0,0.1,0,0.1,0,0.2
		c0,0.1,0,0.2,0,0.3c-0.1,0.4-0.1,0.8-0.1,1.2v0.2c0,3.6,2.1,6.9,5.4,8.4h0.1c1.2,0.6,2.5,0.9,3.9,0.9
		C15.8,21.7,18.7,19.9,20.4,17.2z M13.5,9.9c-0.1,0.1-0.2,0.2-0.2,0.2l0,0l0,0l0,0C13.3,10,13.4,9.9,13.5,9.9L13.5,9.9
		C13.6,9.9,13.6,9.9,13.5,9.9z M15.7,7.5l0.1,0.1c-0.1,0.1-0.4,0.2-0.6,0.3c0,0,0,0-0.1,0C15.4,7.8,15.6,7.6,15.7,7.5z M20.9,12.2
		c-0.5-0.7-1.4-1.1-2.1-1.2c-0.4,0-0.5,0.1-0.6,0.2c-0.1,0.2-0.1,0.4,0,0.6c0.1,0.2,0.4,0.5,0.7,0.4c0,0,0,0,0.1,0
		c-0.1,0.2-0.3,0.4-0.5,0.5c-0.1,0-0.2,0.1-0.3,0c-0.1,0-0.2-0.2-0.2-0.3c-0.1-0.3-0.2-0.5-0.2-0.8c-0.1-0.4-0.2-0.8-0.4-1.2
		c-0.1-0.3-0.4-0.8-0.9-0.8c0,0,0,0-0.1,0c-0.2,0-0.4,0.1-0.5,0.2C15.3,9.1,15.2,9,15,9.2c-0.1,0-0.2,0.1-0.2,0.2
		c-0.1,0-0.1,0-0.2,0c-0.3,0-0.5,0-0.7,0.1c0-0.1,0-0.1,0-0.2c0-0.1,0-0.1,0-0.2l0,0C14,9,14,9,14,9c0.2-0.2,0.5-0.2,0.8-0.3
		c0.2,0,0.4-0.1,0.6-0.1c0.2-0.1,0.9-0.3,1.1-0.8c0-0.1,0.2-0.5-0.2-0.7l0,0c0,0,0,0,0-0.1l0,0c0.1,0,0.3-0.1,0.3-0.3
		c0-0.1-0.1-0.3-0.2-0.3c-0.2-0.1-0.4-0.1-0.6,0c-0.3,0.1-0.5,0.5-0.6,0.7c0,0-0.1,0.1-0.5,0.4c-0.1-0.1-0.2-0.2-0.3-0.2
		c0-0.1,0.1-0.3,0.1-0.3c0.1-0.2,0.4-0.3,0.7-0.4c0.2-0.1,0.5-0.2,0.7-0.3c0.1,0,0.3-0.2,0.5-0.2c0.1,0,0.1,0.1,0.2,0.1
		s0.1,0.1,0.2,0.1c-0.1,0.1-0.1,0.2-0.1,0.3C16.8,6.9,17.4,7,17.5,7c0.2,0,0.3-0.1,0.4-0.1c0,0,0,0,0.1,0c0.1-0.1,0.3-0.1,0.4-0.2
		c0.1,0,0.1-0.1,0.2-0.1C20,8,20.9,10,20.9,12.2z M18.1,6C18,6,18,6,18.1,6C18,5.9,18,5.9,17.9,5.8C18,5.9,18,5.9,18.1,6L18.1,6z
		 M6,7.1C6,7,6.1,7,6,7.1c0.1,0,0.1,0,0.2,0C6,7.2,5.9,7.3,5.9,7.3H5.8c-0.1,0-0.1,0-0.2,0.1c0.1-0.1,0.1-0.2,0.2-0.3
		C5.8,7.2,5.9,7.1,6,7.1z M5,8.8C5.1,9,5.4,9,5.5,9.1h0.1c0.2,0,0.2,0.1,0.2,0.1s0,0,0,0.1s0,0.1,0.1,0.2C6,9.6,6.1,9.7,6.2,9.7
		s0.2,0,0.4,0c0.1-0.1,0.2-0.2,0.2-0.3s0-0.1,0-0.2c0,0,0.1,0,0.1-0.1C7.1,8.9,7.2,8.6,7,8.4L6.9,8.3l0,0l0,0c0,0,0.1,0.1,0.1,0.2
		c0,0,0,0.1,0.1,0.1c0.1,0.1,0.2,0.2,0.4,0.2c0.1,0,0.2,0,0.3-0.1L8,9c0,0,0,0,0,0.1v0.1c-0.1,0-0.2,0-0.3,0c0,0-0.7,0.3-0.6,0.6
		c0,0.1,0.1,0.2,0.2,0.3c0,0-0.1,0-0.1,0.1c-0.4,0.2-0.6,0.5-0.7,0.8c0,0.1,0,0.1,0,0.2c0,0.1,0,0.1,0,0.1s0,0-0.1,0.1
		s-0.2,0.2-0.3,0.3c0,0,0,0-0.1,0c-0.3-0.1-0.7,0-0.9,0.1c-0.3,0.1-0.6,0.4-0.7,0.7c-0.2,0.4-0.1,0.8,0.2,1c0.2,0.2,0.4,0.2,0.6,0.2
		h0.1c0,0,0,0.1,0.1,0.1c0,0,0,0.1,0.1,0.1c-0.2-0.1-0.4-0.1-0.7-0.1c0,0,0,0-0.1,0c-0.3,0-0.4-0.2-0.5-0.8c0-0.2-0.1-0.3-0.2-0.5
		c0-0.1,0-0.2,0-0.2C4,11,4.3,9.7,4.8,8.6C4.8,8.7,4.9,8.7,5,8.8z M8.3,19.7c0-0.4,0.1-0.9,0.2-1.3c0-0.2,0.1-0.5,0.1-0.7
		c0.1-0.7-0.2-1-0.6-1.3v-0.1c-0.2-0.2-0.3-0.5-0.3-0.9s0.2-0.7,0.3-1.1c0,0,0-0.1,0-0.1s0.1,0.1,0.2,0.1c0.2,0.1,0.4,0.2,0.6,0.2
		c0.1,0,0.1,0,0.2,0c0.2,0,0.4,0.1,0.6,0.2c0.1,0.1,0.2,0.2,0.2,0.4c-0.1,0.1,0,0.2,0,0.3c0.1,0.1,0.2,0.2,0.3,0.1
		c0.4-0.1,1,0.1,1.2,0.4c0,0,0,0,0,0.2v0.1c-0.1,0.3-0.2,0.7-0.4,0.9c-0.1,0.1-0.2,0.1-0.3,0.2s-0.3,0.2-0.4,0.3
		C10,17.8,9.9,18,9.9,18.2c0,0.1-0.1,0.3-0.2,0.3c0,0.1-0.1,0.1-0.1,0.1c-0.1,0-0.2,0-0.3,0.1S9.2,18.9,9.2,19l0,0
		c0,0-0.1,0-0.1,0.1c-0.1,0-0.1,0.1-0.2,0.1c-0.2,0.1-0.3,0.3-0.4,0.5C8.4,19.8,8.3,19.7,8.3,19.7z M9.3,19.8c0,0,0.1,0,0.1-0.1
		c0.1-0.1,0.4-0.2,0.5-0.5c0.1-0.1,0.2-0.1,0.3-0.2c0.2-0.2,0.2-0.4,0.3-0.6c0-0.1,0.1-0.3,0.2-0.3c0.1-0.1,0.2-0.1,0.3-0.2
		s0.3-0.2,0.5-0.3c0.3-0.3,0.4-0.8,0.5-1.2v-0.1c0.1-0.4,0.1-0.6-0.1-0.8c-0.3-0.4-0.9-0.6-1.3-0.6c0-0.3-0.2-0.6-0.5-0.8
		s-0.6-0.2-0.9-0.2c-0.1,0-0.1,0-0.2,0c-0.1,0-0.3-0.1-0.4-0.2c-0.2-0.1-0.4-0.2-0.7-0.2c-0.2,0.1-0.4,0.2-0.5,0.5
		C7.2,14.5,7,15,7,15.4c0,0.6,0.2,1.1,0.6,1.4l0.1,0.1C8,17.2,8,17.2,8,17.5c0,0.2-0.1,0.5-0.1,0.7c-0.1,0.3-0.1,0.7-0.2,1.1
		c-1.7-1.2-2.9-2.9-3.4-4.9c0.1,0.1,0.3,0.1,0.4,0.1l0,0c0.3,0,0.6,0.1,0.8,0.2c0.3,0.1,0.6,0.2,1,0.2c0.2,0,0.3-0.1,0.3-0.3
		s-0.1-0.3-0.3-0.3c0,0-0.1,0-0.1-0.1v-0.1c0-0.1,0-0.4-0.2-0.6c-0.1,0-0.1-0.1-0.2-0.1c0-0.1,0-0.3,0-0.4c-0.1-0.1-0.2-0.2-0.3-0.2
		c-0.3,0-0.4,0.2-0.4,0.3l0,0l0,0H5.2C5,13,4.9,12.9,5,12.7c0.1-0.1,0.2-0.2,0.3-0.3c0.2-0.1,0.3-0.1,0.4-0.1s0.2,0.1,0.2,0.2
		c0,0.1,0.1,0.2,0.2,0.3c0.2,0.1,0.4,0.1,0.5,0c0.2-0.2,0.2-0.5,0.1-0.7V12l0,0l0,0c0.1,0,0.1-0.1,0.2-0.2C7,11.6,7,11.5,7,11.3
		v-0.1c0-0.2,0.2-0.3,0.4-0.4c0.2-0.1,0.5-0.2,0.7-0.2c0.1,0,0.2-0.1,0.2-0.2c0-0.1,0-0.2-0.1-0.3c0-0.1,0-0.2-0.1-0.2
		c0.3,0,0.7-0.1,0.9-0.3c0-0.2,0.1-0.4,0-0.5C8.9,8.9,8.8,8.8,8.6,8.7c0-0.1-0.1-0.1-0.1-0.1L8.1,8C8,7.9,7.9,7.8,7.8,7.8
		s-0.2,0-0.2,0.1C7.5,7.8,7.3,7.6,7.1,7.5c-0.2,0-0.3,0-0.4,0.1C6.5,7.7,6.4,7.8,6.3,8s-0.1,0.4,0,0.6c0,0,0,0-0.1,0
		c0,0-0.2-0.1-0.4-0.2H5.7c-0.1,0-0.2-0.1-0.3-0.1c0.1-0.1,0.2-0.1,0.2-0.2L5.7,8h0.1C6,8,6.1,8,6.2,7.9s0.5-0.5,0.6-0.6
		C7,7.1,7,6.9,6.8,6.7C6.7,6.6,6.6,6.5,6.4,6.4c1.5-1.6,3.7-2.6,6.1-2.6c2,0,3.9,0.7,5.3,1.9c-0.2-0.1-0.4-0.1-0.5-0.1h-0.1
		c-0.1,0-0.1-0.1-0.2-0.1c-0.1-0.1-0.3-0.2-0.4-0.2c-0.4-0.1-0.7,0.1-1,0.2c-0.2,0.1-0.4,0.2-0.6,0.2c-0.4,0.1-0.8,0.3-1.1,0.7
		c0,0-0.5,0.8-0.2,1.1c0.1,0.1,0.3,0.1,0.4,0.1l0,0v0.1c0,0.1,0,0.1,0.1,0.2C14,8,13.7,8.1,13.5,8.3s-0.3,0.4-0.3,0.6
		c0,0.1,0,0.1,0,0.1s-0.1,0-0.1,0.1c-0.1,0.1-0.3,0.1-0.4,0.2c-0.2,0.2-0.3,0.6-0.1,0.8c0.2,0.3,0.5,0.4,0.8,0.4
		c0.3-0.1,0.5-0.3,0.6-0.5c0-0.1,0.1-0.1,0.1-0.2c0.1-0.1,0.2-0.1,0.4-0.1S14.9,9.9,15,10s0.2,0.2,0.4,0.2c0.1,0,0.1,0,0.2-0.1
		c0.1,0.1,0.3,0.2,0.5,0.2s0.3-0.2,0.4-0.3l0,0c0.1,0,0.2,0.2,0.3,0.4c0.2,0.3,0.2,0.7,0.3,1c0.1,0.3,0.1,0.6,0.3,0.9
		c0.1,0.2,0.2,0.5,0.5,0.6c0.3,0.2,0.6,0.1,1,0c0.5-0.2,0.8-0.6,0.9-1.1c0-0.1,0-0.1,0-0.2c0.4,0.2,0.8,0.6,0.9,0.9c0,0,0,0.1,0,0.2
		c0,0.1,0,0.2,0,0.3c0,0.2,0.1,0.3,0.2,0.4c-0.3,1.5-0.9,2.9-1.8,4c0,0,0,0,0-0.1c0-0.3-0.1-0.5-0.3-0.6c-0.1-0.1-0.3-0.2-0.6,0
		c-0.3,0.2-0.4,0.6-0.4,0.8v0.1c0,0.1-0.1,0.5,0.2,0.7c0,0,0.1,0.1,0.2,0.1c-1.5,1.3-3.4,2.1-5.5,2.1C11.5,20.5,10.3,20.2,9.3,19.8
		C9.1,20,9.2,19.9,9.3,19.8z"/>
	<path class="st0" d="M12.9,15.2c0,0,0.1,0,0.1-0.1c0.1-0.1,0.3-0.1,0.4,0c0.3,0.2,0.5,0.6,0.6,0.9c0.1,0.3,0.1,0.7,0.1,1
		c0,0.6,0,1.2,0.3,1.8c0.1,0.3,0.3,0.6,0.7,0.7c0.1,0,0.2,0,0.3,0c0.3,0,0.6-0.1,0.8-0.4c0.3-0.3,0.4-0.7,0.5-1
		c0.1-0.2,0.1-0.4,0.2-0.6l0.1-0.1c0.1-0.1,0.2-0.2,0.3-0.3c0.2-0.3,0.1-0.6,0.1-0.9c0-0.1-0.1-0.3,0-0.4c0-0.2,0.2-0.4,0.4-0.6l0,0
		c0.3-0.3,0.6-0.7,0.5-1.2c0-0.2-0.2-0.3-0.3-0.3l0,0c0,0,0,0-0.1,0s-0.1,0-0.2,0h-0.2c0,0-0.1-0.1-0.1-0.2
		c-0.1-0.1-0.1-0.2-0.2-0.3c-0.2-0.3-0.4-0.7-0.5-1c0.1-0.1,0.1-0.2,0.1-0.4c0-0.1-0.1-0.3-0.2-0.4c-0.2-0.1-0.4-0.1-0.6-0.1h-0.1
		c-0.1,0-0.1,0-0.2,0h-0.1c-0.1,0-0.1-0.1-0.2-0.1c-0.2-0.1-0.5,0-0.6,0.2l0,0c-0.1,0-0.3-0.1-0.3-0.2v-0.1c0-0.1,0-0.3-0.2-0.4
		C14.2,11,13.9,11,13.8,11c-0.1,0-0.2,0-0.4,0.1c-0.3,0-0.5,0.1-0.8,0.2c-0.4,0.2-0.5,0.5-0.7,0.7c0,0.1-0.1,0.2-0.2,0.3
		c0,0.1-0.1,0.1-0.1,0.2c-0.3,0.3-0.5,0.7-0.5,1.3c0,0.5,0.2,0.9,0.6,1.3c0.1,0.1,0.3,0.4,0.7,0.4C12.6,15.4,12.8,15.3,12.9,15.2z
		 M14.4,12.3c0.4,0.2,0.7,0.1,0.9-0.1c0,0,0,0,0.1,0s0.1,0.1,0.2,0.1c0.1,0,0.3,0,0.4,0c0,0.5,0.4,1,0.6,1.5
		c0.1,0.1,0.1,0.2,0.2,0.3s0.2,0.3,0.3,0.4c0.1,0.1,0.3,0.1,0.4,0.1l0,0c-0.1,0.1-0.2,0.2-0.2,0.3l0,0c-0.3,0.3-0.6,0.6-0.6,1
		c0,0.2,0,0.4,0.1,0.6c0,0.2,0.1,0.3,0,0.4L16.7,17c-0.1,0.1-0.2,0.1-0.3,0.3c-0.2,0.3-0.3,0.5-0.3,0.8c-0.1,0.3-0.1,0.5-0.3,0.7
		c-0.1,0.1-0.3,0.2-0.4,0.2c-0.1,0-0.2-0.1-0.2-0.4C15,18.1,15,17.6,15,17c0-0.4,0-0.7-0.1-1.1c-0.1-0.5-0.4-1.1-0.9-1.4
		c-0.2-0.1-0.4-0.1-0.5-0.1c-0.2,0-0.3,0-0.5,0.1c-0.1,0-0.1,0.1-0.2,0.1l-0.1,0.1c0,0-0.1,0-0.2-0.2c-0.3-0.3-0.4-0.7-0.4-1
		s0.1-0.5,0.3-0.8c0-0.1,0.1-0.1,0.1-0.2c0.1-0.1,0.1-0.2,0.2-0.3c0.1-0.2,0.2-0.3,0.3-0.4c0.2-0.1,0.4-0.1,0.6-0.1
		c0.1,0,0.2,0,0.3,0C13.8,11.9,14.1,12.2,14.4,12.3z"/>
</g>
</svg>
