<?xml version="1.0" encoding="utf-8"?>
<!-- Generator: Adobe Illustrator 21.0.0, SVG Export Plug-In . SVG Version: 6.00 Build 0)  -->
<!DOCTYPE svg PUBLIC "-//W3C//DTD SVG 1.1//EN" "http://www.w3.org/Graphics/SVG/1.1/DTD/svg11.dtd">
<svg version="1.1" id="Ebene_1" xmlns="http://www.w3.org/2000/svg" xmlns:xlink="http://www.w3.org/1999/xlink" x="0px" y="0px"
	 width="30px" height="30px" viewBox="0 0 30 30" style="enable-background:new 0 0 30 30;" xml:space="preserve">
<style type="text/css">
	.st0{fill:#817E65;}
</style>
<title>twitter-blau</title>
<path class="st0" d="M25.3,8.1c-0.1-0.2-0.4-0.3-0.6-0.3c0.1-0.2,0.2-0.4,0.2-0.6c0.1-0.3,0-0.7-0.3-0.9c-0.3-0.2-0.6-0.2-0.9,0
	c-0.6,0.3-1.2,0.6-1.8,0.8c-0.9-0.8-2-1.2-3.2-1.2c-2.7,0.1-4.9,2.3-4.8,5l0,0c-2.6-0.4-5-1.8-6.6-4C7.1,6.7,6.9,6.6,6.6,6.6H6.5
	C6.2,6.6,6,6.8,5.9,7C5.5,7.8,5.3,8.7,5.3,9.6c0,0.8,0.2,1.5,0.5,2.2c-0.1,0-0.1,0-0.1,0.1l0,0c-0.3,0.1-0.4,0.4-0.4,0.7v0.1
	c0,1.4,0.6,2.7,1.6,3.7c-0.2,0.2-0.2,0.5-0.1,0.7c0.4,1.3,1.3,2.4,2.5,3c-0.9,0.4-1.9,0.7-2.9,0.7c-0.3,0-0.6,0-0.9-0.1H5.4
	c-0.3,0-0.6,0.2-0.8,0.5c-0.1,0.4,0,0.7,0.3,1c1.9,1.3,4.2,2,6.5,2c3.5,0.1,6.8-1.5,9-4.2c2-2.4,3.1-5.5,3.1-8.6v-0.2
	c0.7-0.6,1.3-1.3,1.8-2.1C25.6,8.8,25.6,8.4,25.3,8.1z M22.7,10.8L22.7,10.8v0.6c0.2,6.3-4.7,11.6-11,11.8c-0.1,0-0.2,0-0.2,0
	c-2,0-4-0.6-5.7-1.7h0.6c1.8,0,3.6-0.6,5-1.8l0.2-0.2h-0.2c-1.6-0.1-3.1-1.1-3.6-2.7c0.6,0.1,1.2,0.1,1.7-0.1l0.3-0.1l-0.4-0.1
	c-1.8-0.4-3.1-2-3.1-3.9C6.8,12.9,7.4,13,8,13.1h0.3L7.9,13c-1.1-0.8-1.7-2.1-1.7-3.4c0-0.7,0.2-1.3,0.5-1.9c2,2.6,5,4.1,8.2,4.3H15
	v-0.1c-0.1-0.3-0.1-0.6-0.1-0.9c-0.1-2.2,1.7-4,3.9-4.1c0,0,0,0,0,0c1.1,0,2.1,0.5,2.8,1.3h0.1C22.5,8,23.3,7.7,24,7.3
	c-0.3,0.8-0.9,1.5-1.6,2L22,9.5l0.4-0.1c0.7-0.1,1.3-0.3,2-0.5C23.9,9.6,23.4,10.3,22.7,10.8z"/>
<path class="st0" d="M11.4,24.3c-2.3,0-4.6-0.7-6.6-2c-0.4-0.2-0.5-0.7-0.4-1.1c0.1-0.4,0.5-0.6,0.9-0.6h0.1c0.3,0,0.5,0.1,0.8,0.1
	c0.9,0,1.8-0.2,2.6-0.5c-1.1-0.6-1.9-1.7-2.3-2.9c-0.1-0.3,0-0.6,0.1-0.8c-1-1-1.5-2.3-1.5-3.7v-0.1c0-0.3,0.2-0.6,0.5-0.8
	c-0.3-0.7-0.4-1.5-0.4-2.3c0-0.9,0.2-1.8,0.7-2.6C6,6.7,6.3,6.5,6.6,6.5l0,0c0.3,0,0.6,0.1,0.8,0.4c1.6,2.1,3.8,3.5,6.4,3.9
	c0-2.7,2.2-4.9,4.9-5c1.2,0,2.3,0.4,3.2,1.2c0.6-0.2,1.2-0.4,1.7-0.8c0.3-0.2,0.8-0.2,1.1,0c0.3,0.3,0.4,0.6,0.3,1
	c0,0.2-0.1,0.3-0.2,0.4c0.2,0,0.4,0.1,0.5,0.3l0,0c0.3,0.3,0.3,0.8,0.1,1.2c-0.5,0.8-1.1,1.5-1.8,2.1v0.1c0,3.2-1.1,6.2-3.1,8.7
	C18.3,22.8,14.9,24.4,11.4,24.3z M5.3,20.8c-0.4,0-0.6,0.3-0.6,0.6c0,0.2,0.1,0.4,0.3,0.6c1.9,1.3,4.2,2,6.5,2
	c3.4,0.1,6.7-1.4,8.9-4.1c2-2.4,3.1-5.4,3.1-8.5v-0.2h0.1c0.7-0.6,1.3-1.3,1.8-2.1c0.2-0.3,0.1-0.6-0.1-0.8l0,0
	C25.1,8.1,24.9,8,24.7,8h-0.2l0.1-0.2c0.1-0.2,0.2-0.4,0.2-0.6c0.1-0.3,0-0.5-0.2-0.7c-0.2-0.2-0.5-0.2-0.7,0c0,0,0,0,0,0
	c-0.6,0.4-1.2,0.6-1.9,0.8h-0.1l-0.1-0.1c-0.9-0.7-2-1.2-3.1-1.2c-2.6,0.1-4.7,2.2-4.6,4.8c0,0,0,0,0,0.1v0.2h-0.2
	c-2.7-0.4-5.1-1.9-6.7-4C7.1,6.9,6.8,6.8,6.6,6.8l0,0c-0.2,0-0.4,0.1-0.5,0.3C5.7,7.9,5.5,8.7,5.5,9.6c0,0.7,0.2,1.4,0.5,2.1v0.2
	L5.9,12H5.8c-0.2,0.1-0.3,0.4-0.3,0.6v0.1c0,1.4,0.5,2.7,1.5,3.6l0,0v0.1c-0.1,0.2-0.2,0.4-0.1,0.6c0.4,1.2,1.3,2.3,2.4,2.9L9.5,20
	l-0.3,0.1c-0.9,0.4-2,0.7-3,0.7L5.3,20.8z M11.4,23.4c-2.1,0-4.1-0.6-5.8-1.7l-0.5-0.3h1.2c1.7,0,3.4-0.6,4.8-1.7
	c-1.6-0.1-3.1-1.2-3.6-2.8l-0.1-0.2h0.2c0.5,0.1,0.9,0.1,1.4,0c-1.8-0.5-3-2.2-3-4v-0.3l0.2,0.1c0.5,0.2,1,0.4,1.5,0.4
	c-1-0.8-1.6-2.1-1.6-3.4c0-0.7,0.2-1.4,0.5-2l0.1-0.2l0.1,0.2c1.9,2.5,4.8,4,8,4.2c-0.1-0.3-0.1-0.6-0.1-0.9c-0.1-2.3,1.7-4.2,4-4.3
	c1.1,0,2.2,0.5,2.9,1.3c0.8-0.2,1.6-0.5,2.3-0.9l0.4-0.2l-0.1,0.4c-0.3,0.8-0.8,1.5-1.5,2c0.6-0.1,1.2-0.3,1.7-0.5l0.5-0.2L24.6,9
	c-0.5,0.7-1.1,1.4-1.8,1.9v0.5c0.2,6.4-4.8,11.8-11.2,12C11.6,23.4,11.5,23.4,11.4,23.4z M6.3,21.7c1.6,0.9,3.4,1.3,5.2,1.3
	c6.3-0.1,11.2-5.3,11.1-11.6c0,0,0-0.1,0-0.1v-0.6l0.1-0.1c0.6-0.4,1.1-0.9,1.5-1.5c-0.5,0.2-1.1,0.3-1.6,0.4l-1.1,0.1L22.4,9
	c0.6-0.4,1.1-0.9,1.4-1.6c-0.6,0.3-1.3,0.6-2,0.7h-0.1L21.6,8c-0.7-0.8-1.7-1.2-2.7-1.2c-2.1,0.1-3.8,1.8-3.7,4c0,0,0,0,0,0
	c0,0.3,0,0.6,0.1,0.9l0.1,0.3h-0.3C11.9,11.8,9,10.3,7,7.8C6.6,8.3,6.4,8.9,6.4,9.6c0,1.3,0.6,2.6,1.7,3.3l0.7,0.5H8
	c-0.5,0-1-0.1-1.5-0.4c0.1,1.7,1.3,3.1,3,3.5l0.9,0.2L9.5,17c-0.5,0.1-1,0.2-1.5,0.1c0.6,1.4,1.9,2.3,3.4,2.4H12l-0.5,0.4
	C10,21.1,8.2,21.7,6.3,21.7z"/>
</svg>
