<?xml version="1.0" encoding="utf-8"?>
<!-- Generator: Adobe Illustrator 21.0.0, SVG Export Plug-In . SVG Version: 6.00 Build 0)  -->
<!DOCTYPE svg PUBLIC "-//W3C//DTD SVG 1.1//EN" "http://www.w3.org/Graphics/SVG/1.1/DTD/svg11.dtd">
<svg version="1.1" id="Ebene_1" xmlns="http://www.w3.org/2000/svg" xmlns:xlink="http://www.w3.org/1999/xlink" x="0px" y="0px"
	 width="30px" height="30px" viewBox="0 0 30 30" style="enable-background:new 0 0 30 30;" xml:space="preserve">
<style type="text/css">
	.st0{fill:#817E65;}
</style>
<title>services-blau</title>
<path class="st0" d="M24.9,14.5L24.9,14.5c0-0.1,0-0.1,0-0.1l0,0c0,0,0,0,0-0.1l-3-4c-0.1-0.1-0.2-0.2-0.3-0.2h-2.1V5
	c0-1-0.8-1.8-1.8-1.8h-5.1c-1,0-1.8,0.8-1.8,1.8v5.2H8.5c-0.1,0-0.3,0.1-0.3,0.2l-3,4l0,0l0,0l0,0c0,0,0,0,0,0.1l0,0c0,0,0,0,0,0.1
	V18c0,0.2,0.2,0.4,0.4,0.4H6v8c0,0.2,0.2,0.4,0.4,0.4h17.1c0.2,0,0.4-0.2,0.4-0.4v-8h0.5c0.2,0,0.4-0.2,0.4-0.4L24.9,14.5L24.9,14.5
	z M23.2,18.4V26H6.8v-7.6H23.2z M12.4,4h5.1c0.5,0,1,0.4,1,1v7h-7.1V5C11.4,4.4,11.9,4,12.4,4z M10.6,12h-0.4
	c-0.2,0-0.4,0.2-0.4,0.4s0.2,0.4,0.4,0.4h9.6c0.2,0,0.4-0.2,0.4-0.4S20,12,19.8,12h-0.4v-1h1.9l2.4,3.1H6.3L8.7,11h1.9
	C10.6,11,10.6,12,10.6,12z M24.1,14.9v2.7H5.9v-2.7C5.9,14.9,24.1,14.9,24.1,14.9z M24.8,14.3L24.8,14.3L24.8,14.3L24.8,14.3
	L24.8,14.3z"/>
</svg>
