<?xml version="1.0" encoding="utf-8"?>
<!-- Generator: Adobe Illustrator 21.0.0, SVG Export Plug-In . SVG Version: 6.00 Build 0)  -->
<!DOCTYPE svg PUBLIC "-//W3C//DTD SVG 1.1//EN" "http://www.w3.org/Graphics/SVG/1.1/DTD/svg11.dtd">
<svg version="1.1" id="Ebene_1" xmlns="http://www.w3.org/2000/svg" xmlns:xlink="http://www.w3.org/1999/xlink" x="0px" y="0px"
	 width="30px" height="30px" viewBox="0 0 30 30" style="enable-background:new 0 0 30 30;" xml:space="preserve">
<style type="text/css">
	.st0{fill:#817E65;}
</style>
<title>services-blau</title>
<g>
	<path class="st0" d="M24.1,21h-1.8v-4.8c0-0.2-0.2-0.4-0.4-0.4h-7.7v-4.5l0,0c0.9,1.5,2.5,2.6,4.4,2.6c2.8,0,5.1-2.3,5.1-5.1
		s-2.3-5.1-5.1-5.1c-2.1,0-3.8,1.2-4.6,3H7.5C7.2,6.6,7,6.8,7,7.1v3.8c0,0.2,0.2,0.4,0.4,0.4h5.9v4.5H5.6c-0.2,0-0.4,0.2-0.4,0.4V21
		H3.4C3.2,21,3,21.2,3,21.5V26c0,0.2,0.2,0.4,0.4,0.4h4.5c0.2,0,0.4-0.2,0.4-0.4v-4.5c0-0.2-0.2-0.4-0.4-0.4H6.1v-4.3h7.3V21h-1.8
		c-0.2,0-0.4,0.2-0.4,0.4v4.5c0,0.2,0.2,0.4,0.4,0.4H16c0.2,0,0.4-0.2,0.4-0.4v-4.5c0-0.2-0.2-0.4-0.4-0.4h-1.8v-4.3h7.2V21h-1.8
		c-0.2,0-0.4,0.2-0.4,0.4v4.5c0,0.2,0.2,0.4,0.4,0.4h4.5c0.2,0,0.4-0.2,0.4-0.4v-4.5C24.5,21.2,24.3,21,24.1,21z M14.6,7.5
		c0.1-0.3,0.2-0.6,0.4-0.9c0.7-1.3,2.1-2.2,3.7-2.2c2.4,0,4.3,1.9,4.3,4.3S21.1,13,18.7,13c-1.4,0-2.7-0.7-3.5-1.8
		c-0.2-0.3-0.4-0.6-0.5-0.9c-0.2-0.5-0.3-1.1-0.3-1.6C14.4,8.3,14.5,7.9,14.6,7.5z M7.4,21.9v3.6H3.8v-3.6h1.8H7.4z M7.9,10.4V7.5
		h5.8c-0.1,0.4-0.2,0.8-0.2,1.3c0,0.6,0.1,1.1,0.3,1.6C13.8,10.4,7.9,10.4,7.9,10.4z M15.6,21.9v3.6H12v-3.6h1.8H15.6z M23.7,25.5
		h-3.6v-3.6h1.8h1.8C23.7,21.9,23.7,25.5,23.7,25.5z"/>
	<path class="st0" d="M27,14.7c0-0.1-0.1-0.1-0.1-0.2L24,11.6c-0.1-0.1-0.2-0.1-0.3-0.1c-0.1,0-0.2,0.1-0.3,0.2l-0.6,1.1l-1.1,0.6
		c-0.1,0.1-0.2,0.2-0.2,0.3s0,0.3,0.1,0.3l2.9,2.9c0,0,0.1,0.1,0.2,0.1s0.2,0.1,0.3,0.1c0.6,0,1.2-0.6,1.4-0.8
		C26.7,15.8,27.2,15.1,27,14.7z M26.2,15c0,0.1-0.2,0.4-0.5,0.8c-0.4,0.4-0.7,0.5-0.8,0.5l-2.4-2.4l0.7-0.4c0.1,0,0.1-0.1,0.2-0.2
		l0.4-0.7L26.2,15L26.2,15z"/>
	<path class="st0" d="M22.1,6.8c0-0.1-0.1-0.2-0.2-0.2s-0.2,0-0.3,0c-0.1,0-0.2,0.1-0.2,0.2s0,0.2,0,0.3c1.1,3-1.5,4.4-1.5,4.5
		c-0.1,0-0.2,0.1-0.2,0.2c0,0.1,0,0.2,0,0.3c0.1,0.1,0.2,0.2,0.3,0.2c0.1,0,0.1,0,0.2,0C21.4,11.6,23.2,9.7,22.1,6.8z"/>
</g>
</svg>
