<?xml version="1.0" encoding="utf-8"?>
<!-- Generator: Adobe Illustrator 21.0.0, SVG Export Plug-In . SVG Version: 6.00 Build 0)  -->
<!DOCTYPE svg PUBLIC "-//W3C//DTD SVG 1.1//EN" "http://www.w3.org/Graphics/SVG/1.1/DTD/svg11.dtd">
<svg version="1.1" id="Ebene_1" xmlns="http://www.w3.org/2000/svg" xmlns:xlink="http://www.w3.org/1999/xlink" x="0px" y="0px"
	 width="100px" height="100px" viewBox="0 0 100 100" style="enable-background:new 0 0 100 100;" xml:space="preserve">
<style type="text/css">
	.st0{fill:#817E65;}
</style>
<title>kulturfoerderung-blau</title>
<path class="st0" d="M16.2,41v39.1c0,0.2,0.1,0.5,0.2,0.7c0.2,0.5,0.7,0.9,1.3,0.9h64.5c0.8,0,1.4-0.6,1.4-1.3c0,0,0,0,0-0.1V41h0.2
	c1.7-0.1,3-1.4,3-3.1V27c0.1-1.7-1.2-3-2.9-3.1c0,0-0.1,0-0.1,0H64.5v-4.4c-0.1-1.7-1.5-3-3.2-3h-2c-1.2,0-2.2,0.8-2.6,1.9l-0.1,0.4
	L56,15c-0.2-1.3-1.3-2.2-2.6-2.2h-5.9c-1.3,0-2.4,0.9-2.6,2.2l-0.6,3.3c-0.4-1-1.4-1.7-2.5-1.7h-2.9c-1.7-0.1-3.1,1.2-3.2,2.9
	c0,0,0,0.1,0,0.1V24H16.4c-1.7,0.1-3,1.4-3,3.1V38C13.4,39.6,14.6,40.9,16.2,41z M84,34.8V38c0,0.2-0.1,0.3-0.2,0.3H16.4
	c-0.1,0-0.2-0.1-0.2-0.3V27c0-0.2,0.1-0.3,0.2-0.3h67.4c0.1,0,0.2,0.1,0.2,0.3V34.8z M25.5,41v38h-6.6V41H25.5z M28.3,41h15.6v38
	H28.3V41z M46.6,41h6.6v38h-6.6V41z M56,41h15.4v38H56V41z M74.2,79V41h6.6v38H74.2z M61.7,23.9h-3.9l1.4-4.6h2
	c0.2,0,0.3,0.1,0.4,0.2L61.7,23.9L61.7,23.9z M46,23.9l1.4-8.4l5.8-0.1l1.5,8.5H46z M38.4,23.9v-4.4c0-0.1,0.2-0.2,0.4-0.2l2.8-0.1
	l1.3,4.7L38.4,23.9z"/>
<path class="st0" d="M88.6,84.5H11.4c-0.8,0-1.4,0.6-1.4,1.4s0.6,1.4,1.4,1.4l0,0h77.3c0.8,0,1.4-0.6,1.4-1.3c0,0,0,0,0-0.1
	C90.1,85.1,89.4,84.5,88.6,84.5C88.6,84.5,88.6,84.5,88.6,84.5z"/>
</svg>
