<?xml version="1.0" encoding="utf-8"?>
<!-- Generator: Adobe Illustrator 21.0.0, SVG Export Plug-In . SVG Version: 6.00 Build 0)  -->
<!DOCTYPE svg PUBLIC "-//W3C//DTD SVG 1.1//EN" "http://www.w3.org/Graphics/SVG/1.1/DTD/svg11.dtd">
<svg version="1.1" id="Ebene_1" xmlns="http://www.w3.org/2000/svg" xmlns:xlink="http://www.w3.org/1999/xlink" x="0px" y="0px"
	 width="100px" height="100px" viewBox="0 0 100 100" style="enable-background:new 0 0 100 100;" xml:space="preserve">
<style type="text/css">
	.st0{fill:#817E65;}
</style>
<title>stipendien-blau</title>
<path class="st0" d="M89.9,28.4c0-3.9-3.1-7-7-7H69.8c-0.2-2.6-2.1-4.7-4.6-5.2c-2-0.3-3.9,0.4-5.3,1.8c-1.1-1.2-2.7-1.9-4.3-1.9
	c-1.6,0-3.2,0.7-4.3,1.9c-1.1-1.2-2.7-1.9-4.3-1.9c-1.6,0-3.2,0.7-4.3,1.9c-1.3-1.5-3.3-2.2-5.3-1.8c-2.5,0.5-4.4,2.6-4.6,5.2H17.4
	c-2,0-3.8,0.8-5.2,2.2C10.8,25,10,26.9,10,28.9l0.1,21c0,4.4,3.6,8,8,8h6.6v0.9c0,4,2.8,7.5,6.7,8.3c0.3,0.1,0.6,0.3,0.7,0.6v2.4H30
	v13.6h37.5V70.2h-2c0.1-1.3,0.7-2.6,1.7-3.5c1.7-1.6,2.6-3.8,2.7-6.1V58h12.8c2,0,3.8-0.8,5.2-2.2c1.4-1.4,2.2-3.2,2.2-5.2
	L89.9,28.4z M69.8,24.3h12.5c2.6,0,4.7,2.1,4.7,4.7c0,0,0,0,0,0l0.1,21.2c0,2.6-2.1,4.8-4.8,4.8c0,0,0,0,0,0H69.8V24.3z M64.7,81
	H32.8v-8h31.9V81z M34.9,70.2v-2.8c-0.3-1.5-1.5-2.7-3-3c-2.6-0.6-4.5-2.9-4.4-5.6v-0.9h8.2v-36c0-0.8,0.4-1.6,1-2.2
	c0.6-0.5,1.5-0.8,2.3-0.6c1.4,0.4,2.3,1.6,2.3,3V39h2.8V21.9c0-0.8,0.4-1.6,1-2.2c0.6-0.5,1.5-0.8,2.3-0.6c1.4,0.4,2.3,1.6,2.3,3V39
	h2.8V21.9c0-0.8,0.4-1.6,1-2.2c0.6-0.5,1.5-0.8,2.3-0.6c1.4,0.4,2.3,1.6,2.3,3V39h2.8V21.9c0-0.8,0.4-1.6,1-2.2
	c0.6-0.5,1.5-0.8,2.3-0.6c1.4,0.4,2.3,1.6,2.3,3v38.1c0,1.6-0.6,3.2-1.7,4.3c-1.6,1.5-2.5,3.5-2.7,5.7H34.9z M32.9,55H17.8
	c-2.7,0-4.8-2.1-4.8-4.8l-0.1-21c0-2.6,2.1-4.8,4.8-4.8c0,0,0,0,0,0h15.2V55z"/>
</svg>
