<svg id="Ebene_1" data-name="Ebene 1" xmlns="http://www.w3.org/2000/svg" viewBox="0 0 30 30"><defs><style>.cls-1{fill:#0069b4;}</style></defs><title>image-blau</title><path class="cls-1" d="M20.6,4.5H9.4A2.26,2.26,0,0,0,7.1,6.8V23.2a2.26,2.26,0,0,0,2.3,2.3H20.6a2.26,2.26,0,0,0,2.3-2.3V6.8A2.26,2.26,0,0,0,20.6,4.5ZM8.2,18.3l3.3-2.2,2.2,1.4,4.8-3.2,3.3,2.2v6.6a1.22,1.22,0,0,1-1.2,1.2H9.4a1.22,1.22,0,0,1-1.2-1.2Zm13.6-3.1L18.5,13l-4.8,3.2-2.2-1.4L8.2,17V6.8A1.22,1.22,0,0,1,9.4,5.6H20.6a1.22,1.22,0,0,1,1.2,1.2Z"/><path class="cls-1" d="M11.5,9.7a1.9,1.9,0,0,0-1.9,1.9,1.84,1.84,0,0,0,1.9,1.9,1.84,1.84,0,0,0,1.9-1.9A1.84,1.84,0,0,0,11.5,9.7Zm.8,1.8a.7.7,0,1,1-.7-.7A.75.75,0,0,1,12.3,11.5Z"/></svg>