<svg id="Ebene_1" data-name="Ebene 1" xmlns="http://www.w3.org/2000/svg" viewBox="0 0 30 30"><defs><style>.cls-1{fill:#0069b4;}</style></defs><title>services-blau</title><path class="cls-1" d="M19,23.2c-1.2-.1-1.2-.1-1.2-1.4V12H10.4v2.1l.5.1a7.47,7.47,0,0,1,1.1.2,3.42,3.42,0,0,1,.1,1.1v6.4c0,1.3,0,1.3-1.2,1.4l-.5.1v2.2h9.1V23.4Zm-5.7-1.4V15.6c0-1.6-.1-2.2-1.3-2.4h4.8v8.7c0,1.7.2,2.2,1.7,2.5v.1H11.7v-.1C13.1,24.1,13.3,23.5,13.3,21.8Z"/><path class="cls-1" d="M14.9,10.7a3.1,3.1,0,1,0-3.1-3.1A3.12,3.12,0,0,0,14.9,10.7ZM13,7.6a2,2,0,0,1,2-2,1.94,1.94,0,0,1,2,2,2,2,0,1,1-4,0Z"/></svg>