<svg id="Ebene_1" data-name="Ebene 1" xmlns="http://www.w3.org/2000/svg" viewBox="0 0 30 30"><defs><style>.cls-1{fill:#0069b4;}</style></defs><title>word-blau</title><polygon class="cls-1" points="14.2 12.8 12.8 18 11.6 12.8 10.3 12.8 12.1 20.1 13.4 20.1 14.8 14.8 16.3 20.1 17.5 20.1 19.5 12.8 18.1 12.8 16.9 18 15.5 12.8 14.2 12.8"/><path class="cls-1" d="M16.9,4.7l-.2-.2H9.8A2.48,2.48,0,0,0,7.3,7V23a2.48,2.48,0,0,0,2.5,2.5H20.2A2.48,2.48,0,0,0,22.7,23V10.5Zm1.4,5.5A1.32,1.32,0,0,1,17,8.9V6.5l3.6,3.6H18.3Zm0,1.2h3.1V23a1.32,1.32,0,0,1-1.3,1.3H9.8A1.32,1.32,0,0,1,8.5,23V7A1.32,1.32,0,0,1,9.8,5.7h6V8.9A2.69,2.69,0,0,0,18.3,11.4Z"/></svg>