<?xml version="1.0" encoding="utf-8"?>
<!-- Generator: Adobe Illustrator 16.0.0, SVG Export Plug-In . SVG Version: 6.00 Build 0)  -->
<!DOCTYPE svg PUBLIC "-//W3C//DTD SVG 1.1//EN" "http://www.w3.org/Graphics/SVG/1.1/DTD/svg11.dtd">
<svg version="1.1" xmlns="http://www.w3.org/2000/svg" xmlns:xlink="http://www.w3.org/1999/xlink" x="0px" y="0px"
	 width="58px" height="58px" viewBox="0 0 310 321" enable-background="new 0 0 310 321"
	 xml:space="preserve">
<g id="Wappen">
	<polygon points="263.399,1.447 0,1.447 0.1,303.288 263.521,303.288 	"/>
	<path fill="#FFFFFF" stroke="#000000" stroke-width="0" d="M257.733,137.068H5.665v22.405c0,37.663-0.076,138.538-0.076,138.538
		s87.886,0,126.111,0c38.18,0,125.994,0,125.994,0s0.041-100.821,0.041-138.538L257.733,137.068z"/>
</g>
<g id="Steinbock">
	<path d="M34.751,173.282c0,0,11.023,0.769,12.334,0.457c0,0,0.5-0.063,0.375,1.124c0,0,1.289,2.721,1.769,3.14
		c0,0,0.479,0.107,0.292,1.168c0,0-0.092,0.57,0.547,1.035c0,0,0.72,1.038-0.944,1.469c0,0-0.497-0.386-1.049,0.21l-4.174,0.034
		c0,0,0.188-0.437-2.311-0.874c0,0-0.594,0.116-0.859-0.629c0,0-1.139-0.771-1.514-1.12c0,0-1.773-1.048-1.948-1.398
		c0,0-0.425,0.024-0.737-0.725c0,0,0.063,0.687-1.187-1.187C35.345,175.987,33.719,173.95,34.751,173.282"/>
	<path d="M49.875,168.868c0,0,6.729,0.172,13.314,3.083c0,0,4.344,1.812,6.672,2.528c2.328,0.717,8.823,2.881,10.488,2.965
		c0,0,4.164,1.166,5.995,1.166c0,0,4.43,1.088,6.003,2.75c0,0,2.073,1.58,2.489,2.995c0,0,1.115,2.445,2.973,3.263
		c0,0,3.166,1.783,5.135,1.716l0.104,0.944c0,0-4.957,3.795-6.084,7.554c0,0-1.085,0.759-2.605-1.654c0,0-6.611-6.594-9.019-7.92
		c0,0-6.324-4.319-10.154-4.818c0,0-5.079-0.833-8.826,0.083c0,0-2.67,1.728-4.333,1.405c0,0-1.452-0.818-1.745-1.738
		c0,0-0.927-2.14-1.629-2.777c0,0-1.881-0.997-2.291-1.15c0,0-1.326,0.347-1.576,0.264c0,0-0.589,0.753-1.832,0.25
		c0,0-1.249,0.5-1.665-1.582c0,0-0.667-2.748-1.499-3.414c0,0-0.496-0.996-0.249-1.498c0,0-0.731-0.932-0.418-2.25
		C49.125,171.033,49.458,169.035,49.875,168.868z"/>
	<path d="M131.585,172.443c0,0-1.195,1.004-0.695,2.42l-0.145,1.566c0,0-2.938,1.931-3.518,2.097c0,0-1.158,0.417-2.498,1.166
		c0,0-5.129,2.796-5.746,2.914c0,0-8.66,4.33-10.658,5.912c0,0-4.51,3.356-5.996,5.496c0,0-3.496,4.913-4.246,6.328l-0.28,2.421
		c0,0,0.53,1.16,0.448,2.075c0,0,0.416,0.093,1.082,0.047c0,0,2.572,0.081,4.451,1.391l1.236,0.889c0,0,1.266,1.046-0.857,0.546
		c-2.125-0.5-3.498-0.562-4.498-0.562c0,0-2.31-0.375-2.934-0.312c0,0-1.539-1.51-2.705-1.661c0,0-1.417-1.149-2.541-1.274
		l-1.656-0.824c0,0-8.125,0.498-8.918,0.629c0,0-0.604-0.493-1.729-0.43c0,0-9.305-0.562-10.741-1c0,0-5.433-1.624-11.241-1.187
		c0,0-2.998-0.375-5.308,0.562c0,0-2.56,0.313-3.06,0.625c0,0-3.123,1.562-2.935,2.124c0,0-0.5,1.624,0.999,2.56
		c0,0,1.461,1.378,1.387,1.782c0,0,1.298,0.217,1.548,0.654c0,0,1.936,0.063,2.123,0.313c0,0,5.058-1.125,6.12-1.125
		c0,0,2.186-1.124,2.748,2.561l0.68,2.634c0,0,0.969,0.568,2.005-0.136c0,0,6.349-3.476,16.507-2.061c0,0,10.235,1.507,21.979,8.872
		l8.986,6.094c0,0,1.174,0.771,1.59-0.811c0,0,3.58-4.33,10.16-5.079c0,0,13.238-1.083,13.654-1.083c0,0,1.441,0.019,1.18,1.966
		c0,0,0.189,3.568,0.629,3.881c0,0-7.639,2.312-8.719,2.479c0,0-8.947,3.533-11.635,5.18c0,0-4.832,3.496-6.924,6.61
		c0,0-0.344,2.531-0.676,3.947c0,0-0.168,0.75-2.082,1.082c0,0-1.957,0.58-2.229,1.04c0,0-5.287,1.009-8.232-1.347
		c0,0-3.161,0.158,0.943,3.147c0,0,1.688,1.624,5.561,2.099c0,0,4.477-0.081,5.561-0.945l1.893-1.328c0,0,0.607-0.586,1.471-0.584
		c0,0,1.277,1.167-0.805,1.833c0,0-2.652,2.198-4.656,2.598c0,0-1.904,0.896-4.826,0.314c0,0-3-1.018-0.631,1.574
		c0,0,1.539,1.841,6.201,1.425c0,0,4.912-1.083,5.66-2.748c0,0,3.832-1.749,1.168,1.333c0,0-0.527,1.988-7.258,3.242
		c0,0-1.07,2.086,5.26,1.67c0,0,3.078-0.5,5.91-4.08c0,0,1.723-0.667,1.943,0.416c0,0-1.943,4.58-13.768,7.744
		c0,0-13.379,2.461-18.9,10.158c0,0-0.916,2.498,4.247,4.663l2.013,0.883c0,0,1.358-0.64,1.754-0.263c0,0,2.063,0.212,3.143-1.953
		c0,0,1.27-2.016,3.508,0.782c0,0,1.488,3.048,4.32-1.448c0,0,6.732-9.275,14.523-9.55c0,0,1.924,0.338,3.566-1.259
		c0,0,9.553-6.177,12.051-6.926c0,0,2.248-0.666,2.416-2.249c0,0,0.818-1.809-1.422-1.945c0,0-8.82-0.386-3.158-10.127
		c0,0,3.912-7.411,16.07-10.574c0,0,2.83-1,1.748,1.748c0,0-1.422,7.429,1.246,10.958c0,0,2.531,2.95,6.93-0.924
		c0,0,0.527-1.338-0.869-1.939c0,0-2.811-4.848-2.645-8.178c0,0,0.145-6.411-4.09-7.618c0,0-1.238-0.875-2.488-0.792
		c0,0-2.104,0.33-3.758-0.251c0,0,0.623-0.616-2.846-0.433c0,0-0.279-2.63,0.748-3.554c0,0,0.676-0.191,2.527,0.158
		c0,0,5.4,0.496,7.311,2.687c0,0,1.744,1.685,2.93,4.141c0,0,2.65,7.564,2.949,9.569c0,0,0.549,3.117,3.588,5.267
		c0,0,0.855,0.568,0.865,1.317c0,0,1.916,1.103,2.336,2.05c0,0,5,6.942,4.082,13.77c0,0-0.332,3.164-2.164,4.247
		c0,0-1.414,2.415,1.914,0.5c0,0,2.416-1.832,3.166-4.08c0,0,0.332-2.248,0.082-3.58c0,0-0.193-2.584,0.943-3.208
		c0,0,1.527-0.486,1.625,2.61c0,0,0.18,3.512-0.32,5.011c0,0-2.08,4.829,1.666,1.415c0,0,1.5,0.333,2.248-8.326
		c0,0,0.75-3.997,2.623-0.417c0,0,2.289,2.248-0.293,7.744c0,0,0.25,1.832,2.832-0.666c0,0,0.5,0.5,1.498-6.578
		c0,0,0.479-3.17,4.279,1.621c0,0,3.299,2.626,4.631,7.122c0,0,1.867,3.194,0.166,4.83c0,0-0.248,1.166-3.164,2.415
		c0,0-2.475,2.475-3.941,2.944c0,0-1.25,1.36,1.68,2.705c0,0,4.555,0.475,5.906,2.117c0,0,2.268,2.475,2.768-2.271
		c0,0,0.316-2.524,2.865-2.761c0,0,2.463-0.569,4.379-0.153c0,0,2.246,0.646,2.08-3.081c0,0-0.5-2.415,0.168-2.914
		c0,0-0.498-1.611-1.082-2.013c0,0-9.02-10.551-9.209-10.888c0,0-1.555-2.243-2.002-2.248c0,0,0.779-4.594-4.414-11.333l-1.777-2.41
		c0,0-2.9,1.086-4.615,2.833c0,0,0.033-0.671-1.049-0.42c0,0-0.391,0.068-0.943-0.839l-1.471-0.908c0,0-3.25-4.862-4.93-8.43
		c0,0-2.096-5.856-6.408-8.621c0,0-0.984-0.434,1.514-1.1c0,0,8.58,3.85,9.66,4.08c0,0,7.992,1.166,10.49-2.248l0.832-0.666
		l-0.141-1.306c0,0-6.441,1.915-7.186,1.722c0,0-3.227-0.566,1.248-2.081c0,0,7.744-1.083,8.41-7.411c0,0-0.105-3.197-1.844-0.308
		c0,0-1.82,3.734-11.063,3.556c0,0-8.043-0.917-10.34-0.198c0,0-3.504,0.591-4.826,2.518c0,0-1.4-0.434-1.486-2.334
		c0,0-6.08-7.016-11.492-8.456c0,0-6.6-2.386-8.088-3.031c0,0-2.943-0.78-4.217-2.966c0,0-3.098-2.52,0.398-2.936
		c0,0,0.719-0.139,1.047,0.096c0,0,0.953,0.653,1.617,0.07c0,0,0.25,0.5,1.334-0.833c0,0,1.164-0.595,1.164-2.798
		c0,0-4.473,0.382-5.008-0.408c0,0-2.008-1.764,1.125-2.11c0,0,2.328,0.556,3.148,0.105c0,0,0.318,0.298,1.068-0.118
		c0,0,0.777,0.393,1.555-0.511c0,0,1.734-0.725,0.84-2.938c0,0-0.979-0.048-1.729,0.369c0,0-2.877,0.459-3.729-1.103
		c0,0-0.02-1.728,0.98-2.061c0,0,2.666,1.499,5.912,0.083c0,0,1.768-0.59,2.34-1.169c0,0-0.316-0.907,0.42-1.784
		c0,0,1.072-0.985-1.594-1.127c0,0-3.082,0.916-4.912-2.082c0,0,0.5-2.498,1.25-2.831c0,0,0.58-1.582,4.826,0.833
		c0,0,6.664,2.831,11.326,1.166l2.746-1.249c0,0,1.264-2.199-1.158-2.64l-1.258-1.302c0,0-7.158-0.138-9.408-1.471
		c0,0-3.66-0.635-3.578-0.999c0,0,0.18-1.362,1.131-1.098c0,0,2.117,0.682,4.115,0.598c0,0,7.992,0.999,9.242,1.666
		c0,0,10.813,3.031,12.156,3.83c0,0,10.969,5.779,13.227,8.135c0,0,8.588,7.352,11.252,14.679c0,0,3.332,6.411-2.582,12.906
		c0,0-2.33,2.831,2.248,1.166c0,0,5.83-2.082,5.83-13.239c0,0-0.088-8.13-1.564-10.751c0,0-1.018-0.739-2.1,0.51
		c0,0-4.08,2.581-0.832-1.332c0,0,4.43-4.137,1.674-6.731c0,0-2.08,0.463-3.043-0.525c0,0-2.309-0.022-3.717-2.752
		c0,0-2.248-2.301-2.744-2.808l-0.777-0.105c0,0-1.801,3.845-3.467,4.012c0,0-2.08,0.833-0.666-1.832l1.498-2.748
		c0,0,1.07-2.941,0.535-4.468c0,0-1.117-1.61-4.615-0.694c0,0-0.82,1.388-4.406-1.929c0,0-2.67-1.235-3.338-1.068
		c0,0-0.824,4.489-2.119,4.95c0,0-2.541,0.128-1.543-2.869c0,0,2.418-5.25-0.248-6.497c0,0-1.75-0.83-3-0.497
		c0,0-1.748,1.832-6.078,0.167l-2.244-0.061l-0.086,0.394c0,0-0.086,0.965-0.543,2.439c0,0-0.691,1.47-1.574,1.889
		c0,0-1.379,0.168-1.049-3.329c0,0,1.838-4.797-1.08-5.604c0,0-1.168-0.974-3.082,0.691c0,0-1.713,1.465-4.021,1.107
		c0,0-2.848-0.107-3.846-2.043c0,0,0.25-0.125,0.063-1.062l0.531-1.406c0,0,2.59,0.345,3.465-0.093c0,0,15.715-0.333,29.453,4.413
		c0,0,13.875,3.956,21.217,10.263c0,0,9.959,6.669,9.441,17.521c0,0-2.264,7.521,2.398,2.691c0,0,2.748-2.498,1.248-11.99
		c0,0-1.479-8.919-4.152-11.12c0,0-1.008-2.285-2.592-0.787c0,0-1.471,2.801-2.566,1.692c0,0,0.518-2.398,0.209-3.252
		c0,0,1.109,0.062,1.275-3.019c0,0,0.863-2.603-0.941-3.091c0,0-0.559-0.572-1.807-0.239c0,0-3.746,0.25-4.578-1.166
		c0,0-2.061-0.6-2.447-1.507c0,0-2.883-0.741-3.299-1.491c0,0-0.582-0.749-1.498,2.665c0,0-1.248,5.246-2.332,1.166
		c0,0,1.639-4.251,0.611-6.081l-0.721-1.295c0,0-3.178,0.988-8.707-0.839c0,0-4.205-1.75-5.771-1.889c0,0-0.982,3.526-1.398,5.108
		c0,0-0.455,1.095-1.643-0.701c0,0,1.145,0.118-0.105-0.839c0,0,0.094-1.484,0.629-1.679c0,0-0.545-0.527-0.047-1.61
		c0,0,0.332-2.748-1.332-2.831c0,0-3.256,1.403-6.414,0.743c0,0-5.029-0.258-5.635-0.709c0,0-0.441,0.715-0.689,1.547
		c0,0-0.906,5.302-1.619,5.481c0,0-1.379,0.763-1.213-2.9c0,0,0.211-4.719-1.311-5.606c0,0-0.938-1.138-1.688-0.888
		c0,0-2.33,0.666-2.914,2.165c0,0-2.617,1.068-3.682,0.201c0,0-1.643-3.246-1.979-3.722l-2.166-1.476c0,0-2.164-0.333-0.666,2.498
		c0,0,0.916,1.666-0.334,2.831c0,0-1.609-0.031-2.303-3.804c0,0-2.098-2.205-2.729-1.574c0,0-1.295-0.201,0.285,3.213
		c0,0,0.418,3.247-3.08,3.414c0,0-3.33,0.083-5.328,1.416c0,0-3.756,1.659-4.162,1.582c0,0-3.582,0.416-4.746,0
		c0,0-2.082-0.167-2.916,0.167l-1.35-0.034c0,0-2.879,1.348-1.889,3.147c0,0,0.574,1.383,2.406,0.883c0,0,3.178,0.969,3.154,1.11
		c0,0,0.26,1.554-0.99,1.471c0,0-2.623-0.137-3.102-0.526c0,0-3.664,0.286-3.986,1.364c0,0-0.488,2.494,1.344,2.16
		c0,0,3.984,0.256,4.531,0.253c0,0,0.563,0.379,1.678,0.104c0,0,2.877-0.4,4.121,1.078c0,0,1.076,0.479,0.66,1.729l0.256,0.866
		c0,0-2.088,2.298-6.666,1.632l-2.416-0.583c0,0-3.836,0.32-2.293,2.492c0,0,0.9,0.935,1.723,0.97c0,0,2.037,1.287,1.678,1.994
		c0,0-0.453,1.738-1.363,1.889l-1.992,2.315c0,0-1.055,0.292-0.734,0.937c0,0-1.93,0.645-2.18,0.645c0,0-2.613-0.42-1.598,1.663
		c0,0,0.6,1.084,1.764,0.917l1.277,0.236c0,0,1.639-0.486,2.553-0.236c0,0,2.914-1.332,3.582-1.998c0,0,1.248,0,1.748-1.332
		c0,0,2.664-2.248,2.914-2.498c0,0,1.635-3.161,2.082-3.165l2.648-0.318c0,0,0.016,0.984,3.428,1.067c0,0,3.313,1.192,3.496,1.136
		c0,0,2.584-0.469,3.248-0.137c0,0,0.053-0.129,0.5-0.416c0.449-0.287,2.082-0.916,2.248-1.416c0,0,2.561,0.5,0.195,1.758
		c0,0-3.102,2.025-4.273,1.989c0,0-0.957,0.255-1.602-0.206c0,0-0.729,1.239-4.559-0.194
		C134.056,173.298,132.446,171.938,131.585,172.443z"/>
	<path fill="#FFFFFF" d="M138.929,153.559c0,0-1.607-0.177-1.857,0.072c0,0-1.311,0.188-2.248,0.875c0,0-0.5,0.437-1.186,0.25
		c0,0-0.813,0.438-1.25,0.937c0,0-0.873,0.25-0.623,0.937c0,0,1.504,0.495,1.813,0.498c0,0,2.371,0.689,2.746,0.689
		c0,0,2.871,0.625,3.309,1.187c0,0,0.598,0.616,1.08,0.433c0,0,2.043,1.066,5.166-0.058l1.549-0.571c0,0,0.621,0.235,0.629-0.315
		c0,0,0.043-0.409,0.525-0.105c0,0-0.27-1.444-0.02-1.569c0,0-0.467-0.631-0.297-1.159c0,0-1.369-1.668-2.098-0.629
		c0,0,0.396,0.914-1.289,1.726c0,0-0.375,0.5-0.813,0.25c0,0-0.561,0.5-0.873,0.187c0,0-0.875,1.249-1.125,0.25l-1.186-0.125
		l-0.17-0.504c0,0-0.643-0.058-0.768-0.933c0,0-0.625,0-1.061-1.436L138.929,153.559z"/>
	<path d="M43.213,203.672c0,0-0.666,0.5-0.999,0.25c0,0-4.33,1.86-5.162,2.081c0,0-2.998,0.999-3.331,0.999
		c0,0-2.748,0.333-2.248,1.249c0,0,1.159,1.668,1.704,1.75l2.958-0.168c0,0,2.332-1.582,3.581-1.749l2.483-1.44
		c0,0,0.27,0.137,0.765-0.142l0.833-0.416l0.396-1.436C44.193,204.651,43.463,203.672,43.213,203.672z"/>
	<path d="M43.713,207.919c0,0-1.665,0.666-1.998,0.999c0,0-1.915,1.415-3.331,1.749l-2.498,0.583c0,0-2.415,0.916-1.749,2.082
		c0,0,0.5,0.75,1.416,0.583c0,0,4.163,1.749,4.996,1.582l2.594,0.486c0,0,5.815,0.43,8.063-1.069c0,0,3.061-1.643,2.114-3.652
		c0,0-1.614-0.095-2.197,0.238c0,0-2.735-0.653-3.782-1.992l-1.63-1.172L43.713,207.919z"/>
	<path d="M85.928,274.342c0,0-0.157,0.519-0.609,0.915c0,0-2.139,5.205-2.701,5.455c0,0-0.375,0.75-0.687,0.874
		c0,0-0.375,0.438-0.5,0.75c0,0-0.231,0.961-0.834,1.105c0,0-0.477,0.831-0.665,1.019c0,0-0.5,1.124-1.124,1.436
		c0,0-1.437,1.499-1.749,2.685c0,0-0.188,1,1.187,1.062l1.721,0.093l1.026-1.841l0.547-0.152c0,0,0.452-1.472,1.014-1.909
		l3.707-5.854l1.227-2.576c0,0,0.757-1.542,0.347-2.145C87.836,275.257,86.614,273.78,85.928,274.342z"/>
	<path d="M89.3,277.964c0,0-0.687,0.562-1.062,1.686c0,0-0.5,0.375-0.625,1.062c0,0-0.319,0.958-0.722,1.26
		c0,0-0.34,0.967-0.839,1.259c0,0-2.748,5.349-2.998,5.474l-0.779,0.82c0,0-0.669,1.515-0.944,1.784c0,0-0.277,1.012,0.629,0.734
		c0,0,0.844,0.472,3.155-0.09c0,0,3.502-1.302,3.875-1.588l3.931-2.846c0,0,2.623-2.436,3.123-4.871c0,0,0.375-1.499,0.688-1.686
		c0,0,0.103-1.098-0.293-1.298c0,0-2.58,0.424-4.141-0.326c0,0-2.154-0.77-2.311-1.062C89.987,278.276,89.549,277.651,89.3,277.964z
		"/>
	<path d="M188.866,276.726c0,0-1.752-0.366-2.773,1.634c0,0-0.584,1.749-1.164,2.081c0,0-0.084,1.499-0.918,1.832
		c0,0-0.334,3.204-1.125,3.476c0,0-0.539,1.77-1.205,2.27c0,0-0.818,1.695-0.369,2.346c0,0,1.619,1.484,2.449-0.764
		c0,0,3.332-4.913,3.416-5.579l0.332-0.333l0.582,1.499l-0.998,3.165l-0.744,1.803c0,0-1.088,0.861-1.006,1.694
		c0,0,0.178,0.6,1.006,0.299l1.678-0.734l1.814-0.398c0,0,0.916-0.017,1.125-0.966c0,0,0.539,0.3,1.207-0.283
		c0,0,0.953,0.046,1.1-0.976c0,0,0.98-0.523,1.23-0.773c0,0,1.336-1.109,1.916-1.22c0,0,0.609-1.677,1.471-2.518
		c0,0,0.521,0.588,0.523-2.833c0,0-1.406-0.476-1.41-0.866c0,0-2.928-1.582-3.75-1.722c0,0-2.648-0.036-2.49-0.518
		c0,0-1.006,0.185-0.758,1.85c0,0-0.08,1.499-0.58,1.749l-1.502,0.451c0,0-0.613-0.237-0.105-1.049c0,0,0.273,0.265,0.439-1.65
		L188.866,276.726z"/>
	<path fill="#E62D24" d="M105.985,157.441c0,0-2.322,0.437-2.51,2.497c0,0-0.393,2.602,1.146,2.644c0,0,0.664,1.291,1.789,1.354
		c0,0,1.402,0.399,1.748,0.624c0,0,0.873,0.313,1.248,0.125c0,0,2.668,0.389,3.082,0.101c0,0,0.729-0.288,0.979,0.149
		c0,0,1.436-0.25,1.686-0.375c0.25-0.125,3.059-0.187,3.559-0.187s3.43-0.112,3.43-0.112s0.381-0.201,0.629-0.013
		c0.25,0.188,1.063,0.188,1.063,0.188s1.467,0.119,0.828-0.909l-0.84-0.524c0,0-2.049-1.002-2.361-0.939l-0.996-0.214
		c0,0-9.994,0.089-10.869-0.098c0,0-1.748-0.125-2.748-1.624C106.847,160.125,105.812,158.94,105.985,157.441z"/>
	<path d="M35.275,168.562c0,0,5.938,0.028,7.344,0.104c1.406,0.077,1.656,0.265,1.656,0.265l2.331,0.89c0,0,1.479,1.296,0.417,2.045
		c0,0-3.185-0.188-3.56-0.313c-0.375-0.125-3.572,0.155-3.572,0.155l-0.612-0.405l-3.584,0.09
		C35.695,171.394,34.332,169.691,35.275,168.562z"/>
	<path fill="#E62D24" d="M137.509,223.859c-0.131-0.686-0.203-2.148-0.25-2.373c-0.047-0.225-0.063-0.537-0.873-1.911
		c0,0,6.791,0.391,9.047,1.757c0,0-0.758,2.504-0.523,3.551c-0.766,0.047-6.889,0.394-6.715,0.54
		C137.978,224.977,137.751,225.116,137.509,223.859z"/>
	<path fill="#E62D24" d="M144.909,224.883c-0.766,0.047-5.309,0.266-6.715,0.54c-0.107-0.165-0.443-0.307-0.686-1.564"/>
</g>
<g id="Chur">
	<rect x="5.665" y="7.111" width="58.77" height="123.581"/>
	<rect x="70.083" y="7.111" fill="#FFFFFF" width="58.77" height="123.581"/>
</g>
<g id="Davos">
	<rect x="135.53" y="9.11" fill="#FFD500" width="58.771" height="58.769"/>
	<rect x="134.823" y="8.402" width="48.857" height="48.148"/>
	<rect x="135.53" y="9.11" fill="#0071BB" width="41.775" height="41.775"/>
	<g>
		<rect x="211.319" y="9.139" width="47.439" height="47.44"/>
	</g>
	<rect x="199.966" y="9.11" fill="#0071BB" width="58.77" height="58.769"/>
	<rect x="210.587" y="8.401" width="48.855" height="48.148"/>
	<rect x="216.958" y="9.11" fill="#FFD500" width="41.775" height="41.775"/>
	<rect x="199.966" y="73.544" fill="#FFD500" width="58.77" height="58.77"/>
	<rect x="210.587" y="84.873" width="48.855" height="48.148"/>
	<rect x="216.958" y="90.538" fill="#0071BB" width="41.775" height="41.775"/>
	<g>
		<rect x="135.532" y="84.844" width="47.441" height="47.44"/>
	</g>
	<rect x="135.53" y="73.544" fill="#0071BB" width="58.771" height="58.77"/>
	<rect x="134.823" y="84.874" width="48.857" height="48.148"/>
	<rect x="135.53" y="90.538" fill="#FFD500" width="41.775" height="41.776"/>
	<!--<g>
		<path d="M374.845,1.889h9.12v34.176l34.752-34.176h11.808l-28.896,27.648l30.048,40.896h-11.521l-24.768-34.656l-11.424,10.656v24
			h-9.12V1.889z"/>
		<path d="M481.5,70.241c-1.474,0.896-3.425,1.344-5.856,1.344c-2.112,0-3.792-0.609-5.04-1.824
			c-1.248-1.215-1.872-3.168-1.872-5.856c-2.241,2.688-4.848,4.641-7.824,5.856c-2.976,1.215-6.191,1.824-9.647,1.824
			c-2.241,0-4.368-0.256-6.384-0.768c-2.017-0.511-3.761-1.327-5.232-2.448c-1.473-1.119-2.64-2.559-3.504-4.32
			c-0.864-1.76-1.296-3.888-1.296-6.384c0-2.815,0.479-5.12,1.44-6.912c0.96-1.791,2.223-3.231,3.792-4.32
			c1.567-1.087,3.359-1.935,5.376-2.544c2.016-0.607,4.079-1.104,6.191-1.488c2.239-0.447,4.368-0.783,6.384-1.008
			c2.017-0.224,3.792-0.543,5.328-0.96c1.536-0.416,2.751-1.023,3.648-1.824c0.896-0.799,1.344-1.968,1.344-3.504
			c0-1.791-0.336-3.231-1.008-4.32c-0.672-1.087-1.536-1.92-2.592-2.496c-1.057-0.576-2.241-0.96-3.553-1.152
			c-1.313-0.192-2.608-0.288-3.888-0.288c-3.456,0-6.336,0.657-8.64,1.968c-2.305,1.313-3.553,3.792-3.744,7.44h-8.16
			c0.128-3.072,0.768-5.664,1.92-7.776c1.152-2.112,2.688-3.823,4.608-5.136c1.92-1.311,4.128-2.256,6.624-2.832
			c2.496-0.576,5.119-0.864,7.872-0.864c2.239,0,4.464,0.161,6.672,0.48c2.208,0.321,4.207,0.977,6,1.968
			c1.791,0.993,3.23,2.385,4.319,4.176c1.088,1.792,1.633,4.128,1.633,7.008v25.536c0,1.92,0.11,3.329,0.336,4.224
			c0.224,0.897,0.975,1.344,2.256,1.344c0.768,0,1.599-0.159,2.496-0.48V70.241z M468.252,44.801
			c-0.769,0.576-1.729,1.024-2.88,1.344c-1.152,0.321-2.369,0.593-3.648,0.816c-1.281,0.225-2.64,0.417-4.08,0.576
			c-1.439,0.161-2.832,0.369-4.176,0.624c-1.344,0.256-2.625,0.576-3.84,0.96c-1.217,0.384-2.272,0.912-3.168,1.584
			c-0.897,0.672-1.617,1.521-2.16,2.544c-0.545,1.024-0.816,2.304-0.816,3.84c0,1.344,0.271,2.481,0.816,3.408
			c0.543,0.929,1.248,1.68,2.112,2.256c0.863,0.576,1.872,0.993,3.023,1.248c1.152,0.257,2.367,0.384,3.648,0.384
			c2.688,0,4.992-0.368,6.912-1.104c1.92-0.735,3.487-1.664,4.703-2.784c1.216-1.119,2.112-2.335,2.688-3.648
			c0.576-1.311,0.864-2.544,0.864-3.696V44.801z"/>
		<path d="M489.082,20.801h7.681v7.872h0.191c1.729-3.072,3.951-5.343,6.673-6.816c2.719-1.471,5.87-2.208,9.455-2.208
			c3.265,0,5.984,0.449,8.16,1.344c2.175,0.897,3.937,2.145,5.28,3.744c1.344,1.6,2.287,3.504,2.832,5.712
			c0.543,2.208,0.816,4.656,0.816,7.344v32.64h-8.16v-33.6c0-3.072-0.897-5.503-2.688-7.296c-1.792-1.791-4.257-2.688-7.392-2.688
			c-2.496,0-4.656,0.384-6.48,1.152c-1.823,0.768-3.345,1.857-4.56,3.264c-1.217,1.409-2.129,3.057-2.736,4.944
			c-0.608,1.889-0.912,3.953-0.912,6.192v28.032h-8.16V20.801z"/>
		<path d="M553.786,20.801h9.889V28h-9.889v30.816c0,0.96,0.08,1.728,0.24,2.304c0.159,0.576,0.464,1.024,0.912,1.344
			c0.447,0.321,1.071,0.528,1.872,0.624c0.8,0.096,1.839,0.144,3.12,0.144h3.744v7.2h-6.24c-2.112,0-3.921-0.144-5.424-0.432
			c-1.505-0.288-2.722-0.816-3.648-1.584c-0.929-0.768-1.617-1.855-2.063-3.264c-0.449-1.407-0.673-3.264-0.673-5.568V28h-8.447
			v-7.2h8.447V5.92h8.16V20.801z"/>
		<path d="M570.01,45.665c0-3.648,0.512-7.056,1.536-10.224c1.022-3.168,2.559-5.919,4.607-8.256
			c2.048-2.335,4.561-4.176,7.536-5.52c2.977-1.344,6.447-2.016,10.416-2.016c3.903,0,7.359,0.672,10.368,2.016
			c3.008,1.344,5.535,3.185,7.584,5.52c2.048,2.337,3.584,5.088,4.608,8.256c1.022,3.168,1.536,6.576,1.536,10.224
			s-0.514,7.041-1.536,10.176c-1.024,3.136-2.561,5.872-4.608,8.208c-2.049,2.337-4.576,4.176-7.584,5.52
			c-3.009,1.344-6.465,2.016-10.368,2.016c-3.969,0-7.439-0.672-10.416-2.016c-2.976-1.344-5.488-3.183-7.536-5.52
			c-2.049-2.336-3.585-5.072-4.607-8.208C570.521,52.706,570.01,49.313,570.01,45.665z M578.649,45.665
			c0,3.009,0.399,5.681,1.2,8.016c0.8,2.337,1.903,4.289,3.313,5.856c1.406,1.569,3.055,2.769,4.943,3.6
			c1.888,0.833,3.889,1.248,6,1.248c2.112,0,4.111-0.416,6-1.248c1.888-0.831,3.536-2.031,4.944-3.6
			c1.407-1.567,2.511-3.519,3.312-5.856c0.8-2.335,1.2-5.007,1.2-8.016c0-3.007-0.4-5.679-1.2-8.016
			c-0.801-2.335-1.904-4.303-3.312-5.904c-1.408-1.599-3.057-2.815-4.944-3.648c-1.889-0.831-3.888-1.248-6-1.248
			c-2.111,0-4.112,0.417-6,1.248c-1.889,0.833-3.537,2.049-4.943,3.648c-1.409,1.601-2.513,3.568-3.313,5.904
			C579.049,39.986,578.649,42.657,578.649,45.665z"/>
		<path d="M627.8,20.801h7.681v7.872h0.191c1.729-3.072,3.951-5.343,6.673-6.816c2.719-1.471,5.87-2.208,9.455-2.208
			c3.265,0,5.984,0.449,8.16,1.344c2.175,0.897,3.937,2.145,5.28,3.744c1.344,1.6,2.287,3.504,2.832,5.712
			c0.543,2.208,0.816,4.656,0.816,7.344v32.64h-8.16v-33.6c0-3.072-0.897-5.503-2.688-7.296c-1.792-1.791-4.257-2.688-7.392-2.688
			c-2.496,0-4.656,0.384-6.48,1.152c-1.823,0.768-3.345,1.857-4.56,3.264c-1.217,1.409-2.129,3.057-2.736,4.944
			c-0.608,1.889-0.912,3.953-0.912,6.192v28.032h-8.16V20.801z"/>
		<path d="M760.472,61.889c-1.344,1.792-2.865,3.329-4.56,4.608c-1.697,1.281-3.504,2.337-5.425,3.168
			c-1.92,0.831-3.904,1.44-5.951,1.824c-2.05,0.384-4.065,0.576-6.049,0.576c-5.12,0-9.695-0.96-13.728-2.88
			s-7.456-4.479-10.272-7.68c-2.816-3.199-4.96-6.879-6.432-11.04c-1.473-4.16-2.208-8.479-2.208-12.96
			c0-4.992,0.688-9.744,2.064-14.256c1.375-4.512,3.423-8.463,6.144-11.856c2.72-3.392,6.111-6.096,10.176-8.112
			c4.063-2.016,8.815-3.024,14.256-3.024c3.711,0,7.216,0.432,10.513,1.296c3.295,0.864,6.239,2.225,8.832,4.08
			c2.592,1.857,4.767,4.209,6.527,7.056c1.76,2.849,2.96,6.288,3.601,10.32h-9.12c-0.448-2.559-1.281-4.8-2.496-6.72
			c-1.217-1.92-2.721-3.487-4.512-4.704c-1.793-1.215-3.825-2.127-6.097-2.736c-2.272-0.607-4.688-0.912-7.248-0.912
			c-4.16,0-7.728,0.833-10.703,2.496c-2.977,1.665-5.409,3.856-7.297,6.576c-1.888,2.721-3.28,5.824-4.176,9.312
			c-0.896,3.489-1.344,7.056-1.344,10.704c0,3.585,0.512,7.025,1.536,10.32c1.022,3.297,2.527,6.208,4.512,8.736
			c1.983,2.529,4.431,4.545,7.344,6.048c2.912,1.505,6.288,2.256,10.128,2.256c3.52,0,6.673-0.576,9.456-1.728
			c2.784-1.152,5.137-2.736,7.057-4.752c1.92-2.016,3.343-4.383,4.271-7.104c0.927-2.72,1.328-5.647,1.2-8.784h-21.888v-7.68h30.048
			v36.096h-5.76L760.472,61.889z"/>
		<path d="M780.439,20.801h7.68v10.464h0.191c1.983-4.032,4.416-7.008,7.297-8.928c2.88-1.92,6.527-2.815,10.943-2.688v8.64
			c-3.264,0-6.048,0.449-8.352,1.344c-2.305,0.897-4.161,2.208-5.568,3.936c-1.408,1.728-2.433,3.84-3.072,6.336
			c-0.64,2.496-0.96,5.313-0.96,8.448v22.08h-8.159V20.801z"/>
		<path d="M856.662,70.241c-1.474,0.896-3.425,1.344-5.856,1.344c-2.112,0-3.792-0.609-5.04-1.824
			c-1.248-1.215-1.872-3.168-1.872-5.856c-2.241,2.688-4.848,4.641-7.824,5.856c-2.976,1.215-6.191,1.824-9.647,1.824
			c-2.241,0-4.368-0.256-6.384-0.768c-2.017-0.511-3.761-1.327-5.232-2.448c-1.473-1.119-2.64-2.559-3.504-4.32
			c-0.864-1.76-1.296-3.888-1.296-6.384c0-2.815,0.479-5.12,1.44-6.912c0.96-1.791,2.223-3.231,3.792-4.32
			c1.567-1.087,3.359-1.935,5.376-2.544c2.016-0.607,4.079-1.104,6.191-1.488c2.239-0.447,4.368-0.783,6.384-1.008
			c2.017-0.224,3.792-0.543,5.328-0.96c1.536-0.416,2.751-1.023,3.648-1.824c0.896-0.799,1.344-1.968,1.344-3.504
			c0-1.791-0.336-3.231-1.008-4.32c-0.672-1.087-1.536-1.92-2.592-2.496c-1.057-0.576-2.241-0.96-3.553-1.152
			c-1.313-0.192-2.608-0.288-3.888-0.288c-3.456,0-6.336,0.657-8.64,1.968c-2.305,1.313-3.553,3.792-3.744,7.44h-8.16
			c0.128-3.072,0.768-5.664,1.92-7.776c1.152-2.112,2.688-3.823,4.608-5.136c1.92-1.311,4.128-2.256,6.624-2.832
			c2.496-0.576,5.119-0.864,7.872-0.864c2.239,0,4.464,0.161,6.672,0.48c2.208,0.321,4.207,0.977,6,1.968
			c1.791,0.993,3.23,2.385,4.319,4.176c1.088,1.792,1.633,4.128,1.633,7.008v25.536c0,1.92,0.11,3.329,0.336,4.224
			c0.224,0.897,0.975,1.344,2.256,1.344c0.768,0,1.599-0.159,2.496-0.48V70.241z M843.414,44.801
			c-0.769,0.576-1.729,1.024-2.88,1.344c-1.152,0.321-2.369,0.593-3.648,0.816c-1.281,0.225-2.64,0.417-4.08,0.576
			c-1.439,0.161-2.832,0.369-4.176,0.624c-1.344,0.256-2.625,0.576-3.84,0.96c-1.217,0.384-2.272,0.912-3.168,1.584
			c-0.897,0.672-1.617,1.521-2.16,2.544c-0.545,1.024-0.816,2.304-0.816,3.84c0,1.344,0.271,2.481,0.816,3.408
			c0.543,0.929,1.248,1.68,2.112,2.256c0.863,0.576,1.872,0.993,3.023,1.248c1.152,0.257,2.367,0.384,3.648,0.384
			c2.688,0,4.992-0.368,6.912-1.104c1.92-0.735,3.487-1.664,4.703-2.784c1.216-1.119,2.112-2.335,2.688-3.648
			c0.576-1.311,0.864-2.544,0.864-3.696V44.801z"/>
		<path d="M905.333,70.433h-7.681v-7.872h-0.191c-1.729,3.072-3.953,5.345-6.672,6.816c-2.722,1.472-5.873,2.208-9.456,2.208
			c-3.265,0-5.985-0.448-8.16-1.344c-2.177-0.896-3.937-2.144-5.28-3.744c-1.344-1.599-2.289-3.504-2.832-5.712
			c-0.545-2.208-0.816-4.656-0.816-7.344v-32.64h8.16v33.6c0,3.072,0.896,5.505,2.688,7.296c1.791,1.792,4.255,2.688,7.392,2.688
			c2.496,0,4.656-0.384,6.48-1.152c1.824-0.768,3.343-1.855,4.56-3.264c1.215-1.407,2.127-3.056,2.736-4.944
			c0.607-1.887,0.912-3.951,0.912-6.192V20.801h8.16V70.433z"/>
		<path d="M917.909,1.889h8.16v25.632h0.192c1.344-2.751,3.456-4.752,6.336-6s6.048-1.872,9.504-1.872
			c3.84,0,7.184,0.705,10.032,2.112c2.847,1.408,5.215,3.312,7.104,5.712c1.888,2.4,3.313,5.169,4.272,8.304
			c0.96,3.136,1.439,6.465,1.439,9.984c0,3.521-0.465,6.849-1.392,9.984c-0.929,3.137-2.337,5.873-4.224,8.208
			c-1.889,2.337-4.258,4.192-7.104,5.568c-2.849,1.375-6.16,2.064-9.936,2.064c-1.281,0-2.657-0.129-4.128-0.384
			c-1.474-0.256-2.945-0.688-4.416-1.296c-1.474-0.608-2.865-1.407-4.177-2.4c-1.313-0.991-2.416-2.223-3.312-3.696h-0.192v6.624
			h-8.16V1.889z M956.31,45.185c0-2.304-0.305-4.56-0.912-6.768c-0.609-2.208-1.536-4.176-2.784-5.904s-2.849-3.104-4.8-4.128
			c-1.953-1.023-4.24-1.536-6.864-1.536c-2.752,0-5.088,0.544-7.008,1.632c-1.92,1.089-3.489,2.513-4.704,4.272
			c-1.216,1.761-2.097,3.761-2.64,6c-0.545,2.241-0.816,4.512-0.816,6.816c0,2.433,0.288,4.785,0.864,7.056
			c0.576,2.272,1.488,4.272,2.736,6s2.863,3.12,4.848,4.176c1.983,1.056,4.383,1.584,7.2,1.584c2.751,0,5.088-0.543,7.008-1.632
			c1.92-1.087,3.456-2.527,4.608-4.32c1.151-1.791,1.982-3.84,2.496-6.144C956.053,49.984,956.31,47.618,956.31,45.185z"/>
		<path d="M1015.636,70.433h-7.681v-7.872h-0.191c-1.729,3.072-3.953,5.345-6.672,6.816c-2.722,1.472-5.873,2.208-9.456,2.208
			c-3.265,0-5.985-0.448-8.16-1.344c-2.177-0.896-3.937-2.144-5.28-3.744c-1.344-1.599-2.289-3.504-2.832-5.712
			c-0.545-2.208-0.816-4.656-0.816-7.344v-32.64h8.16v33.6c0,3.072,0.896,5.505,2.688,7.296c1.791,1.792,4.255,2.688,7.392,2.688
			c2.496,0,4.656-0.384,6.48-1.152c1.824-0.768,3.343-1.855,4.56-3.264c1.215-1.407,2.127-3.056,2.736-4.944
			c0.607-1.887,0.912-3.951,0.912-6.192V20.801h8.16V70.433z M981.747,3.617h8.641v9.984h-8.641V3.617z M999.795,3.617h8.641v9.984
			h-8.641V3.617z"/>
		<path d="M1027.924,20.801h7.681v7.872h0.191c1.729-3.072,3.951-5.343,6.673-6.816c2.719-1.471,5.87-2.208,9.455-2.208
			c3.265,0,5.984,0.449,8.16,1.344c2.175,0.897,3.937,2.145,5.28,3.744c1.344,1.6,2.287,3.504,2.832,5.712
			c0.543,2.208,0.816,4.656,0.816,7.344v32.64h-8.16v-33.6c0-3.072-0.897-5.503-2.688-7.296c-1.792-1.791-4.257-2.688-7.392-2.688
			c-2.496,0-4.656,0.384-6.48,1.152c-1.823,0.768-3.345,1.857-4.56,3.264c-1.217,1.409-2.129,3.057-2.736,4.944
			c-0.608,1.889-0.912,3.953-0.912,6.192v28.032h-8.16V20.801z"/>
		<path d="M1125.651,70.433h-8.16v-6.72h-0.192c-1.344,2.753-3.455,4.752-6.336,6c-2.88,1.248-6.048,1.872-9.504,1.872
			c-3.84,0-7.185-0.705-10.031-2.112c-2.849-1.407-5.218-3.312-7.104-5.712c-1.889-2.4-3.312-5.167-4.271-8.304
			c-0.961-3.135-1.44-6.463-1.44-9.984c0-3.519,0.464-6.831,1.392-9.936c0.928-3.104,2.336-5.839,4.225-8.208
			c1.887-2.367,4.255-4.239,7.104-5.616c2.848-1.375,6.159-2.064,9.937-2.064c1.279,0,2.654,0.129,4.128,0.384
			c1.472,0.256,2.942,0.688,4.416,1.296c1.472,0.609,2.863,1.409,4.176,2.4c1.311,0.993,2.415,2.225,3.312,3.696h0.192V1.889h8.16
			V70.433z M1087.251,46.049c0,2.304,0.304,4.56,0.912,6.768c0.607,2.208,1.536,4.176,2.784,5.904s2.847,3.105,4.8,4.128
			c1.952,1.024,4.239,1.536,6.864,1.536c2.751,0,5.088-0.543,7.008-1.632c1.92-1.087,3.487-2.511,4.704-4.272
			c1.215-1.759,2.096-3.759,2.64-6c0.543-2.239,0.816-4.512,0.816-6.816c0-2.432-0.288-4.783-0.864-7.056
			c-0.576-2.271-1.487-4.272-2.735-6c-1.248-1.728-2.865-3.12-4.849-4.176c-1.984-1.056-4.385-1.584-7.2-1.584
			c-2.816,0-5.169,0.544-7.056,1.632c-1.889,1.089-3.408,2.529-4.56,4.32c-1.152,1.792-1.984,3.84-2.496,6.144
			C1087.506,41.249,1087.251,43.617,1087.251,46.049z"/>
		<path d="M1180.563,54.688c-1.09,5.505-3.489,9.696-7.2,12.576c-3.713,2.88-8.386,4.32-14.017,4.32
			c-3.969,0-7.408-0.657-10.319-1.968c-2.913-1.311-5.361-3.12-7.345-5.424c-1.984-2.304-3.472-5.055-4.464-8.256
			c-0.993-3.199-1.552-6.687-1.68-10.464c0-3.711,0.576-7.152,1.728-10.32c1.152-3.168,2.768-5.904,4.849-8.208
			c2.079-2.304,4.543-4.095,7.392-5.376c2.848-1.28,5.967-1.92,9.36-1.92c4.416,0,8.079,0.912,10.992,2.736
			c2.911,1.824,5.247,4.145,7.008,6.96c1.76,2.817,2.976,5.889,3.647,9.216c0.672,3.329,0.944,6.497,0.816,9.504h-37.152
			c-0.064,2.177,0.192,4.241,0.769,6.192c0.576,1.953,1.503,3.681,2.784,5.184c1.279,1.505,2.911,2.705,4.896,3.6
			c1.983,0.897,4.32,1.344,7.008,1.344c3.392,0,6.207-0.8,8.448-2.4c2.239-1.599,3.711-4.032,4.416-7.296H1180.563z
			 M1172.691,40.865c-0.13-1.92-0.562-3.744-1.297-5.472c-0.736-1.728-1.728-3.216-2.976-4.464s-2.736-2.24-4.464-2.976
			c-1.729-0.735-3.585-1.104-5.568-1.104c-2.111,0-4.017,0.369-5.712,1.104c-1.696,0.736-3.152,1.745-4.368,3.024
			c-1.216,1.281-2.176,2.769-2.88,4.464c-0.705,1.697-1.12,3.504-1.248,5.424H1172.691z"/>
		<path d="M1189.777,20.801h7.681v7.872h0.191c1.729-3.072,3.951-5.343,6.673-6.816c2.719-1.471,5.87-2.208,9.455-2.208
			c3.265,0,5.984,0.449,8.16,1.344c2.175,0.897,3.937,2.145,5.28,3.744c1.344,1.6,2.287,3.504,2.832,5.712
			c0.543,2.208,0.816,4.656,0.816,7.344v32.64h-8.16v-33.6c0-3.072-0.897-5.503-2.688-7.296c-1.792-1.791-4.257-2.688-7.392-2.688
			c-2.496,0-4.656,0.384-6.48,1.152c-1.823,0.768-3.345,1.857-4.56,3.264c-1.217,1.409-2.129,3.057-2.736,4.944
			c-0.608,1.889-0.912,3.953-0.912,6.192v28.032h-8.16V20.801z"/>
		<path d="M423.036,137.729c-0.513-2.432-1.344-4.56-2.496-6.384c-1.151-1.824-2.576-3.343-4.271-4.56
			c-1.696-1.215-3.601-2.127-5.712-2.736c-2.112-0.607-4.354-0.912-6.72-0.912c-4.097,0-7.601,0.768-10.513,2.304
			c-2.913,1.536-5.313,3.6-7.2,6.192s-3.28,5.553-4.176,8.88c-0.896,3.329-1.344,6.785-1.344,10.368
			c0,3.904,0.447,7.601,1.344,11.088c0.896,3.489,2.288,6.528,4.176,9.12c1.888,2.592,4.304,4.656,7.248,6.192
			c2.943,1.536,6.464,2.304,10.561,2.304c3.008,0,5.679-0.495,8.016-1.488c2.336-0.991,4.352-2.367,6.048-4.128
			c1.695-1.759,3.024-3.855,3.984-6.288c0.96-2.431,1.536-5.055,1.728-7.872h9.12c-0.896,8.577-3.888,15.297-8.976,20.16
			c-5.088,4.865-11.985,7.296-20.688,7.296c-5.313,0-9.952-0.928-13.92-2.784c-3.969-1.855-7.265-4.383-9.888-7.584
			c-2.625-3.2-4.593-6.975-5.904-11.328c-1.313-4.352-1.968-9.024-1.968-14.016c0-4.992,0.703-9.679,2.112-14.064
			c1.407-4.383,3.471-8.208,6.191-11.472c2.72-3.264,6.097-5.839,10.128-7.728c4.032-1.887,8.703-2.832,14.017-2.832
			c3.583,0,6.975,0.48,10.176,1.44c3.199,0.96,6.048,2.368,8.544,4.224c2.496,1.857,4.575,4.176,6.24,6.96
			c1.663,2.784,2.751,6,3.264,9.648H423.036z"/>
		<path d="M442.811,117.089h8.16v26.208h0.192c0.639-1.472,1.551-2.751,2.736-3.84c1.183-1.088,2.479-1.968,3.888-2.64
			c1.407-0.672,2.895-1.167,4.464-1.488c1.567-0.319,3.087-0.48,4.56-0.48c3.265,0,5.984,0.449,8.16,1.344
			c2.175,0.897,3.937,2.145,5.28,3.744c1.344,1.6,2.287,3.504,2.832,5.712c0.543,2.208,0.816,4.656,0.816,7.344v32.64h-8.16v-33.6
			c0-3.072-0.897-5.503-2.688-7.296c-1.792-1.791-4.257-2.688-7.392-2.688c-2.496,0-4.656,0.384-6.48,1.152
			c-1.823,0.768-3.345,1.857-4.56,3.264c-1.217,1.409-2.129,3.057-2.736,4.944c-0.608,1.889-0.912,3.953-0.912,6.192v28.032h-8.16
			V117.089z"/>
		<path d="M540.155,185.441c-1.474,0.896-3.425,1.344-5.856,1.344c-2.112,0-3.792-0.609-5.04-1.824
			c-1.248-1.215-1.872-3.168-1.872-5.856c-2.241,2.688-4.848,4.641-7.824,5.856c-2.976,1.215-6.191,1.824-9.647,1.824
			c-2.241,0-4.368-0.256-6.384-0.768c-2.017-0.511-3.761-1.327-5.232-2.448c-1.473-1.119-2.64-2.559-3.504-4.32
			c-0.864-1.76-1.296-3.888-1.296-6.384c0-2.815,0.479-5.12,1.44-6.912c0.96-1.791,2.223-3.231,3.792-4.32
			c1.567-1.087,3.359-1.935,5.376-2.544c2.016-0.607,4.079-1.104,6.191-1.488c2.239-0.447,4.368-0.783,6.384-1.008
			c2.017-0.224,3.792-0.543,5.328-0.96c1.536-0.416,2.751-1.023,3.648-1.824c0.896-0.799,1.344-1.968,1.344-3.504
			c0-1.791-0.336-3.231-1.008-4.32c-0.672-1.087-1.536-1.92-2.592-2.496c-1.057-0.576-2.241-0.96-3.553-1.152
			c-1.313-0.192-2.608-0.288-3.888-0.288c-3.456,0-6.336,0.657-8.64,1.968c-2.305,1.313-3.553,3.792-3.744,7.44h-8.16
			c0.128-3.072,0.768-5.664,1.92-7.776c1.152-2.112,2.688-3.823,4.608-5.136c1.92-1.311,4.128-2.256,6.624-2.832
			c2.496-0.576,5.119-0.864,7.872-0.864c2.239,0,4.464,0.161,6.672,0.48c2.208,0.321,4.207,0.977,6,1.968
			c1.791,0.993,3.23,2.385,4.319,4.176c1.088,1.792,1.633,4.128,1.633,7.008v25.536c0,1.92,0.11,3.329,0.336,4.224
			c0.224,0.897,0.975,1.344,2.256,1.344c0.768,0,1.599-0.159,2.496-0.48V185.441z M526.907,160.001
			c-0.769,0.576-1.729,1.024-2.88,1.344c-1.152,0.321-2.369,0.593-3.648,0.816c-1.281,0.225-2.64,0.417-4.08,0.576
			c-1.439,0.161-2.832,0.369-4.176,0.624c-1.344,0.256-2.625,0.576-3.84,0.96c-1.217,0.384-2.272,0.912-3.168,1.584
			c-0.897,0.672-1.617,1.521-2.16,2.544c-0.545,1.024-0.816,2.304-0.816,3.84c0,1.344,0.271,2.481,0.816,3.408
			c0.543,0.929,1.248,1.68,2.112,2.256c0.863,0.576,1.872,0.993,3.023,1.248c1.152,0.257,2.367,0.384,3.648,0.384
			c2.688,0,4.992-0.368,6.912-1.104c1.92-0.735,3.487-1.664,4.703-2.784c1.216-1.119,2.112-2.335,2.688-3.648
			c0.576-1.311,0.864-2.544,0.864-3.696V160.001z"/>
		<path d="M547.737,136.001h7.681v7.872h0.191c1.729-3.072,3.951-5.343,6.673-6.816c2.719-1.471,5.87-2.208,9.455-2.208
			c3.265,0,5.984,0.449,8.16,1.344c2.175,0.897,3.937,2.145,5.28,3.744c1.344,1.6,2.287,3.504,2.832,5.712
			c0.543,2.208,0.816,4.656,0.816,7.344v32.64h-8.16v-33.6c0-3.072-0.897-5.503-2.688-7.296c-1.792-1.791-4.257-2.688-7.392-2.688
			c-2.496,0-4.656,0.384-6.48,1.152c-1.823,0.768-3.345,1.857-4.56,3.264c-1.217,1.409-2.129,3.057-2.736,4.944
			c-0.608,1.889-0.912,3.953-0.912,6.192v28.032h-8.16V136.001z"/>
		<path d="M612.441,136.001h9.889v7.2h-9.889v30.816c0,0.96,0.08,1.728,0.24,2.304c0.159,0.576,0.464,1.024,0.912,1.344
			c0.447,0.321,1.071,0.528,1.872,0.624c0.8,0.096,1.839,0.144,3.12,0.144h3.744v7.2h-6.24c-2.112,0-3.921-0.144-5.424-0.432
			c-1.505-0.288-2.722-0.816-3.648-1.584c-0.929-0.768-1.617-1.855-2.063-3.264c-0.449-1.407-0.673-3.264-0.673-5.568v-31.584
			h-8.447v-7.2h8.447v-14.88h8.16V136.001z"/>
		<path d="M672.44,185.633h-7.681v-7.872h-0.191c-1.729,3.072-3.953,5.345-6.672,6.816c-2.722,1.472-5.873,2.208-9.456,2.208
			c-3.265,0-5.985-0.448-8.16-1.344c-2.177-0.896-3.937-2.144-5.28-3.744c-1.344-1.599-2.289-3.504-2.832-5.712
			c-0.545-2.208-0.816-4.656-0.816-7.344v-32.64h8.16v33.6c0,3.072,0.896,5.505,2.688,7.296c1.791,1.792,4.255,2.688,7.392,2.688
			c2.496,0,4.656-0.384,6.48-1.152c1.824-0.768,3.343-1.855,4.56-3.264c1.215-1.407,2.127-3.056,2.736-4.944
			c0.607-1.887,0.912-3.951,0.912-6.192v-28.032h8.16V185.633z"/>
		<path d="M684.729,136.001h7.681v7.872h0.191c1.729-3.072,3.951-5.343,6.673-6.816c2.719-1.471,5.87-2.208,9.455-2.208
			c3.265,0,5.984,0.449,8.16,1.344c2.175,0.897,3.937,2.145,5.28,3.744c1.344,1.6,2.287,3.504,2.832,5.712
			c0.543,2.208,0.816,4.656,0.816,7.344v32.64h-8.16v-33.6c0-3.072-0.897-5.503-2.688-7.296c-1.792-1.791-4.257-2.688-7.392-2.688
			c-2.496,0-4.656,0.384-6.48,1.152c-1.823,0.768-3.345,1.857-4.56,3.264c-1.217,1.409-2.129,3.057-2.736,4.944
			c-0.608,1.889-0.912,3.953-0.912,6.192v28.032h-8.16V136.001z"/>
		<path d="M817.4,177.089c-1.344,1.792-2.865,3.329-4.56,4.608c-1.697,1.281-3.504,2.337-5.425,3.168
			c-1.92,0.831-3.904,1.44-5.951,1.824c-2.05,0.384-4.065,0.576-6.049,0.576c-5.12,0-9.695-0.96-13.728-2.88
			s-7.456-4.479-10.272-7.68c-2.816-3.199-4.96-6.879-6.432-11.04c-1.473-4.16-2.208-8.479-2.208-12.96
			c0-4.992,0.688-9.744,2.064-14.256c1.375-4.512,3.423-8.463,6.144-11.856c2.72-3.392,6.111-6.096,10.176-8.112
			c4.063-2.016,8.815-3.024,14.256-3.024c3.711,0,7.216,0.432,10.513,1.296c3.295,0.864,6.239,2.225,8.832,4.08
			c2.592,1.857,4.767,4.209,6.527,7.056c1.76,2.849,2.96,6.288,3.601,10.32h-9.12c-0.448-2.559-1.281-4.8-2.496-6.72
			c-1.217-1.92-2.721-3.487-4.512-4.704c-1.793-1.215-3.825-2.127-6.097-2.736c-2.272-0.607-4.688-0.912-7.248-0.912
			c-4.16,0-7.728,0.833-10.703,2.496c-2.977,1.665-5.409,3.856-7.297,6.576c-1.888,2.721-3.28,5.824-4.176,9.312
			c-0.896,3.489-1.344,7.056-1.344,10.704c0,3.585,0.512,7.025,1.536,10.32c1.022,3.297,2.527,6.208,4.512,8.736
			c1.983,2.529,4.431,4.545,7.344,6.048c2.912,1.505,6.288,2.256,10.128,2.256c3.52,0,6.673-0.576,9.456-1.728
			c2.784-1.152,5.137-2.736,7.057-4.752c1.92-2.016,3.343-4.383,4.271-7.104c0.927-2.72,1.328-5.647,1.2-8.784h-21.888v-7.68h30.048
			v36.096h-5.76L817.4,177.089z"/>
		<path d="M837.367,136.001h7.68v10.464h0.191c1.983-4.032,4.416-7.008,7.297-8.928c2.88-1.92,6.527-2.815,10.943-2.688v8.64
			c-3.264,0-6.048,0.449-8.352,1.344c-2.305,0.897-4.161,2.208-5.568,3.936c-1.408,1.728-2.433,3.84-3.072,6.336
			c-0.64,2.496-0.96,5.313-0.96,8.448v22.08h-8.159V136.001z"/>
		<path d="M878.263,127.073h-8.16v-9.984h8.16V127.073z M870.103,136.001h8.16v49.632h-8.16V136.001z"/>
		<path d="M895.925,169.985c0.063,1.857,0.48,3.393,1.248,4.608c0.769,1.216,1.776,2.193,3.024,2.928
			c1.248,0.736,2.655,1.264,4.224,1.584c1.567,0.321,3.184,0.48,4.849,0.48c1.279,0,2.623-0.096,4.031-0.288
			c1.407-0.192,2.703-0.543,3.889-1.056c1.184-0.511,2.159-1.263,2.928-2.256c0.768-0.992,1.152-2.256,1.152-3.792
			c0-1.599-0.466-2.895-1.393-3.888c-0.929-0.991-2.145-1.808-3.647-2.448c-1.505-0.639-3.233-1.167-5.185-1.584
			c-1.953-0.416-3.952-0.848-6-1.296c-2.049-0.447-4.032-0.992-5.952-1.632c-1.92-0.639-3.647-1.471-5.184-2.496
			c-1.536-1.023-2.77-2.335-3.696-3.936c-0.929-1.599-1.392-3.583-1.392-5.952c0-2.496,0.56-4.64,1.68-6.432
			c1.119-1.791,2.56-3.248,4.32-4.368c1.759-1.119,3.744-1.951,5.952-2.496c2.208-0.543,4.399-0.816,6.575-0.816
			c2.751,0,5.328,0.24,7.729,0.72s4.512,1.313,6.336,2.496c1.824,1.185,3.279,2.784,4.368,4.8c1.087,2.016,1.728,4.529,1.92,7.536
			h-8.16c-0.129-1.599-0.561-2.928-1.296-3.984c-0.736-1.056-1.632-1.904-2.688-2.544c-1.056-0.639-2.24-1.104-3.552-1.392
			c-1.313-0.288-2.64-0.432-3.983-0.432c-1.217,0-2.448,0.096-3.696,0.288s-2.385,0.528-3.408,1.008
			c-1.024,0.48-1.856,1.137-2.496,1.968c-0.641,0.833-0.96,1.857-0.96,3.072c0,1.473,0.495,2.657,1.488,3.552
			c0.991,0.897,2.256,1.648,3.792,2.256c1.536,0.609,3.264,1.121,5.184,1.536c1.92,0.417,3.84,0.849,5.761,1.296
			c2.047,0.448,4.047,0.993,6,1.632c1.951,0.641,3.679,1.488,5.184,2.544c1.503,1.056,2.72,2.385,3.647,3.984
			c0.928,1.601,1.393,3.585,1.393,5.952c0,2.945-0.624,5.424-1.872,7.44c-1.248,2.016-2.88,3.633-4.896,4.848
			c-2.016,1.216-4.288,2.081-6.815,2.592c-2.529,0.512-5.04,0.768-7.536,0.768c-2.817,0-5.457-0.304-7.92-0.912
			c-2.465-0.608-4.656-1.568-6.576-2.88c-1.92-1.311-3.456-3.039-4.607-5.184c-1.152-2.143-1.793-4.752-1.921-7.824H895.925z"/>
		<path d="M972.629,151.937c-0.641-3.135-2.001-5.568-4.08-7.296c-2.08-1.728-4.816-2.592-8.208-2.592
			c-2.944,0-5.409,0.544-7.392,1.632c-1.984,1.089-3.568,2.529-4.752,4.32c-1.186,1.792-2.032,3.856-2.544,6.192
			c-0.514,2.337-0.769,4.752-0.769,7.248c0,2.304,0.271,4.545,0.816,6.72c0.543,2.177,1.392,4.113,2.544,5.808
			c1.152,1.697,2.64,3.057,4.464,4.08c1.824,1.024,4.047,1.536,6.672,1.536c3.968,0,7.104-1.071,9.408-3.216
			c2.304-2.144,3.711-5.103,4.224-8.88h8.353c-0.897,6.081-3.201,10.816-6.912,14.208c-3.713,3.393-8.704,5.088-14.976,5.088
			c-3.777,0-7.121-0.624-10.032-1.872c-2.913-1.248-5.345-2.991-7.296-5.232c-1.953-2.239-3.425-4.911-4.416-8.016
			c-0.993-3.104-1.488-6.512-1.488-10.224c0-3.711,0.479-7.184,1.44-10.416c0.96-3.231,2.414-6.048,4.367-8.448
			c1.952-2.4,4.384-4.287,7.296-5.664c2.912-1.375,6.352-2.064,10.32-2.064c2.815,0,5.456,0.336,7.92,1.008
			c2.463,0.672,4.656,1.713,6.576,3.12c1.92,1.408,3.471,3.184,4.656,5.328c1.184,2.145,1.935,4.689,2.256,7.632H972.629z"/>
		<path d="M990.483,117.089h8.16v26.208h0.192c0.639-1.472,1.551-2.751,2.736-3.84c1.183-1.088,2.479-1.968,3.888-2.64
			c1.407-0.672,2.895-1.167,4.464-1.488c1.567-0.319,3.087-0.48,4.56-0.48c3.265,0,5.984,0.449,8.16,1.344
			c2.175,0.897,3.937,2.145,5.28,3.744c1.344,1.6,2.287,3.504,2.832,5.712c0.543,2.208,0.816,4.656,0.816,7.344v32.64h-8.16v-33.6
			c0-3.072-0.897-5.503-2.688-7.296c-1.792-1.791-4.257-2.688-7.392-2.688c-2.496,0-4.656,0.384-6.48,1.152
			c-1.823,0.768-3.345,1.857-4.56,3.264c-1.217,1.409-2.129,3.057-2.736,4.944c-0.608,1.889-0.912,3.953-0.912,6.192v28.032h-8.16
			V117.089z"/>
		<path d="M1084.948,185.633h-7.681v-7.872h-0.191c-1.729,3.072-3.953,5.345-6.672,6.816c-2.722,1.472-5.873,2.208-9.456,2.208
			c-3.265,0-5.985-0.448-8.16-1.344c-2.177-0.896-3.937-2.144-5.28-3.744c-1.344-1.599-2.289-3.504-2.832-5.712
			c-0.545-2.208-0.816-4.656-0.816-7.344v-32.64h8.16v33.6c0,3.072,0.896,5.505,2.688,7.296c1.791,1.792,4.255,2.688,7.392,2.688
			c2.496,0,4.656-0.384,6.48-1.152c1.824-0.768,3.343-1.855,4.56-3.264c1.215-1.407,2.127-3.056,2.736-4.944
			c0.607-1.887,0.912-3.951,0.912-6.192v-28.032h8.16V185.633z"/>
		<path d="M1097.235,136.001h7.681v7.872h0.191c1.729-3.072,3.951-5.343,6.673-6.816c2.719-1.471,5.87-2.208,9.455-2.208
			c3.265,0,5.984,0.449,8.16,1.344c2.175,0.897,3.937,2.145,5.28,3.744c1.344,1.6,2.287,3.504,2.832,5.712
			c0.543,2.208,0.816,4.656,0.816,7.344v32.64h-8.16v-33.6c0-3.072-0.897-5.503-2.688-7.296c-1.792-1.791-4.257-2.688-7.392-2.688
			c-2.496,0-4.656,0.384-6.48,1.152c-1.823,0.768-3.345,1.857-4.56,3.264c-1.217,1.409-2.129,3.057-2.736,4.944
			c-0.608,1.889-0.912,3.953-0.912,6.192v28.032h-8.16V136.001z"/>
		<path d="M423.036,252.929c-0.513-2.432-1.344-4.56-2.496-6.384c-1.151-1.824-2.576-3.343-4.271-4.56
			c-1.696-1.215-3.601-2.127-5.712-2.736c-2.112-0.607-4.354-0.912-6.72-0.912c-4.097,0-7.601,0.768-10.513,2.304
			c-2.913,1.536-5.313,3.6-7.2,6.192s-3.28,5.553-4.176,8.88c-0.896,3.329-1.344,6.785-1.344,10.368
			c0,3.904,0.447,7.601,1.344,11.088c0.896,3.489,2.288,6.528,4.176,9.12c1.888,2.592,4.304,4.656,7.248,6.192
			c2.943,1.536,6.464,2.304,10.561,2.304c3.008,0,5.679-0.495,8.016-1.488c2.336-0.991,4.352-2.367,6.048-4.128
			c1.695-1.759,3.024-3.855,3.984-6.288c0.96-2.431,1.536-5.055,1.728-7.872h9.12c-0.896,8.577-3.888,15.297-8.976,20.16
			c-5.088,4.865-11.985,7.296-20.688,7.296c-5.313,0-9.952-0.928-13.92-2.784c-3.969-1.855-7.265-4.383-9.888-7.584
			c-2.625-3.2-4.593-6.975-5.904-11.328c-1.313-4.352-1.968-9.024-1.968-14.016c0-4.992,0.703-9.679,2.112-14.064
			c1.407-4.383,3.471-8.208,6.191-11.472c2.72-3.264,6.097-5.839,10.128-7.728c4.032-1.887,8.703-2.832,14.017-2.832
			c3.583,0,6.975,0.48,10.176,1.44c3.199,0.96,6.048,2.368,8.544,4.224c2.496,1.857,4.575,4.176,6.24,6.96
			c1.663,2.784,2.751,6,3.264,9.648H423.036z"/>
		<path d="M486.779,300.641c-1.474,0.896-3.425,1.344-5.856,1.344c-2.112,0-3.792-0.609-5.04-1.824
			c-1.248-1.215-1.872-3.168-1.872-5.856c-2.241,2.688-4.848,4.641-7.824,5.856c-2.976,1.215-6.191,1.824-9.647,1.824
			c-2.241,0-4.368-0.256-6.384-0.768c-2.017-0.511-3.761-1.327-5.232-2.448c-1.473-1.119-2.64-2.559-3.504-4.32
			c-0.864-1.76-1.296-3.888-1.296-6.384c0-2.815,0.479-5.12,1.44-6.912c0.96-1.791,2.223-3.231,3.792-4.32
			c1.567-1.087,3.359-1.935,5.376-2.544c2.016-0.607,4.079-1.104,6.191-1.488c2.239-0.447,4.368-0.783,6.384-1.008
			c2.017-0.224,3.792-0.543,5.328-0.96c1.536-0.416,2.751-1.023,3.648-1.824c0.896-0.799,1.344-1.968,1.344-3.504
			c0-1.791-0.336-3.231-1.008-4.32c-0.672-1.087-1.536-1.92-2.592-2.496c-1.057-0.576-2.241-0.96-3.553-1.152
			c-1.313-0.192-2.608-0.288-3.888-0.288c-3.456,0-6.336,0.657-8.64,1.968c-2.305,1.313-3.553,3.792-3.744,7.44h-8.16
			c0.128-3.072,0.768-5.664,1.92-7.776c1.152-2.112,2.688-3.823,4.608-5.136c1.92-1.311,4.128-2.256,6.624-2.832
			c2.496-0.576,5.119-0.864,7.872-0.864c2.239,0,4.464,0.161,6.672,0.48c2.208,0.321,4.207,0.977,6,1.968
			c1.791,0.993,3.23,2.385,4.319,4.176c1.088,1.792,1.633,4.128,1.633,7.008v25.536c0,1.92,0.11,3.329,0.336,4.224
			c0.224,0.897,0.975,1.344,2.256,1.344c0.768,0,1.599-0.159,2.496-0.48V300.641z M473.531,275.201
			c-0.769,0.576-1.729,1.024-2.88,1.344c-1.152,0.321-2.369,0.593-3.648,0.816c-1.281,0.225-2.64,0.417-4.08,0.576
			c-1.439,0.161-2.832,0.369-4.176,0.624c-1.344,0.256-2.625,0.576-3.84,0.96c-1.217,0.384-2.272,0.912-3.168,1.584
			c-0.897,0.672-1.617,1.521-2.16,2.544c-0.545,1.024-0.816,2.304-0.816,3.84c0,1.344,0.271,2.481,0.816,3.408
			c0.543,0.929,1.248,1.68,2.112,2.256c0.863,0.576,1.872,0.993,3.023,1.248c1.152,0.257,2.367,0.384,3.648,0.384
			c2.688,0,4.992-0.368,6.912-1.104c1.92-0.735,3.487-1.664,4.703-2.784c1.216-1.119,2.112-2.335,2.688-3.648
			c0.576-1.311,0.864-2.544,0.864-3.696V275.201z"/>
		<path d="M494.361,251.201h7.681v7.872h0.191c1.729-3.072,3.951-5.343,6.673-6.816c2.719-1.471,5.87-2.208,9.455-2.208
			c3.265,0,5.984,0.449,8.16,1.344c2.175,0.897,3.937,2.145,5.28,3.744c1.344,1.6,2.287,3.504,2.832,5.712
			c0.543,2.208,0.816,4.656,0.816,7.344v32.64h-8.16v-33.6c0-3.072-0.897-5.503-2.688-7.296c-1.792-1.791-4.257-2.688-7.392-2.688
			c-2.496,0-4.656,0.384-6.48,1.152c-1.823,0.768-3.345,1.857-4.56,3.264c-1.217,1.409-2.129,3.057-2.736,4.944
			c-0.608,1.889-0.912,3.953-0.912,6.192v28.032h-8.16V251.201z"/>
		<path d="M559.065,251.201h9.889v7.2h-9.889v30.816c0,0.96,0.08,1.728,0.24,2.304c0.159,0.576,0.464,1.024,0.912,1.344
			c0.447,0.321,1.071,0.528,1.872,0.624c0.8,0.096,1.839,0.144,3.12,0.144h3.744v7.2h-6.24c-2.112,0-3.921-0.144-5.424-0.432
			c-1.505-0.288-2.722-0.816-3.648-1.584c-0.929-0.768-1.617-1.855-2.063-3.264c-0.449-1.407-0.673-3.264-0.673-5.568V258.4h-8.447
			v-7.2h8.447v-14.88h8.16V251.201z"/>
		<path d="M575.289,276.064c0-3.648,0.512-7.056,1.536-10.224c1.022-3.168,2.559-5.919,4.607-8.256
			c2.048-2.335,4.561-4.176,7.536-5.52c2.977-1.344,6.447-2.016,10.416-2.016c3.903,0,7.359,0.672,10.368,2.016
			c3.008,1.344,5.535,3.185,7.584,5.52c2.048,2.337,3.584,5.088,4.608,8.256c1.022,3.168,1.536,6.576,1.536,10.224
			s-0.514,7.041-1.536,10.176c-1.024,3.136-2.561,5.872-4.608,8.208c-2.049,2.337-4.576,4.176-7.584,5.52
			c-3.009,1.344-6.465,2.016-10.368,2.016c-3.969,0-7.439-0.672-10.416-2.016c-2.976-1.344-5.488-3.183-7.536-5.52
			c-2.049-2.336-3.585-5.072-4.607-8.208C575.801,283.105,575.289,279.712,575.289,276.064z M583.929,276.064
			c0,3.009,0.399,5.681,1.2,8.016c0.8,2.337,1.903,4.289,3.313,5.856c1.406,1.569,3.055,2.769,4.943,3.6
			c1.888,0.833,3.889,1.248,6,1.248c2.112,0,4.111-0.416,6-1.248c1.888-0.831,3.536-2.031,4.944-3.6
			c1.407-1.567,2.511-3.519,3.312-5.856c0.8-2.335,1.2-5.007,1.2-8.016c0-3.007-0.4-5.679-1.2-8.016
			c-0.801-2.335-1.904-4.303-3.312-5.904c-1.408-1.599-3.057-2.815-4.944-3.648c-1.889-0.831-3.888-1.248-6-1.248
			c-2.111,0-4.112,0.417-6,1.248c-1.889,0.833-3.537,2.049-4.943,3.648c-1.409,1.601-2.513,3.568-3.313,5.904
			C584.328,270.386,583.929,273.057,583.929,276.064z"/>
		<path d="M633.079,251.201h7.681v7.872h0.191c1.729-3.072,3.951-5.343,6.673-6.816c2.719-1.471,5.87-2.208,9.455-2.208
			c3.265,0,5.984,0.449,8.16,1.344c2.175,0.897,3.937,2.145,5.28,3.744c1.344,1.6,2.287,3.504,2.832,5.712
			c0.543,2.208,0.816,4.656,0.816,7.344v32.64h-8.16v-33.6c0-3.072-0.897-5.503-2.688-7.296c-1.792-1.791-4.257-2.688-7.392-2.688
			c-2.496,0-4.656,0.384-6.48,1.152c-1.823,0.768-3.345,1.857-4.56,3.264c-1.217,1.409-2.129,3.057-2.736,4.944
			c-0.608,1.889-0.912,3.953-0.912,6.192v28.032h-8.16V251.201z"/>
		<path d="M728.792,285.088c-1.09,5.505-3.489,9.696-7.2,12.576c-3.713,2.88-8.386,4.32-14.017,4.32
			c-3.969,0-7.408-0.657-10.319-1.968c-2.913-1.311-5.361-3.12-7.345-5.424c-1.984-2.304-3.472-5.055-4.464-8.256
			c-0.993-3.199-1.552-6.687-1.68-10.464c0-3.711,0.576-7.152,1.728-10.32c1.152-3.168,2.768-5.904,4.849-8.208
			c2.079-2.304,4.543-4.095,7.392-5.376c2.848-1.28,5.967-1.92,9.36-1.92c4.416,0,8.079,0.912,10.992,2.736
			c2.911,1.824,5.247,4.145,7.008,6.96c1.76,2.817,2.976,5.889,3.647,9.216c0.672,3.329,0.944,6.497,0.816,9.504h-37.152
			c-0.064,2.177,0.192,4.241,0.769,6.192c0.576,1.953,1.503,3.681,2.784,5.184c1.279,1.505,2.911,2.705,4.896,3.6
			c1.983,0.897,4.32,1.344,7.008,1.344c3.392,0,6.207-0.8,8.448-2.4c2.239-1.599,3.711-4.032,4.416-7.296H728.792z M720.92,271.265
			c-0.13-1.92-0.562-3.744-1.297-5.472c-0.736-1.728-1.728-3.216-2.976-4.464s-2.736-2.24-4.464-2.976
			c-1.729-0.735-3.585-1.104-5.568-1.104c-2.111,0-4.017,0.369-5.712,1.104c-1.696,0.736-3.152,1.745-4.368,3.024
			c-1.216,1.281-2.176,2.769-2.88,4.464c-0.705,1.697-1.12,3.504-1.248,5.424H720.92z"/>
		<path d="M809.046,300.833h-8.16v-6.72h-0.192c-1.344,2.753-3.455,4.752-6.336,6c-2.88,1.248-6.048,1.872-9.504,1.872
			c-3.84,0-7.185-0.705-10.031-2.112c-2.849-1.407-5.218-3.312-7.104-5.712c-1.889-2.4-3.312-5.167-4.271-8.304
			c-0.961-3.135-1.44-6.463-1.44-9.984c0-3.519,0.464-6.831,1.392-9.936c0.928-3.104,2.336-5.839,4.225-8.208
			c1.887-2.367,4.255-4.239,7.104-5.616c2.848-1.375,6.159-2.064,9.937-2.064c1.279,0,2.654,0.129,4.128,0.384
			c1.472,0.256,2.942,0.688,4.416,1.296c1.472,0.609,2.863,1.409,4.176,2.4c1.311,0.993,2.415,2.225,3.312,3.696h0.192v-25.536h8.16
			V300.833z M770.646,276.449c0,2.304,0.304,4.56,0.912,6.768c0.607,2.208,1.536,4.176,2.784,5.904s2.847,3.105,4.8,4.128
			c1.952,1.024,4.239,1.536,6.864,1.536c2.751,0,5.088-0.543,7.008-1.632c1.92-1.087,3.487-2.511,4.704-4.272
			c1.215-1.759,2.096-3.759,2.64-6c0.543-2.239,0.816-4.512,0.816-6.816c0-2.432-0.288-4.783-0.864-7.056
			c-0.576-2.271-1.487-4.272-2.735-6c-1.248-1.728-2.865-3.12-4.849-4.176c-1.984-1.056-4.385-1.584-7.2-1.584
			c-2.816,0-5.169,0.544-7.056,1.632c-1.889,1.089-3.408,2.529-4.56,4.32c-1.152,1.792-1.984,3.84-2.496,6.144
			C770.9,271.648,770.646,274.017,770.646,276.449z"/>
		<path d="M863.958,285.088c-1.09,5.505-3.489,9.696-7.2,12.576c-3.713,2.88-8.386,4.32-14.017,4.32
			c-3.969,0-7.408-0.657-10.319-1.968c-2.913-1.311-5.361-3.12-7.345-5.424c-1.984-2.304-3.472-5.055-4.464-8.256
			c-0.993-3.199-1.552-6.687-1.68-10.464c0-3.711,0.576-7.152,1.728-10.32c1.152-3.168,2.768-5.904,4.849-8.208
			c2.079-2.304,4.543-4.095,7.392-5.376c2.848-1.28,5.967-1.92,9.36-1.92c4.416,0,8.079,0.912,10.992,2.736
			c2.911,1.824,5.247,4.145,7.008,6.96c1.76,2.817,2.976,5.889,3.647,9.216c0.672,3.329,0.944,6.497,0.816,9.504h-37.152
			c-0.064,2.177,0.192,4.241,0.769,6.192c0.576,1.953,1.503,3.681,2.784,5.184c1.279,1.505,2.911,2.705,4.896,3.6
			c1.983,0.897,4.32,1.344,7.008,1.344c3.392,0,6.207-0.8,8.448-2.4c2.239-1.599,3.711-4.032,4.416-7.296H863.958z M856.086,271.265
			c-0.13-1.92-0.562-3.744-1.297-5.472c-0.736-1.728-1.728-3.216-2.976-4.464s-2.736-2.24-4.464-2.976
			c-1.729-0.735-3.585-1.104-5.568-1.104c-2.111,0-4.017,0.369-5.712,1.104c-1.696,0.736-3.152,1.745-4.368,3.024
			c-1.216,1.281-2.176,2.769-2.88,4.464c-0.705,1.697-1.12,3.504-1.248,5.424H856.086z"/>
		<path d="M881.813,242.272h-8.16v-9.984h8.16V242.272z M873.652,251.201h8.16v49.632h-8.16V251.201z"/>
		<path d="M973.778,292.289c-1.344,1.792-2.865,3.329-4.56,4.608c-1.697,1.281-3.504,2.337-5.425,3.168
			c-1.92,0.831-3.904,1.44-5.951,1.824c-2.05,0.383-4.065,0.576-6.049,0.576c-5.12,0-9.695-0.96-13.728-2.88
			s-7.456-4.479-10.272-7.68c-2.816-3.199-4.96-6.879-6.432-11.04c-1.473-4.16-2.208-8.479-2.208-12.96
			c0-4.992,0.688-9.744,2.064-14.256c1.375-4.512,3.423-8.463,6.144-11.856c2.72-3.392,6.111-6.096,10.176-8.112
			c4.063-2.016,8.815-3.024,14.256-3.024c3.711,0,7.216,0.432,10.513,1.296c3.295,0.864,6.239,2.225,8.832,4.08
			c2.592,1.857,4.767,4.209,6.527,7.056c1.76,2.849,2.96,6.288,3.601,10.32h-9.12c-0.448-2.559-1.281-4.8-2.496-6.72
			c-1.217-1.92-2.721-3.487-4.512-4.704c-1.793-1.215-3.825-2.127-6.097-2.736c-2.272-0.607-4.688-0.912-7.248-0.912
			c-4.16,0-7.728,0.833-10.703,2.496c-2.977,1.665-5.409,3.856-7.297,6.576c-1.888,2.721-3.28,5.824-4.176,9.312
			c-0.896,3.489-1.344,7.056-1.344,10.704c0,3.585,0.512,7.025,1.536,10.32c1.022,3.297,2.527,6.208,4.512,8.736
			c1.983,2.529,4.431,4.545,7.344,6.048c2.912,1.505,6.288,2.256,10.128,2.256c3.52,0,6.673-0.576,9.456-1.728
			c2.784-1.152,5.137-2.736,7.057-4.752c1.92-2.016,3.343-4.383,4.271-7.104c0.927-2.72,1.328-5.647,1.2-8.784h-21.888v-7.68h30.048
			v36.096h-5.76L973.778,292.289z"/>
		<path d="M993.746,251.201h7.68v10.464h0.191c1.983-4.032,4.416-7.008,7.297-8.928c2.88-1.92,6.527-2.815,10.943-2.688v8.64
			c-3.264,0-6.048,0.449-8.352,1.344c-2.305,0.897-4.161,2.208-5.568,3.936c-1.408,1.728-2.433,3.84-3.072,6.336
			c-0.64,2.496-0.96,5.313-0.96,8.448v22.08h-8.159V251.201z"/>
		<path d="M1034.641,242.272h-8.16v-9.984h8.16V242.272z M1026.48,251.201h8.16v49.632h-8.16V251.201z"/>
		<path d="M1090.127,296.608c0,8.127-1.872,14.223-5.616,18.289c-3.744,4.063-9.552,6.096-17.424,6.096
			c-2.304,0-4.656-0.257-7.056-0.769c-2.4-0.513-4.577-1.344-6.528-2.495c-1.953-1.152-3.568-2.657-4.848-4.513
			c-1.281-1.856-1.984-4.128-2.112-6.815h8.16c0.063,1.471,0.528,2.719,1.392,3.743c0.864,1.023,1.92,1.856,3.168,2.496
			s2.607,1.104,4.08,1.393c1.472,0.288,2.88,0.432,4.225,0.432c2.688,0,4.959-0.465,6.815-1.392c1.855-0.929,3.392-2.208,4.608-3.84
			c1.215-1.633,2.096-3.601,2.64-5.904c0.543-2.304,0.816-4.863,0.816-7.68v-3.264h-0.192c-0.705,1.536-1.601,2.865-2.688,3.984
			c-1.09,1.121-2.321,2.049-3.696,2.784c-1.377,0.737-2.849,1.296-4.416,1.68c-1.569,0.384-3.12,0.576-4.656,0.576
			c-3.712,0-6.945-0.672-9.696-2.016c-2.752-1.344-5.056-3.168-6.911-5.472c-1.857-2.304-3.249-4.976-4.177-8.016
			c-0.928-3.039-1.392-6.255-1.392-9.648c0-2.943,0.384-5.952,1.152-9.024c0.768-3.072,2.047-5.887,3.84-8.448
			c1.791-2.559,4.159-4.656,7.104-6.288c2.943-1.632,6.56-2.448,10.849-2.448c3.135,0,6.015,0.688,8.64,2.064
			c2.623,1.377,4.671,3.441,6.144,6.192h0.097v-7.104h7.68V296.608z M1067.279,294.208c2.688,0,4.976-0.56,6.863-1.68
			c1.888-1.119,3.408-2.592,4.561-4.416c1.152-1.824,1.999-3.888,2.544-6.192c0.543-2.304,0.816-4.608,0.816-6.912
			c0-2.175-0.257-4.32-0.769-6.432c-0.513-2.112-1.329-4.016-2.448-5.712c-1.12-1.695-2.577-3.056-4.368-4.08
			c-1.792-1.023-3.969-1.536-6.527-1.536c-2.625,0-4.864,0.497-6.72,1.488c-1.857,0.993-3.377,2.321-4.561,3.984
			c-1.185,1.665-2.049,3.585-2.592,5.76c-0.545,2.177-0.816,4.449-0.816,6.816c0,2.241,0.224,4.48,0.672,6.72
			c0.447,2.241,1.216,4.272,2.305,6.096c1.087,1.824,2.527,3.297,4.319,4.416C1062.35,293.649,1064.591,294.208,1067.279,294.208z"
			/>
		<path d="M1111.055,242.272h-8.16v-9.984h8.16V242.272z M1102.895,251.201h8.16v49.632h-8.16V251.201z"/>
		<path d="M1121.037,276.064c0-3.648,0.512-7.056,1.536-10.224c1.022-3.168,2.559-5.919,4.607-8.256
			c2.048-2.335,4.561-4.176,7.536-5.52c2.977-1.344,6.447-2.016,10.416-2.016c3.903,0,7.359,0.672,10.368,2.016
			c3.008,1.344,5.535,3.185,7.584,5.52c2.048,2.337,3.584,5.088,4.608,8.256c1.022,3.168,1.536,6.576,1.536,10.224
			s-0.514,7.041-1.536,10.176c-1.024,3.136-2.561,5.872-4.608,8.208c-2.049,2.337-4.576,4.176-7.584,5.52
			c-3.009,1.344-6.465,2.016-10.368,2.016c-3.969,0-7.439-0.672-10.416-2.016c-2.976-1.344-5.488-3.183-7.536-5.52
			c-2.049-2.336-3.585-5.072-4.607-8.208C1121.549,283.105,1121.037,279.712,1121.037,276.064z M1129.677,276.064
			c0,3.009,0.399,5.681,1.2,8.016c0.8,2.337,1.903,4.289,3.313,5.856c1.406,1.569,3.055,2.769,4.943,3.6
			c1.888,0.833,3.889,1.248,6,1.248c2.112,0,4.111-0.416,6-1.248c1.888-0.831,3.536-2.031,4.944-3.6
			c1.407-1.567,2.511-3.519,3.312-5.856c0.8-2.335,1.2-5.007,1.2-8.016c0-3.007-0.4-5.679-1.2-8.016
			c-0.801-2.335-1.904-4.303-3.312-5.904c-1.408-1.599-3.057-2.815-4.944-3.648c-1.889-0.831-3.888-1.248-6-1.248
			c-2.111,0-4.112,0.417-6,1.248c-1.889,0.833-3.537,2.049-4.943,3.648c-1.409,1.601-2.513,3.568-3.313,5.904
			C1130.076,270.386,1129.677,273.057,1129.677,276.064z"/>
		<path d="M1178.827,251.201h7.681v7.872h0.191c1.729-3.072,3.951-5.343,6.673-6.816c2.719-1.471,5.87-2.208,9.455-2.208
			c3.265,0,5.984,0.449,8.16,1.344c2.175,0.897,3.937,2.145,5.28,3.744c1.344,1.6,2.287,3.504,2.832,5.712
			c0.543,2.208,0.816,4.656,0.816,7.344v32.64h-8.16v-33.6c0-3.072-0.897-5.503-2.688-7.296c-1.792-1.791-4.257-2.688-7.392-2.688
			c-2.496,0-4.656,0.384-6.48,1.152c-1.823,0.768-3.345,1.857-4.56,3.264c-1.217,1.409-2.129,3.057-2.736,4.944
			c-0.608,1.889-0.912,3.953-0.912,6.192v28.032h-8.16V251.201z"/>
		<path d="M1240.844,242.272h-8.16v-9.984h8.16V242.272z M1232.684,251.201h8.16v49.632h-8.16V251.201z"/>
	</g>-->
</g>
</svg>
